%TF.GenerationSoftware,KiCad,Pcbnew,8.0.5*%
%TF.CreationDate,2024-10-09T17:51:35-04:00*%
%TF.ProjectId,board,626f6172-642e-46b6-9963-61645f706362,1*%
%TF.SameCoordinates,Original*%
%TF.FileFunction,Legend,Bot*%
%TF.FilePolarity,Positive*%
%FSLAX46Y46*%
G04 Gerber Fmt 4.6, Leading zero omitted, Abs format (unit mm)*
G04 Created by KiCad (PCBNEW 8.0.5) date 2024-10-09 17:51:35*
%MOMM*%
%LPD*%
G01*
G04 APERTURE LIST*
%ADD10O,2.200000X2.200000*%
%ADD11R,2.200000X2.200000*%
%ADD12C,2.200000*%
G04 APERTURE END LIST*
%LPC*%
D10*
%TO.C,D24*%
X69690000Y-40500000D03*
D11*
X77310000Y-40500000D03*
%TD*%
%TO.C,D23*%
X149190000Y-52000000D03*
D10*
X156810000Y-52000000D03*
%TD*%
D11*
%TO.C,D22*%
X95810000Y-97000000D03*
D10*
X88190000Y-97000000D03*
%TD*%
D11*
%TO.C,D21*%
X202000000Y-45310000D03*
D10*
X202000000Y-37690000D03*
%TD*%
D11*
%TO.C,D20*%
X210310000Y-96500000D03*
D10*
X202690000Y-96500000D03*
%TD*%
D11*
%TO.C,D19*%
X107810000Y-52500000D03*
D10*
X100190000Y-52500000D03*
%TD*%
D11*
%TO.C,D18*%
X156310000Y-97000000D03*
D10*
X148690000Y-97000000D03*
%TD*%
D11*
%TO.C,D17*%
X204190000Y-51000000D03*
D10*
X211810000Y-51000000D03*
%TD*%
D11*
%TO.C,D16*%
X66190000Y-97000000D03*
D10*
X73810000Y-97000000D03*
%TD*%
%TO.C,D15*%
X97190000Y-102000000D03*
D11*
X104810000Y-102000000D03*
%TD*%
%TO.C,D14*%
X120310000Y-98500000D03*
D10*
X112690000Y-98500000D03*
%TD*%
%TO.C,D13*%
X135810000Y-60500000D03*
D11*
X128190000Y-60500000D03*
%TD*%
%TO.C,D12*%
X158190000Y-105500000D03*
D10*
X165810000Y-105500000D03*
%TD*%
D11*
%TO.C,D11*%
X126690000Y-87000000D03*
D10*
X134310000Y-87000000D03*
%TD*%
D11*
%TO.C,D10*%
X128000000Y-106000000D03*
D10*
X120380000Y-106000000D03*
%TD*%
D11*
%TO.C,D9*%
X76500000Y-52810000D03*
D10*
X76500000Y-45190000D03*
%TD*%
D11*
%TO.C,D8*%
X167190000Y-97500000D03*
D10*
X174810000Y-97500000D03*
%TD*%
D11*
%TO.C,D7*%
X169690000Y-52000000D03*
D10*
X177310000Y-52000000D03*
%TD*%
D11*
%TO.C,D6*%
X183000000Y-97000000D03*
D10*
X190620000Y-97000000D03*
%TD*%
D11*
%TO.C,D5*%
X64190000Y-53500000D03*
D10*
X71810000Y-53500000D03*
%TD*%
D11*
%TO.C,D4*%
X144310000Y-103000000D03*
D10*
X136690000Y-103000000D03*
%TD*%
D11*
%TO.C,D3*%
X222190000Y-95000000D03*
D10*
X229810000Y-95000000D03*
%TD*%
D11*
%TO.C,D2*%
X221437500Y-52000000D03*
D10*
X229057500Y-52000000D03*
%TD*%
D11*
%TO.C,D1*%
X57310000Y-63000000D03*
D10*
X49690000Y-63000000D03*
%TD*%
D12*
%TO.C,SWZ1*%
X231500000Y-80000000D03*
X226500000Y-80500000D03*
%TD*%
%TO.C,SW#2*%
X191500000Y-40000000D03*
X186500000Y-40500000D03*
%TD*%
%TO.C,SW\u002A1*%
X131500000Y-70000000D03*
X126500000Y-70500000D03*
%TD*%
%TO.C,SWT2*%
X211500000Y-60000000D03*
X206500000Y-60500000D03*
%TD*%
%TO.C,SWR2*%
X151500000Y-80000000D03*
X146500000Y-80500000D03*
%TD*%
%TO.C,SWP2*%
X171500000Y-60000000D03*
X166500000Y-60500000D03*
%TD*%
%TO.C,SWO1*%
X120500000Y-113000000D03*
X115500000Y-113500000D03*
%TD*%
%TO.C,SW#1*%
X91500000Y-40000000D03*
X86500000Y-40500000D03*
%TD*%
%TO.C,SWU1*%
X162500000Y-113000000D03*
X157500000Y-113500000D03*
%TD*%
%TO.C,SWB1*%
X171500000Y-80000000D03*
X166500000Y-80500000D03*
%TD*%
%TO.C,SWH1*%
X111500000Y-60000000D03*
X106500000Y-60500000D03*
%TD*%
%TO.C,SWT1*%
X71500000Y-60000000D03*
X66500000Y-60500000D03*
%TD*%
%TO.C,SWA1*%
X101000000Y-113000000D03*
X96000000Y-113500000D03*
%TD*%
%TO.C,SWL1*%
X191500000Y-60000000D03*
X186500000Y-60500000D03*
%TD*%
%TO.C,SWF1*%
X151500000Y-60000000D03*
X146500000Y-60500000D03*
%TD*%
%TO.C,SWG1*%
X191500000Y-80000000D03*
X186500000Y-80500000D03*
%TD*%
%TO.C,SWK1*%
X71500000Y-80000000D03*
X66500000Y-80500000D03*
%TD*%
%TO.C,SWD1*%
X231500000Y-60000000D03*
X226500000Y-60500000D03*
%TD*%
%TO.C,SWW1*%
X91500000Y-80000000D03*
X86500000Y-80500000D03*
%TD*%
%TO.C,SWR1*%
X111500000Y-80000000D03*
X106500000Y-80500000D03*
%TD*%
%TO.C,SWP1*%
X91500000Y-60000000D03*
X86500000Y-60500000D03*
%TD*%
%TO.C,SWS1*%
X51500000Y-70500000D03*
X46500000Y-71000000D03*
%TD*%
%TO.C,SWE1*%
X142500000Y-113000000D03*
X137500000Y-113500000D03*
%TD*%
%TO.C,SWS2*%
X206500000Y-80500000D03*
X211500000Y-80000000D03*
%TD*%
%LPD*%
M02*
