M48
; DRILL file {KiCad 8.0.5} date 2024-10-13T16:07:37-0400
; FORMAT={-:-/ absolute / inch / decimal}
; #@! TF.CreationDate,2024-10-13T16:07:37-04:00
; #@! TF.GenerationSoftware,Kicad,Pcbnew,8.0.5
; #@! TF.FileFunction,NonPlated,1,2,NPTH
FMAT,2
INCH
; #@! TA.AperFunction,NonPlated,NPTH,ComponentDrill
T1C0.0748
; #@! TA.AperFunction,NonPlated,NPTH,ComponentDrill
T2C0.1260
; #@! TA.AperFunction,NonPlated,NPTH,ComponentDrill
T3C0.1358
%
G90
G05
T1
X1.7717Y-2.874
X2.2047Y-2.874
X2.4803Y-2.5984
X2.4803Y-3.2874
X2.9134Y-2.5984
X2.9134Y-3.2874
X3.2087Y-1.8898
X3.2087Y-2.5984
X3.2087Y-3.2835
X3.6417Y-1.8898
X3.6417Y-2.5984
X3.6417Y-3.2835
X3.6417Y-4.6654
X3.937Y-2.5984
X3.937Y-3.2874
X4.0748Y-4.6654
X4.3701Y-2.5984
X4.3701Y-3.2874
X4.3701Y-4.6654
X4.6457Y-2.9331
X4.8031Y-4.6654
X5.0787Y-2.9331
X5.3543Y-2.5984
X5.3543Y-3.2874
X5.374Y-4.6654
X5.7874Y-2.5984
X5.7874Y-3.2874
X5.8071Y-4.6654
X6.0827Y-2.5984
X6.0827Y-3.2874
X6.1024Y-4.6654
X6.5157Y-2.5984
X6.5157Y-3.2874
X6.5354Y-4.6654
X6.811Y-1.9094
X6.811Y-2.5984
X6.811Y-3.2874
X7.2441Y-1.9094
X7.2441Y-2.5984
X7.2441Y-3.2874
X7.5394Y-2.5984
X7.5394Y-3.2874
X7.9724Y-2.5984
X7.9724Y-3.2874
X8.2677Y-2.5984
X8.2677Y-3.2874
X8.7008Y-2.5984
X8.7008Y-3.2874
T2
X1.6732Y-1.4961
X1.6732Y-3.622
X8.8189Y-1.4961
T3
X1.9882Y-2.874
X2.6969Y-2.5984
X2.6969Y-3.2874
X3.4252Y-1.8898
X3.4252Y-2.5984
X3.4252Y-3.2835
X3.8583Y-4.6654
X4.1535Y-2.5984
X4.1535Y-3.2874
X4.5866Y-4.6654
X4.8622Y-2.9331
X5.5709Y-2.5984
X5.5709Y-3.2874
X5.5906Y-4.6654
X6.2992Y-2.5984
X6.2992Y-3.2874
X6.3189Y-4.6654
X7.0276Y-1.9094
X7.0276Y-2.5984
X7.0276Y-3.2874
X7.7559Y-2.5984
X7.7559Y-3.2874
X8.4843Y-2.5984
X8.4843Y-3.2874
M30
