%TF.GenerationSoftware,KiCad,Pcbnew,8.0.5*%
%TF.CreationDate,2024-10-09T17:04:31-04:00*%
%TF.ProjectId,board,626f6172-642e-46b6-9963-61645f706362,1*%
%TF.SameCoordinates,Original*%
%TF.FileFunction,Soldermask,Top*%
%TF.FilePolarity,Negative*%
%FSLAX46Y46*%
G04 Gerber Fmt 4.6, Leading zero omitted, Abs format (unit mm)*
G04 Created by KiCad (PCBNEW 8.0.5) date 2024-10-09 17:04:31*
%MOMM*%
%LPD*%
G01*
G04 APERTURE LIST*
G04 Aperture macros list*
%AMRoundRect*
0 Rectangle with rounded corners*
0 $1 Rounding radius*
0 $2 $3 $4 $5 $6 $7 $8 $9 X,Y pos of 4 corners*
0 Add a 4 corners polygon primitive as box body*
4,1,4,$2,$3,$4,$5,$6,$7,$8,$9,$2,$3,0*
0 Add four circle primitives for the rounded corners*
1,1,$1+$1,$2,$3*
1,1,$1+$1,$4,$5*
1,1,$1+$1,$6,$7*
1,1,$1+$1,$8,$9*
0 Add four rect primitives between the rounded corners*
20,1,$1+$1,$2,$3,$4,$5,0*
20,1,$1+$1,$4,$5,$6,$7,0*
20,1,$1+$1,$6,$7,$8,$9,0*
20,1,$1+$1,$8,$9,$2,$3,0*%
G04 Aperture macros list end*
%ADD10C,2.200000*%
%ADD11RoundRect,0.243750X-0.243750X-0.456250X0.243750X-0.456250X0.243750X0.456250X-0.243750X0.456250X0*%
%ADD12RoundRect,0.243750X0.243750X0.456250X-0.243750X0.456250X-0.243750X-0.456250X0.243750X-0.456250X0*%
%ADD13R,3.000000X2.000000*%
%ADD14C,1.500000*%
%ADD15R,1.300000X2.300000*%
G04 APERTURE END LIST*
D10*
%TO.C,SWZ1*%
X231500000Y-80000000D03*
X226500000Y-80500000D03*
%TD*%
D11*
%TO.C,D17*%
X200625000Y-56000000D03*
X202500000Y-56000000D03*
%TD*%
D10*
%TO.C,SW#2*%
X191500000Y-40000000D03*
X186500000Y-40500000D03*
%TD*%
D11*
%TO.C,D5*%
X60625000Y-56000000D03*
X62500000Y-56000000D03*
%TD*%
D10*
%TO.C,SWE1*%
X142500000Y-113000000D03*
X137500000Y-113500000D03*
%TD*%
D12*
%TO.C,D20*%
X217500000Y-93000000D03*
X215625000Y-93000000D03*
%TD*%
D11*
%TO.C,D7*%
X180500000Y-56000000D03*
X182375000Y-56000000D03*
%TD*%
D10*
%TO.C,SW\u002A1*%
X131500000Y-70000000D03*
X126500000Y-70500000D03*
%TD*%
%TO.C,SWT2*%
X211500000Y-60000000D03*
X206500000Y-60500000D03*
%TD*%
%TO.C,SWR2*%
X151500000Y-80000000D03*
X146500000Y-80500000D03*
%TD*%
%TO.C,SWS2*%
X211500000Y-80000000D03*
X206500000Y-80500000D03*
%TD*%
D12*
%TO.C,D23*%
X162500000Y-56000000D03*
X160625000Y-56000000D03*
%TD*%
D10*
%TO.C,SWP2*%
X171500000Y-60000000D03*
X166500000Y-60500000D03*
%TD*%
%TO.C,SWO1*%
X120500000Y-113000000D03*
X115500000Y-113500000D03*
%TD*%
%TO.C,SW#1*%
X91500000Y-40000000D03*
X86500000Y-40500000D03*
%TD*%
%TO.C,SWS1*%
X51500000Y-70500000D03*
X46500000Y-71000000D03*
%TD*%
D12*
%TO.C,D18*%
X157500000Y-93000000D03*
X155625000Y-93000000D03*
%TD*%
D10*
%TO.C,SWU1*%
X162500000Y-113000000D03*
X157500000Y-113500000D03*
%TD*%
D12*
%TO.C,D6*%
X197375000Y-93000000D03*
X195500000Y-93000000D03*
%TD*%
D10*
%TO.C,SWB1*%
X171500000Y-80000000D03*
X166500000Y-80500000D03*
%TD*%
D11*
%TO.C,D9*%
X80500000Y-56000000D03*
X82375000Y-56000000D03*
%TD*%
D12*
%TO.C,D11*%
X137437500Y-66000000D03*
X135562500Y-66000000D03*
%TD*%
D13*
%TO.C,U1*%
X120500000Y-36230000D03*
X120500000Y-38770000D03*
X120500000Y-41310000D03*
X120500000Y-43850000D03*
X120500000Y-46390000D03*
X120500000Y-48930000D03*
X120500000Y-51470000D03*
X137500000Y-51470000D03*
X137500000Y-48930000D03*
X137500000Y-46390000D03*
X137500000Y-43850000D03*
X137500000Y-41310000D03*
X137500000Y-38770000D03*
X137500000Y-36230000D03*
D14*
X127730000Y-35460000D03*
X130270000Y-35460000D03*
X127730000Y-38000000D03*
X130270000Y-38000000D03*
D15*
X127730000Y-52450000D03*
X130270000Y-52450000D03*
%TD*%
D11*
%TO.C,D16*%
X75625000Y-93000000D03*
X77500000Y-93000000D03*
%TD*%
D10*
%TO.C,SWH1*%
X111500000Y-60000000D03*
X106500000Y-60500000D03*
%TD*%
%TO.C,SWT1*%
X71500000Y-60000000D03*
X66500000Y-60500000D03*
%TD*%
D11*
%TO.C,D12*%
X151625000Y-109000000D03*
X153500000Y-109000000D03*
%TD*%
%TO.C,D21*%
X181062500Y-36000000D03*
X182937500Y-36000000D03*
%TD*%
%TO.C,D2*%
X220500000Y-56000000D03*
X222375000Y-56000000D03*
%TD*%
D10*
%TO.C,SWA1*%
X101000000Y-113000000D03*
X96000000Y-113500000D03*
%TD*%
%TO.C,SWL1*%
X191500000Y-60000000D03*
X186500000Y-60500000D03*
%TD*%
D11*
%TO.C,D10*%
X124500000Y-109000000D03*
X126375000Y-109000000D03*
%TD*%
D10*
%TO.C,SWF1*%
X151500000Y-60000000D03*
X146500000Y-60500000D03*
%TD*%
D11*
%TO.C,D13*%
X140500000Y-56000000D03*
X142375000Y-56000000D03*
%TD*%
D12*
%TO.C,D19*%
X102375000Y-56000000D03*
X100500000Y-56000000D03*
%TD*%
D10*
%TO.C,SWG1*%
X191500000Y-80000000D03*
X186500000Y-80500000D03*
%TD*%
D12*
%TO.C,D24*%
X97437500Y-36000000D03*
X95562500Y-36000000D03*
%TD*%
D10*
%TO.C,SWK1*%
X71500000Y-80000000D03*
X66500000Y-80500000D03*
%TD*%
D11*
%TO.C,D1*%
X55625000Y-66500000D03*
X57500000Y-66500000D03*
%TD*%
D10*
%TO.C,SWD1*%
X231500000Y-60000000D03*
X226500000Y-60500000D03*
%TD*%
%TO.C,SWW1*%
X91500000Y-80000000D03*
X86500000Y-80500000D03*
%TD*%
D11*
%TO.C,D3*%
X235500000Y-93000000D03*
X237375000Y-93000000D03*
%TD*%
D12*
%TO.C,D15*%
X106875000Y-109000000D03*
X105000000Y-109000000D03*
%TD*%
%TO.C,D8*%
X177500000Y-93000000D03*
X175625000Y-93000000D03*
%TD*%
D10*
%TO.C,SWR1*%
X111500000Y-80000000D03*
X106500000Y-80500000D03*
%TD*%
%TO.C,SWP1*%
X91500000Y-60000000D03*
X86500000Y-60500000D03*
%TD*%
D11*
%TO.C,D4*%
X131625000Y-109000000D03*
X133500000Y-109000000D03*
%TD*%
D12*
%TO.C,D22*%
X97437500Y-93000000D03*
X95562500Y-93000000D03*
%TD*%
%TO.C,D14*%
X117437500Y-93000000D03*
X115562500Y-93000000D03*
%TD*%
M02*
