%TF.GenerationSoftware,KiCad,Pcbnew,8.0.5*%
%TF.CreationDate,2024-10-09T17:04:31-04:00*%
%TF.ProjectId,board,626f6172-642e-46b6-9963-61645f706362,1*%
%TF.SameCoordinates,Original*%
%TF.FileFunction,Copper,L1,Top*%
%TF.FilePolarity,Positive*%
%FSLAX46Y46*%
G04 Gerber Fmt 4.6, Leading zero omitted, Abs format (unit mm)*
G04 Created by KiCad (PCBNEW 8.0.5) date 2024-10-09 17:04:31*
%MOMM*%
%LPD*%
G01*
G04 APERTURE LIST*
G04 Aperture macros list*
%AMRoundRect*
0 Rectangle with rounded corners*
0 $1 Rounding radius*
0 $2 $3 $4 $5 $6 $7 $8 $9 X,Y pos of 4 corners*
0 Add a 4 corners polygon primitive as box body*
4,1,4,$2,$3,$4,$5,$6,$7,$8,$9,$2,$3,0*
0 Add four circle primitives for the rounded corners*
1,1,$1+$1,$2,$3*
1,1,$1+$1,$4,$5*
1,1,$1+$1,$6,$7*
1,1,$1+$1,$8,$9*
0 Add four rect primitives between the rounded corners*
20,1,$1+$1,$2,$3,$4,$5,0*
20,1,$1+$1,$4,$5,$6,$7,0*
20,1,$1+$1,$6,$7,$8,$9,0*
20,1,$1+$1,$8,$9,$2,$3,0*%
G04 Aperture macros list end*
%TA.AperFunction,ComponentPad*%
%ADD10C,2.200000*%
%TD*%
%TA.AperFunction,SMDPad,CuDef*%
%ADD11RoundRect,0.243750X-0.243750X-0.456250X0.243750X-0.456250X0.243750X0.456250X-0.243750X0.456250X0*%
%TD*%
%TA.AperFunction,SMDPad,CuDef*%
%ADD12RoundRect,0.243750X0.243750X0.456250X-0.243750X0.456250X-0.243750X-0.456250X0.243750X-0.456250X0*%
%TD*%
%TA.AperFunction,SMDPad,CuDef*%
%ADD13R,3.000000X2.000000*%
%TD*%
%TA.AperFunction,SMDPad,CuDef*%
%ADD14C,1.500000*%
%TD*%
%TA.AperFunction,SMDPad,CuDef*%
%ADD15R,1.300000X2.300000*%
%TD*%
%TA.AperFunction,ViaPad*%
%ADD16C,0.600000*%
%TD*%
%TA.AperFunction,Conductor*%
%ADD17C,0.200000*%
%TD*%
G04 APERTURE END LIST*
D10*
%TO.P,SWZ1,1,1*%
%TO.N,Net-(D3-A)*%
X231500000Y-80000000D03*
%TO.P,SWZ1,2,2*%
%TO.N,Net-(U1-PA02_A0_D0)*%
X226500000Y-80500000D03*
%TD*%
D11*
%TO.P,D17,1,K*%
%TO.N,Net-(D13-K)*%
X200625000Y-56000000D03*
%TO.P,D17,2,A*%
%TO.N,Net-(D17-A)*%
X202500000Y-56000000D03*
%TD*%
D10*
%TO.P,SW#2,1,1*%
%TO.N,Net-(D21-A)*%
X191500000Y-40000000D03*
%TO.P,SW#2,2,2*%
%TO.N,Net-(U1-PA8_A4_D4_SDA)*%
X186500000Y-40500000D03*
%TD*%
D11*
%TO.P,D5,1,K*%
%TO.N,Net-(D14-K)*%
X60625000Y-56000000D03*
%TO.P,D5,2,A*%
%TO.N,Net-(D5-A)*%
X62500000Y-56000000D03*
%TD*%
D10*
%TO.P,SWE1,1,1*%
%TO.N,Net-(D4-A)*%
X142500000Y-113000000D03*
%TO.P,SWE1,2,2*%
%TO.N,Net-(U1-PA02_A0_D0)*%
X137500000Y-113500000D03*
%TD*%
D12*
%TO.P,D20,1,K*%
%TO.N,Net-(D12-K)*%
X217500000Y-93000000D03*
%TO.P,D20,2,A*%
%TO.N,Net-(D20-A)*%
X215625000Y-93000000D03*
%TD*%
D11*
%TO.P,D7,1,K*%
%TO.N,Net-(D12-K)*%
X180500000Y-56000000D03*
%TO.P,D7,2,A*%
%TO.N,Net-(D7-A)*%
X182375000Y-56000000D03*
%TD*%
D10*
%TO.P,SW\u002A1,1,1*%
%TO.N,Net-(D11-A)*%
X131500000Y-70000000D03*
%TO.P,SW\u002A1,2,2*%
%TO.N,Net-(U1-PA10_A2_D2)*%
X126500000Y-70500000D03*
%TD*%
%TO.P,SWT2,1,1*%
%TO.N,Net-(D17-A)*%
X211500000Y-60000000D03*
%TO.P,SWT2,2,2*%
%TO.N,Net-(U1-PA8_A4_D4_SDA)*%
X206500000Y-60500000D03*
%TD*%
%TO.P,SWR2,1,1*%
%TO.N,Net-(U1-PA11_A3_D3)*%
X151500000Y-80000000D03*
%TO.P,SWR2,2,2*%
%TO.N,Net-(D18-A)*%
X146500000Y-80500000D03*
%TD*%
%TO.P,SWS2,1,1*%
%TO.N,Net-(D20-A)*%
X211500000Y-80000000D03*
%TO.P,SWS2,2,2*%
%TO.N,Net-(U1-PA8_A4_D4_SDA)*%
X206500000Y-80500000D03*
%TD*%
D12*
%TO.P,D23,1,K*%
%TO.N,Net-(D1-K)*%
X162500000Y-56000000D03*
%TO.P,D23,2,A*%
%TO.N,Net-(D23-A)*%
X160625000Y-56000000D03*
%TD*%
D10*
%TO.P,SWP2,1,1*%
%TO.N,Net-(U1-PA11_A3_D3)*%
X171500000Y-60000000D03*
%TO.P,SWP2,2,2*%
%TO.N,Net-(D23-A)*%
X166500000Y-60500000D03*
%TD*%
%TO.P,SWO1,1,1*%
%TO.N,Net-(D10-A)*%
X120500000Y-113000000D03*
%TO.P,SWO1,2,2*%
%TO.N,Net-(U1-PA10_A2_D2)*%
X115500000Y-113500000D03*
%TD*%
%TO.P,SW#1,1,1*%
%TO.N,Net-(D24-A)*%
X91500000Y-40000000D03*
%TO.P,SW#1,2,2*%
%TO.N,Net-(U1-PA8_A4_D4_SDA)*%
X86500000Y-40500000D03*
%TD*%
%TO.P,SWS1,1,1*%
%TO.N,Net-(D1-A)*%
X51500000Y-70500000D03*
%TO.P,SWS1,2,2*%
%TO.N,Net-(U1-PA02_A0_D0)*%
X46500000Y-71000000D03*
%TD*%
D12*
%TO.P,D18,1,K*%
%TO.N,Net-(D13-K)*%
X157500000Y-93000000D03*
%TO.P,D18,2,A*%
%TO.N,Net-(D18-A)*%
X155625000Y-93000000D03*
%TD*%
D10*
%TO.P,SWU1,1,1*%
%TO.N,Net-(D12-A)*%
X162500000Y-113000000D03*
%TO.P,SWU1,2,2*%
%TO.N,Net-(U1-PA10_A2_D2)*%
X157500000Y-113500000D03*
%TD*%
D12*
%TO.P,D6,1,K*%
%TO.N,Net-(D13-K)*%
X197375000Y-93000000D03*
%TO.P,D6,2,A*%
%TO.N,Net-(D6-A)*%
X195500000Y-93000000D03*
%TD*%
D10*
%TO.P,SWB1,1,1*%
%TO.N,Net-(D8-A)*%
X171500000Y-80000000D03*
%TO.P,SWB1,2,2*%
%TO.N,Net-(U1-PA4_A1_D1)*%
X166500000Y-80500000D03*
%TD*%
D11*
%TO.P,D9,1,K*%
%TO.N,Net-(D1-K)*%
X80500000Y-56000000D03*
%TO.P,D9,2,A*%
%TO.N,Net-(D9-A)*%
X82375000Y-56000000D03*
%TD*%
D12*
%TO.P,D11,1,K*%
%TO.N,Net-(D11-K)*%
X137437500Y-66000000D03*
%TO.P,D11,2,A*%
%TO.N,Net-(D11-A)*%
X135562500Y-66000000D03*
%TD*%
D13*
%TO.P,U1,1,PA02_A0_D0*%
%TO.N,Net-(U1-PA02_A0_D0)*%
X120500000Y-36230000D03*
%TO.P,U1,2,PA4_A1_D1*%
%TO.N,Net-(U1-PA4_A1_D1)*%
X120500000Y-38770000D03*
%TO.P,U1,3,PA10_A2_D2*%
%TO.N,Net-(U1-PA10_A2_D2)*%
X120500000Y-41310000D03*
%TO.P,U1,4,PA11_A3_D3*%
%TO.N,Net-(U1-PA11_A3_D3)*%
X120500000Y-43850000D03*
%TO.P,U1,5,PA8_A4_D4_SDA*%
%TO.N,Net-(U1-PA8_A4_D4_SDA)*%
X120500000Y-46390000D03*
%TO.P,U1,6,PA9_A5_D5_SCL*%
%TO.N,Net-(D14-K)*%
X120500000Y-48930000D03*
%TO.P,U1,7,PB08_A6_D6_TX*%
%TO.N,unconnected-(U1-PB08_A6_D6_TX-Pad7)*%
X120500000Y-51470000D03*
%TO.P,U1,8,PB09_A7_D7_RX*%
%TO.N,Net-(D13-K)*%
X137500000Y-51470000D03*
%TO.P,U1,9,PA7_A8_D8_SCK*%
%TO.N,Net-(D12-K)*%
X137500000Y-48930000D03*
%TO.P,U1,10,PA5_A9_D9_MISO*%
%TO.N,Net-(D11-K)*%
X137500000Y-46390000D03*
%TO.P,U1,11,PA6_A10_D10_MOSI*%
%TO.N,Net-(D1-K)*%
X137500000Y-43850000D03*
%TO.P,U1,12,3V3*%
%TO.N,unconnected-(U1-3V3-Pad12)*%
X137500000Y-41310000D03*
%TO.P,U1,13,GND*%
%TO.N,unconnected-(U1-GND-Pad13)*%
X137500000Y-38770000D03*
%TO.P,U1,14,5V*%
%TO.N,unconnected-(U1-5V-Pad14)*%
X137500000Y-36230000D03*
D14*
%TO.P,U1,15,5V*%
%TO.N,unconnected-(U1-5V-Pad15)*%
X127730000Y-35460000D03*
%TO.P,U1,16,GND*%
%TO.N,unconnected-(U1-GND-Pad16)*%
X130270000Y-35460000D03*
%TO.P,U1,17,PA31_SWDIO*%
%TO.N,unconnected-(U1-PA31_SWDIO-Pad17)*%
X127730000Y-38000000D03*
%TO.P,U1,18,PA30_SWCLK*%
%TO.N,unconnected-(U1-PA30_SWCLK-Pad18)*%
X130270000Y-38000000D03*
D15*
%TO.P,U1,19,RESET*%
%TO.N,unconnected-(U1-RESET-Pad19)*%
X127730000Y-52450000D03*
%TO.P,U1,20,GND*%
%TO.N,unconnected-(U1-GND-Pad20)*%
X130270000Y-52450000D03*
%TD*%
D11*
%TO.P,D16,1,K*%
%TO.N,Net-(D14-K)*%
X75625000Y-93000000D03*
%TO.P,D16,2,A*%
%TO.N,Net-(D16-A)*%
X77500000Y-93000000D03*
%TD*%
D10*
%TO.P,SWH1,1,1*%
%TO.N,Net-(U1-PA11_A3_D3)*%
X111500000Y-60000000D03*
%TO.P,SWH1,2,2*%
%TO.N,Net-(D19-A)*%
X106500000Y-60500000D03*
%TD*%
%TO.P,SWT1,1,1*%
%TO.N,Net-(D5-A)*%
X71500000Y-60000000D03*
%TO.P,SWT1,2,2*%
%TO.N,Net-(U1-PA4_A1_D1)*%
X66500000Y-60500000D03*
%TD*%
D11*
%TO.P,D12,1,K*%
%TO.N,Net-(D12-K)*%
X151625000Y-109000000D03*
%TO.P,D12,2,A*%
%TO.N,Net-(D12-A)*%
X153500000Y-109000000D03*
%TD*%
%TO.P,D21,1,K*%
%TO.N,Net-(D11-K)*%
X181062500Y-36000000D03*
%TO.P,D21,2,A*%
%TO.N,Net-(D21-A)*%
X182937500Y-36000000D03*
%TD*%
%TO.P,D2,1,K*%
%TO.N,Net-(D11-K)*%
X220500000Y-56000000D03*
%TO.P,D2,2,A*%
%TO.N,Net-(D2-A)*%
X222375000Y-56000000D03*
%TD*%
D10*
%TO.P,SWA1,1,1*%
%TO.N,Net-(U1-PA11_A3_D3)*%
X101000000Y-113000000D03*
%TO.P,SWA1,2,2*%
%TO.N,Net-(D15-A)*%
X96000000Y-113500000D03*
%TD*%
%TO.P,SWL1,1,1*%
%TO.N,Net-(D7-A)*%
X191500000Y-60000000D03*
%TO.P,SWL1,2,2*%
%TO.N,Net-(U1-PA4_A1_D1)*%
X186500000Y-60500000D03*
%TD*%
D11*
%TO.P,D10,1,K*%
%TO.N,Net-(D1-K)*%
X124500000Y-109000000D03*
%TO.P,D10,2,A*%
%TO.N,Net-(D10-A)*%
X126375000Y-109000000D03*
%TD*%
D10*
%TO.P,SWF1,1,1*%
%TO.N,Net-(D13-A)*%
X151500000Y-60000000D03*
%TO.P,SWF1,2,2*%
%TO.N,Net-(U1-PA10_A2_D2)*%
X146500000Y-60500000D03*
%TD*%
D11*
%TO.P,D13,1,K*%
%TO.N,Net-(D13-K)*%
X140500000Y-56000000D03*
%TO.P,D13,2,A*%
%TO.N,Net-(D13-A)*%
X142375000Y-56000000D03*
%TD*%
D12*
%TO.P,D19,1,K*%
%TO.N,Net-(D12-K)*%
X102375000Y-56000000D03*
%TO.P,D19,2,A*%
%TO.N,Net-(D19-A)*%
X100500000Y-56000000D03*
%TD*%
D10*
%TO.P,SWG1,1,1*%
%TO.N,Net-(D6-A)*%
X191500000Y-80000000D03*
%TO.P,SWG1,2,2*%
%TO.N,Net-(U1-PA4_A1_D1)*%
X186500000Y-80500000D03*
%TD*%
D12*
%TO.P,D24,1,K*%
%TO.N,Net-(D1-K)*%
X97437500Y-36000000D03*
%TO.P,D24,2,A*%
%TO.N,Net-(D24-A)*%
X95562500Y-36000000D03*
%TD*%
D10*
%TO.P,SWK1,1,1*%
%TO.N,Net-(D16-A)*%
X71500000Y-80000000D03*
%TO.P,SWK1,2,2*%
%TO.N,Net-(U1-PA8_A4_D4_SDA)*%
X66500000Y-80500000D03*
%TD*%
D11*
%TO.P,D1,1,K*%
%TO.N,Net-(D1-K)*%
X55625000Y-66500000D03*
%TO.P,D1,2,A*%
%TO.N,Net-(D1-A)*%
X57500000Y-66500000D03*
%TD*%
D10*
%TO.P,SWD1,1,1*%
%TO.N,Net-(D2-A)*%
X231500000Y-60000000D03*
%TO.P,SWD1,2,2*%
%TO.N,Net-(U1-PA02_A0_D0)*%
X226500000Y-60500000D03*
%TD*%
%TO.P,SWW1,1,1*%
%TO.N,Net-(U1-PA11_A3_D3)*%
X91500000Y-80000000D03*
%TO.P,SWW1,2,2*%
%TO.N,Net-(D22-A)*%
X86500000Y-80500000D03*
%TD*%
D11*
%TO.P,D3,1,K*%
%TO.N,Net-(D12-K)*%
X235500000Y-93000000D03*
%TO.P,D3,2,A*%
%TO.N,Net-(D3-A)*%
X237375000Y-93000000D03*
%TD*%
D12*
%TO.P,D15,1,K*%
%TO.N,Net-(D14-K)*%
X106875000Y-109000000D03*
%TO.P,D15,2,A*%
%TO.N,Net-(D15-A)*%
X105000000Y-109000000D03*
%TD*%
%TO.P,D8,1,K*%
%TO.N,Net-(D11-K)*%
X177500000Y-93000000D03*
%TO.P,D8,2,A*%
%TO.N,Net-(D8-A)*%
X175625000Y-93000000D03*
%TD*%
D10*
%TO.P,SWR1,1,1*%
%TO.N,Net-(D14-A)*%
X111500000Y-80000000D03*
%TO.P,SWR1,2,2*%
%TO.N,Net-(U1-PA10_A2_D2)*%
X106500000Y-80500000D03*
%TD*%
%TO.P,SWP1,1,1*%
%TO.N,Net-(D9-A)*%
X91500000Y-60000000D03*
%TO.P,SWP1,2,2*%
%TO.N,Net-(U1-PA4_A1_D1)*%
X86500000Y-60500000D03*
%TD*%
D11*
%TO.P,D4,1,K*%
%TO.N,Net-(D13-K)*%
X131625000Y-109000000D03*
%TO.P,D4,2,A*%
%TO.N,Net-(D4-A)*%
X133500000Y-109000000D03*
%TD*%
D12*
%TO.P,D22,1,K*%
%TO.N,Net-(D11-K)*%
X97437500Y-93000000D03*
%TO.P,D22,2,A*%
%TO.N,Net-(D22-A)*%
X95562500Y-93000000D03*
%TD*%
%TO.P,D14,1,K*%
%TO.N,Net-(D14-K)*%
X117437500Y-93000000D03*
%TO.P,D14,2,A*%
%TO.N,Net-(D14-A)*%
X115562500Y-93000000D03*
%TD*%
D16*
%TO.N,Net-(D1-K)*%
X92000000Y-44500000D03*
X79000000Y-56000000D03*
X61500000Y-62500000D03*
X141000000Y-45500000D03*
X97000000Y-39000000D03*
X134250000Y-43750000D03*
X162500000Y-54000000D03*
X144500000Y-66000000D03*
%TO.N,Net-(D11-K)*%
X99000000Y-92500000D03*
X139000000Y-70500000D03*
X130500000Y-50100000D03*
X159000000Y-83500000D03*
X133500000Y-48000000D03*
%TO.N,Net-(D12-K)*%
X195500000Y-97000000D03*
X105000000Y-56000000D03*
X214000000Y-76500000D03*
X229000000Y-80500000D03*
X205000000Y-76500000D03*
X126000000Y-51000000D03*
%TO.N,Net-(D13-K)*%
X138500000Y-57500000D03*
X199500000Y-54500000D03*
X199000000Y-59000000D03*
X140500000Y-51500000D03*
%TO.N,Net-(D14-K)*%
X117500000Y-95500000D03*
X75500000Y-95000000D03*
X108500000Y-107500000D03*
X100500000Y-107500000D03*
%TO.N,Net-(U1-PA8_A4_D4_SDA)*%
X140500000Y-47500000D03*
X83000000Y-41000000D03*
X123500000Y-47500000D03*
X64500000Y-58500000D03*
X115000000Y-50500000D03*
X96500000Y-42000000D03*
%TO.N,Net-(U1-PA10_A2_D2)*%
X126500000Y-59500000D03*
X115500000Y-74500000D03*
X119000000Y-74500000D03*
X144000000Y-59500000D03*
%TO.N,Net-(U1-PA11_A3_D3)*%
X159000000Y-74500000D03*
%TO.N,Net-(U1-PA4_A1_D1)*%
X133500000Y-50500000D03*
X132000000Y-48900000D03*
%TO.N,Net-(U1-PA02_A0_D0)*%
X123500000Y-36500000D03*
X161000000Y-87000000D03*
%TD*%
D17*
%TO.N,*%
X132500000Y-71000000D02*
X132489949Y-70989949D01*
%TO.N,Net-(D1-A)*%
X51500000Y-70500000D02*
X53500000Y-70500000D01*
X53500000Y-70500000D02*
X57500000Y-66500000D01*
%TO.N,Net-(D1-K)*%
X137500000Y-43850000D02*
X139350000Y-43850000D01*
X134250000Y-43750000D02*
X135050000Y-43750000D01*
X139350000Y-43850000D02*
X141000000Y-45500000D01*
X131149268Y-105000000D02*
X148500000Y-105000000D01*
X55625000Y-66500000D02*
X59625000Y-62500000D01*
X59625000Y-62500000D02*
X61500000Y-62500000D01*
X126000000Y-107500000D02*
X128649268Y-107500000D01*
X97437500Y-38562500D02*
X97437500Y-36000000D01*
X97000000Y-39000000D02*
X97437500Y-38562500D01*
X155500000Y-95500000D02*
X144500000Y-84500000D01*
X124500000Y-109000000D02*
X126000000Y-107500000D01*
X162500000Y-54000000D02*
X162500000Y-56000000D01*
X79000000Y-56000000D02*
X80500000Y-56000000D01*
X135050000Y-43750000D02*
X135150000Y-43850000D01*
X135150000Y-43850000D02*
X137500000Y-43850000D01*
X144500000Y-84500000D02*
X144500000Y-66000000D01*
X148500000Y-105000000D02*
X155500000Y-98000000D01*
X155500000Y-98000000D02*
X155500000Y-95500000D01*
X80500000Y-56000000D02*
X92000000Y-44500000D01*
X128649268Y-107500000D02*
X131149268Y-105000000D01*
%TO.N,Net-(D11-K)*%
X136110000Y-46390000D02*
X137500000Y-46390000D01*
X98500000Y-93000000D02*
X99000000Y-92500000D01*
X133500000Y-48000000D02*
X134500000Y-48000000D01*
X169500000Y-94000000D02*
X159000000Y-83500000D01*
X134500000Y-48000000D02*
X136110000Y-46390000D01*
X170672500Y-46390000D02*
X181062500Y-36000000D01*
X137437500Y-57037500D02*
X130500000Y-50100000D01*
X220013702Y-55513702D02*
X204513702Y-55513702D01*
X176500000Y-94000000D02*
X169500000Y-94000000D01*
X137437500Y-67937500D02*
X137437500Y-66000000D01*
X137500000Y-46390000D02*
X170672500Y-46390000D01*
X183562500Y-38500000D02*
X181062500Y-36000000D01*
X139000000Y-70500000D02*
X139000000Y-69500000D01*
X204513702Y-55513702D02*
X187500000Y-38500000D01*
X220500000Y-56000000D02*
X220013702Y-55513702D01*
X187500000Y-38500000D02*
X183562500Y-38500000D01*
X139000000Y-69500000D02*
X137437500Y-67937500D01*
X177500000Y-93000000D02*
X176500000Y-94000000D01*
X97437500Y-93000000D02*
X98500000Y-93000000D01*
X137437500Y-66000000D02*
X137437500Y-57037500D01*
%TO.N,Net-(D2-A)*%
X227500000Y-56000000D02*
X222375000Y-56000000D01*
X231500000Y-60000000D02*
X227500000Y-56000000D01*
%TO.N,Net-(D12-K)*%
X180500000Y-56000000D02*
X183600000Y-59100000D01*
X163625000Y-97000000D02*
X151625000Y-109000000D01*
X180500000Y-56000000D02*
X173430000Y-48930000D01*
X187600000Y-59100000D02*
X205000000Y-76500000D01*
X229000000Y-86500000D02*
X235500000Y-93000000D01*
X128675686Y-49500000D02*
X127175686Y-51000000D01*
X173430000Y-48930000D02*
X137500000Y-48930000D01*
X183600000Y-59100000D02*
X187600000Y-59100000D01*
X105000000Y-56000000D02*
X102375000Y-56000000D01*
X195500000Y-97000000D02*
X163625000Y-97000000D01*
X137500000Y-48930000D02*
X136930000Y-49500000D01*
X229000000Y-80500000D02*
X229000000Y-86500000D01*
X217500000Y-80000000D02*
X217500000Y-93000000D01*
X214000000Y-76500000D02*
X217500000Y-80000000D01*
X136930000Y-49500000D02*
X128675686Y-49500000D01*
X127175686Y-51000000D02*
X126000000Y-51000000D01*
%TO.N,Net-(D3-A)*%
X231500000Y-87125000D02*
X237375000Y-93000000D01*
X231500000Y-80000000D02*
X231500000Y-87125000D01*
%TO.N,Net-(D4-A)*%
X142500000Y-113000000D02*
X138500000Y-109000000D01*
X138500000Y-109000000D02*
X133500000Y-109000000D01*
%TO.N,Net-(D13-K)*%
X140500000Y-51500000D02*
X140470000Y-51470000D01*
X157500000Y-98000000D02*
X157500000Y-93000000D01*
X205600000Y-65600000D02*
X199000000Y-59000000D01*
X195975000Y-94400000D02*
X169334314Y-94400000D01*
X137500000Y-53000000D02*
X140500000Y-56000000D01*
X197375000Y-84973529D02*
X205600000Y-76748529D01*
X205600000Y-76748529D02*
X205600000Y-65600000D01*
X199500000Y-54875000D02*
X200625000Y-56000000D01*
X197375000Y-93000000D02*
X195975000Y-94400000D01*
X149000000Y-106500000D02*
X157500000Y-98000000D01*
X157500000Y-76500000D02*
X138500000Y-57500000D01*
X197375000Y-93000000D02*
X197375000Y-84973529D01*
X169334314Y-94400000D02*
X160434314Y-85500000D01*
X157500000Y-85500000D02*
X157500000Y-76500000D01*
X137500000Y-51470000D02*
X137500000Y-53000000D01*
X160434314Y-85500000D02*
X157500000Y-85500000D01*
X199500000Y-54500000D02*
X199500000Y-54875000D01*
X131625000Y-109000000D02*
X134125000Y-106500000D01*
X134125000Y-106500000D02*
X149000000Y-106500000D01*
X140470000Y-51470000D02*
X137500000Y-51470000D01*
X157500000Y-93000000D02*
X157500000Y-85500000D01*
%TO.N,Net-(D5-A)*%
X67500000Y-56000000D02*
X62500000Y-56000000D01*
X71500000Y-60000000D02*
X67500000Y-56000000D01*
%TO.N,Net-(D14-K)*%
X117437500Y-51432500D02*
X117437500Y-93000000D01*
X105375000Y-107500000D02*
X100500000Y-107500000D01*
X117437500Y-94437500D02*
X117437500Y-93000000D01*
X117500000Y-94500000D02*
X117437500Y-94437500D01*
X62500000Y-79875000D02*
X62500000Y-57875000D01*
X120500000Y-48930000D02*
X119940000Y-48930000D01*
X108375000Y-107500000D02*
X108500000Y-107500000D01*
X106875000Y-109000000D02*
X108375000Y-107500000D01*
X119940000Y-48930000D02*
X117437500Y-51432500D01*
X106875000Y-109000000D02*
X105375000Y-107500000D01*
X75500000Y-95000000D02*
X75625000Y-94875000D01*
X62500000Y-57875000D02*
X60625000Y-56000000D01*
X117500000Y-95500000D02*
X117500000Y-94500000D01*
X75625000Y-94875000D02*
X75625000Y-93000000D01*
X75625000Y-93000000D02*
X62500000Y-79875000D01*
%TO.N,Net-(D6-A)*%
X191500000Y-89000000D02*
X195500000Y-93000000D01*
X191500000Y-80000000D02*
X191500000Y-89000000D01*
%TO.N,Net-(D7-A)*%
X191500000Y-60000000D02*
X187500000Y-56000000D01*
X187500000Y-56000000D02*
X182375000Y-56000000D01*
%TO.N,Net-(D8-A)*%
X171500000Y-80000000D02*
X171500000Y-88875000D01*
X171500000Y-88875000D02*
X175625000Y-93000000D01*
%TO.N,Net-(D9-A)*%
X91500000Y-60000000D02*
X88500000Y-57000000D01*
X88500000Y-57000000D02*
X83375000Y-57000000D01*
X83375000Y-57000000D02*
X82375000Y-56000000D01*
%TO.N,Net-(D10-A)*%
X120500000Y-113000000D02*
X122375000Y-113000000D01*
X122375000Y-113000000D02*
X126375000Y-109000000D01*
%TO.N,Net-(D11-A)*%
X135500000Y-66000000D02*
X135562500Y-66000000D01*
X131500000Y-70000000D02*
X135500000Y-66000000D01*
%TO.N,Net-(D12-A)*%
X162500000Y-113000000D02*
X161400001Y-111900001D01*
X161400001Y-111900001D02*
X156400001Y-111900001D01*
X156400001Y-111900001D02*
X153500000Y-109000000D01*
%TO.N,Net-(D13-A)*%
X147500000Y-56000000D02*
X142375000Y-56000000D01*
X151500000Y-60000000D02*
X147500000Y-56000000D01*
%TO.N,Net-(D14-A)*%
X111500000Y-88937500D02*
X115562500Y-93000000D01*
X111500000Y-80000000D02*
X111500000Y-88937500D01*
%TO.N,Net-(D15-A)*%
X96000000Y-113500000D02*
X100500000Y-109000000D01*
X100500000Y-109000000D02*
X105000000Y-109000000D01*
%TO.N,Net-(D16-A)*%
X71500000Y-80000000D02*
X71500000Y-87000000D01*
X71500000Y-87000000D02*
X77500000Y-93000000D01*
%TO.N,Net-(D17-A)*%
X211500000Y-60000000D02*
X207500000Y-56000000D01*
X207500000Y-56000000D02*
X202500000Y-56000000D01*
%TO.N,Net-(D18-A)*%
X155625000Y-89625000D02*
X155625000Y-93000000D01*
X146500000Y-80500000D02*
X155625000Y-89625000D01*
%TO.N,Net-(D19-A)*%
X106500000Y-60500000D02*
X105000000Y-60500000D01*
X105000000Y-60500000D02*
X100500000Y-56000000D01*
%TO.N,Net-(D20-A)*%
X211500000Y-80000000D02*
X211500000Y-88875000D01*
X211500000Y-88875000D02*
X215625000Y-93000000D01*
%TO.N,Net-(D21-A)*%
X187500000Y-36000000D02*
X182937500Y-36000000D01*
X191500000Y-40000000D02*
X187500000Y-36000000D01*
%TO.N,Net-(D22-A)*%
X86500000Y-80500000D02*
X86500000Y-83937500D01*
X86500000Y-83937500D02*
X95562500Y-93000000D01*
%TO.N,Net-(D23-A)*%
X165125000Y-60500000D02*
X160625000Y-56000000D01*
X166500000Y-60500000D02*
X165125000Y-60500000D01*
%TO.N,Net-(D24-A)*%
X91500000Y-40000000D02*
X95500000Y-36000000D01*
X95500000Y-36000000D02*
X95562500Y-36000000D01*
%TO.N,Net-(U1-PA8_A4_D4_SDA)*%
X86500000Y-40500000D02*
X87599999Y-41599999D01*
X83500000Y-40500000D02*
X86500000Y-40500000D01*
X186500000Y-40500000D02*
X179500000Y-47500000D01*
X186500000Y-43350732D02*
X186500000Y-40500000D01*
X66500000Y-80500000D02*
X63500000Y-77500000D01*
X96099999Y-41599999D02*
X96500000Y-42000000D01*
X203649268Y-60500000D02*
X186500000Y-43350732D01*
X87599999Y-41599999D02*
X96099999Y-41599999D01*
X63500000Y-77500000D02*
X63500000Y-59500000D01*
X206500000Y-60500000D02*
X203649268Y-60500000D01*
X179500000Y-47500000D02*
X140500000Y-47500000D01*
X63500000Y-59500000D02*
X64500000Y-58500000D01*
X122390000Y-46390000D02*
X120500000Y-46390000D01*
X115000000Y-50500000D02*
X119110000Y-46390000D01*
X119110000Y-46390000D02*
X120500000Y-46390000D01*
X83000000Y-41000000D02*
X83500000Y-40500000D01*
X123500000Y-47500000D02*
X122390000Y-46390000D01*
X206500000Y-80500000D02*
X206500000Y-60500000D01*
%TO.N,Net-(U1-PA10_A2_D2)*%
X124500000Y-53500000D02*
X126500000Y-55500000D01*
X119000000Y-74500000D02*
X119500000Y-74500000D01*
X146500000Y-60500000D02*
X145000000Y-60500000D01*
X124500000Y-44750000D02*
X124500000Y-53500000D01*
X115500000Y-113500000D02*
X115500000Y-104500000D01*
X106500000Y-80500000D02*
X112500000Y-74500000D01*
X157500000Y-113500000D02*
X153600000Y-117400000D01*
X145000000Y-60500000D02*
X144000000Y-59500000D01*
X153600000Y-117400000D02*
X119400000Y-117400000D01*
X120500000Y-41310000D02*
X121060000Y-41310000D01*
X106500000Y-95500000D02*
X106500000Y-80500000D01*
X126500000Y-55500000D02*
X126500000Y-59500000D01*
X119500000Y-74500000D02*
X123500000Y-70500000D01*
X126500000Y-59500000D02*
X126500000Y-70500000D01*
X123500000Y-70500000D02*
X126500000Y-70500000D01*
X121060000Y-41310000D02*
X124500000Y-44750000D01*
X119400000Y-117400000D02*
X115500000Y-113500000D01*
X112500000Y-74500000D02*
X115500000Y-74500000D01*
X115500000Y-104500000D02*
X106500000Y-95500000D01*
%TO.N,Net-(U1-PA11_A3_D3)*%
X91500000Y-80000000D02*
X98225000Y-86725000D01*
X91500000Y-80000000D02*
X111500000Y-60000000D01*
X114500000Y-108500000D02*
X110000000Y-113000000D01*
X120000000Y-43850000D02*
X111500000Y-52350000D01*
X98225000Y-89225000D02*
X114500000Y-105500000D01*
X171500000Y-62000000D02*
X159000000Y-74500000D01*
X98225000Y-86725000D02*
X98225000Y-89225000D01*
X171500000Y-60000000D02*
X171500000Y-62000000D01*
X111500000Y-52350000D02*
X111500000Y-60000000D01*
X120500000Y-43850000D02*
X120000000Y-43850000D01*
X110000000Y-113000000D02*
X101000000Y-113000000D01*
X114500000Y-105500000D02*
X114500000Y-108500000D01*
%TO.N,Net-(U1-PA4_A1_D1)*%
X120000000Y-38770000D02*
X119770000Y-39000000D01*
X120500000Y-38770000D02*
X120000000Y-38770000D01*
X96000000Y-51000000D02*
X96000000Y-62000000D01*
X67599999Y-61599999D02*
X85400001Y-61599999D01*
X166500000Y-80500000D02*
X163430000Y-80500000D01*
X108000000Y-39000000D02*
X96000000Y-51000000D01*
X94500000Y-63500000D02*
X89500000Y-63500000D01*
X169000000Y-78000000D02*
X166500000Y-80500000D01*
X184000000Y-78000000D02*
X169000000Y-78000000D01*
X132000000Y-48900000D02*
X131900000Y-48900000D01*
X133500000Y-50570000D02*
X133500000Y-50500000D01*
X131900000Y-48900000D02*
X121770000Y-38770000D01*
X163430000Y-80500000D02*
X133500000Y-50570000D01*
X96000000Y-62000000D02*
X94500000Y-63500000D01*
X119770000Y-39000000D02*
X108000000Y-39000000D01*
X85400001Y-61599999D02*
X86500000Y-60500000D01*
X186500000Y-80500000D02*
X184000000Y-78000000D01*
X186500000Y-60500000D02*
X186500000Y-80500000D01*
X121770000Y-38770000D02*
X120500000Y-38770000D01*
X89500000Y-63500000D02*
X86500000Y-60500000D01*
X66500000Y-60500000D02*
X67599999Y-61599999D01*
%TO.N,Net-(U1-PA02_A0_D0)*%
X120770000Y-36500000D02*
X120500000Y-36230000D01*
X123500000Y-36500000D02*
X120770000Y-36500000D01*
X218000000Y-96000000D02*
X161479899Y-96000000D01*
X137500000Y-115500000D02*
X137500000Y-113500000D01*
X71500000Y-43500000D02*
X46500000Y-68500000D01*
X161479899Y-96000000D02*
X145000000Y-112479899D01*
X139000000Y-117000000D02*
X137500000Y-115500000D01*
X145000000Y-112479899D02*
X145000000Y-116000000D01*
X104770000Y-36230000D02*
X97500000Y-43500000D01*
X161479899Y-96000000D02*
X161000000Y-95520101D01*
X145000000Y-116000000D02*
X144000000Y-117000000D01*
X226500000Y-80500000D02*
X226500000Y-87500000D01*
X46500000Y-68500000D02*
X46500000Y-71000000D01*
X226500000Y-60500000D02*
X226500000Y-80500000D01*
X144000000Y-117000000D02*
X139000000Y-117000000D01*
X120500000Y-36230000D02*
X104770000Y-36230000D01*
X161000000Y-95520101D02*
X161000000Y-87000000D01*
X226500000Y-87500000D02*
X218000000Y-96000000D01*
X97500000Y-43500000D02*
X71500000Y-43500000D01*
%TD*%
M02*
