%TF.GenerationSoftware,KiCad,Pcbnew,8.0.5*%
%TF.CreationDate,2024-10-09T19:36:39-04:00*%
%TF.ProjectId,board,626f6172-642e-46b6-9963-61645f706362,1*%
%TF.SameCoordinates,Original*%
%TF.FileFunction,Copper,L2,Bot*%
%TF.FilePolarity,Positive*%
%FSLAX46Y46*%
G04 Gerber Fmt 4.6, Leading zero omitted, Abs format (unit mm)*
G04 Created by KiCad (PCBNEW 8.0.5) date 2024-10-09 19:36:39*
%MOMM*%
%LPD*%
G01*
G04 APERTURE LIST*
%TA.AperFunction,ComponentPad*%
%ADD10O,2.200000X2.200000*%
%TD*%
%TA.AperFunction,ComponentPad*%
%ADD11R,2.200000X2.200000*%
%TD*%
%TA.AperFunction,ComponentPad*%
%ADD12C,2.200000*%
%TD*%
%TA.AperFunction,ViaPad*%
%ADD13C,0.600000*%
%TD*%
%TA.AperFunction,Conductor*%
%ADD14C,0.200000*%
%TD*%
G04 APERTURE END LIST*
D10*
%TO.P,D24,2,A*%
%TO.N,Net-(D24-A)*%
X69690000Y-40500000D03*
D11*
%TO.P,D24,1,K*%
%TO.N,Net-(D1-K)*%
X77310000Y-40500000D03*
%TD*%
%TO.P,D23,1,K*%
%TO.N,Net-(D1-K)*%
X149190000Y-52000000D03*
D10*
%TO.P,D23,2,A*%
%TO.N,Net-(D23-A)*%
X156810000Y-52000000D03*
%TD*%
D11*
%TO.P,D22,1,K*%
%TO.N,Net-(D11-K)*%
X95810000Y-97000000D03*
D10*
%TO.P,D22,2,A*%
%TO.N,Net-(D22-A)*%
X88190000Y-97000000D03*
%TD*%
D11*
%TO.P,D21,1,K*%
%TO.N,Net-(D11-K)*%
X202000000Y-45310000D03*
D10*
%TO.P,D21,2,A*%
%TO.N,Net-(D21-A)*%
X202000000Y-37690000D03*
%TD*%
D11*
%TO.P,D20,1,K*%
%TO.N,Net-(D12-K)*%
X210310000Y-96500000D03*
D10*
%TO.P,D20,2,A*%
%TO.N,Net-(D20-A)*%
X202690000Y-96500000D03*
%TD*%
D11*
%TO.P,D19,1,K*%
%TO.N,Net-(D12-K)*%
X107810000Y-52500000D03*
D10*
%TO.P,D19,2,A*%
%TO.N,Net-(D19-A)*%
X100190000Y-52500000D03*
%TD*%
D11*
%TO.P,D18,1,K*%
%TO.N,Net-(D13-K)*%
X156310000Y-97000000D03*
D10*
%TO.P,D18,2,A*%
%TO.N,Net-(D18-A)*%
X148690000Y-97000000D03*
%TD*%
D11*
%TO.P,D17,1,K*%
%TO.N,Net-(D13-K)*%
X204190000Y-51000000D03*
D10*
%TO.P,D17,2,A*%
%TO.N,Net-(D17-A)*%
X211810000Y-51000000D03*
%TD*%
D11*
%TO.P,D16,1,K*%
%TO.N,Net-(D14-K)*%
X66190000Y-97000000D03*
D10*
%TO.P,D16,2,A*%
%TO.N,Net-(D16-A)*%
X73810000Y-97000000D03*
%TD*%
%TO.P,D15,2,A*%
%TO.N,Net-(D15-A)*%
X97190000Y-102000000D03*
D11*
%TO.P,D15,1,K*%
%TO.N,Net-(D14-K)*%
X104810000Y-102000000D03*
%TD*%
%TO.P,D14,1,K*%
%TO.N,Net-(D14-K)*%
X120310000Y-98500000D03*
D10*
%TO.P,D14,2,A*%
%TO.N,Net-(D14-A)*%
X112690000Y-98500000D03*
%TD*%
%TO.P,D13,2,A*%
%TO.N,Net-(D13-A)*%
X135810000Y-60500000D03*
D11*
%TO.P,D13,1,K*%
%TO.N,Net-(D13-K)*%
X128190000Y-60500000D03*
%TD*%
%TO.P,D12,1,K*%
%TO.N,Net-(D12-K)*%
X158190000Y-105500000D03*
D10*
%TO.P,D12,2,A*%
%TO.N,Net-(D12-A)*%
X165810000Y-105500000D03*
%TD*%
D11*
%TO.P,D11,1,K*%
%TO.N,Net-(D11-K)*%
X126690000Y-87000000D03*
D10*
%TO.P,D11,2,A*%
%TO.N,Net-(D11-A)*%
X134310000Y-87000000D03*
%TD*%
D11*
%TO.P,D10,1,K*%
%TO.N,Net-(D1-K)*%
X128000000Y-106000000D03*
D10*
%TO.P,D10,2,A*%
%TO.N,Net-(D10-A)*%
X120380000Y-106000000D03*
%TD*%
D11*
%TO.P,D9,1,K*%
%TO.N,Net-(D1-K)*%
X76500000Y-52810000D03*
D10*
%TO.P,D9,2,A*%
%TO.N,Net-(D9-A)*%
X76500000Y-45190000D03*
%TD*%
D11*
%TO.P,D8,1,K*%
%TO.N,Net-(D11-K)*%
X167190000Y-97500000D03*
D10*
%TO.P,D8,2,A*%
%TO.N,Net-(D8-A)*%
X174810000Y-97500000D03*
%TD*%
D11*
%TO.P,D7,1,K*%
%TO.N,Net-(D12-K)*%
X169690000Y-52000000D03*
D10*
%TO.P,D7,2,A*%
%TO.N,Net-(D7-A)*%
X177310000Y-52000000D03*
%TD*%
D11*
%TO.P,D6,1,K*%
%TO.N,Net-(D13-K)*%
X183000000Y-97000000D03*
D10*
%TO.P,D6,2,A*%
%TO.N,Net-(D6-A)*%
X190620000Y-97000000D03*
%TD*%
D11*
%TO.P,D5,1,K*%
%TO.N,Net-(D14-K)*%
X64190000Y-53500000D03*
D10*
%TO.P,D5,2,A*%
%TO.N,Net-(D5-A)*%
X71810000Y-53500000D03*
%TD*%
D11*
%TO.P,D4,1,K*%
%TO.N,Net-(D13-K)*%
X144310000Y-103000000D03*
D10*
%TO.P,D4,2,A*%
%TO.N,Net-(D4-A)*%
X136690000Y-103000000D03*
%TD*%
D11*
%TO.P,D3,1,K*%
%TO.N,Net-(D12-K)*%
X222190000Y-95000000D03*
D10*
%TO.P,D3,2,A*%
%TO.N,Net-(D3-A)*%
X229810000Y-95000000D03*
%TD*%
D11*
%TO.P,D2,1,K*%
%TO.N,Net-(D11-K)*%
X221437500Y-52000000D03*
D10*
%TO.P,D2,2,A*%
%TO.N,Net-(D2-A)*%
X229057500Y-52000000D03*
%TD*%
D11*
%TO.P,D1,1,K*%
%TO.N,Net-(D1-K)*%
X57310000Y-63000000D03*
D10*
%TO.P,D1,2,A*%
%TO.N,Net-(D1-A)*%
X49690000Y-63000000D03*
%TD*%
D12*
%TO.P,SWZ1,1,1*%
%TO.N,Net-(D3-A)*%
X231500000Y-80000000D03*
%TO.P,SWZ1,2,2*%
%TO.N,Net-(U1-PA02_A0_D0)*%
X226500000Y-80500000D03*
%TD*%
%TO.P,SW#2,1,1*%
%TO.N,Net-(D21-A)*%
X191500000Y-40000000D03*
%TO.P,SW#2,2,2*%
%TO.N,Net-(U1-PA8_A4_D4_SDA)*%
X186500000Y-40500000D03*
%TD*%
%TO.P,SW\u002A1,1,1*%
%TO.N,Net-(D11-A)*%
X131500000Y-70000000D03*
%TO.P,SW\u002A1,2,2*%
%TO.N,Net-(U1-PA10_A2_D2)*%
X126500000Y-70500000D03*
%TD*%
%TO.P,SWT2,1,1*%
%TO.N,Net-(D17-A)*%
X211500000Y-60000000D03*
%TO.P,SWT2,2,2*%
%TO.N,Net-(U1-PA8_A4_D4_SDA)*%
X206500000Y-60500000D03*
%TD*%
%TO.P,SWR2,1,1*%
%TO.N,Net-(U1-PA11_A3_D3)*%
X151500000Y-80000000D03*
%TO.P,SWR2,2,2*%
%TO.N,Net-(D18-A)*%
X146500000Y-80500000D03*
%TD*%
%TO.P,SWP2,1,1*%
%TO.N,Net-(U1-PA11_A3_D3)*%
X171500000Y-60000000D03*
%TO.P,SWP2,2,2*%
%TO.N,Net-(D23-A)*%
X166500000Y-60500000D03*
%TD*%
%TO.P,SWO1,1,1*%
%TO.N,Net-(D10-A)*%
X120500000Y-113000000D03*
%TO.P,SWO1,2,2*%
%TO.N,Net-(U1-PA10_A2_D2)*%
X115500000Y-113500000D03*
%TD*%
%TO.P,SW#1,1,1*%
%TO.N,Net-(D24-A)*%
X91500000Y-40000000D03*
%TO.P,SW#1,2,2*%
%TO.N,Net-(U1-PA8_A4_D4_SDA)*%
X86500000Y-40500000D03*
%TD*%
%TO.P,SWU1,1,1*%
%TO.N,Net-(D12-A)*%
X162500000Y-113000000D03*
%TO.P,SWU1,2,2*%
%TO.N,Net-(U1-PA10_A2_D2)*%
X157500000Y-113500000D03*
%TD*%
%TO.P,SWB1,1,1*%
%TO.N,Net-(D8-A)*%
X171500000Y-80000000D03*
%TO.P,SWB1,2,2*%
%TO.N,Net-(U1-PA4_A1_D1)*%
X166500000Y-80500000D03*
%TD*%
%TO.P,SWH1,1,1*%
%TO.N,Net-(U1-PA11_A3_D3)*%
X111500000Y-60000000D03*
%TO.P,SWH1,2,2*%
%TO.N,Net-(D19-A)*%
X106500000Y-60500000D03*
%TD*%
%TO.P,SWT1,1,1*%
%TO.N,Net-(D5-A)*%
X71500000Y-60000000D03*
%TO.P,SWT1,2,2*%
%TO.N,Net-(U1-PA4_A1_D1)*%
X66500000Y-60500000D03*
%TD*%
%TO.P,SWA1,1,1*%
%TO.N,Net-(U1-PA11_A3_D3)*%
X101000000Y-113000000D03*
%TO.P,SWA1,2,2*%
%TO.N,Net-(D15-A)*%
X96000000Y-113500000D03*
%TD*%
%TO.P,SWL1,1,1*%
%TO.N,Net-(D7-A)*%
X191500000Y-60000000D03*
%TO.P,SWL1,2,2*%
%TO.N,Net-(U1-PA4_A1_D1)*%
X186500000Y-60500000D03*
%TD*%
%TO.P,SWF1,1,1*%
%TO.N,Net-(D13-A)*%
X151500000Y-60000000D03*
%TO.P,SWF1,2,2*%
%TO.N,Net-(U1-PA10_A2_D2)*%
X146500000Y-60500000D03*
%TD*%
%TO.P,SWG1,1,1*%
%TO.N,Net-(D6-A)*%
X191500000Y-80000000D03*
%TO.P,SWG1,2,2*%
%TO.N,Net-(U1-PA4_A1_D1)*%
X186500000Y-80500000D03*
%TD*%
%TO.P,SWK1,1,1*%
%TO.N,Net-(D16-A)*%
X71500000Y-80000000D03*
%TO.P,SWK1,2,2*%
%TO.N,Net-(U1-PA8_A4_D4_SDA)*%
X66500000Y-80500000D03*
%TD*%
%TO.P,SWD1,1,1*%
%TO.N,Net-(D2-A)*%
X231500000Y-60000000D03*
%TO.P,SWD1,2,2*%
%TO.N,Net-(U1-PA02_A0_D0)*%
X226500000Y-60500000D03*
%TD*%
%TO.P,SWW1,1,1*%
%TO.N,Net-(U1-PA11_A3_D3)*%
X91500000Y-80000000D03*
%TO.P,SWW1,2,2*%
%TO.N,Net-(D22-A)*%
X86500000Y-80500000D03*
%TD*%
%TO.P,SWR1,1,1*%
%TO.N,Net-(D14-A)*%
X111500000Y-80000000D03*
%TO.P,SWR1,2,2*%
%TO.N,Net-(U1-PA10_A2_D2)*%
X106500000Y-80500000D03*
%TD*%
%TO.P,SWP1,1,1*%
%TO.N,Net-(D9-A)*%
X91500000Y-60000000D03*
%TO.P,SWP1,2,2*%
%TO.N,Net-(U1-PA4_A1_D1)*%
X86500000Y-60500000D03*
%TD*%
%TO.P,SWS1,1,1*%
%TO.N,Net-(D1-A)*%
X51500000Y-70500000D03*
%TO.P,SWS1,2,2*%
%TO.N,Net-(U1-PA02_A0_D0)*%
X46500000Y-71000000D03*
%TD*%
%TO.P,SWE1,1,1*%
%TO.N,Net-(D4-A)*%
X142500000Y-113000000D03*
%TO.P,SWE1,2,2*%
%TO.N,Net-(U1-PA02_A0_D0)*%
X137500000Y-113500000D03*
%TD*%
%TO.P,SWS2,2,2*%
%TO.N,Net-(U1-PA8_A4_D4_SDA)*%
X206500000Y-80500000D03*
%TO.P,SWS2,1,1*%
%TO.N,Net-(D20-A)*%
X211500000Y-80000000D03*
%TD*%
D13*
%TO.N,Net-(D13-A)*%
X144000000Y-58500000D03*
%TO.N,Net-(D13-K)*%
X194500000Y-93500000D03*
X157500000Y-92500000D03*
%TO.N,Net-(D1-K)*%
X93000000Y-42500000D03*
X92000000Y-44500000D03*
X79000000Y-56000000D03*
X61500000Y-62500000D03*
X141000000Y-45500000D03*
X134250000Y-43750000D03*
X144500000Y-66000000D03*
%TO.N,Net-(D11-K)*%
X139000000Y-70500000D03*
X130500000Y-50100000D03*
X159000000Y-83500000D03*
X133500000Y-48000000D03*
%TO.N,Net-(D12-K)*%
X195500000Y-100500000D03*
X214000000Y-76500000D03*
X205000000Y-76500000D03*
X126000000Y-51000000D03*
%TO.N,Net-(D13-K)*%
X138500000Y-57500000D03*
X199500000Y-54500000D03*
X199000000Y-59000000D03*
X140500000Y-51500000D03*
%TO.N,Net-(D14-K)*%
X117500000Y-95500000D03*
%TO.N,Net-(U1-PA8_A4_D4_SDA)*%
X140500000Y-47500000D03*
X83000000Y-41000000D03*
X123500000Y-47500000D03*
X64500000Y-58500000D03*
X115000000Y-50500000D03*
X96500000Y-42000000D03*
%TO.N,Net-(U1-PA10_A2_D2)*%
X126500000Y-62500000D03*
X115500000Y-74500000D03*
X119000000Y-74500000D03*
X143639265Y-59860735D03*
%TO.N,Net-(U1-PA11_A3_D3)*%
X159000000Y-74500000D03*
%TO.N,Net-(U1-PA4_A1_D1)*%
X133500000Y-50500000D03*
X132000000Y-48900000D03*
%TO.N,Net-(U1-PA02_A0_D0)*%
X123500000Y-36500000D03*
X161000000Y-87000000D03*
%TD*%
D14*
%TO.N,Net-(D9-A)*%
X76500000Y-45190000D02*
X91310000Y-60000000D01*
X91310000Y-60000000D02*
X91500000Y-60000000D01*
%TO.N,Net-(D13-K)*%
X128190000Y-60500000D02*
X131190000Y-57500000D01*
X131190000Y-57500000D02*
X138500000Y-57500000D01*
%TO.N,Net-(D13-A)*%
X142000000Y-60500000D02*
X144000000Y-58500000D01*
X135810000Y-60500000D02*
X142000000Y-60500000D01*
%TO.N,Net-(U1-PA10_A2_D2)*%
X139500000Y-64000000D02*
X129000000Y-64000000D01*
X143639265Y-59860735D02*
X139500000Y-64000000D01*
X129000000Y-64000000D02*
X127500000Y-62500000D01*
X127500000Y-62500000D02*
X126500000Y-62500000D01*
%TO.N,Net-(U1-PA11_A3_D3)*%
X151500000Y-80000000D02*
X137500000Y-66000000D01*
X137500000Y-66000000D02*
X128500000Y-66000000D01*
X128500000Y-66000000D02*
X122600000Y-60100000D01*
X122600000Y-60100000D02*
X111600000Y-60100000D01*
X111600000Y-60100000D02*
X111500000Y-60000000D01*
%TO.N,Net-(D1-K)*%
X146000000Y-51500000D02*
X146500000Y-51500000D01*
X146500000Y-51500000D02*
X147000000Y-52000000D01*
X147000000Y-52000000D02*
X149190000Y-52000000D01*
X146000000Y-51500000D02*
X146000000Y-50500000D01*
X146000000Y-50500000D02*
X141000000Y-45500000D01*
X144500000Y-60414215D02*
X144500000Y-66000000D01*
X146000000Y-51500000D02*
X146000000Y-58914215D01*
X146000000Y-58914215D02*
X144500000Y-60414215D01*
%TO.N,Net-(D11-K)*%
X123000000Y-86500000D02*
X139000000Y-70500000D01*
X117000000Y-92500000D02*
X123000000Y-86500000D01*
X123000000Y-86500000D02*
X123500000Y-87000000D01*
X123500000Y-87000000D02*
X126690000Y-87000000D01*
%TO.N,Net-(D12-K)*%
X222190000Y-95000000D02*
X211810000Y-95000000D01*
X211810000Y-95000000D02*
X210310000Y-96500000D01*
X195500000Y-100500000D02*
X195500000Y-86000000D01*
X195500000Y-86000000D02*
X205000000Y-76500000D01*
%TO.N,Net-(D13-K)*%
X186500000Y-93500000D02*
X194500000Y-93500000D01*
X183000000Y-97000000D02*
X186500000Y-93500000D01*
X180500000Y-95000000D02*
X181000000Y-95000000D01*
X181000000Y-95000000D02*
X183000000Y-97000000D01*
X178000000Y-92500000D02*
X180500000Y-95000000D01*
X157500000Y-92500000D02*
X178000000Y-92500000D01*
%TO.N,Net-(D4-A)*%
X142500000Y-113000000D02*
X142500000Y-108810000D01*
X142500000Y-108810000D02*
X136690000Y-103000000D01*
%TO.N,Net-(D14-K)*%
X103937500Y-107000000D02*
X109000000Y-107000000D01*
X109000000Y-107000000D02*
X117500000Y-98500000D01*
X103937500Y-107000000D02*
X104810000Y-106127500D01*
X104810000Y-106127500D02*
X104810000Y-102000000D01*
X66190000Y-97000000D02*
X69690000Y-100500000D01*
X84243037Y-102243037D02*
X84243037Y-102743037D01*
X69690000Y-100500000D02*
X82500000Y-100500000D01*
X82500000Y-100500000D02*
X84243037Y-102243037D01*
X84243037Y-102743037D02*
X88500000Y-107000000D01*
X88500000Y-107000000D02*
X103937500Y-107000000D01*
X120310000Y-98500000D02*
X117500000Y-98500000D01*
%TO.N,Net-(D11-K)*%
X99000000Y-92500000D02*
X95810000Y-95690000D01*
X95810000Y-95690000D02*
X95810000Y-97000000D01*
%TO.N,Net-(U1-PA8_A4_D4_SDA)*%
X83000000Y-41000000D02*
X81000000Y-43000000D01*
X66500000Y-52500000D02*
X66500000Y-55500000D01*
X81000000Y-43000000D02*
X76000000Y-43000000D01*
X76000000Y-43000000D02*
X66500000Y-52500000D01*
X66500000Y-55500000D02*
X65000000Y-57000000D01*
X65000000Y-57000000D02*
X65000000Y-58000000D01*
X65000000Y-58000000D02*
X64500000Y-58500000D01*
%TO.N,Net-(D1-K)*%
X76500000Y-56000000D02*
X79000000Y-56000000D01*
X68000000Y-56000000D02*
X76500000Y-56000000D01*
X76500000Y-56000000D02*
X76500000Y-52810000D01*
%TO.N,Net-(D12-K)*%
X126000000Y-51000000D02*
X123500000Y-53500000D01*
X123500000Y-53500000D02*
X118500000Y-53500000D01*
X118500000Y-53500000D02*
X117500000Y-52500000D01*
X117500000Y-52500000D02*
X107810000Y-52500000D01*
%TO.N,Net-(D1-K)*%
X92000000Y-43500000D02*
X93000000Y-42500000D01*
X93000000Y-42500000D02*
X96500000Y-39000000D01*
X92000000Y-44500000D02*
X92000000Y-43500000D01*
X96500000Y-39000000D02*
X129500000Y-39000000D01*
X129500000Y-39000000D02*
X134250000Y-43750000D01*
X61500000Y-62500000D02*
X68000000Y-56000000D01*
%TO.N,Net-(D11-K)*%
X152000000Y-83500000D02*
X139000000Y-70500000D01*
X130500000Y-50100000D02*
X130500000Y-49551471D01*
X159000000Y-83500000D02*
X152000000Y-83500000D01*
X132051471Y-48000000D02*
X133500000Y-48000000D01*
X99000000Y-92500000D02*
X117000000Y-92500000D01*
X130500000Y-49551471D02*
X132051471Y-48000000D01*
%TO.N,Net-(D12-K)*%
X205000000Y-76500000D02*
X214000000Y-76500000D01*
%TO.N,Net-(D13-K)*%
X199000000Y-59000000D02*
X199000000Y-55000000D01*
X138500000Y-57500000D02*
X140500000Y-55500000D01*
X140500000Y-55500000D02*
X140500000Y-51500000D01*
X199000000Y-55000000D02*
X199500000Y-54500000D01*
%TO.N,Net-(D14-K)*%
X117500000Y-98500000D02*
X117500000Y-95500000D01*
%TO.N,Net-(U1-PA8_A4_D4_SDA)*%
X96500000Y-42000000D02*
X105000000Y-50500000D01*
X123600000Y-47400000D02*
X123500000Y-47500000D01*
X105000000Y-50500000D02*
X115000000Y-50500000D01*
X140500000Y-47500000D02*
X140400000Y-47400000D01*
X140400000Y-47400000D02*
X123600000Y-47400000D01*
%TO.N,Net-(U1-PA10_A2_D2)*%
X115500000Y-74500000D02*
X119000000Y-74500000D01*
%TO.N,Net-(U1-PA11_A3_D3)*%
X159000000Y-74500000D02*
X153500000Y-80000000D01*
X153500000Y-80000000D02*
X151500000Y-80000000D01*
%TO.N,Net-(U1-PA4_A1_D1)*%
X132000000Y-49000000D02*
X132000000Y-48900000D01*
X133500000Y-50500000D02*
X132000000Y-49000000D01*
%TO.N,Net-(U1-PA02_A0_D0)*%
X130348529Y-36500000D02*
X123500000Y-36500000D01*
X161000000Y-87000000D02*
X161000000Y-75651471D01*
X151948529Y-66600000D02*
X144100000Y-66600000D01*
X144600000Y-50751471D02*
X130348529Y-36500000D01*
X161000000Y-75651471D02*
X151948529Y-66600000D01*
X144600000Y-59748529D02*
X144600000Y-50751471D01*
X143900000Y-66400000D02*
X143900000Y-60448529D01*
X144100000Y-66600000D02*
X143900000Y-66400000D01*
X143900000Y-60448529D02*
X144600000Y-59748529D01*
%TD*%
M02*
