%TF.GenerationSoftware,KiCad,Pcbnew,8.0.5*%
%TF.CreationDate,2024-10-14T17:38:25-04:00*%
%TF.ProjectId,board,626f6172-642e-46b6-9963-61645f706362,1*%
%TF.SameCoordinates,Original*%
%TF.FileFunction,Legend,Bot*%
%TF.FilePolarity,Positive*%
%FSLAX46Y46*%
G04 Gerber Fmt 4.6, Leading zero omitted, Abs format (unit mm)*
G04 Created by KiCad (PCBNEW 8.0.5) date 2024-10-14 17:38:25*
%MOMM*%
%LPD*%
G01*
G04 APERTURE LIST*
%ADD10C,1.900000*%
%ADD11C,3.450000*%
%ADD12C,2.200000*%
%ADD13R,2.200000X2.200000*%
%ADD14O,2.200000X2.200000*%
%ADD15C,3.200000*%
G04 APERTURE END LIST*
%LPC*%
D10*
%TO.C,SWZ1*%
X210000000Y-83500000D03*
D11*
X215500000Y-83500000D03*
D10*
X221000000Y-83500000D03*
D12*
X215500000Y-77600000D03*
X220500000Y-79700000D03*
%TD*%
D13*
%TO.C,D17*%
X190000000Y-53000000D03*
D14*
X197620000Y-53000000D03*
%TD*%
D10*
%TO.C,SW#2*%
X173000000Y-48500000D03*
D11*
X178500000Y-48500000D03*
D10*
X184000000Y-48500000D03*
D12*
X178500000Y-42600000D03*
X183500000Y-44700000D03*
%TD*%
D13*
%TO.C,D5*%
X64190000Y-53500000D03*
D14*
X71810000Y-53500000D03*
%TD*%
D10*
%TO.C,SWE1*%
X136500000Y-118500000D03*
D11*
X142000000Y-118500000D03*
D10*
X147500000Y-118500000D03*
D12*
X142000000Y-112600000D03*
X147000000Y-114700000D03*
%TD*%
D13*
%TO.C,D20*%
X185310000Y-96500000D03*
D14*
X177690000Y-96500000D03*
%TD*%
D13*
%TO.C,D7*%
X152190000Y-53500000D03*
D14*
X159810000Y-53500000D03*
%TD*%
D10*
%TO.C,SW\u002A1*%
X118000000Y-74500000D03*
D11*
X123500000Y-74500000D03*
D10*
X129000000Y-74500000D03*
D12*
X123500000Y-68600000D03*
X128500000Y-70700000D03*
%TD*%
D10*
%TO.C,SWT2*%
X191500000Y-66000000D03*
D11*
X197000000Y-66000000D03*
D10*
X202500000Y-66000000D03*
D12*
X197000000Y-60100000D03*
X202000000Y-62200000D03*
%TD*%
D10*
%TO.C,SWR2*%
X136000000Y-83500000D03*
D11*
X141500000Y-83500000D03*
D10*
X147000000Y-83500000D03*
D12*
X141500000Y-77600000D03*
X146500000Y-79700000D03*
%TD*%
D10*
%TO.C,SWS2*%
X191500000Y-83500000D03*
D11*
X197000000Y-83500000D03*
D10*
X202500000Y-83500000D03*
D12*
X197000000Y-77600000D03*
X202000000Y-79700000D03*
%TD*%
D13*
%TO.C,D23*%
X146000000Y-45690000D03*
D14*
X146000000Y-53310000D03*
%TD*%
D10*
%TO.C,SWP2*%
X154500000Y-66000000D03*
D11*
X160000000Y-66000000D03*
D10*
X165500000Y-66000000D03*
D12*
X160000000Y-60100000D03*
X165000000Y-62200000D03*
%TD*%
D10*
%TO.C,SWO1*%
X111000000Y-118500000D03*
D11*
X116500000Y-118500000D03*
D10*
X122000000Y-118500000D03*
D12*
X116500000Y-112600000D03*
X121500000Y-114700000D03*
%TD*%
D10*
%TO.C,SW#1*%
X81500000Y-48000000D03*
D11*
X87000000Y-48000000D03*
D10*
X92500000Y-48000000D03*
D12*
X87000000Y-42100000D03*
X92000000Y-44200000D03*
%TD*%
D10*
%TO.C,SWS1*%
X45000000Y-73000000D03*
D11*
X50500000Y-73000000D03*
D10*
X56000000Y-73000000D03*
D12*
X50500000Y-67100000D03*
X55500000Y-69200000D03*
%TD*%
D13*
%TO.C,D18*%
X141690000Y-100500000D03*
D14*
X149310000Y-100500000D03*
%TD*%
D10*
%TO.C,SWU1*%
X155000000Y-118500000D03*
D11*
X160500000Y-118500000D03*
D10*
X166000000Y-118500000D03*
D12*
X160500000Y-112600000D03*
X165500000Y-114700000D03*
%TD*%
D13*
%TO.C,D6*%
X164190000Y-100500000D03*
D14*
X171810000Y-100500000D03*
%TD*%
D10*
%TO.C,SWB1*%
X154500000Y-83500000D03*
D11*
X160000000Y-83500000D03*
D10*
X165500000Y-83500000D03*
D12*
X160000000Y-77600000D03*
X165000000Y-79700000D03*
%TD*%
D15*
%TO.C,REF\u002A\u002A*%
X42500000Y-92000000D03*
%TD*%
D13*
%TO.C,D9*%
X76500000Y-52810000D03*
D14*
X76500000Y-45190000D03*
%TD*%
D13*
%TO.C,D11*%
X119380000Y-87000000D03*
D14*
X127000000Y-87000000D03*
%TD*%
D13*
%TO.C,D16*%
X61690000Y-96000000D03*
D14*
X69310000Y-96000000D03*
%TD*%
D10*
%TO.C,SWH1*%
X100000000Y-66000000D03*
D11*
X105500000Y-66000000D03*
D10*
X111000000Y-66000000D03*
D12*
X105500000Y-60100000D03*
X110500000Y-62200000D03*
%TD*%
D10*
%TO.C,SWT1*%
X63000000Y-66000000D03*
D11*
X68500000Y-66000000D03*
D10*
X74000000Y-66000000D03*
D12*
X68500000Y-60100000D03*
X73500000Y-62200000D03*
%TD*%
D13*
%TO.C,D12*%
X153190000Y-105000000D03*
D14*
X160810000Y-105000000D03*
%TD*%
D13*
%TO.C,D21*%
X191000000Y-47310000D03*
D14*
X191000000Y-39690000D03*
%TD*%
D13*
%TO.C,D2*%
X203690000Y-53500000D03*
D14*
X211310000Y-53500000D03*
%TD*%
D10*
%TO.C,SWA1*%
X92500000Y-118500000D03*
D11*
X98000000Y-118500000D03*
D10*
X103500000Y-118500000D03*
D12*
X98000000Y-112600000D03*
X103000000Y-114700000D03*
%TD*%
D10*
%TO.C,SWL1*%
X173000000Y-66000000D03*
D11*
X178500000Y-66000000D03*
D10*
X184000000Y-66000000D03*
D12*
X178500000Y-60100000D03*
X183500000Y-62200000D03*
%TD*%
D13*
%TO.C,D10*%
X128310000Y-97500000D03*
D14*
X120690000Y-97500000D03*
%TD*%
D15*
%TO.C,REF\u002A\u002A*%
X229000000Y-38000000D03*
%TD*%
D10*
%TO.C,SWF1*%
X136000000Y-66000000D03*
D11*
X141500000Y-66000000D03*
D10*
X147000000Y-66000000D03*
D12*
X141500000Y-60100000D03*
X146500000Y-62200000D03*
%TD*%
D13*
%TO.C,D13*%
X121190000Y-60500000D03*
D14*
X128810000Y-60500000D03*
%TD*%
D13*
%TO.C,D19*%
X107810000Y-52500000D03*
D14*
X100190000Y-52500000D03*
%TD*%
D10*
%TO.C,SWG1*%
X173000000Y-83500000D03*
D11*
X178500000Y-83500000D03*
D10*
X184000000Y-83500000D03*
D12*
X178500000Y-77600000D03*
X183500000Y-79700000D03*
%TD*%
D13*
%TO.C,D24*%
X77310000Y-40500000D03*
D14*
X69690000Y-40500000D03*
%TD*%
D10*
%TO.C,SWK1*%
X63000000Y-83500000D03*
D11*
X68500000Y-83500000D03*
D10*
X74000000Y-83500000D03*
D12*
X68500000Y-77600000D03*
X73500000Y-79700000D03*
%TD*%
D13*
%TO.C,D1*%
X57310000Y-63000000D03*
D14*
X49690000Y-63000000D03*
%TD*%
D15*
%TO.C,REF\u002A\u002A*%
X229000000Y-87500000D03*
%TD*%
D10*
%TO.C,SWD1*%
X210000000Y-66000000D03*
D11*
X215500000Y-66000000D03*
D10*
X221000000Y-66000000D03*
D12*
X215500000Y-60100000D03*
X220500000Y-62200000D03*
%TD*%
D10*
%TO.C,SWW1*%
X81500000Y-83400000D03*
D11*
X87000000Y-83400000D03*
D10*
X92500000Y-83400000D03*
D12*
X87000000Y-77500000D03*
X92000000Y-79600000D03*
%TD*%
D13*
%TO.C,D3*%
X192500000Y-96000000D03*
D14*
X200120000Y-96000000D03*
%TD*%
D13*
%TO.C,D15*%
X104810000Y-102000000D03*
D14*
X97190000Y-102000000D03*
%TD*%
D13*
%TO.C,D8*%
X152690000Y-97000000D03*
D14*
X160310000Y-97000000D03*
%TD*%
D10*
%TO.C,SWR1*%
X100000000Y-83500000D03*
D11*
X105500000Y-83500000D03*
D10*
X111000000Y-83500000D03*
D12*
X105500000Y-77600000D03*
X110500000Y-79700000D03*
%TD*%
D10*
%TO.C,SWP1*%
X81500000Y-66000000D03*
D11*
X87000000Y-66000000D03*
D10*
X92500000Y-66000000D03*
D12*
X87000000Y-60100000D03*
X92000000Y-62200000D03*
%TD*%
D13*
%TO.C,D4*%
X141310000Y-105000000D03*
D14*
X133690000Y-105000000D03*
%TD*%
D15*
%TO.C,REF\u002A\u002A*%
X42500000Y-38000000D03*
%TD*%
D13*
%TO.C,D22*%
X93620000Y-96000000D03*
D14*
X86000000Y-96000000D03*
%TD*%
D13*
%TO.C,D14*%
X105190000Y-97500000D03*
D14*
X112810000Y-97500000D03*
%TD*%
%LPD*%
M02*
