%TF.GenerationSoftware,KiCad,Pcbnew,8.0.5*%
%TF.CreationDate,2024-10-09T17:04:31-04:00*%
%TF.ProjectId,board,626f6172-642e-46b6-9963-61645f706362,1*%
%TF.SameCoordinates,Original*%
%TF.FileFunction,Legend,Top*%
%TF.FilePolarity,Positive*%
%FSLAX46Y46*%
G04 Gerber Fmt 4.6, Leading zero omitted, Abs format (unit mm)*
G04 Created by KiCad (PCBNEW 8.0.5) date 2024-10-09 17:04:31*
%MOMM*%
%LPD*%
G01*
G04 APERTURE LIST*
G04 Aperture macros list*
%AMRoundRect*
0 Rectangle with rounded corners*
0 $1 Rounding radius*
0 $2 $3 $4 $5 $6 $7 $8 $9 X,Y pos of 4 corners*
0 Add a 4 corners polygon primitive as box body*
4,1,4,$2,$3,$4,$5,$6,$7,$8,$9,$2,$3,0*
0 Add four circle primitives for the rounded corners*
1,1,$1+$1,$2,$3*
1,1,$1+$1,$4,$5*
1,1,$1+$1,$6,$7*
1,1,$1+$1,$8,$9*
0 Add four rect primitives between the rounded corners*
20,1,$1+$1,$2,$3,$4,$5,0*
20,1,$1+$1,$4,$5,$6,$7,0*
20,1,$1+$1,$6,$7,$8,$9,0*
20,1,$1+$1,$8,$9,$2,$3,0*%
G04 Aperture macros list end*
%ADD10C,0.100000*%
%ADD11C,0.150000*%
%ADD12C,0.101600*%
%ADD13C,0.120000*%
%ADD14C,0.127000*%
%ADD15C,0.254000*%
%ADD16C,0.025400*%
%ADD17C,2.200000*%
%ADD18RoundRect,0.243750X-0.243750X-0.456250X0.243750X-0.456250X0.243750X0.456250X-0.243750X0.456250X0*%
%ADD19RoundRect,0.243750X0.243750X0.456250X-0.243750X0.456250X-0.243750X-0.456250X0.243750X-0.456250X0*%
%ADD20R,3.000000X2.000000*%
%ADD21C,1.500000*%
%ADD22R,1.300000X2.300000*%
G04 APERTURE END LIST*
D10*
X89256265Y-106154800D02*
X89351503Y-106250038D01*
X89351503Y-106250038D02*
X89541979Y-106250038D01*
X89541979Y-106250038D02*
X89637217Y-106154800D01*
X89637217Y-106154800D02*
X89684836Y-105964323D01*
X89684836Y-105964323D02*
X89684836Y-105869085D01*
X89684836Y-105869085D02*
X89637217Y-105678609D01*
X89637217Y-105678609D02*
X89541979Y-105583371D01*
X89541979Y-105583371D02*
X89399122Y-105583371D01*
X89399122Y-105583371D02*
X89303884Y-105488133D01*
X89303884Y-105488133D02*
X89256265Y-105297657D01*
X89256265Y-105297657D02*
X89256265Y-105202419D01*
X89256265Y-105202419D02*
X89303884Y-105011942D01*
X89303884Y-105011942D02*
X89399122Y-104916704D01*
X89399122Y-104916704D02*
X89541979Y-104916704D01*
X89541979Y-104916704D02*
X89637217Y-105011942D01*
X89970551Y-104916704D02*
X90351503Y-104916704D01*
X90113408Y-104250038D02*
X90113408Y-105964323D01*
X90113408Y-105964323D02*
X90161027Y-106154800D01*
X90161027Y-106154800D02*
X90256265Y-106250038D01*
X90256265Y-106250038D02*
X90351503Y-106250038D01*
X91065789Y-106154800D02*
X90970551Y-106250038D01*
X90970551Y-106250038D02*
X90780075Y-106250038D01*
X90780075Y-106250038D02*
X90684837Y-106154800D01*
X90684837Y-106154800D02*
X90637218Y-105964323D01*
X90637218Y-105964323D02*
X90637218Y-105202419D01*
X90637218Y-105202419D02*
X90684837Y-105011942D01*
X90684837Y-105011942D02*
X90780075Y-104916704D01*
X90780075Y-104916704D02*
X90970551Y-104916704D01*
X90970551Y-104916704D02*
X91065789Y-105011942D01*
X91065789Y-105011942D02*
X91113408Y-105202419D01*
X91113408Y-105202419D02*
X91113408Y-105392895D01*
X91113408Y-105392895D02*
X90637218Y-105583371D01*
X91541980Y-104916704D02*
X91541980Y-106250038D01*
X91541980Y-105107180D02*
X91589599Y-105011942D01*
X91589599Y-105011942D02*
X91684837Y-104916704D01*
X91684837Y-104916704D02*
X91827694Y-104916704D01*
X91827694Y-104916704D02*
X91922932Y-105011942D01*
X91922932Y-105011942D02*
X91970551Y-105202419D01*
X91970551Y-105202419D02*
X91970551Y-106250038D01*
X92589599Y-106250038D02*
X92494361Y-106154800D01*
X92494361Y-106154800D02*
X92446742Y-106059561D01*
X92446742Y-106059561D02*
X92399123Y-105869085D01*
X92399123Y-105869085D02*
X92399123Y-105297657D01*
X92399123Y-105297657D02*
X92446742Y-105107180D01*
X92446742Y-105107180D02*
X92494361Y-105011942D01*
X92494361Y-105011942D02*
X92589599Y-104916704D01*
X92589599Y-104916704D02*
X92732456Y-104916704D01*
X92732456Y-104916704D02*
X92827694Y-105011942D01*
X92827694Y-105011942D02*
X92875313Y-105107180D01*
X92875313Y-105107180D02*
X92922932Y-105297657D01*
X92922932Y-105297657D02*
X92922932Y-105869085D01*
X92922932Y-105869085D02*
X92875313Y-106059561D01*
X92875313Y-106059561D02*
X92827694Y-106154800D01*
X92827694Y-106154800D02*
X92732456Y-106250038D01*
X92732456Y-106250038D02*
X92589599Y-106250038D01*
X93351504Y-106250038D02*
X93351504Y-104916704D01*
X93351504Y-105107180D02*
X93399123Y-105011942D01*
X93399123Y-105011942D02*
X93494361Y-104916704D01*
X93494361Y-104916704D02*
X93637218Y-104916704D01*
X93637218Y-104916704D02*
X93732456Y-105011942D01*
X93732456Y-105011942D02*
X93780075Y-105202419D01*
X93780075Y-105202419D02*
X93780075Y-106250038D01*
X93780075Y-105202419D02*
X93827694Y-105011942D01*
X93827694Y-105011942D02*
X93922932Y-104916704D01*
X93922932Y-104916704D02*
X94065789Y-104916704D01*
X94065789Y-104916704D02*
X94161028Y-105011942D01*
X94161028Y-105011942D02*
X94208647Y-105202419D01*
X94208647Y-105202419D02*
X94208647Y-106250038D01*
X95113408Y-106250038D02*
X95113408Y-105202419D01*
X95113408Y-105202419D02*
X95065789Y-105011942D01*
X95065789Y-105011942D02*
X94970551Y-104916704D01*
X94970551Y-104916704D02*
X94780075Y-104916704D01*
X94780075Y-104916704D02*
X94684837Y-105011942D01*
X95113408Y-106154800D02*
X95018170Y-106250038D01*
X95018170Y-106250038D02*
X94780075Y-106250038D01*
X94780075Y-106250038D02*
X94684837Y-106154800D01*
X94684837Y-106154800D02*
X94637218Y-105964323D01*
X94637218Y-105964323D02*
X94637218Y-105773847D01*
X94637218Y-105773847D02*
X94684837Y-105583371D01*
X94684837Y-105583371D02*
X94780075Y-105488133D01*
X94780075Y-105488133D02*
X95018170Y-105488133D01*
X95018170Y-105488133D02*
X95113408Y-105392895D01*
X95446742Y-104916704D02*
X95827694Y-104916704D01*
X95589599Y-104250038D02*
X95589599Y-105964323D01*
X95589599Y-105964323D02*
X95637218Y-106154800D01*
X95637218Y-106154800D02*
X95732456Y-106250038D01*
X95732456Y-106250038D02*
X95827694Y-106250038D01*
X96161028Y-106250038D02*
X96161028Y-104916704D01*
X96161028Y-104250038D02*
X96113409Y-104345276D01*
X96113409Y-104345276D02*
X96161028Y-104440514D01*
X96161028Y-104440514D02*
X96208647Y-104345276D01*
X96208647Y-104345276D02*
X96161028Y-104250038D01*
X96161028Y-104250038D02*
X96161028Y-104440514D01*
X97065789Y-106154800D02*
X96970551Y-106250038D01*
X96970551Y-106250038D02*
X96780075Y-106250038D01*
X96780075Y-106250038D02*
X96684837Y-106154800D01*
X96684837Y-106154800D02*
X96637218Y-106059561D01*
X96637218Y-106059561D02*
X96589599Y-105869085D01*
X96589599Y-105869085D02*
X96589599Y-105297657D01*
X96589599Y-105297657D02*
X96637218Y-105107180D01*
X96637218Y-105107180D02*
X96684837Y-105011942D01*
X96684837Y-105011942D02*
X96780075Y-104916704D01*
X96780075Y-104916704D02*
X96970551Y-104916704D01*
X96970551Y-104916704D02*
X97065789Y-105011942D01*
X98161028Y-104916704D02*
X98399123Y-106250038D01*
X98399123Y-106250038D02*
X98637218Y-104916704D01*
X99541980Y-106250038D02*
X98970552Y-106250038D01*
X99256266Y-106250038D02*
X99256266Y-104250038D01*
X99256266Y-104250038D02*
X99161028Y-104535752D01*
X99161028Y-104535752D02*
X99065790Y-104726228D01*
X99065790Y-104726228D02*
X98970552Y-104821466D01*
X100732457Y-106250038D02*
X100732457Y-104250038D01*
X100732457Y-105011942D02*
X100827695Y-104916704D01*
X100827695Y-104916704D02*
X101018171Y-104916704D01*
X101018171Y-104916704D02*
X101113409Y-105011942D01*
X101113409Y-105011942D02*
X101161028Y-105107180D01*
X101161028Y-105107180D02*
X101208647Y-105297657D01*
X101208647Y-105297657D02*
X101208647Y-105869085D01*
X101208647Y-105869085D02*
X101161028Y-106059561D01*
X101161028Y-106059561D02*
X101113409Y-106154800D01*
X101113409Y-106154800D02*
X101018171Y-106250038D01*
X101018171Y-106250038D02*
X100827695Y-106250038D01*
X100827695Y-106250038D02*
X100732457Y-106154800D01*
X101541981Y-104916704D02*
X101780076Y-106250038D01*
X102018171Y-104916704D02*
X101780076Y-106250038D01*
X101780076Y-106250038D02*
X101684838Y-106726228D01*
X101684838Y-106726228D02*
X101637219Y-106821466D01*
X101637219Y-106821466D02*
X101541981Y-106916704D01*
X103113410Y-106154800D02*
X103208648Y-106250038D01*
X103208648Y-106250038D02*
X103399124Y-106250038D01*
X103399124Y-106250038D02*
X103494362Y-106154800D01*
X103494362Y-106154800D02*
X103541981Y-105964323D01*
X103541981Y-105964323D02*
X103541981Y-105869085D01*
X103541981Y-105869085D02*
X103494362Y-105678609D01*
X103494362Y-105678609D02*
X103399124Y-105583371D01*
X103399124Y-105583371D02*
X103256267Y-105583371D01*
X103256267Y-105583371D02*
X103161029Y-105488133D01*
X103161029Y-105488133D02*
X103113410Y-105297657D01*
X103113410Y-105297657D02*
X103113410Y-105202419D01*
X103113410Y-105202419D02*
X103161029Y-105011942D01*
X103161029Y-105011942D02*
X103256267Y-104916704D01*
X103256267Y-104916704D02*
X103399124Y-104916704D01*
X103399124Y-104916704D02*
X103494362Y-105011942D01*
X104399124Y-106154800D02*
X104303886Y-106250038D01*
X104303886Y-106250038D02*
X104113410Y-106250038D01*
X104113410Y-106250038D02*
X104018172Y-106154800D01*
X104018172Y-106154800D02*
X103970553Y-106059561D01*
X103970553Y-106059561D02*
X103922934Y-105869085D01*
X103922934Y-105869085D02*
X103922934Y-105297657D01*
X103922934Y-105297657D02*
X103970553Y-105107180D01*
X103970553Y-105107180D02*
X104018172Y-105011942D01*
X104018172Y-105011942D02*
X104113410Y-104916704D01*
X104113410Y-104916704D02*
X104303886Y-104916704D01*
X104303886Y-104916704D02*
X104399124Y-105011942D01*
X105256267Y-106250038D02*
X105256267Y-105202419D01*
X105256267Y-105202419D02*
X105208648Y-105011942D01*
X105208648Y-105011942D02*
X105113410Y-104916704D01*
X105113410Y-104916704D02*
X104922934Y-104916704D01*
X104922934Y-104916704D02*
X104827696Y-105011942D01*
X105256267Y-106154800D02*
X105161029Y-106250038D01*
X105161029Y-106250038D02*
X104922934Y-106250038D01*
X104922934Y-106250038D02*
X104827696Y-106154800D01*
X104827696Y-106154800D02*
X104780077Y-105964323D01*
X104780077Y-105964323D02*
X104780077Y-105773847D01*
X104780077Y-105773847D02*
X104827696Y-105583371D01*
X104827696Y-105583371D02*
X104922934Y-105488133D01*
X104922934Y-105488133D02*
X105161029Y-105488133D01*
X105161029Y-105488133D02*
X105256267Y-105392895D01*
X105732458Y-106250038D02*
X105732458Y-104916704D01*
X105732458Y-105297657D02*
X105780077Y-105107180D01*
X105780077Y-105107180D02*
X105827696Y-105011942D01*
X105827696Y-105011942D02*
X105922934Y-104916704D01*
X105922934Y-104916704D02*
X106018172Y-104916704D01*
X106494363Y-106250038D02*
X106399125Y-106154800D01*
X106399125Y-106154800D02*
X106351506Y-105964323D01*
X106351506Y-105964323D02*
X106351506Y-104250038D01*
X107256268Y-106154800D02*
X107161030Y-106250038D01*
X107161030Y-106250038D02*
X106970554Y-106250038D01*
X106970554Y-106250038D02*
X106875316Y-106154800D01*
X106875316Y-106154800D02*
X106827697Y-105964323D01*
X106827697Y-105964323D02*
X106827697Y-105202419D01*
X106827697Y-105202419D02*
X106875316Y-105011942D01*
X106875316Y-105011942D02*
X106970554Y-104916704D01*
X106970554Y-104916704D02*
X107161030Y-104916704D01*
X107161030Y-104916704D02*
X107256268Y-105011942D01*
X107256268Y-105011942D02*
X107303887Y-105202419D01*
X107303887Y-105202419D02*
X107303887Y-105392895D01*
X107303887Y-105392895D02*
X106827697Y-105583371D01*
X107589602Y-104916704D02*
X107970554Y-104916704D01*
X107732459Y-104250038D02*
X107732459Y-105964323D01*
X107732459Y-105964323D02*
X107780078Y-106154800D01*
X107780078Y-106154800D02*
X107875316Y-106250038D01*
X107875316Y-106250038D02*
X107970554Y-106250038D01*
X108161031Y-104916704D02*
X108541983Y-104916704D01*
X108303888Y-104250038D02*
X108303888Y-105964323D01*
X108303888Y-105964323D02*
X108351507Y-106154800D01*
X108351507Y-106154800D02*
X108446745Y-106250038D01*
X108446745Y-106250038D02*
X108541983Y-106250038D01*
X109256269Y-106154800D02*
X109161031Y-106250038D01*
X109161031Y-106250038D02*
X108970555Y-106250038D01*
X108970555Y-106250038D02*
X108875317Y-106154800D01*
X108875317Y-106154800D02*
X108827698Y-105964323D01*
X108827698Y-105964323D02*
X108827698Y-105202419D01*
X108827698Y-105202419D02*
X108875317Y-105011942D01*
X108875317Y-105011942D02*
X108970555Y-104916704D01*
X108970555Y-104916704D02*
X109161031Y-104916704D01*
X109161031Y-104916704D02*
X109256269Y-105011942D01*
X109256269Y-105011942D02*
X109303888Y-105202419D01*
X109303888Y-105202419D02*
X109303888Y-105392895D01*
X109303888Y-105392895D02*
X108827698Y-105583371D01*
X109732460Y-106250038D02*
X109732460Y-104250038D01*
X109827698Y-105488133D02*
X110113412Y-106250038D01*
X110113412Y-104916704D02*
X109732460Y-105678609D01*
X110541984Y-106250038D02*
X110541984Y-104250038D01*
X110637222Y-105488133D02*
X110922936Y-106250038D01*
X110922936Y-104916704D02*
X110541984Y-105678609D01*
G36*
X112346545Y-106015896D02*
G01*
X112294675Y-105932453D01*
X112228517Y-105848819D01*
X112148072Y-105764994D01*
X112073429Y-105697797D01*
X111989642Y-105630477D01*
X111896711Y-105563036D01*
X111794637Y-105495472D01*
X111767690Y-105478562D01*
X111688509Y-105419798D01*
X111621831Y-105344281D01*
X111577180Y-105248668D01*
X111564480Y-105154207D01*
X111574640Y-105056736D01*
X111593300Y-104992030D01*
X111640584Y-104903721D01*
X111679762Y-104856231D01*
X111755058Y-104793148D01*
X111806280Y-104763907D01*
X111901519Y-104736338D01*
X111955268Y-104732644D01*
X112056007Y-104746108D01*
X112104745Y-104763907D01*
X112187978Y-104815542D01*
X112232240Y-104856231D01*
X112291316Y-104936297D01*
X112317236Y-104992030D01*
X112342424Y-105090185D01*
X112346545Y-105154207D01*
X112357050Y-105054616D01*
X112376343Y-104992030D01*
X112423932Y-104902347D01*
X112461828Y-104856231D01*
X112537963Y-104792461D01*
X112589323Y-104763907D01*
X112684562Y-104736338D01*
X112738311Y-104732644D01*
X112839049Y-104746108D01*
X112887787Y-104763907D01*
X112970448Y-104816229D01*
X113013817Y-104856231D01*
X113075030Y-104937671D01*
X113100767Y-104992030D01*
X113124831Y-105087145D01*
X113129588Y-105154207D01*
X113113475Y-105261034D01*
X113065136Y-105355651D01*
X112995115Y-105429503D01*
X112925889Y-105478562D01*
X112821628Y-105546156D01*
X112726465Y-105613628D01*
X112640400Y-105680978D01*
X112563433Y-105748206D01*
X112480018Y-105832069D01*
X112410819Y-105915741D01*
X112355836Y-105999223D01*
X112346545Y-106015896D01*
G37*
D11*
X227190476Y-76657200D02*
X227333333Y-76704819D01*
X227333333Y-76704819D02*
X227571428Y-76704819D01*
X227571428Y-76704819D02*
X227666666Y-76657200D01*
X227666666Y-76657200D02*
X227714285Y-76609580D01*
X227714285Y-76609580D02*
X227761904Y-76514342D01*
X227761904Y-76514342D02*
X227761904Y-76419104D01*
X227761904Y-76419104D02*
X227714285Y-76323866D01*
X227714285Y-76323866D02*
X227666666Y-76276247D01*
X227666666Y-76276247D02*
X227571428Y-76228628D01*
X227571428Y-76228628D02*
X227380952Y-76181009D01*
X227380952Y-76181009D02*
X227285714Y-76133390D01*
X227285714Y-76133390D02*
X227238095Y-76085771D01*
X227238095Y-76085771D02*
X227190476Y-75990533D01*
X227190476Y-75990533D02*
X227190476Y-75895295D01*
X227190476Y-75895295D02*
X227238095Y-75800057D01*
X227238095Y-75800057D02*
X227285714Y-75752438D01*
X227285714Y-75752438D02*
X227380952Y-75704819D01*
X227380952Y-75704819D02*
X227619047Y-75704819D01*
X227619047Y-75704819D02*
X227761904Y-75752438D01*
X228095238Y-75704819D02*
X228333333Y-76704819D01*
X228333333Y-76704819D02*
X228523809Y-75990533D01*
X228523809Y-75990533D02*
X228714285Y-76704819D01*
X228714285Y-76704819D02*
X228952381Y-75704819D01*
X229238095Y-75704819D02*
X229904761Y-75704819D01*
X229904761Y-75704819D02*
X229238095Y-76704819D01*
X229238095Y-76704819D02*
X229904761Y-76704819D01*
X230809523Y-76704819D02*
X230238095Y-76704819D01*
X230523809Y-76704819D02*
X230523809Y-75704819D01*
X230523809Y-75704819D02*
X230428571Y-75847676D01*
X230428571Y-75847676D02*
X230333333Y-75942914D01*
X230333333Y-75942914D02*
X230238095Y-75990533D01*
X200285714Y-58454819D02*
X200285714Y-57454819D01*
X200285714Y-57454819D02*
X200523809Y-57454819D01*
X200523809Y-57454819D02*
X200666666Y-57502438D01*
X200666666Y-57502438D02*
X200761904Y-57597676D01*
X200761904Y-57597676D02*
X200809523Y-57692914D01*
X200809523Y-57692914D02*
X200857142Y-57883390D01*
X200857142Y-57883390D02*
X200857142Y-58026247D01*
X200857142Y-58026247D02*
X200809523Y-58216723D01*
X200809523Y-58216723D02*
X200761904Y-58311961D01*
X200761904Y-58311961D02*
X200666666Y-58407200D01*
X200666666Y-58407200D02*
X200523809Y-58454819D01*
X200523809Y-58454819D02*
X200285714Y-58454819D01*
X201809523Y-58454819D02*
X201238095Y-58454819D01*
X201523809Y-58454819D02*
X201523809Y-57454819D01*
X201523809Y-57454819D02*
X201428571Y-57597676D01*
X201428571Y-57597676D02*
X201333333Y-57692914D01*
X201333333Y-57692914D02*
X201238095Y-57740533D01*
X202142857Y-57454819D02*
X202809523Y-57454819D01*
X202809523Y-57454819D02*
X202380952Y-58454819D01*
X187166667Y-36657200D02*
X187309524Y-36704819D01*
X187309524Y-36704819D02*
X187547619Y-36704819D01*
X187547619Y-36704819D02*
X187642857Y-36657200D01*
X187642857Y-36657200D02*
X187690476Y-36609580D01*
X187690476Y-36609580D02*
X187738095Y-36514342D01*
X187738095Y-36514342D02*
X187738095Y-36419104D01*
X187738095Y-36419104D02*
X187690476Y-36323866D01*
X187690476Y-36323866D02*
X187642857Y-36276247D01*
X187642857Y-36276247D02*
X187547619Y-36228628D01*
X187547619Y-36228628D02*
X187357143Y-36181009D01*
X187357143Y-36181009D02*
X187261905Y-36133390D01*
X187261905Y-36133390D02*
X187214286Y-36085771D01*
X187214286Y-36085771D02*
X187166667Y-35990533D01*
X187166667Y-35990533D02*
X187166667Y-35895295D01*
X187166667Y-35895295D02*
X187214286Y-35800057D01*
X187214286Y-35800057D02*
X187261905Y-35752438D01*
X187261905Y-35752438D02*
X187357143Y-35704819D01*
X187357143Y-35704819D02*
X187595238Y-35704819D01*
X187595238Y-35704819D02*
X187738095Y-35752438D01*
X188071429Y-35704819D02*
X188309524Y-36704819D01*
X188309524Y-36704819D02*
X188500000Y-35990533D01*
X188500000Y-35990533D02*
X188690476Y-36704819D01*
X188690476Y-36704819D02*
X188928572Y-35704819D01*
X189261905Y-36038152D02*
X189976190Y-36038152D01*
X189547619Y-35609580D02*
X189261905Y-36895295D01*
X189880952Y-36466723D02*
X189166667Y-36466723D01*
X189595238Y-36895295D02*
X189880952Y-35609580D01*
X190261905Y-35800057D02*
X190309524Y-35752438D01*
X190309524Y-35752438D02*
X190404762Y-35704819D01*
X190404762Y-35704819D02*
X190642857Y-35704819D01*
X190642857Y-35704819D02*
X190738095Y-35752438D01*
X190738095Y-35752438D02*
X190785714Y-35800057D01*
X190785714Y-35800057D02*
X190833333Y-35895295D01*
X190833333Y-35895295D02*
X190833333Y-35990533D01*
X190833333Y-35990533D02*
X190785714Y-36133390D01*
X190785714Y-36133390D02*
X190214286Y-36704819D01*
X190214286Y-36704819D02*
X190833333Y-36704819D01*
X60761905Y-58454819D02*
X60761905Y-57454819D01*
X60761905Y-57454819D02*
X61000000Y-57454819D01*
X61000000Y-57454819D02*
X61142857Y-57502438D01*
X61142857Y-57502438D02*
X61238095Y-57597676D01*
X61238095Y-57597676D02*
X61285714Y-57692914D01*
X61285714Y-57692914D02*
X61333333Y-57883390D01*
X61333333Y-57883390D02*
X61333333Y-58026247D01*
X61333333Y-58026247D02*
X61285714Y-58216723D01*
X61285714Y-58216723D02*
X61238095Y-58311961D01*
X61238095Y-58311961D02*
X61142857Y-58407200D01*
X61142857Y-58407200D02*
X61000000Y-58454819D01*
X61000000Y-58454819D02*
X60761905Y-58454819D01*
X62238095Y-57454819D02*
X61761905Y-57454819D01*
X61761905Y-57454819D02*
X61714286Y-57931009D01*
X61714286Y-57931009D02*
X61761905Y-57883390D01*
X61761905Y-57883390D02*
X61857143Y-57835771D01*
X61857143Y-57835771D02*
X62095238Y-57835771D01*
X62095238Y-57835771D02*
X62190476Y-57883390D01*
X62190476Y-57883390D02*
X62238095Y-57931009D01*
X62238095Y-57931009D02*
X62285714Y-58026247D01*
X62285714Y-58026247D02*
X62285714Y-58264342D01*
X62285714Y-58264342D02*
X62238095Y-58359580D01*
X62238095Y-58359580D02*
X62190476Y-58407200D01*
X62190476Y-58407200D02*
X62095238Y-58454819D01*
X62095238Y-58454819D02*
X61857143Y-58454819D01*
X61857143Y-58454819D02*
X61761905Y-58407200D01*
X61761905Y-58407200D02*
X61714286Y-58359580D01*
X138214286Y-109657200D02*
X138357143Y-109704819D01*
X138357143Y-109704819D02*
X138595238Y-109704819D01*
X138595238Y-109704819D02*
X138690476Y-109657200D01*
X138690476Y-109657200D02*
X138738095Y-109609580D01*
X138738095Y-109609580D02*
X138785714Y-109514342D01*
X138785714Y-109514342D02*
X138785714Y-109419104D01*
X138785714Y-109419104D02*
X138738095Y-109323866D01*
X138738095Y-109323866D02*
X138690476Y-109276247D01*
X138690476Y-109276247D02*
X138595238Y-109228628D01*
X138595238Y-109228628D02*
X138404762Y-109181009D01*
X138404762Y-109181009D02*
X138309524Y-109133390D01*
X138309524Y-109133390D02*
X138261905Y-109085771D01*
X138261905Y-109085771D02*
X138214286Y-108990533D01*
X138214286Y-108990533D02*
X138214286Y-108895295D01*
X138214286Y-108895295D02*
X138261905Y-108800057D01*
X138261905Y-108800057D02*
X138309524Y-108752438D01*
X138309524Y-108752438D02*
X138404762Y-108704819D01*
X138404762Y-108704819D02*
X138642857Y-108704819D01*
X138642857Y-108704819D02*
X138785714Y-108752438D01*
X139119048Y-108704819D02*
X139357143Y-109704819D01*
X139357143Y-109704819D02*
X139547619Y-108990533D01*
X139547619Y-108990533D02*
X139738095Y-109704819D01*
X139738095Y-109704819D02*
X139976191Y-108704819D01*
X140357143Y-109181009D02*
X140690476Y-109181009D01*
X140833333Y-109704819D02*
X140357143Y-109704819D01*
X140357143Y-109704819D02*
X140357143Y-108704819D01*
X140357143Y-108704819D02*
X140833333Y-108704819D01*
X141785714Y-109704819D02*
X141214286Y-109704819D01*
X141500000Y-109704819D02*
X141500000Y-108704819D01*
X141500000Y-108704819D02*
X141404762Y-108847676D01*
X141404762Y-108847676D02*
X141309524Y-108942914D01*
X141309524Y-108942914D02*
X141214286Y-108990533D01*
X215410714Y-91454819D02*
X215410714Y-90454819D01*
X215410714Y-90454819D02*
X215648809Y-90454819D01*
X215648809Y-90454819D02*
X215791666Y-90502438D01*
X215791666Y-90502438D02*
X215886904Y-90597676D01*
X215886904Y-90597676D02*
X215934523Y-90692914D01*
X215934523Y-90692914D02*
X215982142Y-90883390D01*
X215982142Y-90883390D02*
X215982142Y-91026247D01*
X215982142Y-91026247D02*
X215934523Y-91216723D01*
X215934523Y-91216723D02*
X215886904Y-91311961D01*
X215886904Y-91311961D02*
X215791666Y-91407200D01*
X215791666Y-91407200D02*
X215648809Y-91454819D01*
X215648809Y-91454819D02*
X215410714Y-91454819D01*
X216363095Y-90550057D02*
X216410714Y-90502438D01*
X216410714Y-90502438D02*
X216505952Y-90454819D01*
X216505952Y-90454819D02*
X216744047Y-90454819D01*
X216744047Y-90454819D02*
X216839285Y-90502438D01*
X216839285Y-90502438D02*
X216886904Y-90550057D01*
X216886904Y-90550057D02*
X216934523Y-90645295D01*
X216934523Y-90645295D02*
X216934523Y-90740533D01*
X216934523Y-90740533D02*
X216886904Y-90883390D01*
X216886904Y-90883390D02*
X216315476Y-91454819D01*
X216315476Y-91454819D02*
X216934523Y-91454819D01*
X217553571Y-90454819D02*
X217648809Y-90454819D01*
X217648809Y-90454819D02*
X217744047Y-90502438D01*
X217744047Y-90502438D02*
X217791666Y-90550057D01*
X217791666Y-90550057D02*
X217839285Y-90645295D01*
X217839285Y-90645295D02*
X217886904Y-90835771D01*
X217886904Y-90835771D02*
X217886904Y-91073866D01*
X217886904Y-91073866D02*
X217839285Y-91264342D01*
X217839285Y-91264342D02*
X217791666Y-91359580D01*
X217791666Y-91359580D02*
X217744047Y-91407200D01*
X217744047Y-91407200D02*
X217648809Y-91454819D01*
X217648809Y-91454819D02*
X217553571Y-91454819D01*
X217553571Y-91454819D02*
X217458333Y-91407200D01*
X217458333Y-91407200D02*
X217410714Y-91359580D01*
X217410714Y-91359580D02*
X217363095Y-91264342D01*
X217363095Y-91264342D02*
X217315476Y-91073866D01*
X217315476Y-91073866D02*
X217315476Y-90835771D01*
X217315476Y-90835771D02*
X217363095Y-90645295D01*
X217363095Y-90645295D02*
X217410714Y-90550057D01*
X217410714Y-90550057D02*
X217458333Y-90502438D01*
X217458333Y-90502438D02*
X217553571Y-90454819D01*
X180699405Y-58454819D02*
X180699405Y-57454819D01*
X180699405Y-57454819D02*
X180937500Y-57454819D01*
X180937500Y-57454819D02*
X181080357Y-57502438D01*
X181080357Y-57502438D02*
X181175595Y-57597676D01*
X181175595Y-57597676D02*
X181223214Y-57692914D01*
X181223214Y-57692914D02*
X181270833Y-57883390D01*
X181270833Y-57883390D02*
X181270833Y-58026247D01*
X181270833Y-58026247D02*
X181223214Y-58216723D01*
X181223214Y-58216723D02*
X181175595Y-58311961D01*
X181175595Y-58311961D02*
X181080357Y-58407200D01*
X181080357Y-58407200D02*
X180937500Y-58454819D01*
X180937500Y-58454819D02*
X180699405Y-58454819D01*
X181604167Y-57454819D02*
X182270833Y-57454819D01*
X182270833Y-57454819D02*
X181842262Y-58454819D01*
X127285714Y-66657200D02*
X127428571Y-66704819D01*
X127428571Y-66704819D02*
X127666666Y-66704819D01*
X127666666Y-66704819D02*
X127761904Y-66657200D01*
X127761904Y-66657200D02*
X127809523Y-66609580D01*
X127809523Y-66609580D02*
X127857142Y-66514342D01*
X127857142Y-66514342D02*
X127857142Y-66419104D01*
X127857142Y-66419104D02*
X127809523Y-66323866D01*
X127809523Y-66323866D02*
X127761904Y-66276247D01*
X127761904Y-66276247D02*
X127666666Y-66228628D01*
X127666666Y-66228628D02*
X127476190Y-66181009D01*
X127476190Y-66181009D02*
X127380952Y-66133390D01*
X127380952Y-66133390D02*
X127333333Y-66085771D01*
X127333333Y-66085771D02*
X127285714Y-65990533D01*
X127285714Y-65990533D02*
X127285714Y-65895295D01*
X127285714Y-65895295D02*
X127333333Y-65800057D01*
X127333333Y-65800057D02*
X127380952Y-65752438D01*
X127380952Y-65752438D02*
X127476190Y-65704819D01*
X127476190Y-65704819D02*
X127714285Y-65704819D01*
X127714285Y-65704819D02*
X127857142Y-65752438D01*
X128190476Y-65704819D02*
X128428571Y-66704819D01*
X128428571Y-66704819D02*
X128619047Y-65990533D01*
X128619047Y-65990533D02*
X128809523Y-66704819D01*
X128809523Y-66704819D02*
X129047619Y-65704819D01*
X129571428Y-65704819D02*
X129571428Y-65942914D01*
X129333333Y-65847676D02*
X129571428Y-65942914D01*
X129571428Y-65942914D02*
X129809523Y-65847676D01*
X129428571Y-66133390D02*
X129571428Y-65942914D01*
X129571428Y-65942914D02*
X129714285Y-66133390D01*
X130714285Y-66704819D02*
X130142857Y-66704819D01*
X130428571Y-66704819D02*
X130428571Y-65704819D01*
X130428571Y-65704819D02*
X130333333Y-65847676D01*
X130333333Y-65847676D02*
X130238095Y-65942914D01*
X130238095Y-65942914D02*
X130142857Y-65990533D01*
X207285714Y-56657200D02*
X207428571Y-56704819D01*
X207428571Y-56704819D02*
X207666666Y-56704819D01*
X207666666Y-56704819D02*
X207761904Y-56657200D01*
X207761904Y-56657200D02*
X207809523Y-56609580D01*
X207809523Y-56609580D02*
X207857142Y-56514342D01*
X207857142Y-56514342D02*
X207857142Y-56419104D01*
X207857142Y-56419104D02*
X207809523Y-56323866D01*
X207809523Y-56323866D02*
X207761904Y-56276247D01*
X207761904Y-56276247D02*
X207666666Y-56228628D01*
X207666666Y-56228628D02*
X207476190Y-56181009D01*
X207476190Y-56181009D02*
X207380952Y-56133390D01*
X207380952Y-56133390D02*
X207333333Y-56085771D01*
X207333333Y-56085771D02*
X207285714Y-55990533D01*
X207285714Y-55990533D02*
X207285714Y-55895295D01*
X207285714Y-55895295D02*
X207333333Y-55800057D01*
X207333333Y-55800057D02*
X207380952Y-55752438D01*
X207380952Y-55752438D02*
X207476190Y-55704819D01*
X207476190Y-55704819D02*
X207714285Y-55704819D01*
X207714285Y-55704819D02*
X207857142Y-55752438D01*
X208190476Y-55704819D02*
X208428571Y-56704819D01*
X208428571Y-56704819D02*
X208619047Y-55990533D01*
X208619047Y-55990533D02*
X208809523Y-56704819D01*
X208809523Y-56704819D02*
X209047619Y-55704819D01*
X209285714Y-55704819D02*
X209857142Y-55704819D01*
X209571428Y-56704819D02*
X209571428Y-55704819D01*
X210142857Y-55800057D02*
X210190476Y-55752438D01*
X210190476Y-55752438D02*
X210285714Y-55704819D01*
X210285714Y-55704819D02*
X210523809Y-55704819D01*
X210523809Y-55704819D02*
X210619047Y-55752438D01*
X210619047Y-55752438D02*
X210666666Y-55800057D01*
X210666666Y-55800057D02*
X210714285Y-55895295D01*
X210714285Y-55895295D02*
X210714285Y-55990533D01*
X210714285Y-55990533D02*
X210666666Y-56133390D01*
X210666666Y-56133390D02*
X210095238Y-56704819D01*
X210095238Y-56704819D02*
X210714285Y-56704819D01*
X147166667Y-76657200D02*
X147309524Y-76704819D01*
X147309524Y-76704819D02*
X147547619Y-76704819D01*
X147547619Y-76704819D02*
X147642857Y-76657200D01*
X147642857Y-76657200D02*
X147690476Y-76609580D01*
X147690476Y-76609580D02*
X147738095Y-76514342D01*
X147738095Y-76514342D02*
X147738095Y-76419104D01*
X147738095Y-76419104D02*
X147690476Y-76323866D01*
X147690476Y-76323866D02*
X147642857Y-76276247D01*
X147642857Y-76276247D02*
X147547619Y-76228628D01*
X147547619Y-76228628D02*
X147357143Y-76181009D01*
X147357143Y-76181009D02*
X147261905Y-76133390D01*
X147261905Y-76133390D02*
X147214286Y-76085771D01*
X147214286Y-76085771D02*
X147166667Y-75990533D01*
X147166667Y-75990533D02*
X147166667Y-75895295D01*
X147166667Y-75895295D02*
X147214286Y-75800057D01*
X147214286Y-75800057D02*
X147261905Y-75752438D01*
X147261905Y-75752438D02*
X147357143Y-75704819D01*
X147357143Y-75704819D02*
X147595238Y-75704819D01*
X147595238Y-75704819D02*
X147738095Y-75752438D01*
X148071429Y-75704819D02*
X148309524Y-76704819D01*
X148309524Y-76704819D02*
X148500000Y-75990533D01*
X148500000Y-75990533D02*
X148690476Y-76704819D01*
X148690476Y-76704819D02*
X148928572Y-75704819D01*
X149880952Y-76704819D02*
X149547619Y-76228628D01*
X149309524Y-76704819D02*
X149309524Y-75704819D01*
X149309524Y-75704819D02*
X149690476Y-75704819D01*
X149690476Y-75704819D02*
X149785714Y-75752438D01*
X149785714Y-75752438D02*
X149833333Y-75800057D01*
X149833333Y-75800057D02*
X149880952Y-75895295D01*
X149880952Y-75895295D02*
X149880952Y-76038152D01*
X149880952Y-76038152D02*
X149833333Y-76133390D01*
X149833333Y-76133390D02*
X149785714Y-76181009D01*
X149785714Y-76181009D02*
X149690476Y-76228628D01*
X149690476Y-76228628D02*
X149309524Y-76228628D01*
X150261905Y-75800057D02*
X150309524Y-75752438D01*
X150309524Y-75752438D02*
X150404762Y-75704819D01*
X150404762Y-75704819D02*
X150642857Y-75704819D01*
X150642857Y-75704819D02*
X150738095Y-75752438D01*
X150738095Y-75752438D02*
X150785714Y-75800057D01*
X150785714Y-75800057D02*
X150833333Y-75895295D01*
X150833333Y-75895295D02*
X150833333Y-75990533D01*
X150833333Y-75990533D02*
X150785714Y-76133390D01*
X150785714Y-76133390D02*
X150214286Y-76704819D01*
X150214286Y-76704819D02*
X150833333Y-76704819D01*
X207190476Y-76657200D02*
X207333333Y-76704819D01*
X207333333Y-76704819D02*
X207571428Y-76704819D01*
X207571428Y-76704819D02*
X207666666Y-76657200D01*
X207666666Y-76657200D02*
X207714285Y-76609580D01*
X207714285Y-76609580D02*
X207761904Y-76514342D01*
X207761904Y-76514342D02*
X207761904Y-76419104D01*
X207761904Y-76419104D02*
X207714285Y-76323866D01*
X207714285Y-76323866D02*
X207666666Y-76276247D01*
X207666666Y-76276247D02*
X207571428Y-76228628D01*
X207571428Y-76228628D02*
X207380952Y-76181009D01*
X207380952Y-76181009D02*
X207285714Y-76133390D01*
X207285714Y-76133390D02*
X207238095Y-76085771D01*
X207238095Y-76085771D02*
X207190476Y-75990533D01*
X207190476Y-75990533D02*
X207190476Y-75895295D01*
X207190476Y-75895295D02*
X207238095Y-75800057D01*
X207238095Y-75800057D02*
X207285714Y-75752438D01*
X207285714Y-75752438D02*
X207380952Y-75704819D01*
X207380952Y-75704819D02*
X207619047Y-75704819D01*
X207619047Y-75704819D02*
X207761904Y-75752438D01*
X208095238Y-75704819D02*
X208333333Y-76704819D01*
X208333333Y-76704819D02*
X208523809Y-75990533D01*
X208523809Y-75990533D02*
X208714285Y-76704819D01*
X208714285Y-76704819D02*
X208952381Y-75704819D01*
X209285714Y-76657200D02*
X209428571Y-76704819D01*
X209428571Y-76704819D02*
X209666666Y-76704819D01*
X209666666Y-76704819D02*
X209761904Y-76657200D01*
X209761904Y-76657200D02*
X209809523Y-76609580D01*
X209809523Y-76609580D02*
X209857142Y-76514342D01*
X209857142Y-76514342D02*
X209857142Y-76419104D01*
X209857142Y-76419104D02*
X209809523Y-76323866D01*
X209809523Y-76323866D02*
X209761904Y-76276247D01*
X209761904Y-76276247D02*
X209666666Y-76228628D01*
X209666666Y-76228628D02*
X209476190Y-76181009D01*
X209476190Y-76181009D02*
X209380952Y-76133390D01*
X209380952Y-76133390D02*
X209333333Y-76085771D01*
X209333333Y-76085771D02*
X209285714Y-75990533D01*
X209285714Y-75990533D02*
X209285714Y-75895295D01*
X209285714Y-75895295D02*
X209333333Y-75800057D01*
X209333333Y-75800057D02*
X209380952Y-75752438D01*
X209380952Y-75752438D02*
X209476190Y-75704819D01*
X209476190Y-75704819D02*
X209714285Y-75704819D01*
X209714285Y-75704819D02*
X209857142Y-75752438D01*
X210238095Y-75800057D02*
X210285714Y-75752438D01*
X210285714Y-75752438D02*
X210380952Y-75704819D01*
X210380952Y-75704819D02*
X210619047Y-75704819D01*
X210619047Y-75704819D02*
X210714285Y-75752438D01*
X210714285Y-75752438D02*
X210761904Y-75800057D01*
X210761904Y-75800057D02*
X210809523Y-75895295D01*
X210809523Y-75895295D02*
X210809523Y-75990533D01*
X210809523Y-75990533D02*
X210761904Y-76133390D01*
X210761904Y-76133390D02*
X210190476Y-76704819D01*
X210190476Y-76704819D02*
X210809523Y-76704819D01*
X160348214Y-58104819D02*
X160348214Y-57104819D01*
X160348214Y-57104819D02*
X160586309Y-57104819D01*
X160586309Y-57104819D02*
X160729166Y-57152438D01*
X160729166Y-57152438D02*
X160824404Y-57247676D01*
X160824404Y-57247676D02*
X160872023Y-57342914D01*
X160872023Y-57342914D02*
X160919642Y-57533390D01*
X160919642Y-57533390D02*
X160919642Y-57676247D01*
X160919642Y-57676247D02*
X160872023Y-57866723D01*
X160872023Y-57866723D02*
X160824404Y-57961961D01*
X160824404Y-57961961D02*
X160729166Y-58057200D01*
X160729166Y-58057200D02*
X160586309Y-58104819D01*
X160586309Y-58104819D02*
X160348214Y-58104819D01*
X161300595Y-57200057D02*
X161348214Y-57152438D01*
X161348214Y-57152438D02*
X161443452Y-57104819D01*
X161443452Y-57104819D02*
X161681547Y-57104819D01*
X161681547Y-57104819D02*
X161776785Y-57152438D01*
X161776785Y-57152438D02*
X161824404Y-57200057D01*
X161824404Y-57200057D02*
X161872023Y-57295295D01*
X161872023Y-57295295D02*
X161872023Y-57390533D01*
X161872023Y-57390533D02*
X161824404Y-57533390D01*
X161824404Y-57533390D02*
X161252976Y-58104819D01*
X161252976Y-58104819D02*
X161872023Y-58104819D01*
X162205357Y-57104819D02*
X162824404Y-57104819D01*
X162824404Y-57104819D02*
X162491071Y-57485771D01*
X162491071Y-57485771D02*
X162633928Y-57485771D01*
X162633928Y-57485771D02*
X162729166Y-57533390D01*
X162729166Y-57533390D02*
X162776785Y-57581009D01*
X162776785Y-57581009D02*
X162824404Y-57676247D01*
X162824404Y-57676247D02*
X162824404Y-57914342D01*
X162824404Y-57914342D02*
X162776785Y-58009580D01*
X162776785Y-58009580D02*
X162729166Y-58057200D01*
X162729166Y-58057200D02*
X162633928Y-58104819D01*
X162633928Y-58104819D02*
X162348214Y-58104819D01*
X162348214Y-58104819D02*
X162252976Y-58057200D01*
X162252976Y-58057200D02*
X162205357Y-58009580D01*
X167166667Y-56657200D02*
X167309524Y-56704819D01*
X167309524Y-56704819D02*
X167547619Y-56704819D01*
X167547619Y-56704819D02*
X167642857Y-56657200D01*
X167642857Y-56657200D02*
X167690476Y-56609580D01*
X167690476Y-56609580D02*
X167738095Y-56514342D01*
X167738095Y-56514342D02*
X167738095Y-56419104D01*
X167738095Y-56419104D02*
X167690476Y-56323866D01*
X167690476Y-56323866D02*
X167642857Y-56276247D01*
X167642857Y-56276247D02*
X167547619Y-56228628D01*
X167547619Y-56228628D02*
X167357143Y-56181009D01*
X167357143Y-56181009D02*
X167261905Y-56133390D01*
X167261905Y-56133390D02*
X167214286Y-56085771D01*
X167214286Y-56085771D02*
X167166667Y-55990533D01*
X167166667Y-55990533D02*
X167166667Y-55895295D01*
X167166667Y-55895295D02*
X167214286Y-55800057D01*
X167214286Y-55800057D02*
X167261905Y-55752438D01*
X167261905Y-55752438D02*
X167357143Y-55704819D01*
X167357143Y-55704819D02*
X167595238Y-55704819D01*
X167595238Y-55704819D02*
X167738095Y-55752438D01*
X168071429Y-55704819D02*
X168309524Y-56704819D01*
X168309524Y-56704819D02*
X168500000Y-55990533D01*
X168500000Y-55990533D02*
X168690476Y-56704819D01*
X168690476Y-56704819D02*
X168928572Y-55704819D01*
X169309524Y-56704819D02*
X169309524Y-55704819D01*
X169309524Y-55704819D02*
X169690476Y-55704819D01*
X169690476Y-55704819D02*
X169785714Y-55752438D01*
X169785714Y-55752438D02*
X169833333Y-55800057D01*
X169833333Y-55800057D02*
X169880952Y-55895295D01*
X169880952Y-55895295D02*
X169880952Y-56038152D01*
X169880952Y-56038152D02*
X169833333Y-56133390D01*
X169833333Y-56133390D02*
X169785714Y-56181009D01*
X169785714Y-56181009D02*
X169690476Y-56228628D01*
X169690476Y-56228628D02*
X169309524Y-56228628D01*
X170261905Y-55800057D02*
X170309524Y-55752438D01*
X170309524Y-55752438D02*
X170404762Y-55704819D01*
X170404762Y-55704819D02*
X170642857Y-55704819D01*
X170642857Y-55704819D02*
X170738095Y-55752438D01*
X170738095Y-55752438D02*
X170785714Y-55800057D01*
X170785714Y-55800057D02*
X170833333Y-55895295D01*
X170833333Y-55895295D02*
X170833333Y-55990533D01*
X170833333Y-55990533D02*
X170785714Y-56133390D01*
X170785714Y-56133390D02*
X170214286Y-56704819D01*
X170214286Y-56704819D02*
X170833333Y-56704819D01*
X116142857Y-109657200D02*
X116285714Y-109704819D01*
X116285714Y-109704819D02*
X116523809Y-109704819D01*
X116523809Y-109704819D02*
X116619047Y-109657200D01*
X116619047Y-109657200D02*
X116666666Y-109609580D01*
X116666666Y-109609580D02*
X116714285Y-109514342D01*
X116714285Y-109514342D02*
X116714285Y-109419104D01*
X116714285Y-109419104D02*
X116666666Y-109323866D01*
X116666666Y-109323866D02*
X116619047Y-109276247D01*
X116619047Y-109276247D02*
X116523809Y-109228628D01*
X116523809Y-109228628D02*
X116333333Y-109181009D01*
X116333333Y-109181009D02*
X116238095Y-109133390D01*
X116238095Y-109133390D02*
X116190476Y-109085771D01*
X116190476Y-109085771D02*
X116142857Y-108990533D01*
X116142857Y-108990533D02*
X116142857Y-108895295D01*
X116142857Y-108895295D02*
X116190476Y-108800057D01*
X116190476Y-108800057D02*
X116238095Y-108752438D01*
X116238095Y-108752438D02*
X116333333Y-108704819D01*
X116333333Y-108704819D02*
X116571428Y-108704819D01*
X116571428Y-108704819D02*
X116714285Y-108752438D01*
X117047619Y-108704819D02*
X117285714Y-109704819D01*
X117285714Y-109704819D02*
X117476190Y-108990533D01*
X117476190Y-108990533D02*
X117666666Y-109704819D01*
X117666666Y-109704819D02*
X117904762Y-108704819D01*
X118476190Y-108704819D02*
X118666666Y-108704819D01*
X118666666Y-108704819D02*
X118761904Y-108752438D01*
X118761904Y-108752438D02*
X118857142Y-108847676D01*
X118857142Y-108847676D02*
X118904761Y-109038152D01*
X118904761Y-109038152D02*
X118904761Y-109371485D01*
X118904761Y-109371485D02*
X118857142Y-109561961D01*
X118857142Y-109561961D02*
X118761904Y-109657200D01*
X118761904Y-109657200D02*
X118666666Y-109704819D01*
X118666666Y-109704819D02*
X118476190Y-109704819D01*
X118476190Y-109704819D02*
X118380952Y-109657200D01*
X118380952Y-109657200D02*
X118285714Y-109561961D01*
X118285714Y-109561961D02*
X118238095Y-109371485D01*
X118238095Y-109371485D02*
X118238095Y-109038152D01*
X118238095Y-109038152D02*
X118285714Y-108847676D01*
X118285714Y-108847676D02*
X118380952Y-108752438D01*
X118380952Y-108752438D02*
X118476190Y-108704819D01*
X119857142Y-109704819D02*
X119285714Y-109704819D01*
X119571428Y-109704819D02*
X119571428Y-108704819D01*
X119571428Y-108704819D02*
X119476190Y-108847676D01*
X119476190Y-108847676D02*
X119380952Y-108942914D01*
X119380952Y-108942914D02*
X119285714Y-108990533D01*
X87166667Y-36657200D02*
X87309524Y-36704819D01*
X87309524Y-36704819D02*
X87547619Y-36704819D01*
X87547619Y-36704819D02*
X87642857Y-36657200D01*
X87642857Y-36657200D02*
X87690476Y-36609580D01*
X87690476Y-36609580D02*
X87738095Y-36514342D01*
X87738095Y-36514342D02*
X87738095Y-36419104D01*
X87738095Y-36419104D02*
X87690476Y-36323866D01*
X87690476Y-36323866D02*
X87642857Y-36276247D01*
X87642857Y-36276247D02*
X87547619Y-36228628D01*
X87547619Y-36228628D02*
X87357143Y-36181009D01*
X87357143Y-36181009D02*
X87261905Y-36133390D01*
X87261905Y-36133390D02*
X87214286Y-36085771D01*
X87214286Y-36085771D02*
X87166667Y-35990533D01*
X87166667Y-35990533D02*
X87166667Y-35895295D01*
X87166667Y-35895295D02*
X87214286Y-35800057D01*
X87214286Y-35800057D02*
X87261905Y-35752438D01*
X87261905Y-35752438D02*
X87357143Y-35704819D01*
X87357143Y-35704819D02*
X87595238Y-35704819D01*
X87595238Y-35704819D02*
X87738095Y-35752438D01*
X88071429Y-35704819D02*
X88309524Y-36704819D01*
X88309524Y-36704819D02*
X88500000Y-35990533D01*
X88500000Y-35990533D02*
X88690476Y-36704819D01*
X88690476Y-36704819D02*
X88928572Y-35704819D01*
X89261905Y-36038152D02*
X89976190Y-36038152D01*
X89547619Y-35609580D02*
X89261905Y-36895295D01*
X89880952Y-36466723D02*
X89166667Y-36466723D01*
X89595238Y-36895295D02*
X89880952Y-35609580D01*
X90833333Y-36704819D02*
X90261905Y-36704819D01*
X90547619Y-36704819D02*
X90547619Y-35704819D01*
X90547619Y-35704819D02*
X90452381Y-35847676D01*
X90452381Y-35847676D02*
X90357143Y-35942914D01*
X90357143Y-35942914D02*
X90261905Y-35990533D01*
X47190476Y-67157200D02*
X47333333Y-67204819D01*
X47333333Y-67204819D02*
X47571428Y-67204819D01*
X47571428Y-67204819D02*
X47666666Y-67157200D01*
X47666666Y-67157200D02*
X47714285Y-67109580D01*
X47714285Y-67109580D02*
X47761904Y-67014342D01*
X47761904Y-67014342D02*
X47761904Y-66919104D01*
X47761904Y-66919104D02*
X47714285Y-66823866D01*
X47714285Y-66823866D02*
X47666666Y-66776247D01*
X47666666Y-66776247D02*
X47571428Y-66728628D01*
X47571428Y-66728628D02*
X47380952Y-66681009D01*
X47380952Y-66681009D02*
X47285714Y-66633390D01*
X47285714Y-66633390D02*
X47238095Y-66585771D01*
X47238095Y-66585771D02*
X47190476Y-66490533D01*
X47190476Y-66490533D02*
X47190476Y-66395295D01*
X47190476Y-66395295D02*
X47238095Y-66300057D01*
X47238095Y-66300057D02*
X47285714Y-66252438D01*
X47285714Y-66252438D02*
X47380952Y-66204819D01*
X47380952Y-66204819D02*
X47619047Y-66204819D01*
X47619047Y-66204819D02*
X47761904Y-66252438D01*
X48095238Y-66204819D02*
X48333333Y-67204819D01*
X48333333Y-67204819D02*
X48523809Y-66490533D01*
X48523809Y-66490533D02*
X48714285Y-67204819D01*
X48714285Y-67204819D02*
X48952381Y-66204819D01*
X49285714Y-67157200D02*
X49428571Y-67204819D01*
X49428571Y-67204819D02*
X49666666Y-67204819D01*
X49666666Y-67204819D02*
X49761904Y-67157200D01*
X49761904Y-67157200D02*
X49809523Y-67109580D01*
X49809523Y-67109580D02*
X49857142Y-67014342D01*
X49857142Y-67014342D02*
X49857142Y-66919104D01*
X49857142Y-66919104D02*
X49809523Y-66823866D01*
X49809523Y-66823866D02*
X49761904Y-66776247D01*
X49761904Y-66776247D02*
X49666666Y-66728628D01*
X49666666Y-66728628D02*
X49476190Y-66681009D01*
X49476190Y-66681009D02*
X49380952Y-66633390D01*
X49380952Y-66633390D02*
X49333333Y-66585771D01*
X49333333Y-66585771D02*
X49285714Y-66490533D01*
X49285714Y-66490533D02*
X49285714Y-66395295D01*
X49285714Y-66395295D02*
X49333333Y-66300057D01*
X49333333Y-66300057D02*
X49380952Y-66252438D01*
X49380952Y-66252438D02*
X49476190Y-66204819D01*
X49476190Y-66204819D02*
X49714285Y-66204819D01*
X49714285Y-66204819D02*
X49857142Y-66252438D01*
X50809523Y-67204819D02*
X50238095Y-67204819D01*
X50523809Y-67204819D02*
X50523809Y-66204819D01*
X50523809Y-66204819D02*
X50428571Y-66347676D01*
X50428571Y-66347676D02*
X50333333Y-66442914D01*
X50333333Y-66442914D02*
X50238095Y-66490533D01*
X155285714Y-91954819D02*
X155285714Y-90954819D01*
X155285714Y-90954819D02*
X155523809Y-90954819D01*
X155523809Y-90954819D02*
X155666666Y-91002438D01*
X155666666Y-91002438D02*
X155761904Y-91097676D01*
X155761904Y-91097676D02*
X155809523Y-91192914D01*
X155809523Y-91192914D02*
X155857142Y-91383390D01*
X155857142Y-91383390D02*
X155857142Y-91526247D01*
X155857142Y-91526247D02*
X155809523Y-91716723D01*
X155809523Y-91716723D02*
X155761904Y-91811961D01*
X155761904Y-91811961D02*
X155666666Y-91907200D01*
X155666666Y-91907200D02*
X155523809Y-91954819D01*
X155523809Y-91954819D02*
X155285714Y-91954819D01*
X156809523Y-91954819D02*
X156238095Y-91954819D01*
X156523809Y-91954819D02*
X156523809Y-90954819D01*
X156523809Y-90954819D02*
X156428571Y-91097676D01*
X156428571Y-91097676D02*
X156333333Y-91192914D01*
X156333333Y-91192914D02*
X156238095Y-91240533D01*
X157380952Y-91383390D02*
X157285714Y-91335771D01*
X157285714Y-91335771D02*
X157238095Y-91288152D01*
X157238095Y-91288152D02*
X157190476Y-91192914D01*
X157190476Y-91192914D02*
X157190476Y-91145295D01*
X157190476Y-91145295D02*
X157238095Y-91050057D01*
X157238095Y-91050057D02*
X157285714Y-91002438D01*
X157285714Y-91002438D02*
X157380952Y-90954819D01*
X157380952Y-90954819D02*
X157571428Y-90954819D01*
X157571428Y-90954819D02*
X157666666Y-91002438D01*
X157666666Y-91002438D02*
X157714285Y-91050057D01*
X157714285Y-91050057D02*
X157761904Y-91145295D01*
X157761904Y-91145295D02*
X157761904Y-91192914D01*
X157761904Y-91192914D02*
X157714285Y-91288152D01*
X157714285Y-91288152D02*
X157666666Y-91335771D01*
X157666666Y-91335771D02*
X157571428Y-91383390D01*
X157571428Y-91383390D02*
X157380952Y-91383390D01*
X157380952Y-91383390D02*
X157285714Y-91431009D01*
X157285714Y-91431009D02*
X157238095Y-91478628D01*
X157238095Y-91478628D02*
X157190476Y-91573866D01*
X157190476Y-91573866D02*
X157190476Y-91764342D01*
X157190476Y-91764342D02*
X157238095Y-91859580D01*
X157238095Y-91859580D02*
X157285714Y-91907200D01*
X157285714Y-91907200D02*
X157380952Y-91954819D01*
X157380952Y-91954819D02*
X157571428Y-91954819D01*
X157571428Y-91954819D02*
X157666666Y-91907200D01*
X157666666Y-91907200D02*
X157714285Y-91859580D01*
X157714285Y-91859580D02*
X157761904Y-91764342D01*
X157761904Y-91764342D02*
X157761904Y-91573866D01*
X157761904Y-91573866D02*
X157714285Y-91478628D01*
X157714285Y-91478628D02*
X157666666Y-91431009D01*
X157666666Y-91431009D02*
X157571428Y-91383390D01*
X158142857Y-109657200D02*
X158285714Y-109704819D01*
X158285714Y-109704819D02*
X158523809Y-109704819D01*
X158523809Y-109704819D02*
X158619047Y-109657200D01*
X158619047Y-109657200D02*
X158666666Y-109609580D01*
X158666666Y-109609580D02*
X158714285Y-109514342D01*
X158714285Y-109514342D02*
X158714285Y-109419104D01*
X158714285Y-109419104D02*
X158666666Y-109323866D01*
X158666666Y-109323866D02*
X158619047Y-109276247D01*
X158619047Y-109276247D02*
X158523809Y-109228628D01*
X158523809Y-109228628D02*
X158333333Y-109181009D01*
X158333333Y-109181009D02*
X158238095Y-109133390D01*
X158238095Y-109133390D02*
X158190476Y-109085771D01*
X158190476Y-109085771D02*
X158142857Y-108990533D01*
X158142857Y-108990533D02*
X158142857Y-108895295D01*
X158142857Y-108895295D02*
X158190476Y-108800057D01*
X158190476Y-108800057D02*
X158238095Y-108752438D01*
X158238095Y-108752438D02*
X158333333Y-108704819D01*
X158333333Y-108704819D02*
X158571428Y-108704819D01*
X158571428Y-108704819D02*
X158714285Y-108752438D01*
X159047619Y-108704819D02*
X159285714Y-109704819D01*
X159285714Y-109704819D02*
X159476190Y-108990533D01*
X159476190Y-108990533D02*
X159666666Y-109704819D01*
X159666666Y-109704819D02*
X159904762Y-108704819D01*
X160285714Y-108704819D02*
X160285714Y-109514342D01*
X160285714Y-109514342D02*
X160333333Y-109609580D01*
X160333333Y-109609580D02*
X160380952Y-109657200D01*
X160380952Y-109657200D02*
X160476190Y-109704819D01*
X160476190Y-109704819D02*
X160666666Y-109704819D01*
X160666666Y-109704819D02*
X160761904Y-109657200D01*
X160761904Y-109657200D02*
X160809523Y-109609580D01*
X160809523Y-109609580D02*
X160857142Y-109514342D01*
X160857142Y-109514342D02*
X160857142Y-108704819D01*
X161857142Y-109704819D02*
X161285714Y-109704819D01*
X161571428Y-109704819D02*
X161571428Y-108704819D01*
X161571428Y-108704819D02*
X161476190Y-108847676D01*
X161476190Y-108847676D02*
X161380952Y-108942914D01*
X161380952Y-108942914D02*
X161285714Y-108990533D01*
X195761905Y-91454819D02*
X195761905Y-90454819D01*
X195761905Y-90454819D02*
X196000000Y-90454819D01*
X196000000Y-90454819D02*
X196142857Y-90502438D01*
X196142857Y-90502438D02*
X196238095Y-90597676D01*
X196238095Y-90597676D02*
X196285714Y-90692914D01*
X196285714Y-90692914D02*
X196333333Y-90883390D01*
X196333333Y-90883390D02*
X196333333Y-91026247D01*
X196333333Y-91026247D02*
X196285714Y-91216723D01*
X196285714Y-91216723D02*
X196238095Y-91311961D01*
X196238095Y-91311961D02*
X196142857Y-91407200D01*
X196142857Y-91407200D02*
X196000000Y-91454819D01*
X196000000Y-91454819D02*
X195761905Y-91454819D01*
X197190476Y-90454819D02*
X197000000Y-90454819D01*
X197000000Y-90454819D02*
X196904762Y-90502438D01*
X196904762Y-90502438D02*
X196857143Y-90550057D01*
X196857143Y-90550057D02*
X196761905Y-90692914D01*
X196761905Y-90692914D02*
X196714286Y-90883390D01*
X196714286Y-90883390D02*
X196714286Y-91264342D01*
X196714286Y-91264342D02*
X196761905Y-91359580D01*
X196761905Y-91359580D02*
X196809524Y-91407200D01*
X196809524Y-91407200D02*
X196904762Y-91454819D01*
X196904762Y-91454819D02*
X197095238Y-91454819D01*
X197095238Y-91454819D02*
X197190476Y-91407200D01*
X197190476Y-91407200D02*
X197238095Y-91359580D01*
X197238095Y-91359580D02*
X197285714Y-91264342D01*
X197285714Y-91264342D02*
X197285714Y-91026247D01*
X197285714Y-91026247D02*
X197238095Y-90931009D01*
X197238095Y-90931009D02*
X197190476Y-90883390D01*
X197190476Y-90883390D02*
X197095238Y-90835771D01*
X197095238Y-90835771D02*
X196904762Y-90835771D01*
X196904762Y-90835771D02*
X196809524Y-90883390D01*
X196809524Y-90883390D02*
X196761905Y-90931009D01*
X196761905Y-90931009D02*
X196714286Y-91026247D01*
X167166667Y-76657200D02*
X167309524Y-76704819D01*
X167309524Y-76704819D02*
X167547619Y-76704819D01*
X167547619Y-76704819D02*
X167642857Y-76657200D01*
X167642857Y-76657200D02*
X167690476Y-76609580D01*
X167690476Y-76609580D02*
X167738095Y-76514342D01*
X167738095Y-76514342D02*
X167738095Y-76419104D01*
X167738095Y-76419104D02*
X167690476Y-76323866D01*
X167690476Y-76323866D02*
X167642857Y-76276247D01*
X167642857Y-76276247D02*
X167547619Y-76228628D01*
X167547619Y-76228628D02*
X167357143Y-76181009D01*
X167357143Y-76181009D02*
X167261905Y-76133390D01*
X167261905Y-76133390D02*
X167214286Y-76085771D01*
X167214286Y-76085771D02*
X167166667Y-75990533D01*
X167166667Y-75990533D02*
X167166667Y-75895295D01*
X167166667Y-75895295D02*
X167214286Y-75800057D01*
X167214286Y-75800057D02*
X167261905Y-75752438D01*
X167261905Y-75752438D02*
X167357143Y-75704819D01*
X167357143Y-75704819D02*
X167595238Y-75704819D01*
X167595238Y-75704819D02*
X167738095Y-75752438D01*
X168071429Y-75704819D02*
X168309524Y-76704819D01*
X168309524Y-76704819D02*
X168500000Y-75990533D01*
X168500000Y-75990533D02*
X168690476Y-76704819D01*
X168690476Y-76704819D02*
X168928572Y-75704819D01*
X169642857Y-76181009D02*
X169785714Y-76228628D01*
X169785714Y-76228628D02*
X169833333Y-76276247D01*
X169833333Y-76276247D02*
X169880952Y-76371485D01*
X169880952Y-76371485D02*
X169880952Y-76514342D01*
X169880952Y-76514342D02*
X169833333Y-76609580D01*
X169833333Y-76609580D02*
X169785714Y-76657200D01*
X169785714Y-76657200D02*
X169690476Y-76704819D01*
X169690476Y-76704819D02*
X169309524Y-76704819D01*
X169309524Y-76704819D02*
X169309524Y-75704819D01*
X169309524Y-75704819D02*
X169642857Y-75704819D01*
X169642857Y-75704819D02*
X169738095Y-75752438D01*
X169738095Y-75752438D02*
X169785714Y-75800057D01*
X169785714Y-75800057D02*
X169833333Y-75895295D01*
X169833333Y-75895295D02*
X169833333Y-75990533D01*
X169833333Y-75990533D02*
X169785714Y-76085771D01*
X169785714Y-76085771D02*
X169738095Y-76133390D01*
X169738095Y-76133390D02*
X169642857Y-76181009D01*
X169642857Y-76181009D02*
X169309524Y-76181009D01*
X170833333Y-76704819D02*
X170261905Y-76704819D01*
X170547619Y-76704819D02*
X170547619Y-75704819D01*
X170547619Y-75704819D02*
X170452381Y-75847676D01*
X170452381Y-75847676D02*
X170357143Y-75942914D01*
X170357143Y-75942914D02*
X170261905Y-75990533D01*
X80761905Y-58954819D02*
X80761905Y-57954819D01*
X80761905Y-57954819D02*
X81000000Y-57954819D01*
X81000000Y-57954819D02*
X81142857Y-58002438D01*
X81142857Y-58002438D02*
X81238095Y-58097676D01*
X81238095Y-58097676D02*
X81285714Y-58192914D01*
X81285714Y-58192914D02*
X81333333Y-58383390D01*
X81333333Y-58383390D02*
X81333333Y-58526247D01*
X81333333Y-58526247D02*
X81285714Y-58716723D01*
X81285714Y-58716723D02*
X81238095Y-58811961D01*
X81238095Y-58811961D02*
X81142857Y-58907200D01*
X81142857Y-58907200D02*
X81000000Y-58954819D01*
X81000000Y-58954819D02*
X80761905Y-58954819D01*
X81809524Y-58954819D02*
X82000000Y-58954819D01*
X82000000Y-58954819D02*
X82095238Y-58907200D01*
X82095238Y-58907200D02*
X82142857Y-58859580D01*
X82142857Y-58859580D02*
X82238095Y-58716723D01*
X82238095Y-58716723D02*
X82285714Y-58526247D01*
X82285714Y-58526247D02*
X82285714Y-58145295D01*
X82285714Y-58145295D02*
X82238095Y-58050057D01*
X82238095Y-58050057D02*
X82190476Y-58002438D01*
X82190476Y-58002438D02*
X82095238Y-57954819D01*
X82095238Y-57954819D02*
X81904762Y-57954819D01*
X81904762Y-57954819D02*
X81809524Y-58002438D01*
X81809524Y-58002438D02*
X81761905Y-58050057D01*
X81761905Y-58050057D02*
X81714286Y-58145295D01*
X81714286Y-58145295D02*
X81714286Y-58383390D01*
X81714286Y-58383390D02*
X81761905Y-58478628D01*
X81761905Y-58478628D02*
X81809524Y-58526247D01*
X81809524Y-58526247D02*
X81904762Y-58573866D01*
X81904762Y-58573866D02*
X82095238Y-58573866D01*
X82095238Y-58573866D02*
X82190476Y-58526247D01*
X82190476Y-58526247D02*
X82238095Y-58478628D01*
X82238095Y-58478628D02*
X82285714Y-58383390D01*
X135285714Y-68104819D02*
X135285714Y-67104819D01*
X135285714Y-67104819D02*
X135523809Y-67104819D01*
X135523809Y-67104819D02*
X135666666Y-67152438D01*
X135666666Y-67152438D02*
X135761904Y-67247676D01*
X135761904Y-67247676D02*
X135809523Y-67342914D01*
X135809523Y-67342914D02*
X135857142Y-67533390D01*
X135857142Y-67533390D02*
X135857142Y-67676247D01*
X135857142Y-67676247D02*
X135809523Y-67866723D01*
X135809523Y-67866723D02*
X135761904Y-67961961D01*
X135761904Y-67961961D02*
X135666666Y-68057200D01*
X135666666Y-68057200D02*
X135523809Y-68104819D01*
X135523809Y-68104819D02*
X135285714Y-68104819D01*
X136809523Y-68104819D02*
X136238095Y-68104819D01*
X136523809Y-68104819D02*
X136523809Y-67104819D01*
X136523809Y-67104819D02*
X136428571Y-67247676D01*
X136428571Y-67247676D02*
X136333333Y-67342914D01*
X136333333Y-67342914D02*
X136238095Y-67390533D01*
X137761904Y-68104819D02*
X137190476Y-68104819D01*
X137476190Y-68104819D02*
X137476190Y-67104819D01*
X137476190Y-67104819D02*
X137380952Y-67247676D01*
X137380952Y-67247676D02*
X137285714Y-67342914D01*
X137285714Y-67342914D02*
X137190476Y-67390533D01*
D12*
X128322666Y-45906985D02*
X128322666Y-46626652D01*
X128322666Y-46626652D02*
X128365000Y-46711318D01*
X128365000Y-46711318D02*
X128407333Y-46753652D01*
X128407333Y-46753652D02*
X128492000Y-46795985D01*
X128492000Y-46795985D02*
X128661333Y-46795985D01*
X128661333Y-46795985D02*
X128746000Y-46753652D01*
X128746000Y-46753652D02*
X128788333Y-46711318D01*
X128788333Y-46711318D02*
X128830666Y-46626652D01*
X128830666Y-46626652D02*
X128830666Y-45906985D01*
X129719666Y-46795985D02*
X129211666Y-46795985D01*
X129465666Y-46795985D02*
X129465666Y-45906985D01*
X129465666Y-45906985D02*
X129380999Y-46033985D01*
X129380999Y-46033985D02*
X129296333Y-46118652D01*
X129296333Y-46118652D02*
X129211666Y-46160985D01*
D11*
X124238095Y-42757200D02*
X124380952Y-42804819D01*
X124380952Y-42804819D02*
X124619047Y-42804819D01*
X124619047Y-42804819D02*
X124714285Y-42757200D01*
X124714285Y-42757200D02*
X124761904Y-42709580D01*
X124761904Y-42709580D02*
X124809523Y-42614342D01*
X124809523Y-42614342D02*
X124809523Y-42519104D01*
X124809523Y-42519104D02*
X124761904Y-42423866D01*
X124761904Y-42423866D02*
X124714285Y-42376247D01*
X124714285Y-42376247D02*
X124619047Y-42328628D01*
X124619047Y-42328628D02*
X124428571Y-42281009D01*
X124428571Y-42281009D02*
X124333333Y-42233390D01*
X124333333Y-42233390D02*
X124285714Y-42185771D01*
X124285714Y-42185771D02*
X124238095Y-42090533D01*
X124238095Y-42090533D02*
X124238095Y-41995295D01*
X124238095Y-41995295D02*
X124285714Y-41900057D01*
X124285714Y-41900057D02*
X124333333Y-41852438D01*
X124333333Y-41852438D02*
X124428571Y-41804819D01*
X124428571Y-41804819D02*
X124666666Y-41804819D01*
X124666666Y-41804819D02*
X124809523Y-41852438D01*
X125619047Y-42757200D02*
X125523809Y-42804819D01*
X125523809Y-42804819D02*
X125333333Y-42804819D01*
X125333333Y-42804819D02*
X125238095Y-42757200D01*
X125238095Y-42757200D02*
X125190476Y-42661961D01*
X125190476Y-42661961D02*
X125190476Y-42281009D01*
X125190476Y-42281009D02*
X125238095Y-42185771D01*
X125238095Y-42185771D02*
X125333333Y-42138152D01*
X125333333Y-42138152D02*
X125523809Y-42138152D01*
X125523809Y-42138152D02*
X125619047Y-42185771D01*
X125619047Y-42185771D02*
X125666666Y-42281009D01*
X125666666Y-42281009D02*
X125666666Y-42376247D01*
X125666666Y-42376247D02*
X125190476Y-42471485D01*
X126476190Y-42757200D02*
X126380952Y-42804819D01*
X126380952Y-42804819D02*
X126190476Y-42804819D01*
X126190476Y-42804819D02*
X126095238Y-42757200D01*
X126095238Y-42757200D02*
X126047619Y-42661961D01*
X126047619Y-42661961D02*
X126047619Y-42281009D01*
X126047619Y-42281009D02*
X126095238Y-42185771D01*
X126095238Y-42185771D02*
X126190476Y-42138152D01*
X126190476Y-42138152D02*
X126380952Y-42138152D01*
X126380952Y-42138152D02*
X126476190Y-42185771D01*
X126476190Y-42185771D02*
X126523809Y-42281009D01*
X126523809Y-42281009D02*
X126523809Y-42376247D01*
X126523809Y-42376247D02*
X126047619Y-42471485D01*
X127333333Y-42757200D02*
X127238095Y-42804819D01*
X127238095Y-42804819D02*
X127047619Y-42804819D01*
X127047619Y-42804819D02*
X126952381Y-42757200D01*
X126952381Y-42757200D02*
X126904762Y-42661961D01*
X126904762Y-42661961D02*
X126904762Y-42281009D01*
X126904762Y-42281009D02*
X126952381Y-42185771D01*
X126952381Y-42185771D02*
X127047619Y-42138152D01*
X127047619Y-42138152D02*
X127238095Y-42138152D01*
X127238095Y-42138152D02*
X127333333Y-42185771D01*
X127333333Y-42185771D02*
X127380952Y-42281009D01*
X127380952Y-42281009D02*
X127380952Y-42376247D01*
X127380952Y-42376247D02*
X126904762Y-42471485D01*
X128238095Y-42804819D02*
X128238095Y-41804819D01*
X128238095Y-42757200D02*
X128142857Y-42804819D01*
X128142857Y-42804819D02*
X127952381Y-42804819D01*
X127952381Y-42804819D02*
X127857143Y-42757200D01*
X127857143Y-42757200D02*
X127809524Y-42709580D01*
X127809524Y-42709580D02*
X127761905Y-42614342D01*
X127761905Y-42614342D02*
X127761905Y-42328628D01*
X127761905Y-42328628D02*
X127809524Y-42233390D01*
X127809524Y-42233390D02*
X127857143Y-42185771D01*
X127857143Y-42185771D02*
X127952381Y-42138152D01*
X127952381Y-42138152D02*
X128142857Y-42138152D01*
X128142857Y-42138152D02*
X128238095Y-42185771D01*
X129428572Y-42757200D02*
X129571429Y-42804819D01*
X129571429Y-42804819D02*
X129809524Y-42804819D01*
X129809524Y-42804819D02*
X129904762Y-42757200D01*
X129904762Y-42757200D02*
X129952381Y-42709580D01*
X129952381Y-42709580D02*
X130000000Y-42614342D01*
X130000000Y-42614342D02*
X130000000Y-42519104D01*
X130000000Y-42519104D02*
X129952381Y-42423866D01*
X129952381Y-42423866D02*
X129904762Y-42376247D01*
X129904762Y-42376247D02*
X129809524Y-42328628D01*
X129809524Y-42328628D02*
X129619048Y-42281009D01*
X129619048Y-42281009D02*
X129523810Y-42233390D01*
X129523810Y-42233390D02*
X129476191Y-42185771D01*
X129476191Y-42185771D02*
X129428572Y-42090533D01*
X129428572Y-42090533D02*
X129428572Y-41995295D01*
X129428572Y-41995295D02*
X129476191Y-41900057D01*
X129476191Y-41900057D02*
X129523810Y-41852438D01*
X129523810Y-41852438D02*
X129619048Y-41804819D01*
X129619048Y-41804819D02*
X129857143Y-41804819D01*
X129857143Y-41804819D02*
X130000000Y-41852438D01*
X130285715Y-42138152D02*
X130666667Y-42138152D01*
X130428572Y-41804819D02*
X130428572Y-42661961D01*
X130428572Y-42661961D02*
X130476191Y-42757200D01*
X130476191Y-42757200D02*
X130571429Y-42804819D01*
X130571429Y-42804819D02*
X130666667Y-42804819D01*
X131428572Y-42138152D02*
X131428572Y-42804819D01*
X131000001Y-42138152D02*
X131000001Y-42661961D01*
X131000001Y-42661961D02*
X131047620Y-42757200D01*
X131047620Y-42757200D02*
X131142858Y-42804819D01*
X131142858Y-42804819D02*
X131285715Y-42804819D01*
X131285715Y-42804819D02*
X131380953Y-42757200D01*
X131380953Y-42757200D02*
X131428572Y-42709580D01*
X132333334Y-42804819D02*
X132333334Y-41804819D01*
X132333334Y-42757200D02*
X132238096Y-42804819D01*
X132238096Y-42804819D02*
X132047620Y-42804819D01*
X132047620Y-42804819D02*
X131952382Y-42757200D01*
X131952382Y-42757200D02*
X131904763Y-42709580D01*
X131904763Y-42709580D02*
X131857144Y-42614342D01*
X131857144Y-42614342D02*
X131857144Y-42328628D01*
X131857144Y-42328628D02*
X131904763Y-42233390D01*
X131904763Y-42233390D02*
X131952382Y-42185771D01*
X131952382Y-42185771D02*
X132047620Y-42138152D01*
X132047620Y-42138152D02*
X132238096Y-42138152D01*
X132238096Y-42138152D02*
X132333334Y-42185771D01*
X132809525Y-42804819D02*
X132809525Y-42138152D01*
X132809525Y-41804819D02*
X132761906Y-41852438D01*
X132761906Y-41852438D02*
X132809525Y-41900057D01*
X132809525Y-41900057D02*
X132857144Y-41852438D01*
X132857144Y-41852438D02*
X132809525Y-41804819D01*
X132809525Y-41804819D02*
X132809525Y-41900057D01*
X133428572Y-42804819D02*
X133333334Y-42757200D01*
X133333334Y-42757200D02*
X133285715Y-42709580D01*
X133285715Y-42709580D02*
X133238096Y-42614342D01*
X133238096Y-42614342D02*
X133238096Y-42328628D01*
X133238096Y-42328628D02*
X133285715Y-42233390D01*
X133285715Y-42233390D02*
X133333334Y-42185771D01*
X133333334Y-42185771D02*
X133428572Y-42138152D01*
X133428572Y-42138152D02*
X133571429Y-42138152D01*
X133571429Y-42138152D02*
X133666667Y-42185771D01*
X133666667Y-42185771D02*
X133714286Y-42233390D01*
X133714286Y-42233390D02*
X133761905Y-42328628D01*
X133761905Y-42328628D02*
X133761905Y-42614342D01*
X133761905Y-42614342D02*
X133714286Y-42709580D01*
X133714286Y-42709580D02*
X133666667Y-42757200D01*
X133666667Y-42757200D02*
X133571429Y-42804819D01*
X133571429Y-42804819D02*
X133428572Y-42804819D01*
X127476191Y-43804819D02*
X128142857Y-44804819D01*
X128142857Y-43804819D02*
X127476191Y-44804819D01*
X128523810Y-44804819D02*
X128523810Y-43804819D01*
X128952381Y-44519104D02*
X129428571Y-44519104D01*
X128857143Y-44804819D02*
X129190476Y-43804819D01*
X129190476Y-43804819D02*
X129523809Y-44804819D01*
X130047619Y-43804819D02*
X130238095Y-43804819D01*
X130238095Y-43804819D02*
X130333333Y-43852438D01*
X130333333Y-43852438D02*
X130428571Y-43947676D01*
X130428571Y-43947676D02*
X130476190Y-44138152D01*
X130476190Y-44138152D02*
X130476190Y-44471485D01*
X130476190Y-44471485D02*
X130428571Y-44661961D01*
X130428571Y-44661961D02*
X130333333Y-44757200D01*
X130333333Y-44757200D02*
X130238095Y-44804819D01*
X130238095Y-44804819D02*
X130047619Y-44804819D01*
X130047619Y-44804819D02*
X129952381Y-44757200D01*
X129952381Y-44757200D02*
X129857143Y-44661961D01*
X129857143Y-44661961D02*
X129809524Y-44471485D01*
X129809524Y-44471485D02*
X129809524Y-44138152D01*
X129809524Y-44138152D02*
X129857143Y-43947676D01*
X129857143Y-43947676D02*
X129952381Y-43852438D01*
X129952381Y-43852438D02*
X130047619Y-43804819D01*
X75348214Y-91804819D02*
X75348214Y-90804819D01*
X75348214Y-90804819D02*
X75586309Y-90804819D01*
X75586309Y-90804819D02*
X75729166Y-90852438D01*
X75729166Y-90852438D02*
X75824404Y-90947676D01*
X75824404Y-90947676D02*
X75872023Y-91042914D01*
X75872023Y-91042914D02*
X75919642Y-91233390D01*
X75919642Y-91233390D02*
X75919642Y-91376247D01*
X75919642Y-91376247D02*
X75872023Y-91566723D01*
X75872023Y-91566723D02*
X75824404Y-91661961D01*
X75824404Y-91661961D02*
X75729166Y-91757200D01*
X75729166Y-91757200D02*
X75586309Y-91804819D01*
X75586309Y-91804819D02*
X75348214Y-91804819D01*
X76872023Y-91804819D02*
X76300595Y-91804819D01*
X76586309Y-91804819D02*
X76586309Y-90804819D01*
X76586309Y-90804819D02*
X76491071Y-90947676D01*
X76491071Y-90947676D02*
X76395833Y-91042914D01*
X76395833Y-91042914D02*
X76300595Y-91090533D01*
X77729166Y-90804819D02*
X77538690Y-90804819D01*
X77538690Y-90804819D02*
X77443452Y-90852438D01*
X77443452Y-90852438D02*
X77395833Y-90900057D01*
X77395833Y-90900057D02*
X77300595Y-91042914D01*
X77300595Y-91042914D02*
X77252976Y-91233390D01*
X77252976Y-91233390D02*
X77252976Y-91614342D01*
X77252976Y-91614342D02*
X77300595Y-91709580D01*
X77300595Y-91709580D02*
X77348214Y-91757200D01*
X77348214Y-91757200D02*
X77443452Y-91804819D01*
X77443452Y-91804819D02*
X77633928Y-91804819D01*
X77633928Y-91804819D02*
X77729166Y-91757200D01*
X77729166Y-91757200D02*
X77776785Y-91709580D01*
X77776785Y-91709580D02*
X77824404Y-91614342D01*
X77824404Y-91614342D02*
X77824404Y-91376247D01*
X77824404Y-91376247D02*
X77776785Y-91281009D01*
X77776785Y-91281009D02*
X77729166Y-91233390D01*
X77729166Y-91233390D02*
X77633928Y-91185771D01*
X77633928Y-91185771D02*
X77443452Y-91185771D01*
X77443452Y-91185771D02*
X77348214Y-91233390D01*
X77348214Y-91233390D02*
X77300595Y-91281009D01*
X77300595Y-91281009D02*
X77252976Y-91376247D01*
X107142857Y-56657200D02*
X107285714Y-56704819D01*
X107285714Y-56704819D02*
X107523809Y-56704819D01*
X107523809Y-56704819D02*
X107619047Y-56657200D01*
X107619047Y-56657200D02*
X107666666Y-56609580D01*
X107666666Y-56609580D02*
X107714285Y-56514342D01*
X107714285Y-56514342D02*
X107714285Y-56419104D01*
X107714285Y-56419104D02*
X107666666Y-56323866D01*
X107666666Y-56323866D02*
X107619047Y-56276247D01*
X107619047Y-56276247D02*
X107523809Y-56228628D01*
X107523809Y-56228628D02*
X107333333Y-56181009D01*
X107333333Y-56181009D02*
X107238095Y-56133390D01*
X107238095Y-56133390D02*
X107190476Y-56085771D01*
X107190476Y-56085771D02*
X107142857Y-55990533D01*
X107142857Y-55990533D02*
X107142857Y-55895295D01*
X107142857Y-55895295D02*
X107190476Y-55800057D01*
X107190476Y-55800057D02*
X107238095Y-55752438D01*
X107238095Y-55752438D02*
X107333333Y-55704819D01*
X107333333Y-55704819D02*
X107571428Y-55704819D01*
X107571428Y-55704819D02*
X107714285Y-55752438D01*
X108047619Y-55704819D02*
X108285714Y-56704819D01*
X108285714Y-56704819D02*
X108476190Y-55990533D01*
X108476190Y-55990533D02*
X108666666Y-56704819D01*
X108666666Y-56704819D02*
X108904762Y-55704819D01*
X109285714Y-56704819D02*
X109285714Y-55704819D01*
X109285714Y-56181009D02*
X109857142Y-56181009D01*
X109857142Y-56704819D02*
X109857142Y-55704819D01*
X110857142Y-56704819D02*
X110285714Y-56704819D01*
X110571428Y-56704819D02*
X110571428Y-55704819D01*
X110571428Y-55704819D02*
X110476190Y-55847676D01*
X110476190Y-55847676D02*
X110380952Y-55942914D01*
X110380952Y-55942914D02*
X110285714Y-55990533D01*
X67285714Y-56657200D02*
X67428571Y-56704819D01*
X67428571Y-56704819D02*
X67666666Y-56704819D01*
X67666666Y-56704819D02*
X67761904Y-56657200D01*
X67761904Y-56657200D02*
X67809523Y-56609580D01*
X67809523Y-56609580D02*
X67857142Y-56514342D01*
X67857142Y-56514342D02*
X67857142Y-56419104D01*
X67857142Y-56419104D02*
X67809523Y-56323866D01*
X67809523Y-56323866D02*
X67761904Y-56276247D01*
X67761904Y-56276247D02*
X67666666Y-56228628D01*
X67666666Y-56228628D02*
X67476190Y-56181009D01*
X67476190Y-56181009D02*
X67380952Y-56133390D01*
X67380952Y-56133390D02*
X67333333Y-56085771D01*
X67333333Y-56085771D02*
X67285714Y-55990533D01*
X67285714Y-55990533D02*
X67285714Y-55895295D01*
X67285714Y-55895295D02*
X67333333Y-55800057D01*
X67333333Y-55800057D02*
X67380952Y-55752438D01*
X67380952Y-55752438D02*
X67476190Y-55704819D01*
X67476190Y-55704819D02*
X67714285Y-55704819D01*
X67714285Y-55704819D02*
X67857142Y-55752438D01*
X68190476Y-55704819D02*
X68428571Y-56704819D01*
X68428571Y-56704819D02*
X68619047Y-55990533D01*
X68619047Y-55990533D02*
X68809523Y-56704819D01*
X68809523Y-56704819D02*
X69047619Y-55704819D01*
X69285714Y-55704819D02*
X69857142Y-55704819D01*
X69571428Y-56704819D02*
X69571428Y-55704819D01*
X70714285Y-56704819D02*
X70142857Y-56704819D01*
X70428571Y-56704819D02*
X70428571Y-55704819D01*
X70428571Y-55704819D02*
X70333333Y-55847676D01*
X70333333Y-55847676D02*
X70238095Y-55942914D01*
X70238095Y-55942914D02*
X70142857Y-55990533D01*
X151785714Y-111954819D02*
X151785714Y-110954819D01*
X151785714Y-110954819D02*
X152023809Y-110954819D01*
X152023809Y-110954819D02*
X152166666Y-111002438D01*
X152166666Y-111002438D02*
X152261904Y-111097676D01*
X152261904Y-111097676D02*
X152309523Y-111192914D01*
X152309523Y-111192914D02*
X152357142Y-111383390D01*
X152357142Y-111383390D02*
X152357142Y-111526247D01*
X152357142Y-111526247D02*
X152309523Y-111716723D01*
X152309523Y-111716723D02*
X152261904Y-111811961D01*
X152261904Y-111811961D02*
X152166666Y-111907200D01*
X152166666Y-111907200D02*
X152023809Y-111954819D01*
X152023809Y-111954819D02*
X151785714Y-111954819D01*
X153309523Y-111954819D02*
X152738095Y-111954819D01*
X153023809Y-111954819D02*
X153023809Y-110954819D01*
X153023809Y-110954819D02*
X152928571Y-111097676D01*
X152928571Y-111097676D02*
X152833333Y-111192914D01*
X152833333Y-111192914D02*
X152738095Y-111240533D01*
X153690476Y-111050057D02*
X153738095Y-111002438D01*
X153738095Y-111002438D02*
X153833333Y-110954819D01*
X153833333Y-110954819D02*
X154071428Y-110954819D01*
X154071428Y-110954819D02*
X154166666Y-111002438D01*
X154166666Y-111002438D02*
X154214285Y-111050057D01*
X154214285Y-111050057D02*
X154261904Y-111145295D01*
X154261904Y-111145295D02*
X154261904Y-111240533D01*
X154261904Y-111240533D02*
X154214285Y-111383390D01*
X154214285Y-111383390D02*
X153642857Y-111954819D01*
X153642857Y-111954819D02*
X154261904Y-111954819D01*
X180785714Y-38454819D02*
X180785714Y-37454819D01*
X180785714Y-37454819D02*
X181023809Y-37454819D01*
X181023809Y-37454819D02*
X181166666Y-37502438D01*
X181166666Y-37502438D02*
X181261904Y-37597676D01*
X181261904Y-37597676D02*
X181309523Y-37692914D01*
X181309523Y-37692914D02*
X181357142Y-37883390D01*
X181357142Y-37883390D02*
X181357142Y-38026247D01*
X181357142Y-38026247D02*
X181309523Y-38216723D01*
X181309523Y-38216723D02*
X181261904Y-38311961D01*
X181261904Y-38311961D02*
X181166666Y-38407200D01*
X181166666Y-38407200D02*
X181023809Y-38454819D01*
X181023809Y-38454819D02*
X180785714Y-38454819D01*
X181738095Y-37550057D02*
X181785714Y-37502438D01*
X181785714Y-37502438D02*
X181880952Y-37454819D01*
X181880952Y-37454819D02*
X182119047Y-37454819D01*
X182119047Y-37454819D02*
X182214285Y-37502438D01*
X182214285Y-37502438D02*
X182261904Y-37550057D01*
X182261904Y-37550057D02*
X182309523Y-37645295D01*
X182309523Y-37645295D02*
X182309523Y-37740533D01*
X182309523Y-37740533D02*
X182261904Y-37883390D01*
X182261904Y-37883390D02*
X181690476Y-38454819D01*
X181690476Y-38454819D02*
X182309523Y-38454819D01*
X183261904Y-38454819D02*
X182690476Y-38454819D01*
X182976190Y-38454819D02*
X182976190Y-37454819D01*
X182976190Y-37454819D02*
X182880952Y-37597676D01*
X182880952Y-37597676D02*
X182785714Y-37692914D01*
X182785714Y-37692914D02*
X182690476Y-37740533D01*
X220699405Y-58454819D02*
X220699405Y-57454819D01*
X220699405Y-57454819D02*
X220937500Y-57454819D01*
X220937500Y-57454819D02*
X221080357Y-57502438D01*
X221080357Y-57502438D02*
X221175595Y-57597676D01*
X221175595Y-57597676D02*
X221223214Y-57692914D01*
X221223214Y-57692914D02*
X221270833Y-57883390D01*
X221270833Y-57883390D02*
X221270833Y-58026247D01*
X221270833Y-58026247D02*
X221223214Y-58216723D01*
X221223214Y-58216723D02*
X221175595Y-58311961D01*
X221175595Y-58311961D02*
X221080357Y-58407200D01*
X221080357Y-58407200D02*
X220937500Y-58454819D01*
X220937500Y-58454819D02*
X220699405Y-58454819D01*
X221651786Y-57550057D02*
X221699405Y-57502438D01*
X221699405Y-57502438D02*
X221794643Y-57454819D01*
X221794643Y-57454819D02*
X222032738Y-57454819D01*
X222032738Y-57454819D02*
X222127976Y-57502438D01*
X222127976Y-57502438D02*
X222175595Y-57550057D01*
X222175595Y-57550057D02*
X222223214Y-57645295D01*
X222223214Y-57645295D02*
X222223214Y-57740533D01*
X222223214Y-57740533D02*
X222175595Y-57883390D01*
X222175595Y-57883390D02*
X221604167Y-58454819D01*
X221604167Y-58454819D02*
X222223214Y-58454819D01*
X96738095Y-109657200D02*
X96880952Y-109704819D01*
X96880952Y-109704819D02*
X97119047Y-109704819D01*
X97119047Y-109704819D02*
X97214285Y-109657200D01*
X97214285Y-109657200D02*
X97261904Y-109609580D01*
X97261904Y-109609580D02*
X97309523Y-109514342D01*
X97309523Y-109514342D02*
X97309523Y-109419104D01*
X97309523Y-109419104D02*
X97261904Y-109323866D01*
X97261904Y-109323866D02*
X97214285Y-109276247D01*
X97214285Y-109276247D02*
X97119047Y-109228628D01*
X97119047Y-109228628D02*
X96928571Y-109181009D01*
X96928571Y-109181009D02*
X96833333Y-109133390D01*
X96833333Y-109133390D02*
X96785714Y-109085771D01*
X96785714Y-109085771D02*
X96738095Y-108990533D01*
X96738095Y-108990533D02*
X96738095Y-108895295D01*
X96738095Y-108895295D02*
X96785714Y-108800057D01*
X96785714Y-108800057D02*
X96833333Y-108752438D01*
X96833333Y-108752438D02*
X96928571Y-108704819D01*
X96928571Y-108704819D02*
X97166666Y-108704819D01*
X97166666Y-108704819D02*
X97309523Y-108752438D01*
X97642857Y-108704819D02*
X97880952Y-109704819D01*
X97880952Y-109704819D02*
X98071428Y-108990533D01*
X98071428Y-108990533D02*
X98261904Y-109704819D01*
X98261904Y-109704819D02*
X98500000Y-108704819D01*
X98833333Y-109419104D02*
X99309523Y-109419104D01*
X98738095Y-109704819D02*
X99071428Y-108704819D01*
X99071428Y-108704819D02*
X99404761Y-109704819D01*
X100261904Y-109704819D02*
X99690476Y-109704819D01*
X99976190Y-109704819D02*
X99976190Y-108704819D01*
X99976190Y-108704819D02*
X99880952Y-108847676D01*
X99880952Y-108847676D02*
X99785714Y-108942914D01*
X99785714Y-108942914D02*
X99690476Y-108990533D01*
X187261905Y-56657200D02*
X187404762Y-56704819D01*
X187404762Y-56704819D02*
X187642857Y-56704819D01*
X187642857Y-56704819D02*
X187738095Y-56657200D01*
X187738095Y-56657200D02*
X187785714Y-56609580D01*
X187785714Y-56609580D02*
X187833333Y-56514342D01*
X187833333Y-56514342D02*
X187833333Y-56419104D01*
X187833333Y-56419104D02*
X187785714Y-56323866D01*
X187785714Y-56323866D02*
X187738095Y-56276247D01*
X187738095Y-56276247D02*
X187642857Y-56228628D01*
X187642857Y-56228628D02*
X187452381Y-56181009D01*
X187452381Y-56181009D02*
X187357143Y-56133390D01*
X187357143Y-56133390D02*
X187309524Y-56085771D01*
X187309524Y-56085771D02*
X187261905Y-55990533D01*
X187261905Y-55990533D02*
X187261905Y-55895295D01*
X187261905Y-55895295D02*
X187309524Y-55800057D01*
X187309524Y-55800057D02*
X187357143Y-55752438D01*
X187357143Y-55752438D02*
X187452381Y-55704819D01*
X187452381Y-55704819D02*
X187690476Y-55704819D01*
X187690476Y-55704819D02*
X187833333Y-55752438D01*
X188166667Y-55704819D02*
X188404762Y-56704819D01*
X188404762Y-56704819D02*
X188595238Y-55990533D01*
X188595238Y-55990533D02*
X188785714Y-56704819D01*
X188785714Y-56704819D02*
X189023810Y-55704819D01*
X189880952Y-56704819D02*
X189404762Y-56704819D01*
X189404762Y-56704819D02*
X189404762Y-55704819D01*
X190738095Y-56704819D02*
X190166667Y-56704819D01*
X190452381Y-56704819D02*
X190452381Y-55704819D01*
X190452381Y-55704819D02*
X190357143Y-55847676D01*
X190357143Y-55847676D02*
X190261905Y-55942914D01*
X190261905Y-55942914D02*
X190166667Y-55990533D01*
X124285714Y-111454819D02*
X124285714Y-110454819D01*
X124285714Y-110454819D02*
X124523809Y-110454819D01*
X124523809Y-110454819D02*
X124666666Y-110502438D01*
X124666666Y-110502438D02*
X124761904Y-110597676D01*
X124761904Y-110597676D02*
X124809523Y-110692914D01*
X124809523Y-110692914D02*
X124857142Y-110883390D01*
X124857142Y-110883390D02*
X124857142Y-111026247D01*
X124857142Y-111026247D02*
X124809523Y-111216723D01*
X124809523Y-111216723D02*
X124761904Y-111311961D01*
X124761904Y-111311961D02*
X124666666Y-111407200D01*
X124666666Y-111407200D02*
X124523809Y-111454819D01*
X124523809Y-111454819D02*
X124285714Y-111454819D01*
X125809523Y-111454819D02*
X125238095Y-111454819D01*
X125523809Y-111454819D02*
X125523809Y-110454819D01*
X125523809Y-110454819D02*
X125428571Y-110597676D01*
X125428571Y-110597676D02*
X125333333Y-110692914D01*
X125333333Y-110692914D02*
X125238095Y-110740533D01*
X126428571Y-110454819D02*
X126523809Y-110454819D01*
X126523809Y-110454819D02*
X126619047Y-110502438D01*
X126619047Y-110502438D02*
X126666666Y-110550057D01*
X126666666Y-110550057D02*
X126714285Y-110645295D01*
X126714285Y-110645295D02*
X126761904Y-110835771D01*
X126761904Y-110835771D02*
X126761904Y-111073866D01*
X126761904Y-111073866D02*
X126714285Y-111264342D01*
X126714285Y-111264342D02*
X126666666Y-111359580D01*
X126666666Y-111359580D02*
X126619047Y-111407200D01*
X126619047Y-111407200D02*
X126523809Y-111454819D01*
X126523809Y-111454819D02*
X126428571Y-111454819D01*
X126428571Y-111454819D02*
X126333333Y-111407200D01*
X126333333Y-111407200D02*
X126285714Y-111359580D01*
X126285714Y-111359580D02*
X126238095Y-111264342D01*
X126238095Y-111264342D02*
X126190476Y-111073866D01*
X126190476Y-111073866D02*
X126190476Y-110835771D01*
X126190476Y-110835771D02*
X126238095Y-110645295D01*
X126238095Y-110645295D02*
X126285714Y-110550057D01*
X126285714Y-110550057D02*
X126333333Y-110502438D01*
X126333333Y-110502438D02*
X126428571Y-110454819D01*
X147238095Y-56657200D02*
X147380952Y-56704819D01*
X147380952Y-56704819D02*
X147619047Y-56704819D01*
X147619047Y-56704819D02*
X147714285Y-56657200D01*
X147714285Y-56657200D02*
X147761904Y-56609580D01*
X147761904Y-56609580D02*
X147809523Y-56514342D01*
X147809523Y-56514342D02*
X147809523Y-56419104D01*
X147809523Y-56419104D02*
X147761904Y-56323866D01*
X147761904Y-56323866D02*
X147714285Y-56276247D01*
X147714285Y-56276247D02*
X147619047Y-56228628D01*
X147619047Y-56228628D02*
X147428571Y-56181009D01*
X147428571Y-56181009D02*
X147333333Y-56133390D01*
X147333333Y-56133390D02*
X147285714Y-56085771D01*
X147285714Y-56085771D02*
X147238095Y-55990533D01*
X147238095Y-55990533D02*
X147238095Y-55895295D01*
X147238095Y-55895295D02*
X147285714Y-55800057D01*
X147285714Y-55800057D02*
X147333333Y-55752438D01*
X147333333Y-55752438D02*
X147428571Y-55704819D01*
X147428571Y-55704819D02*
X147666666Y-55704819D01*
X147666666Y-55704819D02*
X147809523Y-55752438D01*
X148142857Y-55704819D02*
X148380952Y-56704819D01*
X148380952Y-56704819D02*
X148571428Y-55990533D01*
X148571428Y-55990533D02*
X148761904Y-56704819D01*
X148761904Y-56704819D02*
X149000000Y-55704819D01*
X149714285Y-56181009D02*
X149380952Y-56181009D01*
X149380952Y-56704819D02*
X149380952Y-55704819D01*
X149380952Y-55704819D02*
X149857142Y-55704819D01*
X150761904Y-56704819D02*
X150190476Y-56704819D01*
X150476190Y-56704819D02*
X150476190Y-55704819D01*
X150476190Y-55704819D02*
X150380952Y-55847676D01*
X150380952Y-55847676D02*
X150285714Y-55942914D01*
X150285714Y-55942914D02*
X150190476Y-55990533D01*
X140285714Y-58454819D02*
X140285714Y-57454819D01*
X140285714Y-57454819D02*
X140523809Y-57454819D01*
X140523809Y-57454819D02*
X140666666Y-57502438D01*
X140666666Y-57502438D02*
X140761904Y-57597676D01*
X140761904Y-57597676D02*
X140809523Y-57692914D01*
X140809523Y-57692914D02*
X140857142Y-57883390D01*
X140857142Y-57883390D02*
X140857142Y-58026247D01*
X140857142Y-58026247D02*
X140809523Y-58216723D01*
X140809523Y-58216723D02*
X140761904Y-58311961D01*
X140761904Y-58311961D02*
X140666666Y-58407200D01*
X140666666Y-58407200D02*
X140523809Y-58454819D01*
X140523809Y-58454819D02*
X140285714Y-58454819D01*
X141809523Y-58454819D02*
X141238095Y-58454819D01*
X141523809Y-58454819D02*
X141523809Y-57454819D01*
X141523809Y-57454819D02*
X141428571Y-57597676D01*
X141428571Y-57597676D02*
X141333333Y-57692914D01*
X141333333Y-57692914D02*
X141238095Y-57740533D01*
X142142857Y-57454819D02*
X142761904Y-57454819D01*
X142761904Y-57454819D02*
X142428571Y-57835771D01*
X142428571Y-57835771D02*
X142571428Y-57835771D01*
X142571428Y-57835771D02*
X142666666Y-57883390D01*
X142666666Y-57883390D02*
X142714285Y-57931009D01*
X142714285Y-57931009D02*
X142761904Y-58026247D01*
X142761904Y-58026247D02*
X142761904Y-58264342D01*
X142761904Y-58264342D02*
X142714285Y-58359580D01*
X142714285Y-58359580D02*
X142666666Y-58407200D01*
X142666666Y-58407200D02*
X142571428Y-58454819D01*
X142571428Y-58454819D02*
X142285714Y-58454819D01*
X142285714Y-58454819D02*
X142190476Y-58407200D01*
X142190476Y-58407200D02*
X142142857Y-58359580D01*
X100785714Y-58954819D02*
X100785714Y-57954819D01*
X100785714Y-57954819D02*
X101023809Y-57954819D01*
X101023809Y-57954819D02*
X101166666Y-58002438D01*
X101166666Y-58002438D02*
X101261904Y-58097676D01*
X101261904Y-58097676D02*
X101309523Y-58192914D01*
X101309523Y-58192914D02*
X101357142Y-58383390D01*
X101357142Y-58383390D02*
X101357142Y-58526247D01*
X101357142Y-58526247D02*
X101309523Y-58716723D01*
X101309523Y-58716723D02*
X101261904Y-58811961D01*
X101261904Y-58811961D02*
X101166666Y-58907200D01*
X101166666Y-58907200D02*
X101023809Y-58954819D01*
X101023809Y-58954819D02*
X100785714Y-58954819D01*
X102309523Y-58954819D02*
X101738095Y-58954819D01*
X102023809Y-58954819D02*
X102023809Y-57954819D01*
X102023809Y-57954819D02*
X101928571Y-58097676D01*
X101928571Y-58097676D02*
X101833333Y-58192914D01*
X101833333Y-58192914D02*
X101738095Y-58240533D01*
X102785714Y-58954819D02*
X102976190Y-58954819D01*
X102976190Y-58954819D02*
X103071428Y-58907200D01*
X103071428Y-58907200D02*
X103119047Y-58859580D01*
X103119047Y-58859580D02*
X103214285Y-58716723D01*
X103214285Y-58716723D02*
X103261904Y-58526247D01*
X103261904Y-58526247D02*
X103261904Y-58145295D01*
X103261904Y-58145295D02*
X103214285Y-58050057D01*
X103214285Y-58050057D02*
X103166666Y-58002438D01*
X103166666Y-58002438D02*
X103071428Y-57954819D01*
X103071428Y-57954819D02*
X102880952Y-57954819D01*
X102880952Y-57954819D02*
X102785714Y-58002438D01*
X102785714Y-58002438D02*
X102738095Y-58050057D01*
X102738095Y-58050057D02*
X102690476Y-58145295D01*
X102690476Y-58145295D02*
X102690476Y-58383390D01*
X102690476Y-58383390D02*
X102738095Y-58478628D01*
X102738095Y-58478628D02*
X102785714Y-58526247D01*
X102785714Y-58526247D02*
X102880952Y-58573866D01*
X102880952Y-58573866D02*
X103071428Y-58573866D01*
X103071428Y-58573866D02*
X103166666Y-58526247D01*
X103166666Y-58526247D02*
X103214285Y-58478628D01*
X103214285Y-58478628D02*
X103261904Y-58383390D01*
X187166667Y-76657200D02*
X187309524Y-76704819D01*
X187309524Y-76704819D02*
X187547619Y-76704819D01*
X187547619Y-76704819D02*
X187642857Y-76657200D01*
X187642857Y-76657200D02*
X187690476Y-76609580D01*
X187690476Y-76609580D02*
X187738095Y-76514342D01*
X187738095Y-76514342D02*
X187738095Y-76419104D01*
X187738095Y-76419104D02*
X187690476Y-76323866D01*
X187690476Y-76323866D02*
X187642857Y-76276247D01*
X187642857Y-76276247D02*
X187547619Y-76228628D01*
X187547619Y-76228628D02*
X187357143Y-76181009D01*
X187357143Y-76181009D02*
X187261905Y-76133390D01*
X187261905Y-76133390D02*
X187214286Y-76085771D01*
X187214286Y-76085771D02*
X187166667Y-75990533D01*
X187166667Y-75990533D02*
X187166667Y-75895295D01*
X187166667Y-75895295D02*
X187214286Y-75800057D01*
X187214286Y-75800057D02*
X187261905Y-75752438D01*
X187261905Y-75752438D02*
X187357143Y-75704819D01*
X187357143Y-75704819D02*
X187595238Y-75704819D01*
X187595238Y-75704819D02*
X187738095Y-75752438D01*
X188071429Y-75704819D02*
X188309524Y-76704819D01*
X188309524Y-76704819D02*
X188500000Y-75990533D01*
X188500000Y-75990533D02*
X188690476Y-76704819D01*
X188690476Y-76704819D02*
X188928572Y-75704819D01*
X189833333Y-75752438D02*
X189738095Y-75704819D01*
X189738095Y-75704819D02*
X189595238Y-75704819D01*
X189595238Y-75704819D02*
X189452381Y-75752438D01*
X189452381Y-75752438D02*
X189357143Y-75847676D01*
X189357143Y-75847676D02*
X189309524Y-75942914D01*
X189309524Y-75942914D02*
X189261905Y-76133390D01*
X189261905Y-76133390D02*
X189261905Y-76276247D01*
X189261905Y-76276247D02*
X189309524Y-76466723D01*
X189309524Y-76466723D02*
X189357143Y-76561961D01*
X189357143Y-76561961D02*
X189452381Y-76657200D01*
X189452381Y-76657200D02*
X189595238Y-76704819D01*
X189595238Y-76704819D02*
X189690476Y-76704819D01*
X189690476Y-76704819D02*
X189833333Y-76657200D01*
X189833333Y-76657200D02*
X189880952Y-76609580D01*
X189880952Y-76609580D02*
X189880952Y-76276247D01*
X189880952Y-76276247D02*
X189690476Y-76276247D01*
X190833333Y-76704819D02*
X190261905Y-76704819D01*
X190547619Y-76704819D02*
X190547619Y-75704819D01*
X190547619Y-75704819D02*
X190452381Y-75847676D01*
X190452381Y-75847676D02*
X190357143Y-75942914D01*
X190357143Y-75942914D02*
X190261905Y-75990533D01*
X95285714Y-38104819D02*
X95285714Y-37104819D01*
X95285714Y-37104819D02*
X95523809Y-37104819D01*
X95523809Y-37104819D02*
X95666666Y-37152438D01*
X95666666Y-37152438D02*
X95761904Y-37247676D01*
X95761904Y-37247676D02*
X95809523Y-37342914D01*
X95809523Y-37342914D02*
X95857142Y-37533390D01*
X95857142Y-37533390D02*
X95857142Y-37676247D01*
X95857142Y-37676247D02*
X95809523Y-37866723D01*
X95809523Y-37866723D02*
X95761904Y-37961961D01*
X95761904Y-37961961D02*
X95666666Y-38057200D01*
X95666666Y-38057200D02*
X95523809Y-38104819D01*
X95523809Y-38104819D02*
X95285714Y-38104819D01*
X96238095Y-37200057D02*
X96285714Y-37152438D01*
X96285714Y-37152438D02*
X96380952Y-37104819D01*
X96380952Y-37104819D02*
X96619047Y-37104819D01*
X96619047Y-37104819D02*
X96714285Y-37152438D01*
X96714285Y-37152438D02*
X96761904Y-37200057D01*
X96761904Y-37200057D02*
X96809523Y-37295295D01*
X96809523Y-37295295D02*
X96809523Y-37390533D01*
X96809523Y-37390533D02*
X96761904Y-37533390D01*
X96761904Y-37533390D02*
X96190476Y-38104819D01*
X96190476Y-38104819D02*
X96809523Y-38104819D01*
X97666666Y-37438152D02*
X97666666Y-38104819D01*
X97428571Y-37057200D02*
X97190476Y-37771485D01*
X97190476Y-37771485D02*
X97809523Y-37771485D01*
X67166667Y-76657200D02*
X67309524Y-76704819D01*
X67309524Y-76704819D02*
X67547619Y-76704819D01*
X67547619Y-76704819D02*
X67642857Y-76657200D01*
X67642857Y-76657200D02*
X67690476Y-76609580D01*
X67690476Y-76609580D02*
X67738095Y-76514342D01*
X67738095Y-76514342D02*
X67738095Y-76419104D01*
X67738095Y-76419104D02*
X67690476Y-76323866D01*
X67690476Y-76323866D02*
X67642857Y-76276247D01*
X67642857Y-76276247D02*
X67547619Y-76228628D01*
X67547619Y-76228628D02*
X67357143Y-76181009D01*
X67357143Y-76181009D02*
X67261905Y-76133390D01*
X67261905Y-76133390D02*
X67214286Y-76085771D01*
X67214286Y-76085771D02*
X67166667Y-75990533D01*
X67166667Y-75990533D02*
X67166667Y-75895295D01*
X67166667Y-75895295D02*
X67214286Y-75800057D01*
X67214286Y-75800057D02*
X67261905Y-75752438D01*
X67261905Y-75752438D02*
X67357143Y-75704819D01*
X67357143Y-75704819D02*
X67595238Y-75704819D01*
X67595238Y-75704819D02*
X67738095Y-75752438D01*
X68071429Y-75704819D02*
X68309524Y-76704819D01*
X68309524Y-76704819D02*
X68500000Y-75990533D01*
X68500000Y-75990533D02*
X68690476Y-76704819D01*
X68690476Y-76704819D02*
X68928572Y-75704819D01*
X69309524Y-76704819D02*
X69309524Y-75704819D01*
X69880952Y-76704819D02*
X69452381Y-76133390D01*
X69880952Y-75704819D02*
X69309524Y-76276247D01*
X70833333Y-76704819D02*
X70261905Y-76704819D01*
X70547619Y-76704819D02*
X70547619Y-75704819D01*
X70547619Y-75704819D02*
X70452381Y-75847676D01*
X70452381Y-75847676D02*
X70357143Y-75942914D01*
X70357143Y-75942914D02*
X70261905Y-75990533D01*
X55824405Y-68954819D02*
X55824405Y-67954819D01*
X55824405Y-67954819D02*
X56062500Y-67954819D01*
X56062500Y-67954819D02*
X56205357Y-68002438D01*
X56205357Y-68002438D02*
X56300595Y-68097676D01*
X56300595Y-68097676D02*
X56348214Y-68192914D01*
X56348214Y-68192914D02*
X56395833Y-68383390D01*
X56395833Y-68383390D02*
X56395833Y-68526247D01*
X56395833Y-68526247D02*
X56348214Y-68716723D01*
X56348214Y-68716723D02*
X56300595Y-68811961D01*
X56300595Y-68811961D02*
X56205357Y-68907200D01*
X56205357Y-68907200D02*
X56062500Y-68954819D01*
X56062500Y-68954819D02*
X55824405Y-68954819D01*
X57348214Y-68954819D02*
X56776786Y-68954819D01*
X57062500Y-68954819D02*
X57062500Y-67954819D01*
X57062500Y-67954819D02*
X56967262Y-68097676D01*
X56967262Y-68097676D02*
X56872024Y-68192914D01*
X56872024Y-68192914D02*
X56776786Y-68240533D01*
X227166667Y-56657200D02*
X227309524Y-56704819D01*
X227309524Y-56704819D02*
X227547619Y-56704819D01*
X227547619Y-56704819D02*
X227642857Y-56657200D01*
X227642857Y-56657200D02*
X227690476Y-56609580D01*
X227690476Y-56609580D02*
X227738095Y-56514342D01*
X227738095Y-56514342D02*
X227738095Y-56419104D01*
X227738095Y-56419104D02*
X227690476Y-56323866D01*
X227690476Y-56323866D02*
X227642857Y-56276247D01*
X227642857Y-56276247D02*
X227547619Y-56228628D01*
X227547619Y-56228628D02*
X227357143Y-56181009D01*
X227357143Y-56181009D02*
X227261905Y-56133390D01*
X227261905Y-56133390D02*
X227214286Y-56085771D01*
X227214286Y-56085771D02*
X227166667Y-55990533D01*
X227166667Y-55990533D02*
X227166667Y-55895295D01*
X227166667Y-55895295D02*
X227214286Y-55800057D01*
X227214286Y-55800057D02*
X227261905Y-55752438D01*
X227261905Y-55752438D02*
X227357143Y-55704819D01*
X227357143Y-55704819D02*
X227595238Y-55704819D01*
X227595238Y-55704819D02*
X227738095Y-55752438D01*
X228071429Y-55704819D02*
X228309524Y-56704819D01*
X228309524Y-56704819D02*
X228500000Y-55990533D01*
X228500000Y-55990533D02*
X228690476Y-56704819D01*
X228690476Y-56704819D02*
X228928572Y-55704819D01*
X229309524Y-56704819D02*
X229309524Y-55704819D01*
X229309524Y-55704819D02*
X229547619Y-55704819D01*
X229547619Y-55704819D02*
X229690476Y-55752438D01*
X229690476Y-55752438D02*
X229785714Y-55847676D01*
X229785714Y-55847676D02*
X229833333Y-55942914D01*
X229833333Y-55942914D02*
X229880952Y-56133390D01*
X229880952Y-56133390D02*
X229880952Y-56276247D01*
X229880952Y-56276247D02*
X229833333Y-56466723D01*
X229833333Y-56466723D02*
X229785714Y-56561961D01*
X229785714Y-56561961D02*
X229690476Y-56657200D01*
X229690476Y-56657200D02*
X229547619Y-56704819D01*
X229547619Y-56704819D02*
X229309524Y-56704819D01*
X230833333Y-56704819D02*
X230261905Y-56704819D01*
X230547619Y-56704819D02*
X230547619Y-55704819D01*
X230547619Y-55704819D02*
X230452381Y-55847676D01*
X230452381Y-55847676D02*
X230357143Y-55942914D01*
X230357143Y-55942914D02*
X230261905Y-55990533D01*
X87095238Y-76657200D02*
X87238095Y-76704819D01*
X87238095Y-76704819D02*
X87476190Y-76704819D01*
X87476190Y-76704819D02*
X87571428Y-76657200D01*
X87571428Y-76657200D02*
X87619047Y-76609580D01*
X87619047Y-76609580D02*
X87666666Y-76514342D01*
X87666666Y-76514342D02*
X87666666Y-76419104D01*
X87666666Y-76419104D02*
X87619047Y-76323866D01*
X87619047Y-76323866D02*
X87571428Y-76276247D01*
X87571428Y-76276247D02*
X87476190Y-76228628D01*
X87476190Y-76228628D02*
X87285714Y-76181009D01*
X87285714Y-76181009D02*
X87190476Y-76133390D01*
X87190476Y-76133390D02*
X87142857Y-76085771D01*
X87142857Y-76085771D02*
X87095238Y-75990533D01*
X87095238Y-75990533D02*
X87095238Y-75895295D01*
X87095238Y-75895295D02*
X87142857Y-75800057D01*
X87142857Y-75800057D02*
X87190476Y-75752438D01*
X87190476Y-75752438D02*
X87285714Y-75704819D01*
X87285714Y-75704819D02*
X87523809Y-75704819D01*
X87523809Y-75704819D02*
X87666666Y-75752438D01*
X88000000Y-75704819D02*
X88238095Y-76704819D01*
X88238095Y-76704819D02*
X88428571Y-75990533D01*
X88428571Y-75990533D02*
X88619047Y-76704819D01*
X88619047Y-76704819D02*
X88857143Y-75704819D01*
X89142857Y-75704819D02*
X89380952Y-76704819D01*
X89380952Y-76704819D02*
X89571428Y-75990533D01*
X89571428Y-75990533D02*
X89761904Y-76704819D01*
X89761904Y-76704819D02*
X90000000Y-75704819D01*
X90904761Y-76704819D02*
X90333333Y-76704819D01*
X90619047Y-76704819D02*
X90619047Y-75704819D01*
X90619047Y-75704819D02*
X90523809Y-75847676D01*
X90523809Y-75847676D02*
X90428571Y-75942914D01*
X90428571Y-75942914D02*
X90333333Y-75990533D01*
X235699405Y-91454819D02*
X235699405Y-90454819D01*
X235699405Y-90454819D02*
X235937500Y-90454819D01*
X235937500Y-90454819D02*
X236080357Y-90502438D01*
X236080357Y-90502438D02*
X236175595Y-90597676D01*
X236175595Y-90597676D02*
X236223214Y-90692914D01*
X236223214Y-90692914D02*
X236270833Y-90883390D01*
X236270833Y-90883390D02*
X236270833Y-91026247D01*
X236270833Y-91026247D02*
X236223214Y-91216723D01*
X236223214Y-91216723D02*
X236175595Y-91311961D01*
X236175595Y-91311961D02*
X236080357Y-91407200D01*
X236080357Y-91407200D02*
X235937500Y-91454819D01*
X235937500Y-91454819D02*
X235699405Y-91454819D01*
X236604167Y-90454819D02*
X237223214Y-90454819D01*
X237223214Y-90454819D02*
X236889881Y-90835771D01*
X236889881Y-90835771D02*
X237032738Y-90835771D01*
X237032738Y-90835771D02*
X237127976Y-90883390D01*
X237127976Y-90883390D02*
X237175595Y-90931009D01*
X237175595Y-90931009D02*
X237223214Y-91026247D01*
X237223214Y-91026247D02*
X237223214Y-91264342D01*
X237223214Y-91264342D02*
X237175595Y-91359580D01*
X237175595Y-91359580D02*
X237127976Y-91407200D01*
X237127976Y-91407200D02*
X237032738Y-91454819D01*
X237032738Y-91454819D02*
X236747024Y-91454819D01*
X236747024Y-91454819D02*
X236651786Y-91407200D01*
X236651786Y-91407200D02*
X236604167Y-91359580D01*
X104723214Y-111104819D02*
X104723214Y-110104819D01*
X104723214Y-110104819D02*
X104961309Y-110104819D01*
X104961309Y-110104819D02*
X105104166Y-110152438D01*
X105104166Y-110152438D02*
X105199404Y-110247676D01*
X105199404Y-110247676D02*
X105247023Y-110342914D01*
X105247023Y-110342914D02*
X105294642Y-110533390D01*
X105294642Y-110533390D02*
X105294642Y-110676247D01*
X105294642Y-110676247D02*
X105247023Y-110866723D01*
X105247023Y-110866723D02*
X105199404Y-110961961D01*
X105199404Y-110961961D02*
X105104166Y-111057200D01*
X105104166Y-111057200D02*
X104961309Y-111104819D01*
X104961309Y-111104819D02*
X104723214Y-111104819D01*
X106247023Y-111104819D02*
X105675595Y-111104819D01*
X105961309Y-111104819D02*
X105961309Y-110104819D01*
X105961309Y-110104819D02*
X105866071Y-110247676D01*
X105866071Y-110247676D02*
X105770833Y-110342914D01*
X105770833Y-110342914D02*
X105675595Y-110390533D01*
X107151785Y-110104819D02*
X106675595Y-110104819D01*
X106675595Y-110104819D02*
X106627976Y-110581009D01*
X106627976Y-110581009D02*
X106675595Y-110533390D01*
X106675595Y-110533390D02*
X106770833Y-110485771D01*
X106770833Y-110485771D02*
X107008928Y-110485771D01*
X107008928Y-110485771D02*
X107104166Y-110533390D01*
X107104166Y-110533390D02*
X107151785Y-110581009D01*
X107151785Y-110581009D02*
X107199404Y-110676247D01*
X107199404Y-110676247D02*
X107199404Y-110914342D01*
X107199404Y-110914342D02*
X107151785Y-111009580D01*
X107151785Y-111009580D02*
X107104166Y-111057200D01*
X107104166Y-111057200D02*
X107008928Y-111104819D01*
X107008928Y-111104819D02*
X106770833Y-111104819D01*
X106770833Y-111104819D02*
X106675595Y-111057200D01*
X106675595Y-111057200D02*
X106627976Y-111009580D01*
X176261905Y-91954819D02*
X176261905Y-90954819D01*
X176261905Y-90954819D02*
X176500000Y-90954819D01*
X176500000Y-90954819D02*
X176642857Y-91002438D01*
X176642857Y-91002438D02*
X176738095Y-91097676D01*
X176738095Y-91097676D02*
X176785714Y-91192914D01*
X176785714Y-91192914D02*
X176833333Y-91383390D01*
X176833333Y-91383390D02*
X176833333Y-91526247D01*
X176833333Y-91526247D02*
X176785714Y-91716723D01*
X176785714Y-91716723D02*
X176738095Y-91811961D01*
X176738095Y-91811961D02*
X176642857Y-91907200D01*
X176642857Y-91907200D02*
X176500000Y-91954819D01*
X176500000Y-91954819D02*
X176261905Y-91954819D01*
X177404762Y-91383390D02*
X177309524Y-91335771D01*
X177309524Y-91335771D02*
X177261905Y-91288152D01*
X177261905Y-91288152D02*
X177214286Y-91192914D01*
X177214286Y-91192914D02*
X177214286Y-91145295D01*
X177214286Y-91145295D02*
X177261905Y-91050057D01*
X177261905Y-91050057D02*
X177309524Y-91002438D01*
X177309524Y-91002438D02*
X177404762Y-90954819D01*
X177404762Y-90954819D02*
X177595238Y-90954819D01*
X177595238Y-90954819D02*
X177690476Y-91002438D01*
X177690476Y-91002438D02*
X177738095Y-91050057D01*
X177738095Y-91050057D02*
X177785714Y-91145295D01*
X177785714Y-91145295D02*
X177785714Y-91192914D01*
X177785714Y-91192914D02*
X177738095Y-91288152D01*
X177738095Y-91288152D02*
X177690476Y-91335771D01*
X177690476Y-91335771D02*
X177595238Y-91383390D01*
X177595238Y-91383390D02*
X177404762Y-91383390D01*
X177404762Y-91383390D02*
X177309524Y-91431009D01*
X177309524Y-91431009D02*
X177261905Y-91478628D01*
X177261905Y-91478628D02*
X177214286Y-91573866D01*
X177214286Y-91573866D02*
X177214286Y-91764342D01*
X177214286Y-91764342D02*
X177261905Y-91859580D01*
X177261905Y-91859580D02*
X177309524Y-91907200D01*
X177309524Y-91907200D02*
X177404762Y-91954819D01*
X177404762Y-91954819D02*
X177595238Y-91954819D01*
X177595238Y-91954819D02*
X177690476Y-91907200D01*
X177690476Y-91907200D02*
X177738095Y-91859580D01*
X177738095Y-91859580D02*
X177785714Y-91764342D01*
X177785714Y-91764342D02*
X177785714Y-91573866D01*
X177785714Y-91573866D02*
X177738095Y-91478628D01*
X177738095Y-91478628D02*
X177690476Y-91431009D01*
X177690476Y-91431009D02*
X177595238Y-91383390D01*
X107166667Y-76657200D02*
X107309524Y-76704819D01*
X107309524Y-76704819D02*
X107547619Y-76704819D01*
X107547619Y-76704819D02*
X107642857Y-76657200D01*
X107642857Y-76657200D02*
X107690476Y-76609580D01*
X107690476Y-76609580D02*
X107738095Y-76514342D01*
X107738095Y-76514342D02*
X107738095Y-76419104D01*
X107738095Y-76419104D02*
X107690476Y-76323866D01*
X107690476Y-76323866D02*
X107642857Y-76276247D01*
X107642857Y-76276247D02*
X107547619Y-76228628D01*
X107547619Y-76228628D02*
X107357143Y-76181009D01*
X107357143Y-76181009D02*
X107261905Y-76133390D01*
X107261905Y-76133390D02*
X107214286Y-76085771D01*
X107214286Y-76085771D02*
X107166667Y-75990533D01*
X107166667Y-75990533D02*
X107166667Y-75895295D01*
X107166667Y-75895295D02*
X107214286Y-75800057D01*
X107214286Y-75800057D02*
X107261905Y-75752438D01*
X107261905Y-75752438D02*
X107357143Y-75704819D01*
X107357143Y-75704819D02*
X107595238Y-75704819D01*
X107595238Y-75704819D02*
X107738095Y-75752438D01*
X108071429Y-75704819D02*
X108309524Y-76704819D01*
X108309524Y-76704819D02*
X108500000Y-75990533D01*
X108500000Y-75990533D02*
X108690476Y-76704819D01*
X108690476Y-76704819D02*
X108928572Y-75704819D01*
X109880952Y-76704819D02*
X109547619Y-76228628D01*
X109309524Y-76704819D02*
X109309524Y-75704819D01*
X109309524Y-75704819D02*
X109690476Y-75704819D01*
X109690476Y-75704819D02*
X109785714Y-75752438D01*
X109785714Y-75752438D02*
X109833333Y-75800057D01*
X109833333Y-75800057D02*
X109880952Y-75895295D01*
X109880952Y-75895295D02*
X109880952Y-76038152D01*
X109880952Y-76038152D02*
X109833333Y-76133390D01*
X109833333Y-76133390D02*
X109785714Y-76181009D01*
X109785714Y-76181009D02*
X109690476Y-76228628D01*
X109690476Y-76228628D02*
X109309524Y-76228628D01*
X110833333Y-76704819D02*
X110261905Y-76704819D01*
X110547619Y-76704819D02*
X110547619Y-75704819D01*
X110547619Y-75704819D02*
X110452381Y-75847676D01*
X110452381Y-75847676D02*
X110357143Y-75942914D01*
X110357143Y-75942914D02*
X110261905Y-75990533D01*
X87166667Y-56657200D02*
X87309524Y-56704819D01*
X87309524Y-56704819D02*
X87547619Y-56704819D01*
X87547619Y-56704819D02*
X87642857Y-56657200D01*
X87642857Y-56657200D02*
X87690476Y-56609580D01*
X87690476Y-56609580D02*
X87738095Y-56514342D01*
X87738095Y-56514342D02*
X87738095Y-56419104D01*
X87738095Y-56419104D02*
X87690476Y-56323866D01*
X87690476Y-56323866D02*
X87642857Y-56276247D01*
X87642857Y-56276247D02*
X87547619Y-56228628D01*
X87547619Y-56228628D02*
X87357143Y-56181009D01*
X87357143Y-56181009D02*
X87261905Y-56133390D01*
X87261905Y-56133390D02*
X87214286Y-56085771D01*
X87214286Y-56085771D02*
X87166667Y-55990533D01*
X87166667Y-55990533D02*
X87166667Y-55895295D01*
X87166667Y-55895295D02*
X87214286Y-55800057D01*
X87214286Y-55800057D02*
X87261905Y-55752438D01*
X87261905Y-55752438D02*
X87357143Y-55704819D01*
X87357143Y-55704819D02*
X87595238Y-55704819D01*
X87595238Y-55704819D02*
X87738095Y-55752438D01*
X88071429Y-55704819D02*
X88309524Y-56704819D01*
X88309524Y-56704819D02*
X88500000Y-55990533D01*
X88500000Y-55990533D02*
X88690476Y-56704819D01*
X88690476Y-56704819D02*
X88928572Y-55704819D01*
X89309524Y-56704819D02*
X89309524Y-55704819D01*
X89309524Y-55704819D02*
X89690476Y-55704819D01*
X89690476Y-55704819D02*
X89785714Y-55752438D01*
X89785714Y-55752438D02*
X89833333Y-55800057D01*
X89833333Y-55800057D02*
X89880952Y-55895295D01*
X89880952Y-55895295D02*
X89880952Y-56038152D01*
X89880952Y-56038152D02*
X89833333Y-56133390D01*
X89833333Y-56133390D02*
X89785714Y-56181009D01*
X89785714Y-56181009D02*
X89690476Y-56228628D01*
X89690476Y-56228628D02*
X89309524Y-56228628D01*
X90833333Y-56704819D02*
X90261905Y-56704819D01*
X90547619Y-56704819D02*
X90547619Y-55704819D01*
X90547619Y-55704819D02*
X90452381Y-55847676D01*
X90452381Y-55847676D02*
X90357143Y-55942914D01*
X90357143Y-55942914D02*
X90261905Y-55990533D01*
X131761905Y-111454819D02*
X131761905Y-110454819D01*
X131761905Y-110454819D02*
X132000000Y-110454819D01*
X132000000Y-110454819D02*
X132142857Y-110502438D01*
X132142857Y-110502438D02*
X132238095Y-110597676D01*
X132238095Y-110597676D02*
X132285714Y-110692914D01*
X132285714Y-110692914D02*
X132333333Y-110883390D01*
X132333333Y-110883390D02*
X132333333Y-111026247D01*
X132333333Y-111026247D02*
X132285714Y-111216723D01*
X132285714Y-111216723D02*
X132238095Y-111311961D01*
X132238095Y-111311961D02*
X132142857Y-111407200D01*
X132142857Y-111407200D02*
X132000000Y-111454819D01*
X132000000Y-111454819D02*
X131761905Y-111454819D01*
X133190476Y-110788152D02*
X133190476Y-111454819D01*
X132952381Y-110407200D02*
X132714286Y-111121485D01*
X132714286Y-111121485D02*
X133333333Y-111121485D01*
X95285714Y-91954819D02*
X95285714Y-90954819D01*
X95285714Y-90954819D02*
X95523809Y-90954819D01*
X95523809Y-90954819D02*
X95666666Y-91002438D01*
X95666666Y-91002438D02*
X95761904Y-91097676D01*
X95761904Y-91097676D02*
X95809523Y-91192914D01*
X95809523Y-91192914D02*
X95857142Y-91383390D01*
X95857142Y-91383390D02*
X95857142Y-91526247D01*
X95857142Y-91526247D02*
X95809523Y-91716723D01*
X95809523Y-91716723D02*
X95761904Y-91811961D01*
X95761904Y-91811961D02*
X95666666Y-91907200D01*
X95666666Y-91907200D02*
X95523809Y-91954819D01*
X95523809Y-91954819D02*
X95285714Y-91954819D01*
X96238095Y-91050057D02*
X96285714Y-91002438D01*
X96285714Y-91002438D02*
X96380952Y-90954819D01*
X96380952Y-90954819D02*
X96619047Y-90954819D01*
X96619047Y-90954819D02*
X96714285Y-91002438D01*
X96714285Y-91002438D02*
X96761904Y-91050057D01*
X96761904Y-91050057D02*
X96809523Y-91145295D01*
X96809523Y-91145295D02*
X96809523Y-91240533D01*
X96809523Y-91240533D02*
X96761904Y-91383390D01*
X96761904Y-91383390D02*
X96190476Y-91954819D01*
X96190476Y-91954819D02*
X96809523Y-91954819D01*
X97190476Y-91050057D02*
X97238095Y-91002438D01*
X97238095Y-91002438D02*
X97333333Y-90954819D01*
X97333333Y-90954819D02*
X97571428Y-90954819D01*
X97571428Y-90954819D02*
X97666666Y-91002438D01*
X97666666Y-91002438D02*
X97714285Y-91050057D01*
X97714285Y-91050057D02*
X97761904Y-91145295D01*
X97761904Y-91145295D02*
X97761904Y-91240533D01*
X97761904Y-91240533D02*
X97714285Y-91383390D01*
X97714285Y-91383390D02*
X97142857Y-91954819D01*
X97142857Y-91954819D02*
X97761904Y-91954819D01*
X115285714Y-91954819D02*
X115285714Y-90954819D01*
X115285714Y-90954819D02*
X115523809Y-90954819D01*
X115523809Y-90954819D02*
X115666666Y-91002438D01*
X115666666Y-91002438D02*
X115761904Y-91097676D01*
X115761904Y-91097676D02*
X115809523Y-91192914D01*
X115809523Y-91192914D02*
X115857142Y-91383390D01*
X115857142Y-91383390D02*
X115857142Y-91526247D01*
X115857142Y-91526247D02*
X115809523Y-91716723D01*
X115809523Y-91716723D02*
X115761904Y-91811961D01*
X115761904Y-91811961D02*
X115666666Y-91907200D01*
X115666666Y-91907200D02*
X115523809Y-91954819D01*
X115523809Y-91954819D02*
X115285714Y-91954819D01*
X116809523Y-91954819D02*
X116238095Y-91954819D01*
X116523809Y-91954819D02*
X116523809Y-90954819D01*
X116523809Y-90954819D02*
X116428571Y-91097676D01*
X116428571Y-91097676D02*
X116333333Y-91192914D01*
X116333333Y-91192914D02*
X116238095Y-91240533D01*
X117666666Y-91288152D02*
X117666666Y-91954819D01*
X117428571Y-90907200D02*
X117190476Y-91621485D01*
X117190476Y-91621485D02*
X117809523Y-91621485D01*
D13*
%TO.C,SWZ1*%
X220150000Y-77250000D02*
X237850000Y-77250000D01*
X220150000Y-91750000D02*
X220150000Y-77250000D01*
X237850000Y-77250000D02*
X237850000Y-91750000D01*
X237850000Y-91750000D02*
X220150000Y-91750000D01*
%TO.C,D17*%
X199877500Y-55040000D02*
X199877500Y-56960000D01*
X199877500Y-56960000D02*
X202562500Y-56960000D01*
X202562500Y-55040000D02*
X199877500Y-55040000D01*
%TO.C,SW#2*%
X180150000Y-37250000D02*
X197850000Y-37250000D01*
X180150000Y-51750000D02*
X180150000Y-37250000D01*
X197850000Y-37250000D02*
X197850000Y-51750000D01*
X197850000Y-51750000D02*
X180150000Y-51750000D01*
%TO.C,D5*%
X59877500Y-55040000D02*
X59877500Y-56960000D01*
X59877500Y-56960000D02*
X62562500Y-56960000D01*
X62562500Y-55040000D02*
X59877500Y-55040000D01*
%TO.C,SWE1*%
X131150000Y-110250000D02*
X148850000Y-110250000D01*
X131150000Y-124750000D02*
X131150000Y-110250000D01*
X148850000Y-110250000D02*
X148850000Y-124750000D01*
X148850000Y-124750000D02*
X131150000Y-124750000D01*
%TO.C,D20*%
X215562500Y-93960000D02*
X218247500Y-93960000D01*
X218247500Y-92040000D02*
X215562500Y-92040000D01*
X218247500Y-93960000D02*
X218247500Y-92040000D01*
%TO.C,D7*%
X179752500Y-55040000D02*
X179752500Y-56960000D01*
X179752500Y-56960000D02*
X182437500Y-56960000D01*
X182437500Y-55040000D02*
X179752500Y-55040000D01*
%TO.C,SW\u002A1*%
X120150000Y-67250000D02*
X137850000Y-67250000D01*
X120150000Y-81750000D02*
X120150000Y-67250000D01*
X137850000Y-67250000D02*
X137850000Y-81750000D01*
X137850000Y-81750000D02*
X120150000Y-81750000D01*
%TO.C,SWT2*%
X200150000Y-57250000D02*
X217850000Y-57250000D01*
X200150000Y-71750000D02*
X200150000Y-57250000D01*
X217850000Y-57250000D02*
X217850000Y-71750000D01*
X217850000Y-71750000D02*
X200150000Y-71750000D01*
%TO.C,SWR2*%
X140150000Y-77250000D02*
X157850000Y-77250000D01*
X140150000Y-91750000D02*
X140150000Y-77250000D01*
X157850000Y-77250000D02*
X157850000Y-91750000D01*
X157850000Y-91750000D02*
X140150000Y-91750000D01*
%TO.C,SWS2*%
X200150000Y-77250000D02*
X217850000Y-77250000D01*
X200150000Y-91750000D02*
X200150000Y-77250000D01*
X217850000Y-77250000D02*
X217850000Y-91750000D01*
X217850000Y-91750000D02*
X200150000Y-91750000D01*
%TO.C,D23*%
X160562500Y-56960000D02*
X163247500Y-56960000D01*
X163247500Y-55040000D02*
X160562500Y-55040000D01*
X163247500Y-56960000D02*
X163247500Y-55040000D01*
%TO.C,SWP2*%
X160150000Y-57250000D02*
X177850000Y-57250000D01*
X160150000Y-71750000D02*
X160150000Y-57250000D01*
X177850000Y-57250000D02*
X177850000Y-71750000D01*
X177850000Y-71750000D02*
X160150000Y-71750000D01*
%TO.C,SWO1*%
X109150000Y-110250000D02*
X126850000Y-110250000D01*
X109150000Y-124750000D02*
X109150000Y-110250000D01*
X126850000Y-110250000D02*
X126850000Y-124750000D01*
X126850000Y-124750000D02*
X109150000Y-124750000D01*
%TO.C,SW#1*%
X80150000Y-37250000D02*
X97850000Y-37250000D01*
X80150000Y-51750000D02*
X80150000Y-37250000D01*
X97850000Y-37250000D02*
X97850000Y-51750000D01*
X97850000Y-51750000D02*
X80150000Y-51750000D01*
%TO.C,SWS1*%
X40150000Y-67750000D02*
X57850000Y-67750000D01*
X40150000Y-82250000D02*
X40150000Y-67750000D01*
X57850000Y-67750000D02*
X57850000Y-82250000D01*
X57850000Y-82250000D02*
X40150000Y-82250000D01*
%TO.C,D18*%
X155562500Y-93960000D02*
X158247500Y-93960000D01*
X158247500Y-92040000D02*
X155562500Y-92040000D01*
X158247500Y-93960000D02*
X158247500Y-92040000D01*
%TO.C,SWU1*%
X151150000Y-110250000D02*
X168850000Y-110250000D01*
X151150000Y-124750000D02*
X151150000Y-110250000D01*
X168850000Y-110250000D02*
X168850000Y-124750000D01*
X168850000Y-124750000D02*
X151150000Y-124750000D01*
%TO.C,D6*%
X195437500Y-93960000D02*
X198122500Y-93960000D01*
X198122500Y-92040000D02*
X195437500Y-92040000D01*
X198122500Y-93960000D02*
X198122500Y-92040000D01*
%TO.C,SWB1*%
X160150000Y-77250000D02*
X177850000Y-77250000D01*
X160150000Y-91750000D02*
X160150000Y-77250000D01*
X177850000Y-77250000D02*
X177850000Y-91750000D01*
X177850000Y-91750000D02*
X160150000Y-91750000D01*
%TO.C,D9*%
X79752500Y-55040000D02*
X79752500Y-56960000D01*
X79752500Y-56960000D02*
X82437500Y-56960000D01*
X82437500Y-55040000D02*
X79752500Y-55040000D01*
%TO.C,D11*%
X135500000Y-66960000D02*
X138185000Y-66960000D01*
X138185000Y-65040000D02*
X135500000Y-65040000D01*
X138185000Y-66960000D02*
X138185000Y-65040000D01*
D14*
%TO.C,U1*%
X120100000Y-35350000D02*
X120100000Y-52350000D01*
X122100000Y-54350000D02*
X135900000Y-54350000D01*
X124500000Y-31925970D02*
X133500000Y-31925970D01*
X124500000Y-39279270D02*
X124500000Y-31925970D01*
X133500000Y-31925970D02*
X133500000Y-39279270D01*
X133500000Y-39279270D02*
X124500000Y-39279270D01*
X135900000Y-33350910D02*
X122100000Y-33350910D01*
X137900000Y-52350000D02*
X137900000Y-35350000D01*
D13*
X120100000Y-35350000D02*
G75*
G02*
X122100000Y-33350000I2044612J-44612D01*
G01*
X122100000Y-54350000D02*
G75*
G02*
X120100000Y-52350000I44857J2044857D01*
G01*
X135900000Y-33350000D02*
G75*
G02*
X137900000Y-35350000I-44600J-2044600D01*
G01*
X137900000Y-52350000D02*
G75*
G02*
X135900000Y-54350000I-2000000J0D01*
G01*
D15*
X118127000Y-35050000D02*
G75*
G02*
X117873000Y-35050000I-127000J0D01*
G01*
X117873000Y-35050000D02*
G75*
G02*
X118127000Y-35050000I127000J0D01*
G01*
D16*
X120112285Y-35288295D02*
X120115333Y-35239527D01*
X120119397Y-35190506D01*
X120112285Y-35288295D01*
X137887713Y-52420850D02*
X137884665Y-52469618D01*
X137880601Y-52518639D01*
X137875268Y-52567407D01*
X137868664Y-52616175D01*
X137861044Y-52664690D01*
X137852153Y-52712950D01*
X137842248Y-52760955D01*
X137889492Y-52371574D01*
X137887713Y-52420850D01*
D13*
%TO.C,D16*%
X74877500Y-92040000D02*
X74877500Y-93960000D01*
X74877500Y-93960000D02*
X77562500Y-93960000D01*
X77562500Y-92040000D02*
X74877500Y-92040000D01*
%TO.C,SWH1*%
X100150000Y-57250000D02*
X117850000Y-57250000D01*
X100150000Y-71750000D02*
X100150000Y-57250000D01*
X117850000Y-57250000D02*
X117850000Y-71750000D01*
X117850000Y-71750000D02*
X100150000Y-71750000D01*
%TO.C,SWT1*%
X60150000Y-57250000D02*
X77850000Y-57250000D01*
X60150000Y-71750000D02*
X60150000Y-57250000D01*
X77850000Y-57250000D02*
X77850000Y-71750000D01*
X77850000Y-71750000D02*
X60150000Y-71750000D01*
%TO.C,D12*%
X150877500Y-108040000D02*
X150877500Y-109960000D01*
X150877500Y-109960000D02*
X153562500Y-109960000D01*
X153562500Y-108040000D02*
X150877500Y-108040000D01*
%TO.C,D21*%
X180315000Y-35040000D02*
X180315000Y-36960000D01*
X180315000Y-36960000D02*
X183000000Y-36960000D01*
X183000000Y-35040000D02*
X180315000Y-35040000D01*
%TO.C,D2*%
X219752500Y-55040000D02*
X219752500Y-56960000D01*
X219752500Y-56960000D02*
X222437500Y-56960000D01*
X222437500Y-55040000D02*
X219752500Y-55040000D01*
%TO.C,SWA1*%
X89650000Y-110250000D02*
X107350000Y-110250000D01*
X89650000Y-124750000D02*
X89650000Y-110250000D01*
X107350000Y-110250000D02*
X107350000Y-124750000D01*
X107350000Y-124750000D02*
X89650000Y-124750000D01*
%TO.C,SWL1*%
X180150000Y-57250000D02*
X197850000Y-57250000D01*
X180150000Y-71750000D02*
X180150000Y-57250000D01*
X197850000Y-57250000D02*
X197850000Y-71750000D01*
X197850000Y-71750000D02*
X180150000Y-71750000D01*
%TO.C,D10*%
X123752500Y-108040000D02*
X123752500Y-109960000D01*
X123752500Y-109960000D02*
X126437500Y-109960000D01*
X126437500Y-108040000D02*
X123752500Y-108040000D01*
%TO.C,SWF1*%
X140150000Y-57250000D02*
X157850000Y-57250000D01*
X140150000Y-71750000D02*
X140150000Y-57250000D01*
X157850000Y-57250000D02*
X157850000Y-71750000D01*
X157850000Y-71750000D02*
X140150000Y-71750000D01*
%TO.C,D13*%
X139752500Y-55040000D02*
X139752500Y-56960000D01*
X139752500Y-56960000D02*
X142437500Y-56960000D01*
X142437500Y-55040000D02*
X139752500Y-55040000D01*
%TO.C,D19*%
X100437500Y-56960000D02*
X103122500Y-56960000D01*
X103122500Y-55040000D02*
X100437500Y-55040000D01*
X103122500Y-56960000D02*
X103122500Y-55040000D01*
%TO.C,SWG1*%
X180150000Y-77250000D02*
X197850000Y-77250000D01*
X180150000Y-91750000D02*
X180150000Y-77250000D01*
X197850000Y-77250000D02*
X197850000Y-91750000D01*
X197850000Y-91750000D02*
X180150000Y-91750000D01*
%TO.C,D24*%
X95500000Y-36960000D02*
X98185000Y-36960000D01*
X98185000Y-35040000D02*
X95500000Y-35040000D01*
X98185000Y-36960000D02*
X98185000Y-35040000D01*
%TO.C,SWK1*%
X60150000Y-77250000D02*
X77850000Y-77250000D01*
X60150000Y-91750000D02*
X60150000Y-77250000D01*
X77850000Y-77250000D02*
X77850000Y-91750000D01*
X77850000Y-91750000D02*
X60150000Y-91750000D01*
%TO.C,D1*%
X54877500Y-65540000D02*
X54877500Y-67460000D01*
X54877500Y-67460000D02*
X57562500Y-67460000D01*
X57562500Y-65540000D02*
X54877500Y-65540000D01*
%TO.C,SWD1*%
X220150000Y-57250000D02*
X237850000Y-57250000D01*
X220150000Y-71750000D02*
X220150000Y-57250000D01*
X237850000Y-57250000D02*
X237850000Y-71750000D01*
X237850000Y-71750000D02*
X220150000Y-71750000D01*
%TO.C,SWW1*%
X80150000Y-77250000D02*
X97850000Y-77250000D01*
X80150000Y-91750000D02*
X80150000Y-77250000D01*
X97850000Y-77250000D02*
X97850000Y-91750000D01*
X97850000Y-91750000D02*
X80150000Y-91750000D01*
%TO.C,D3*%
X234752500Y-92040000D02*
X234752500Y-93960000D01*
X234752500Y-93960000D02*
X237437500Y-93960000D01*
X237437500Y-92040000D02*
X234752500Y-92040000D01*
%TO.C,D15*%
X104937500Y-109960000D02*
X107622500Y-109960000D01*
X107622500Y-108040000D02*
X104937500Y-108040000D01*
X107622500Y-109960000D02*
X107622500Y-108040000D01*
%TO.C,D8*%
X175562500Y-93960000D02*
X178247500Y-93960000D01*
X178247500Y-92040000D02*
X175562500Y-92040000D01*
X178247500Y-93960000D02*
X178247500Y-92040000D01*
%TO.C,SWR1*%
X100150000Y-77250000D02*
X117850000Y-77250000D01*
X100150000Y-91750000D02*
X100150000Y-77250000D01*
X117850000Y-77250000D02*
X117850000Y-91750000D01*
X117850000Y-91750000D02*
X100150000Y-91750000D01*
%TO.C,SWP1*%
X80150000Y-57250000D02*
X97850000Y-57250000D01*
X80150000Y-71750000D02*
X80150000Y-57250000D01*
X97850000Y-57250000D02*
X97850000Y-71750000D01*
X97850000Y-71750000D02*
X80150000Y-71750000D01*
%TO.C,D4*%
X130877500Y-108040000D02*
X130877500Y-109960000D01*
X130877500Y-109960000D02*
X133562500Y-109960000D01*
X133562500Y-108040000D02*
X130877500Y-108040000D01*
%TO.C,D22*%
X95500000Y-93960000D02*
X98185000Y-93960000D01*
X98185000Y-92040000D02*
X95500000Y-92040000D01*
X98185000Y-93960000D02*
X98185000Y-92040000D01*
%TO.C,D14*%
X115500000Y-93960000D02*
X118185000Y-93960000D01*
X118185000Y-92040000D02*
X115500000Y-92040000D01*
X118185000Y-93960000D02*
X118185000Y-92040000D01*
%TD*%
%LPC*%
D17*
%TO.C,SWZ1*%
X231500000Y-80000000D03*
X226500000Y-80500000D03*
%TD*%
D18*
%TO.C,D17*%
X200625000Y-56000000D03*
X202500000Y-56000000D03*
%TD*%
D17*
%TO.C,SW#2*%
X191500000Y-40000000D03*
X186500000Y-40500000D03*
%TD*%
D18*
%TO.C,D5*%
X60625000Y-56000000D03*
X62500000Y-56000000D03*
%TD*%
D17*
%TO.C,SWE1*%
X142500000Y-113000000D03*
X137500000Y-113500000D03*
%TD*%
D19*
%TO.C,D20*%
X217500000Y-93000000D03*
X215625000Y-93000000D03*
%TD*%
D18*
%TO.C,D7*%
X180500000Y-56000000D03*
X182375000Y-56000000D03*
%TD*%
D17*
%TO.C,SW\u002A1*%
X131500000Y-70000000D03*
X126500000Y-70500000D03*
%TD*%
%TO.C,SWT2*%
X211500000Y-60000000D03*
X206500000Y-60500000D03*
%TD*%
%TO.C,SWR2*%
X151500000Y-80000000D03*
X146500000Y-80500000D03*
%TD*%
%TO.C,SWS2*%
X211500000Y-80000000D03*
X206500000Y-80500000D03*
%TD*%
D19*
%TO.C,D23*%
X162500000Y-56000000D03*
X160625000Y-56000000D03*
%TD*%
D17*
%TO.C,SWP2*%
X171500000Y-60000000D03*
X166500000Y-60500000D03*
%TD*%
%TO.C,SWO1*%
X120500000Y-113000000D03*
X115500000Y-113500000D03*
%TD*%
%TO.C,SW#1*%
X91500000Y-40000000D03*
X86500000Y-40500000D03*
%TD*%
%TO.C,SWS1*%
X51500000Y-70500000D03*
X46500000Y-71000000D03*
%TD*%
D19*
%TO.C,D18*%
X157500000Y-93000000D03*
X155625000Y-93000000D03*
%TD*%
D17*
%TO.C,SWU1*%
X162500000Y-113000000D03*
X157500000Y-113500000D03*
%TD*%
D19*
%TO.C,D6*%
X197375000Y-93000000D03*
X195500000Y-93000000D03*
%TD*%
D17*
%TO.C,SWB1*%
X171500000Y-80000000D03*
X166500000Y-80500000D03*
%TD*%
D18*
%TO.C,D9*%
X80500000Y-56000000D03*
X82375000Y-56000000D03*
%TD*%
D19*
%TO.C,D11*%
X137437500Y-66000000D03*
X135562500Y-66000000D03*
%TD*%
D20*
%TO.C,U1*%
X120500000Y-36230000D03*
X120500000Y-38770000D03*
X120500000Y-41310000D03*
X120500000Y-43850000D03*
X120500000Y-46390000D03*
X120500000Y-48930000D03*
X120500000Y-51470000D03*
X137500000Y-51470000D03*
X137500000Y-48930000D03*
X137500000Y-46390000D03*
X137500000Y-43850000D03*
X137500000Y-41310000D03*
X137500000Y-38770000D03*
X137500000Y-36230000D03*
D21*
X127730000Y-35460000D03*
X130270000Y-35460000D03*
X127730000Y-38000000D03*
X130270000Y-38000000D03*
D22*
X127730000Y-52450000D03*
X130270000Y-52450000D03*
%TD*%
D18*
%TO.C,D16*%
X75625000Y-93000000D03*
X77500000Y-93000000D03*
%TD*%
D17*
%TO.C,SWH1*%
X111500000Y-60000000D03*
X106500000Y-60500000D03*
%TD*%
%TO.C,SWT1*%
X71500000Y-60000000D03*
X66500000Y-60500000D03*
%TD*%
D18*
%TO.C,D12*%
X151625000Y-109000000D03*
X153500000Y-109000000D03*
%TD*%
%TO.C,D21*%
X181062500Y-36000000D03*
X182937500Y-36000000D03*
%TD*%
%TO.C,D2*%
X220500000Y-56000000D03*
X222375000Y-56000000D03*
%TD*%
D17*
%TO.C,SWA1*%
X101000000Y-113000000D03*
X96000000Y-113500000D03*
%TD*%
%TO.C,SWL1*%
X191500000Y-60000000D03*
X186500000Y-60500000D03*
%TD*%
D18*
%TO.C,D10*%
X124500000Y-109000000D03*
X126375000Y-109000000D03*
%TD*%
D17*
%TO.C,SWF1*%
X151500000Y-60000000D03*
X146500000Y-60500000D03*
%TD*%
D18*
%TO.C,D13*%
X140500000Y-56000000D03*
X142375000Y-56000000D03*
%TD*%
D19*
%TO.C,D19*%
X102375000Y-56000000D03*
X100500000Y-56000000D03*
%TD*%
D17*
%TO.C,SWG1*%
X191500000Y-80000000D03*
X186500000Y-80500000D03*
%TD*%
D19*
%TO.C,D24*%
X97437500Y-36000000D03*
X95562500Y-36000000D03*
%TD*%
D17*
%TO.C,SWK1*%
X71500000Y-80000000D03*
X66500000Y-80500000D03*
%TD*%
D18*
%TO.C,D1*%
X55625000Y-66500000D03*
X57500000Y-66500000D03*
%TD*%
D17*
%TO.C,SWD1*%
X231500000Y-60000000D03*
X226500000Y-60500000D03*
%TD*%
%TO.C,SWW1*%
X91500000Y-80000000D03*
X86500000Y-80500000D03*
%TD*%
D18*
%TO.C,D3*%
X235500000Y-93000000D03*
X237375000Y-93000000D03*
%TD*%
D19*
%TO.C,D15*%
X106875000Y-109000000D03*
X105000000Y-109000000D03*
%TD*%
%TO.C,D8*%
X177500000Y-93000000D03*
X175625000Y-93000000D03*
%TD*%
D17*
%TO.C,SWR1*%
X111500000Y-80000000D03*
X106500000Y-80500000D03*
%TD*%
%TO.C,SWP1*%
X91500000Y-60000000D03*
X86500000Y-60500000D03*
%TD*%
D18*
%TO.C,D4*%
X131625000Y-109000000D03*
X133500000Y-109000000D03*
%TD*%
D19*
%TO.C,D22*%
X97437500Y-93000000D03*
X95562500Y-93000000D03*
%TD*%
%TO.C,D14*%
X117437500Y-93000000D03*
X115562500Y-93000000D03*
%TD*%
%LPD*%
M02*
