%TF.GenerationSoftware,KiCad,Pcbnew,8.0.5*%
%TF.CreationDate,2024-10-14T17:38:25-04:00*%
%TF.ProjectId,board,626f6172-642e-46b6-9963-61645f706362,1*%
%TF.SameCoordinates,Original*%
%TF.FileFunction,Legend,Top*%
%TF.FilePolarity,Positive*%
%FSLAX46Y46*%
G04 Gerber Fmt 4.6, Leading zero omitted, Abs format (unit mm)*
G04 Created by KiCad (PCBNEW 8.0.5) date 2024-10-14 17:38:25*
%MOMM*%
%LPD*%
G01*
G04 APERTURE LIST*
%ADD10C,0.100000*%
%ADD11C,0.150000*%
%ADD12C,0.101600*%
%ADD13C,0.120000*%
%ADD14C,0.127000*%
%ADD15C,0.254000*%
%ADD16C,0.025400*%
%ADD17C,1.900000*%
%ADD18C,3.450000*%
%ADD19C,2.200000*%
%ADD20R,2.200000X2.200000*%
%ADD21O,2.200000X2.200000*%
%ADD22C,3.200000*%
%ADD23R,3.000000X2.000000*%
%ADD24C,1.500000*%
%ADD25R,1.300000X2.300000*%
G04 APERTURE END LIST*
D10*
X89256265Y-106154800D02*
X89351503Y-106250038D01*
X89351503Y-106250038D02*
X89541979Y-106250038D01*
X89541979Y-106250038D02*
X89637217Y-106154800D01*
X89637217Y-106154800D02*
X89684836Y-105964323D01*
X89684836Y-105964323D02*
X89684836Y-105869085D01*
X89684836Y-105869085D02*
X89637217Y-105678609D01*
X89637217Y-105678609D02*
X89541979Y-105583371D01*
X89541979Y-105583371D02*
X89399122Y-105583371D01*
X89399122Y-105583371D02*
X89303884Y-105488133D01*
X89303884Y-105488133D02*
X89256265Y-105297657D01*
X89256265Y-105297657D02*
X89256265Y-105202419D01*
X89256265Y-105202419D02*
X89303884Y-105011942D01*
X89303884Y-105011942D02*
X89399122Y-104916704D01*
X89399122Y-104916704D02*
X89541979Y-104916704D01*
X89541979Y-104916704D02*
X89637217Y-105011942D01*
X89970551Y-104916704D02*
X90351503Y-104916704D01*
X90113408Y-104250038D02*
X90113408Y-105964323D01*
X90113408Y-105964323D02*
X90161027Y-106154800D01*
X90161027Y-106154800D02*
X90256265Y-106250038D01*
X90256265Y-106250038D02*
X90351503Y-106250038D01*
X91065789Y-106154800D02*
X90970551Y-106250038D01*
X90970551Y-106250038D02*
X90780075Y-106250038D01*
X90780075Y-106250038D02*
X90684837Y-106154800D01*
X90684837Y-106154800D02*
X90637218Y-105964323D01*
X90637218Y-105964323D02*
X90637218Y-105202419D01*
X90637218Y-105202419D02*
X90684837Y-105011942D01*
X90684837Y-105011942D02*
X90780075Y-104916704D01*
X90780075Y-104916704D02*
X90970551Y-104916704D01*
X90970551Y-104916704D02*
X91065789Y-105011942D01*
X91065789Y-105011942D02*
X91113408Y-105202419D01*
X91113408Y-105202419D02*
X91113408Y-105392895D01*
X91113408Y-105392895D02*
X90637218Y-105583371D01*
X91541980Y-104916704D02*
X91541980Y-106250038D01*
X91541980Y-105107180D02*
X91589599Y-105011942D01*
X91589599Y-105011942D02*
X91684837Y-104916704D01*
X91684837Y-104916704D02*
X91827694Y-104916704D01*
X91827694Y-104916704D02*
X91922932Y-105011942D01*
X91922932Y-105011942D02*
X91970551Y-105202419D01*
X91970551Y-105202419D02*
X91970551Y-106250038D01*
X92589599Y-106250038D02*
X92494361Y-106154800D01*
X92494361Y-106154800D02*
X92446742Y-106059561D01*
X92446742Y-106059561D02*
X92399123Y-105869085D01*
X92399123Y-105869085D02*
X92399123Y-105297657D01*
X92399123Y-105297657D02*
X92446742Y-105107180D01*
X92446742Y-105107180D02*
X92494361Y-105011942D01*
X92494361Y-105011942D02*
X92589599Y-104916704D01*
X92589599Y-104916704D02*
X92732456Y-104916704D01*
X92732456Y-104916704D02*
X92827694Y-105011942D01*
X92827694Y-105011942D02*
X92875313Y-105107180D01*
X92875313Y-105107180D02*
X92922932Y-105297657D01*
X92922932Y-105297657D02*
X92922932Y-105869085D01*
X92922932Y-105869085D02*
X92875313Y-106059561D01*
X92875313Y-106059561D02*
X92827694Y-106154800D01*
X92827694Y-106154800D02*
X92732456Y-106250038D01*
X92732456Y-106250038D02*
X92589599Y-106250038D01*
X93351504Y-106250038D02*
X93351504Y-104916704D01*
X93351504Y-105107180D02*
X93399123Y-105011942D01*
X93399123Y-105011942D02*
X93494361Y-104916704D01*
X93494361Y-104916704D02*
X93637218Y-104916704D01*
X93637218Y-104916704D02*
X93732456Y-105011942D01*
X93732456Y-105011942D02*
X93780075Y-105202419D01*
X93780075Y-105202419D02*
X93780075Y-106250038D01*
X93780075Y-105202419D02*
X93827694Y-105011942D01*
X93827694Y-105011942D02*
X93922932Y-104916704D01*
X93922932Y-104916704D02*
X94065789Y-104916704D01*
X94065789Y-104916704D02*
X94161028Y-105011942D01*
X94161028Y-105011942D02*
X94208647Y-105202419D01*
X94208647Y-105202419D02*
X94208647Y-106250038D01*
X95113408Y-106250038D02*
X95113408Y-105202419D01*
X95113408Y-105202419D02*
X95065789Y-105011942D01*
X95065789Y-105011942D02*
X94970551Y-104916704D01*
X94970551Y-104916704D02*
X94780075Y-104916704D01*
X94780075Y-104916704D02*
X94684837Y-105011942D01*
X95113408Y-106154800D02*
X95018170Y-106250038D01*
X95018170Y-106250038D02*
X94780075Y-106250038D01*
X94780075Y-106250038D02*
X94684837Y-106154800D01*
X94684837Y-106154800D02*
X94637218Y-105964323D01*
X94637218Y-105964323D02*
X94637218Y-105773847D01*
X94637218Y-105773847D02*
X94684837Y-105583371D01*
X94684837Y-105583371D02*
X94780075Y-105488133D01*
X94780075Y-105488133D02*
X95018170Y-105488133D01*
X95018170Y-105488133D02*
X95113408Y-105392895D01*
X95446742Y-104916704D02*
X95827694Y-104916704D01*
X95589599Y-104250038D02*
X95589599Y-105964323D01*
X95589599Y-105964323D02*
X95637218Y-106154800D01*
X95637218Y-106154800D02*
X95732456Y-106250038D01*
X95732456Y-106250038D02*
X95827694Y-106250038D01*
X96161028Y-106250038D02*
X96161028Y-104916704D01*
X96161028Y-104250038D02*
X96113409Y-104345276D01*
X96113409Y-104345276D02*
X96161028Y-104440514D01*
X96161028Y-104440514D02*
X96208647Y-104345276D01*
X96208647Y-104345276D02*
X96161028Y-104250038D01*
X96161028Y-104250038D02*
X96161028Y-104440514D01*
X97065789Y-106154800D02*
X96970551Y-106250038D01*
X96970551Y-106250038D02*
X96780075Y-106250038D01*
X96780075Y-106250038D02*
X96684837Y-106154800D01*
X96684837Y-106154800D02*
X96637218Y-106059561D01*
X96637218Y-106059561D02*
X96589599Y-105869085D01*
X96589599Y-105869085D02*
X96589599Y-105297657D01*
X96589599Y-105297657D02*
X96637218Y-105107180D01*
X96637218Y-105107180D02*
X96684837Y-105011942D01*
X96684837Y-105011942D02*
X96780075Y-104916704D01*
X96780075Y-104916704D02*
X96970551Y-104916704D01*
X96970551Y-104916704D02*
X97065789Y-105011942D01*
X98161028Y-104916704D02*
X98399123Y-106250038D01*
X98399123Y-106250038D02*
X98637218Y-104916704D01*
X98970552Y-104440514D02*
X99018171Y-104345276D01*
X99018171Y-104345276D02*
X99113409Y-104250038D01*
X99113409Y-104250038D02*
X99351504Y-104250038D01*
X99351504Y-104250038D02*
X99446742Y-104345276D01*
X99446742Y-104345276D02*
X99494361Y-104440514D01*
X99494361Y-104440514D02*
X99541980Y-104630990D01*
X99541980Y-104630990D02*
X99541980Y-104821466D01*
X99541980Y-104821466D02*
X99494361Y-105107180D01*
X99494361Y-105107180D02*
X98922933Y-106250038D01*
X98922933Y-106250038D02*
X99541980Y-106250038D01*
X100732457Y-106250038D02*
X100732457Y-104250038D01*
X100732457Y-105011942D02*
X100827695Y-104916704D01*
X100827695Y-104916704D02*
X101018171Y-104916704D01*
X101018171Y-104916704D02*
X101113409Y-105011942D01*
X101113409Y-105011942D02*
X101161028Y-105107180D01*
X101161028Y-105107180D02*
X101208647Y-105297657D01*
X101208647Y-105297657D02*
X101208647Y-105869085D01*
X101208647Y-105869085D02*
X101161028Y-106059561D01*
X101161028Y-106059561D02*
X101113409Y-106154800D01*
X101113409Y-106154800D02*
X101018171Y-106250038D01*
X101018171Y-106250038D02*
X100827695Y-106250038D01*
X100827695Y-106250038D02*
X100732457Y-106154800D01*
X101541981Y-104916704D02*
X101780076Y-106250038D01*
X102018171Y-104916704D02*
X101780076Y-106250038D01*
X101780076Y-106250038D02*
X101684838Y-106726228D01*
X101684838Y-106726228D02*
X101637219Y-106821466D01*
X101637219Y-106821466D02*
X101541981Y-106916704D01*
X103113410Y-106154800D02*
X103208648Y-106250038D01*
X103208648Y-106250038D02*
X103399124Y-106250038D01*
X103399124Y-106250038D02*
X103494362Y-106154800D01*
X103494362Y-106154800D02*
X103541981Y-105964323D01*
X103541981Y-105964323D02*
X103541981Y-105869085D01*
X103541981Y-105869085D02*
X103494362Y-105678609D01*
X103494362Y-105678609D02*
X103399124Y-105583371D01*
X103399124Y-105583371D02*
X103256267Y-105583371D01*
X103256267Y-105583371D02*
X103161029Y-105488133D01*
X103161029Y-105488133D02*
X103113410Y-105297657D01*
X103113410Y-105297657D02*
X103113410Y-105202419D01*
X103113410Y-105202419D02*
X103161029Y-105011942D01*
X103161029Y-105011942D02*
X103256267Y-104916704D01*
X103256267Y-104916704D02*
X103399124Y-104916704D01*
X103399124Y-104916704D02*
X103494362Y-105011942D01*
X104399124Y-106154800D02*
X104303886Y-106250038D01*
X104303886Y-106250038D02*
X104113410Y-106250038D01*
X104113410Y-106250038D02*
X104018172Y-106154800D01*
X104018172Y-106154800D02*
X103970553Y-106059561D01*
X103970553Y-106059561D02*
X103922934Y-105869085D01*
X103922934Y-105869085D02*
X103922934Y-105297657D01*
X103922934Y-105297657D02*
X103970553Y-105107180D01*
X103970553Y-105107180D02*
X104018172Y-105011942D01*
X104018172Y-105011942D02*
X104113410Y-104916704D01*
X104113410Y-104916704D02*
X104303886Y-104916704D01*
X104303886Y-104916704D02*
X104399124Y-105011942D01*
X105256267Y-106250038D02*
X105256267Y-105202419D01*
X105256267Y-105202419D02*
X105208648Y-105011942D01*
X105208648Y-105011942D02*
X105113410Y-104916704D01*
X105113410Y-104916704D02*
X104922934Y-104916704D01*
X104922934Y-104916704D02*
X104827696Y-105011942D01*
X105256267Y-106154800D02*
X105161029Y-106250038D01*
X105161029Y-106250038D02*
X104922934Y-106250038D01*
X104922934Y-106250038D02*
X104827696Y-106154800D01*
X104827696Y-106154800D02*
X104780077Y-105964323D01*
X104780077Y-105964323D02*
X104780077Y-105773847D01*
X104780077Y-105773847D02*
X104827696Y-105583371D01*
X104827696Y-105583371D02*
X104922934Y-105488133D01*
X104922934Y-105488133D02*
X105161029Y-105488133D01*
X105161029Y-105488133D02*
X105256267Y-105392895D01*
X105732458Y-106250038D02*
X105732458Y-104916704D01*
X105732458Y-105297657D02*
X105780077Y-105107180D01*
X105780077Y-105107180D02*
X105827696Y-105011942D01*
X105827696Y-105011942D02*
X105922934Y-104916704D01*
X105922934Y-104916704D02*
X106018172Y-104916704D01*
X106494363Y-106250038D02*
X106399125Y-106154800D01*
X106399125Y-106154800D02*
X106351506Y-105964323D01*
X106351506Y-105964323D02*
X106351506Y-104250038D01*
X107256268Y-106154800D02*
X107161030Y-106250038D01*
X107161030Y-106250038D02*
X106970554Y-106250038D01*
X106970554Y-106250038D02*
X106875316Y-106154800D01*
X106875316Y-106154800D02*
X106827697Y-105964323D01*
X106827697Y-105964323D02*
X106827697Y-105202419D01*
X106827697Y-105202419D02*
X106875316Y-105011942D01*
X106875316Y-105011942D02*
X106970554Y-104916704D01*
X106970554Y-104916704D02*
X107161030Y-104916704D01*
X107161030Y-104916704D02*
X107256268Y-105011942D01*
X107256268Y-105011942D02*
X107303887Y-105202419D01*
X107303887Y-105202419D02*
X107303887Y-105392895D01*
X107303887Y-105392895D02*
X106827697Y-105583371D01*
X107589602Y-104916704D02*
X107970554Y-104916704D01*
X107732459Y-104250038D02*
X107732459Y-105964323D01*
X107732459Y-105964323D02*
X107780078Y-106154800D01*
X107780078Y-106154800D02*
X107875316Y-106250038D01*
X107875316Y-106250038D02*
X107970554Y-106250038D01*
X108161031Y-104916704D02*
X108541983Y-104916704D01*
X108303888Y-104250038D02*
X108303888Y-105964323D01*
X108303888Y-105964323D02*
X108351507Y-106154800D01*
X108351507Y-106154800D02*
X108446745Y-106250038D01*
X108446745Y-106250038D02*
X108541983Y-106250038D01*
X109256269Y-106154800D02*
X109161031Y-106250038D01*
X109161031Y-106250038D02*
X108970555Y-106250038D01*
X108970555Y-106250038D02*
X108875317Y-106154800D01*
X108875317Y-106154800D02*
X108827698Y-105964323D01*
X108827698Y-105964323D02*
X108827698Y-105202419D01*
X108827698Y-105202419D02*
X108875317Y-105011942D01*
X108875317Y-105011942D02*
X108970555Y-104916704D01*
X108970555Y-104916704D02*
X109161031Y-104916704D01*
X109161031Y-104916704D02*
X109256269Y-105011942D01*
X109256269Y-105011942D02*
X109303888Y-105202419D01*
X109303888Y-105202419D02*
X109303888Y-105392895D01*
X109303888Y-105392895D02*
X108827698Y-105583371D01*
X109732460Y-106250038D02*
X109732460Y-104250038D01*
X109827698Y-105488133D02*
X110113412Y-106250038D01*
X110113412Y-104916704D02*
X109732460Y-105678609D01*
X110541984Y-106250038D02*
X110541984Y-104250038D01*
X110637222Y-105488133D02*
X110922936Y-106250038D01*
X110922936Y-104916704D02*
X110541984Y-105678609D01*
G36*
X112346545Y-106015896D02*
G01*
X112294675Y-105932453D01*
X112228517Y-105848819D01*
X112148072Y-105764994D01*
X112073429Y-105697797D01*
X111989642Y-105630477D01*
X111896711Y-105563036D01*
X111794637Y-105495472D01*
X111767690Y-105478562D01*
X111688509Y-105419798D01*
X111621831Y-105344281D01*
X111577180Y-105248668D01*
X111564480Y-105154207D01*
X111574640Y-105056736D01*
X111593300Y-104992030D01*
X111640584Y-104903721D01*
X111679762Y-104856231D01*
X111755058Y-104793148D01*
X111806280Y-104763907D01*
X111901519Y-104736338D01*
X111955268Y-104732644D01*
X112056007Y-104746108D01*
X112104745Y-104763907D01*
X112187978Y-104815542D01*
X112232240Y-104856231D01*
X112291316Y-104936297D01*
X112317236Y-104992030D01*
X112342424Y-105090185D01*
X112346545Y-105154207D01*
X112357050Y-105054616D01*
X112376343Y-104992030D01*
X112423932Y-104902347D01*
X112461828Y-104856231D01*
X112537963Y-104792461D01*
X112589323Y-104763907D01*
X112684562Y-104736338D01*
X112738311Y-104732644D01*
X112839049Y-104746108D01*
X112887787Y-104763907D01*
X112970448Y-104816229D01*
X113013817Y-104856231D01*
X113075030Y-104937671D01*
X113100767Y-104992030D01*
X113124831Y-105087145D01*
X113129588Y-105154207D01*
X113113475Y-105261034D01*
X113065136Y-105355651D01*
X112995115Y-105429503D01*
X112925889Y-105478562D01*
X112821628Y-105546156D01*
X112726465Y-105613628D01*
X112640400Y-105680978D01*
X112563433Y-105748206D01*
X112480018Y-105832069D01*
X112410819Y-105915741D01*
X112355836Y-105999223D01*
X112346545Y-106015896D01*
G37*
D11*
X213690476Y-74907200D02*
X213833333Y-74954819D01*
X213833333Y-74954819D02*
X214071428Y-74954819D01*
X214071428Y-74954819D02*
X214166666Y-74907200D01*
X214166666Y-74907200D02*
X214214285Y-74859580D01*
X214214285Y-74859580D02*
X214261904Y-74764342D01*
X214261904Y-74764342D02*
X214261904Y-74669104D01*
X214261904Y-74669104D02*
X214214285Y-74573866D01*
X214214285Y-74573866D02*
X214166666Y-74526247D01*
X214166666Y-74526247D02*
X214071428Y-74478628D01*
X214071428Y-74478628D02*
X213880952Y-74431009D01*
X213880952Y-74431009D02*
X213785714Y-74383390D01*
X213785714Y-74383390D02*
X213738095Y-74335771D01*
X213738095Y-74335771D02*
X213690476Y-74240533D01*
X213690476Y-74240533D02*
X213690476Y-74145295D01*
X213690476Y-74145295D02*
X213738095Y-74050057D01*
X213738095Y-74050057D02*
X213785714Y-74002438D01*
X213785714Y-74002438D02*
X213880952Y-73954819D01*
X213880952Y-73954819D02*
X214119047Y-73954819D01*
X214119047Y-73954819D02*
X214261904Y-74002438D01*
X214595238Y-73954819D02*
X214833333Y-74954819D01*
X214833333Y-74954819D02*
X215023809Y-74240533D01*
X215023809Y-74240533D02*
X215214285Y-74954819D01*
X215214285Y-74954819D02*
X215452381Y-73954819D01*
X215738095Y-73954819D02*
X216404761Y-73954819D01*
X216404761Y-73954819D02*
X215738095Y-74954819D01*
X215738095Y-74954819D02*
X216404761Y-74954819D01*
X217309523Y-74954819D02*
X216738095Y-74954819D01*
X217023809Y-74954819D02*
X217023809Y-73954819D01*
X217023809Y-73954819D02*
X216928571Y-74097676D01*
X216928571Y-74097676D02*
X216833333Y-74192914D01*
X216833333Y-74192914D02*
X216738095Y-74240533D01*
X192595714Y-50984819D02*
X192595714Y-49984819D01*
X192595714Y-49984819D02*
X192833809Y-49984819D01*
X192833809Y-49984819D02*
X192976666Y-50032438D01*
X192976666Y-50032438D02*
X193071904Y-50127676D01*
X193071904Y-50127676D02*
X193119523Y-50222914D01*
X193119523Y-50222914D02*
X193167142Y-50413390D01*
X193167142Y-50413390D02*
X193167142Y-50556247D01*
X193167142Y-50556247D02*
X193119523Y-50746723D01*
X193119523Y-50746723D02*
X193071904Y-50841961D01*
X193071904Y-50841961D02*
X192976666Y-50937200D01*
X192976666Y-50937200D02*
X192833809Y-50984819D01*
X192833809Y-50984819D02*
X192595714Y-50984819D01*
X194119523Y-50984819D02*
X193548095Y-50984819D01*
X193833809Y-50984819D02*
X193833809Y-49984819D01*
X193833809Y-49984819D02*
X193738571Y-50127676D01*
X193738571Y-50127676D02*
X193643333Y-50222914D01*
X193643333Y-50222914D02*
X193548095Y-50270533D01*
X194452857Y-49984819D02*
X195119523Y-49984819D01*
X195119523Y-49984819D02*
X194690952Y-50984819D01*
X189738095Y-51354819D02*
X189738095Y-50354819D01*
X190309523Y-51354819D02*
X189880952Y-50783390D01*
X190309523Y-50354819D02*
X189738095Y-50926247D01*
X176666667Y-39907200D02*
X176809524Y-39954819D01*
X176809524Y-39954819D02*
X177047619Y-39954819D01*
X177047619Y-39954819D02*
X177142857Y-39907200D01*
X177142857Y-39907200D02*
X177190476Y-39859580D01*
X177190476Y-39859580D02*
X177238095Y-39764342D01*
X177238095Y-39764342D02*
X177238095Y-39669104D01*
X177238095Y-39669104D02*
X177190476Y-39573866D01*
X177190476Y-39573866D02*
X177142857Y-39526247D01*
X177142857Y-39526247D02*
X177047619Y-39478628D01*
X177047619Y-39478628D02*
X176857143Y-39431009D01*
X176857143Y-39431009D02*
X176761905Y-39383390D01*
X176761905Y-39383390D02*
X176714286Y-39335771D01*
X176714286Y-39335771D02*
X176666667Y-39240533D01*
X176666667Y-39240533D02*
X176666667Y-39145295D01*
X176666667Y-39145295D02*
X176714286Y-39050057D01*
X176714286Y-39050057D02*
X176761905Y-39002438D01*
X176761905Y-39002438D02*
X176857143Y-38954819D01*
X176857143Y-38954819D02*
X177095238Y-38954819D01*
X177095238Y-38954819D02*
X177238095Y-39002438D01*
X177571429Y-38954819D02*
X177809524Y-39954819D01*
X177809524Y-39954819D02*
X178000000Y-39240533D01*
X178000000Y-39240533D02*
X178190476Y-39954819D01*
X178190476Y-39954819D02*
X178428572Y-38954819D01*
X178761905Y-39288152D02*
X179476190Y-39288152D01*
X179047619Y-38859580D02*
X178761905Y-40145295D01*
X179380952Y-39716723D02*
X178666667Y-39716723D01*
X179095238Y-40145295D02*
X179380952Y-38859580D01*
X179761905Y-39050057D02*
X179809524Y-39002438D01*
X179809524Y-39002438D02*
X179904762Y-38954819D01*
X179904762Y-38954819D02*
X180142857Y-38954819D01*
X180142857Y-38954819D02*
X180238095Y-39002438D01*
X180238095Y-39002438D02*
X180285714Y-39050057D01*
X180285714Y-39050057D02*
X180333333Y-39145295D01*
X180333333Y-39145295D02*
X180333333Y-39240533D01*
X180333333Y-39240533D02*
X180285714Y-39383390D01*
X180285714Y-39383390D02*
X179714286Y-39954819D01*
X179714286Y-39954819D02*
X180333333Y-39954819D01*
X67261905Y-51484819D02*
X67261905Y-50484819D01*
X67261905Y-50484819D02*
X67500000Y-50484819D01*
X67500000Y-50484819D02*
X67642857Y-50532438D01*
X67642857Y-50532438D02*
X67738095Y-50627676D01*
X67738095Y-50627676D02*
X67785714Y-50722914D01*
X67785714Y-50722914D02*
X67833333Y-50913390D01*
X67833333Y-50913390D02*
X67833333Y-51056247D01*
X67833333Y-51056247D02*
X67785714Y-51246723D01*
X67785714Y-51246723D02*
X67738095Y-51341961D01*
X67738095Y-51341961D02*
X67642857Y-51437200D01*
X67642857Y-51437200D02*
X67500000Y-51484819D01*
X67500000Y-51484819D02*
X67261905Y-51484819D01*
X68738095Y-50484819D02*
X68261905Y-50484819D01*
X68261905Y-50484819D02*
X68214286Y-50961009D01*
X68214286Y-50961009D02*
X68261905Y-50913390D01*
X68261905Y-50913390D02*
X68357143Y-50865771D01*
X68357143Y-50865771D02*
X68595238Y-50865771D01*
X68595238Y-50865771D02*
X68690476Y-50913390D01*
X68690476Y-50913390D02*
X68738095Y-50961009D01*
X68738095Y-50961009D02*
X68785714Y-51056247D01*
X68785714Y-51056247D02*
X68785714Y-51294342D01*
X68785714Y-51294342D02*
X68738095Y-51389580D01*
X68738095Y-51389580D02*
X68690476Y-51437200D01*
X68690476Y-51437200D02*
X68595238Y-51484819D01*
X68595238Y-51484819D02*
X68357143Y-51484819D01*
X68357143Y-51484819D02*
X68261905Y-51437200D01*
X68261905Y-51437200D02*
X68214286Y-51389580D01*
X63928095Y-51854819D02*
X63928095Y-50854819D01*
X64499523Y-51854819D02*
X64070952Y-51283390D01*
X64499523Y-50854819D02*
X63928095Y-51426247D01*
X140214286Y-109907200D02*
X140357143Y-109954819D01*
X140357143Y-109954819D02*
X140595238Y-109954819D01*
X140595238Y-109954819D02*
X140690476Y-109907200D01*
X140690476Y-109907200D02*
X140738095Y-109859580D01*
X140738095Y-109859580D02*
X140785714Y-109764342D01*
X140785714Y-109764342D02*
X140785714Y-109669104D01*
X140785714Y-109669104D02*
X140738095Y-109573866D01*
X140738095Y-109573866D02*
X140690476Y-109526247D01*
X140690476Y-109526247D02*
X140595238Y-109478628D01*
X140595238Y-109478628D02*
X140404762Y-109431009D01*
X140404762Y-109431009D02*
X140309524Y-109383390D01*
X140309524Y-109383390D02*
X140261905Y-109335771D01*
X140261905Y-109335771D02*
X140214286Y-109240533D01*
X140214286Y-109240533D02*
X140214286Y-109145295D01*
X140214286Y-109145295D02*
X140261905Y-109050057D01*
X140261905Y-109050057D02*
X140309524Y-109002438D01*
X140309524Y-109002438D02*
X140404762Y-108954819D01*
X140404762Y-108954819D02*
X140642857Y-108954819D01*
X140642857Y-108954819D02*
X140785714Y-109002438D01*
X141119048Y-108954819D02*
X141357143Y-109954819D01*
X141357143Y-109954819D02*
X141547619Y-109240533D01*
X141547619Y-109240533D02*
X141738095Y-109954819D01*
X141738095Y-109954819D02*
X141976191Y-108954819D01*
X142357143Y-109431009D02*
X142690476Y-109431009D01*
X142833333Y-109954819D02*
X142357143Y-109954819D01*
X142357143Y-109954819D02*
X142357143Y-108954819D01*
X142357143Y-108954819D02*
X142833333Y-108954819D01*
X143785714Y-109954819D02*
X143214286Y-109954819D01*
X143500000Y-109954819D02*
X143500000Y-108954819D01*
X143500000Y-108954819D02*
X143404762Y-109097676D01*
X143404762Y-109097676D02*
X143309524Y-109192914D01*
X143309524Y-109192914D02*
X143214286Y-109240533D01*
X180285714Y-99424819D02*
X180285714Y-98424819D01*
X180285714Y-98424819D02*
X180523809Y-98424819D01*
X180523809Y-98424819D02*
X180666666Y-98472438D01*
X180666666Y-98472438D02*
X180761904Y-98567676D01*
X180761904Y-98567676D02*
X180809523Y-98662914D01*
X180809523Y-98662914D02*
X180857142Y-98853390D01*
X180857142Y-98853390D02*
X180857142Y-98996247D01*
X180857142Y-98996247D02*
X180809523Y-99186723D01*
X180809523Y-99186723D02*
X180761904Y-99281961D01*
X180761904Y-99281961D02*
X180666666Y-99377200D01*
X180666666Y-99377200D02*
X180523809Y-99424819D01*
X180523809Y-99424819D02*
X180285714Y-99424819D01*
X181238095Y-98520057D02*
X181285714Y-98472438D01*
X181285714Y-98472438D02*
X181380952Y-98424819D01*
X181380952Y-98424819D02*
X181619047Y-98424819D01*
X181619047Y-98424819D02*
X181714285Y-98472438D01*
X181714285Y-98472438D02*
X181761904Y-98520057D01*
X181761904Y-98520057D02*
X181809523Y-98615295D01*
X181809523Y-98615295D02*
X181809523Y-98710533D01*
X181809523Y-98710533D02*
X181761904Y-98853390D01*
X181761904Y-98853390D02*
X181190476Y-99424819D01*
X181190476Y-99424819D02*
X181809523Y-99424819D01*
X182428571Y-98424819D02*
X182523809Y-98424819D01*
X182523809Y-98424819D02*
X182619047Y-98472438D01*
X182619047Y-98472438D02*
X182666666Y-98520057D01*
X182666666Y-98520057D02*
X182714285Y-98615295D01*
X182714285Y-98615295D02*
X182761904Y-98805771D01*
X182761904Y-98805771D02*
X182761904Y-99043866D01*
X182761904Y-99043866D02*
X182714285Y-99234342D01*
X182714285Y-99234342D02*
X182666666Y-99329580D01*
X182666666Y-99329580D02*
X182619047Y-99377200D01*
X182619047Y-99377200D02*
X182523809Y-99424819D01*
X182523809Y-99424819D02*
X182428571Y-99424819D01*
X182428571Y-99424819D02*
X182333333Y-99377200D01*
X182333333Y-99377200D02*
X182285714Y-99329580D01*
X182285714Y-99329580D02*
X182238095Y-99234342D01*
X182238095Y-99234342D02*
X182190476Y-99043866D01*
X182190476Y-99043866D02*
X182190476Y-98805771D01*
X182190476Y-98805771D02*
X182238095Y-98615295D01*
X182238095Y-98615295D02*
X182285714Y-98520057D01*
X182285714Y-98520057D02*
X182333333Y-98472438D01*
X182333333Y-98472438D02*
X182428571Y-98424819D01*
X185048095Y-99054819D02*
X185048095Y-98054819D01*
X185619523Y-99054819D02*
X185190952Y-98483390D01*
X185619523Y-98054819D02*
X185048095Y-98626247D01*
X155261905Y-51484819D02*
X155261905Y-50484819D01*
X155261905Y-50484819D02*
X155500000Y-50484819D01*
X155500000Y-50484819D02*
X155642857Y-50532438D01*
X155642857Y-50532438D02*
X155738095Y-50627676D01*
X155738095Y-50627676D02*
X155785714Y-50722914D01*
X155785714Y-50722914D02*
X155833333Y-50913390D01*
X155833333Y-50913390D02*
X155833333Y-51056247D01*
X155833333Y-51056247D02*
X155785714Y-51246723D01*
X155785714Y-51246723D02*
X155738095Y-51341961D01*
X155738095Y-51341961D02*
X155642857Y-51437200D01*
X155642857Y-51437200D02*
X155500000Y-51484819D01*
X155500000Y-51484819D02*
X155261905Y-51484819D01*
X156166667Y-50484819D02*
X156833333Y-50484819D01*
X156833333Y-50484819D02*
X156404762Y-51484819D01*
X151928095Y-51854819D02*
X151928095Y-50854819D01*
X152499523Y-51854819D02*
X152070952Y-51283390D01*
X152499523Y-50854819D02*
X151928095Y-51426247D01*
X121785714Y-65907200D02*
X121928571Y-65954819D01*
X121928571Y-65954819D02*
X122166666Y-65954819D01*
X122166666Y-65954819D02*
X122261904Y-65907200D01*
X122261904Y-65907200D02*
X122309523Y-65859580D01*
X122309523Y-65859580D02*
X122357142Y-65764342D01*
X122357142Y-65764342D02*
X122357142Y-65669104D01*
X122357142Y-65669104D02*
X122309523Y-65573866D01*
X122309523Y-65573866D02*
X122261904Y-65526247D01*
X122261904Y-65526247D02*
X122166666Y-65478628D01*
X122166666Y-65478628D02*
X121976190Y-65431009D01*
X121976190Y-65431009D02*
X121880952Y-65383390D01*
X121880952Y-65383390D02*
X121833333Y-65335771D01*
X121833333Y-65335771D02*
X121785714Y-65240533D01*
X121785714Y-65240533D02*
X121785714Y-65145295D01*
X121785714Y-65145295D02*
X121833333Y-65050057D01*
X121833333Y-65050057D02*
X121880952Y-65002438D01*
X121880952Y-65002438D02*
X121976190Y-64954819D01*
X121976190Y-64954819D02*
X122214285Y-64954819D01*
X122214285Y-64954819D02*
X122357142Y-65002438D01*
X122690476Y-64954819D02*
X122928571Y-65954819D01*
X122928571Y-65954819D02*
X123119047Y-65240533D01*
X123119047Y-65240533D02*
X123309523Y-65954819D01*
X123309523Y-65954819D02*
X123547619Y-64954819D01*
X124071428Y-64954819D02*
X124071428Y-65192914D01*
X123833333Y-65097676D02*
X124071428Y-65192914D01*
X124071428Y-65192914D02*
X124309523Y-65097676D01*
X123928571Y-65383390D02*
X124071428Y-65192914D01*
X124071428Y-65192914D02*
X124214285Y-65383390D01*
X125214285Y-65954819D02*
X124642857Y-65954819D01*
X124928571Y-65954819D02*
X124928571Y-64954819D01*
X124928571Y-64954819D02*
X124833333Y-65097676D01*
X124833333Y-65097676D02*
X124738095Y-65192914D01*
X124738095Y-65192914D02*
X124642857Y-65240533D01*
X195285714Y-57407200D02*
X195428571Y-57454819D01*
X195428571Y-57454819D02*
X195666666Y-57454819D01*
X195666666Y-57454819D02*
X195761904Y-57407200D01*
X195761904Y-57407200D02*
X195809523Y-57359580D01*
X195809523Y-57359580D02*
X195857142Y-57264342D01*
X195857142Y-57264342D02*
X195857142Y-57169104D01*
X195857142Y-57169104D02*
X195809523Y-57073866D01*
X195809523Y-57073866D02*
X195761904Y-57026247D01*
X195761904Y-57026247D02*
X195666666Y-56978628D01*
X195666666Y-56978628D02*
X195476190Y-56931009D01*
X195476190Y-56931009D02*
X195380952Y-56883390D01*
X195380952Y-56883390D02*
X195333333Y-56835771D01*
X195333333Y-56835771D02*
X195285714Y-56740533D01*
X195285714Y-56740533D02*
X195285714Y-56645295D01*
X195285714Y-56645295D02*
X195333333Y-56550057D01*
X195333333Y-56550057D02*
X195380952Y-56502438D01*
X195380952Y-56502438D02*
X195476190Y-56454819D01*
X195476190Y-56454819D02*
X195714285Y-56454819D01*
X195714285Y-56454819D02*
X195857142Y-56502438D01*
X196190476Y-56454819D02*
X196428571Y-57454819D01*
X196428571Y-57454819D02*
X196619047Y-56740533D01*
X196619047Y-56740533D02*
X196809523Y-57454819D01*
X196809523Y-57454819D02*
X197047619Y-56454819D01*
X197285714Y-56454819D02*
X197857142Y-56454819D01*
X197571428Y-57454819D02*
X197571428Y-56454819D01*
X198142857Y-56550057D02*
X198190476Y-56502438D01*
X198190476Y-56502438D02*
X198285714Y-56454819D01*
X198285714Y-56454819D02*
X198523809Y-56454819D01*
X198523809Y-56454819D02*
X198619047Y-56502438D01*
X198619047Y-56502438D02*
X198666666Y-56550057D01*
X198666666Y-56550057D02*
X198714285Y-56645295D01*
X198714285Y-56645295D02*
X198714285Y-56740533D01*
X198714285Y-56740533D02*
X198666666Y-56883390D01*
X198666666Y-56883390D02*
X198095238Y-57454819D01*
X198095238Y-57454819D02*
X198714285Y-57454819D01*
X139666667Y-74907200D02*
X139809524Y-74954819D01*
X139809524Y-74954819D02*
X140047619Y-74954819D01*
X140047619Y-74954819D02*
X140142857Y-74907200D01*
X140142857Y-74907200D02*
X140190476Y-74859580D01*
X140190476Y-74859580D02*
X140238095Y-74764342D01*
X140238095Y-74764342D02*
X140238095Y-74669104D01*
X140238095Y-74669104D02*
X140190476Y-74573866D01*
X140190476Y-74573866D02*
X140142857Y-74526247D01*
X140142857Y-74526247D02*
X140047619Y-74478628D01*
X140047619Y-74478628D02*
X139857143Y-74431009D01*
X139857143Y-74431009D02*
X139761905Y-74383390D01*
X139761905Y-74383390D02*
X139714286Y-74335771D01*
X139714286Y-74335771D02*
X139666667Y-74240533D01*
X139666667Y-74240533D02*
X139666667Y-74145295D01*
X139666667Y-74145295D02*
X139714286Y-74050057D01*
X139714286Y-74050057D02*
X139761905Y-74002438D01*
X139761905Y-74002438D02*
X139857143Y-73954819D01*
X139857143Y-73954819D02*
X140095238Y-73954819D01*
X140095238Y-73954819D02*
X140238095Y-74002438D01*
X140571429Y-73954819D02*
X140809524Y-74954819D01*
X140809524Y-74954819D02*
X141000000Y-74240533D01*
X141000000Y-74240533D02*
X141190476Y-74954819D01*
X141190476Y-74954819D02*
X141428572Y-73954819D01*
X142380952Y-74954819D02*
X142047619Y-74478628D01*
X141809524Y-74954819D02*
X141809524Y-73954819D01*
X141809524Y-73954819D02*
X142190476Y-73954819D01*
X142190476Y-73954819D02*
X142285714Y-74002438D01*
X142285714Y-74002438D02*
X142333333Y-74050057D01*
X142333333Y-74050057D02*
X142380952Y-74145295D01*
X142380952Y-74145295D02*
X142380952Y-74288152D01*
X142380952Y-74288152D02*
X142333333Y-74383390D01*
X142333333Y-74383390D02*
X142285714Y-74431009D01*
X142285714Y-74431009D02*
X142190476Y-74478628D01*
X142190476Y-74478628D02*
X141809524Y-74478628D01*
X142761905Y-74050057D02*
X142809524Y-74002438D01*
X142809524Y-74002438D02*
X142904762Y-73954819D01*
X142904762Y-73954819D02*
X143142857Y-73954819D01*
X143142857Y-73954819D02*
X143238095Y-74002438D01*
X143238095Y-74002438D02*
X143285714Y-74050057D01*
X143285714Y-74050057D02*
X143333333Y-74145295D01*
X143333333Y-74145295D02*
X143333333Y-74240533D01*
X143333333Y-74240533D02*
X143285714Y-74383390D01*
X143285714Y-74383390D02*
X142714286Y-74954819D01*
X142714286Y-74954819D02*
X143333333Y-74954819D01*
X195190476Y-74907200D02*
X195333333Y-74954819D01*
X195333333Y-74954819D02*
X195571428Y-74954819D01*
X195571428Y-74954819D02*
X195666666Y-74907200D01*
X195666666Y-74907200D02*
X195714285Y-74859580D01*
X195714285Y-74859580D02*
X195761904Y-74764342D01*
X195761904Y-74764342D02*
X195761904Y-74669104D01*
X195761904Y-74669104D02*
X195714285Y-74573866D01*
X195714285Y-74573866D02*
X195666666Y-74526247D01*
X195666666Y-74526247D02*
X195571428Y-74478628D01*
X195571428Y-74478628D02*
X195380952Y-74431009D01*
X195380952Y-74431009D02*
X195285714Y-74383390D01*
X195285714Y-74383390D02*
X195238095Y-74335771D01*
X195238095Y-74335771D02*
X195190476Y-74240533D01*
X195190476Y-74240533D02*
X195190476Y-74145295D01*
X195190476Y-74145295D02*
X195238095Y-74050057D01*
X195238095Y-74050057D02*
X195285714Y-74002438D01*
X195285714Y-74002438D02*
X195380952Y-73954819D01*
X195380952Y-73954819D02*
X195619047Y-73954819D01*
X195619047Y-73954819D02*
X195761904Y-74002438D01*
X196095238Y-73954819D02*
X196333333Y-74954819D01*
X196333333Y-74954819D02*
X196523809Y-74240533D01*
X196523809Y-74240533D02*
X196714285Y-74954819D01*
X196714285Y-74954819D02*
X196952381Y-73954819D01*
X197285714Y-74907200D02*
X197428571Y-74954819D01*
X197428571Y-74954819D02*
X197666666Y-74954819D01*
X197666666Y-74954819D02*
X197761904Y-74907200D01*
X197761904Y-74907200D02*
X197809523Y-74859580D01*
X197809523Y-74859580D02*
X197857142Y-74764342D01*
X197857142Y-74764342D02*
X197857142Y-74669104D01*
X197857142Y-74669104D02*
X197809523Y-74573866D01*
X197809523Y-74573866D02*
X197761904Y-74526247D01*
X197761904Y-74526247D02*
X197666666Y-74478628D01*
X197666666Y-74478628D02*
X197476190Y-74431009D01*
X197476190Y-74431009D02*
X197380952Y-74383390D01*
X197380952Y-74383390D02*
X197333333Y-74335771D01*
X197333333Y-74335771D02*
X197285714Y-74240533D01*
X197285714Y-74240533D02*
X197285714Y-74145295D01*
X197285714Y-74145295D02*
X197333333Y-74050057D01*
X197333333Y-74050057D02*
X197380952Y-74002438D01*
X197380952Y-74002438D02*
X197476190Y-73954819D01*
X197476190Y-73954819D02*
X197714285Y-73954819D01*
X197714285Y-73954819D02*
X197857142Y-74002438D01*
X198238095Y-74050057D02*
X198285714Y-74002438D01*
X198285714Y-74002438D02*
X198380952Y-73954819D01*
X198380952Y-73954819D02*
X198619047Y-73954819D01*
X198619047Y-73954819D02*
X198714285Y-74002438D01*
X198714285Y-74002438D02*
X198761904Y-74050057D01*
X198761904Y-74050057D02*
X198809523Y-74145295D01*
X198809523Y-74145295D02*
X198809523Y-74240533D01*
X198809523Y-74240533D02*
X198761904Y-74383390D01*
X198761904Y-74383390D02*
X198190476Y-74954819D01*
X198190476Y-74954819D02*
X198809523Y-74954819D01*
X148924819Y-50714285D02*
X147924819Y-50714285D01*
X147924819Y-50714285D02*
X147924819Y-50476190D01*
X147924819Y-50476190D02*
X147972438Y-50333333D01*
X147972438Y-50333333D02*
X148067676Y-50238095D01*
X148067676Y-50238095D02*
X148162914Y-50190476D01*
X148162914Y-50190476D02*
X148353390Y-50142857D01*
X148353390Y-50142857D02*
X148496247Y-50142857D01*
X148496247Y-50142857D02*
X148686723Y-50190476D01*
X148686723Y-50190476D02*
X148781961Y-50238095D01*
X148781961Y-50238095D02*
X148877200Y-50333333D01*
X148877200Y-50333333D02*
X148924819Y-50476190D01*
X148924819Y-50476190D02*
X148924819Y-50714285D01*
X148020057Y-49761904D02*
X147972438Y-49714285D01*
X147972438Y-49714285D02*
X147924819Y-49619047D01*
X147924819Y-49619047D02*
X147924819Y-49380952D01*
X147924819Y-49380952D02*
X147972438Y-49285714D01*
X147972438Y-49285714D02*
X148020057Y-49238095D01*
X148020057Y-49238095D02*
X148115295Y-49190476D01*
X148115295Y-49190476D02*
X148210533Y-49190476D01*
X148210533Y-49190476D02*
X148353390Y-49238095D01*
X148353390Y-49238095D02*
X148924819Y-49809523D01*
X148924819Y-49809523D02*
X148924819Y-49190476D01*
X147924819Y-48857142D02*
X147924819Y-48238095D01*
X147924819Y-48238095D02*
X148305771Y-48571428D01*
X148305771Y-48571428D02*
X148305771Y-48428571D01*
X148305771Y-48428571D02*
X148353390Y-48333333D01*
X148353390Y-48333333D02*
X148401009Y-48285714D01*
X148401009Y-48285714D02*
X148496247Y-48238095D01*
X148496247Y-48238095D02*
X148734342Y-48238095D01*
X148734342Y-48238095D02*
X148829580Y-48285714D01*
X148829580Y-48285714D02*
X148877200Y-48333333D01*
X148877200Y-48333333D02*
X148924819Y-48428571D01*
X148924819Y-48428571D02*
X148924819Y-48714285D01*
X148924819Y-48714285D02*
X148877200Y-48809523D01*
X148877200Y-48809523D02*
X148829580Y-48857142D01*
X148554819Y-45951904D02*
X147554819Y-45951904D01*
X148554819Y-45380476D02*
X147983390Y-45809047D01*
X147554819Y-45380476D02*
X148126247Y-45951904D01*
X158166667Y-57407200D02*
X158309524Y-57454819D01*
X158309524Y-57454819D02*
X158547619Y-57454819D01*
X158547619Y-57454819D02*
X158642857Y-57407200D01*
X158642857Y-57407200D02*
X158690476Y-57359580D01*
X158690476Y-57359580D02*
X158738095Y-57264342D01*
X158738095Y-57264342D02*
X158738095Y-57169104D01*
X158738095Y-57169104D02*
X158690476Y-57073866D01*
X158690476Y-57073866D02*
X158642857Y-57026247D01*
X158642857Y-57026247D02*
X158547619Y-56978628D01*
X158547619Y-56978628D02*
X158357143Y-56931009D01*
X158357143Y-56931009D02*
X158261905Y-56883390D01*
X158261905Y-56883390D02*
X158214286Y-56835771D01*
X158214286Y-56835771D02*
X158166667Y-56740533D01*
X158166667Y-56740533D02*
X158166667Y-56645295D01*
X158166667Y-56645295D02*
X158214286Y-56550057D01*
X158214286Y-56550057D02*
X158261905Y-56502438D01*
X158261905Y-56502438D02*
X158357143Y-56454819D01*
X158357143Y-56454819D02*
X158595238Y-56454819D01*
X158595238Y-56454819D02*
X158738095Y-56502438D01*
X159071429Y-56454819D02*
X159309524Y-57454819D01*
X159309524Y-57454819D02*
X159500000Y-56740533D01*
X159500000Y-56740533D02*
X159690476Y-57454819D01*
X159690476Y-57454819D02*
X159928572Y-56454819D01*
X160309524Y-57454819D02*
X160309524Y-56454819D01*
X160309524Y-56454819D02*
X160690476Y-56454819D01*
X160690476Y-56454819D02*
X160785714Y-56502438D01*
X160785714Y-56502438D02*
X160833333Y-56550057D01*
X160833333Y-56550057D02*
X160880952Y-56645295D01*
X160880952Y-56645295D02*
X160880952Y-56788152D01*
X160880952Y-56788152D02*
X160833333Y-56883390D01*
X160833333Y-56883390D02*
X160785714Y-56931009D01*
X160785714Y-56931009D02*
X160690476Y-56978628D01*
X160690476Y-56978628D02*
X160309524Y-56978628D01*
X161261905Y-56550057D02*
X161309524Y-56502438D01*
X161309524Y-56502438D02*
X161404762Y-56454819D01*
X161404762Y-56454819D02*
X161642857Y-56454819D01*
X161642857Y-56454819D02*
X161738095Y-56502438D01*
X161738095Y-56502438D02*
X161785714Y-56550057D01*
X161785714Y-56550057D02*
X161833333Y-56645295D01*
X161833333Y-56645295D02*
X161833333Y-56740533D01*
X161833333Y-56740533D02*
X161785714Y-56883390D01*
X161785714Y-56883390D02*
X161214286Y-57454819D01*
X161214286Y-57454819D02*
X161833333Y-57454819D01*
X114642857Y-109907200D02*
X114785714Y-109954819D01*
X114785714Y-109954819D02*
X115023809Y-109954819D01*
X115023809Y-109954819D02*
X115119047Y-109907200D01*
X115119047Y-109907200D02*
X115166666Y-109859580D01*
X115166666Y-109859580D02*
X115214285Y-109764342D01*
X115214285Y-109764342D02*
X115214285Y-109669104D01*
X115214285Y-109669104D02*
X115166666Y-109573866D01*
X115166666Y-109573866D02*
X115119047Y-109526247D01*
X115119047Y-109526247D02*
X115023809Y-109478628D01*
X115023809Y-109478628D02*
X114833333Y-109431009D01*
X114833333Y-109431009D02*
X114738095Y-109383390D01*
X114738095Y-109383390D02*
X114690476Y-109335771D01*
X114690476Y-109335771D02*
X114642857Y-109240533D01*
X114642857Y-109240533D02*
X114642857Y-109145295D01*
X114642857Y-109145295D02*
X114690476Y-109050057D01*
X114690476Y-109050057D02*
X114738095Y-109002438D01*
X114738095Y-109002438D02*
X114833333Y-108954819D01*
X114833333Y-108954819D02*
X115071428Y-108954819D01*
X115071428Y-108954819D02*
X115214285Y-109002438D01*
X115547619Y-108954819D02*
X115785714Y-109954819D01*
X115785714Y-109954819D02*
X115976190Y-109240533D01*
X115976190Y-109240533D02*
X116166666Y-109954819D01*
X116166666Y-109954819D02*
X116404762Y-108954819D01*
X116976190Y-108954819D02*
X117166666Y-108954819D01*
X117166666Y-108954819D02*
X117261904Y-109002438D01*
X117261904Y-109002438D02*
X117357142Y-109097676D01*
X117357142Y-109097676D02*
X117404761Y-109288152D01*
X117404761Y-109288152D02*
X117404761Y-109621485D01*
X117404761Y-109621485D02*
X117357142Y-109811961D01*
X117357142Y-109811961D02*
X117261904Y-109907200D01*
X117261904Y-109907200D02*
X117166666Y-109954819D01*
X117166666Y-109954819D02*
X116976190Y-109954819D01*
X116976190Y-109954819D02*
X116880952Y-109907200D01*
X116880952Y-109907200D02*
X116785714Y-109811961D01*
X116785714Y-109811961D02*
X116738095Y-109621485D01*
X116738095Y-109621485D02*
X116738095Y-109288152D01*
X116738095Y-109288152D02*
X116785714Y-109097676D01*
X116785714Y-109097676D02*
X116880952Y-109002438D01*
X116880952Y-109002438D02*
X116976190Y-108954819D01*
X118357142Y-109954819D02*
X117785714Y-109954819D01*
X118071428Y-109954819D02*
X118071428Y-108954819D01*
X118071428Y-108954819D02*
X117976190Y-109097676D01*
X117976190Y-109097676D02*
X117880952Y-109192914D01*
X117880952Y-109192914D02*
X117785714Y-109240533D01*
X85166667Y-39407200D02*
X85309524Y-39454819D01*
X85309524Y-39454819D02*
X85547619Y-39454819D01*
X85547619Y-39454819D02*
X85642857Y-39407200D01*
X85642857Y-39407200D02*
X85690476Y-39359580D01*
X85690476Y-39359580D02*
X85738095Y-39264342D01*
X85738095Y-39264342D02*
X85738095Y-39169104D01*
X85738095Y-39169104D02*
X85690476Y-39073866D01*
X85690476Y-39073866D02*
X85642857Y-39026247D01*
X85642857Y-39026247D02*
X85547619Y-38978628D01*
X85547619Y-38978628D02*
X85357143Y-38931009D01*
X85357143Y-38931009D02*
X85261905Y-38883390D01*
X85261905Y-38883390D02*
X85214286Y-38835771D01*
X85214286Y-38835771D02*
X85166667Y-38740533D01*
X85166667Y-38740533D02*
X85166667Y-38645295D01*
X85166667Y-38645295D02*
X85214286Y-38550057D01*
X85214286Y-38550057D02*
X85261905Y-38502438D01*
X85261905Y-38502438D02*
X85357143Y-38454819D01*
X85357143Y-38454819D02*
X85595238Y-38454819D01*
X85595238Y-38454819D02*
X85738095Y-38502438D01*
X86071429Y-38454819D02*
X86309524Y-39454819D01*
X86309524Y-39454819D02*
X86500000Y-38740533D01*
X86500000Y-38740533D02*
X86690476Y-39454819D01*
X86690476Y-39454819D02*
X86928572Y-38454819D01*
X87261905Y-38788152D02*
X87976190Y-38788152D01*
X87547619Y-38359580D02*
X87261905Y-39645295D01*
X87880952Y-39216723D02*
X87166667Y-39216723D01*
X87595238Y-39645295D02*
X87880952Y-38359580D01*
X88833333Y-39454819D02*
X88261905Y-39454819D01*
X88547619Y-39454819D02*
X88547619Y-38454819D01*
X88547619Y-38454819D02*
X88452381Y-38597676D01*
X88452381Y-38597676D02*
X88357143Y-38692914D01*
X88357143Y-38692914D02*
X88261905Y-38740533D01*
X48690476Y-64407200D02*
X48833333Y-64454819D01*
X48833333Y-64454819D02*
X49071428Y-64454819D01*
X49071428Y-64454819D02*
X49166666Y-64407200D01*
X49166666Y-64407200D02*
X49214285Y-64359580D01*
X49214285Y-64359580D02*
X49261904Y-64264342D01*
X49261904Y-64264342D02*
X49261904Y-64169104D01*
X49261904Y-64169104D02*
X49214285Y-64073866D01*
X49214285Y-64073866D02*
X49166666Y-64026247D01*
X49166666Y-64026247D02*
X49071428Y-63978628D01*
X49071428Y-63978628D02*
X48880952Y-63931009D01*
X48880952Y-63931009D02*
X48785714Y-63883390D01*
X48785714Y-63883390D02*
X48738095Y-63835771D01*
X48738095Y-63835771D02*
X48690476Y-63740533D01*
X48690476Y-63740533D02*
X48690476Y-63645295D01*
X48690476Y-63645295D02*
X48738095Y-63550057D01*
X48738095Y-63550057D02*
X48785714Y-63502438D01*
X48785714Y-63502438D02*
X48880952Y-63454819D01*
X48880952Y-63454819D02*
X49119047Y-63454819D01*
X49119047Y-63454819D02*
X49261904Y-63502438D01*
X49595238Y-63454819D02*
X49833333Y-64454819D01*
X49833333Y-64454819D02*
X50023809Y-63740533D01*
X50023809Y-63740533D02*
X50214285Y-64454819D01*
X50214285Y-64454819D02*
X50452381Y-63454819D01*
X50785714Y-64407200D02*
X50928571Y-64454819D01*
X50928571Y-64454819D02*
X51166666Y-64454819D01*
X51166666Y-64454819D02*
X51261904Y-64407200D01*
X51261904Y-64407200D02*
X51309523Y-64359580D01*
X51309523Y-64359580D02*
X51357142Y-64264342D01*
X51357142Y-64264342D02*
X51357142Y-64169104D01*
X51357142Y-64169104D02*
X51309523Y-64073866D01*
X51309523Y-64073866D02*
X51261904Y-64026247D01*
X51261904Y-64026247D02*
X51166666Y-63978628D01*
X51166666Y-63978628D02*
X50976190Y-63931009D01*
X50976190Y-63931009D02*
X50880952Y-63883390D01*
X50880952Y-63883390D02*
X50833333Y-63835771D01*
X50833333Y-63835771D02*
X50785714Y-63740533D01*
X50785714Y-63740533D02*
X50785714Y-63645295D01*
X50785714Y-63645295D02*
X50833333Y-63550057D01*
X50833333Y-63550057D02*
X50880952Y-63502438D01*
X50880952Y-63502438D02*
X50976190Y-63454819D01*
X50976190Y-63454819D02*
X51214285Y-63454819D01*
X51214285Y-63454819D02*
X51357142Y-63502438D01*
X52309523Y-64454819D02*
X51738095Y-64454819D01*
X52023809Y-64454819D02*
X52023809Y-63454819D01*
X52023809Y-63454819D02*
X51928571Y-63597676D01*
X51928571Y-63597676D02*
X51833333Y-63692914D01*
X51833333Y-63692914D02*
X51738095Y-63740533D01*
X144285714Y-98484819D02*
X144285714Y-97484819D01*
X144285714Y-97484819D02*
X144523809Y-97484819D01*
X144523809Y-97484819D02*
X144666666Y-97532438D01*
X144666666Y-97532438D02*
X144761904Y-97627676D01*
X144761904Y-97627676D02*
X144809523Y-97722914D01*
X144809523Y-97722914D02*
X144857142Y-97913390D01*
X144857142Y-97913390D02*
X144857142Y-98056247D01*
X144857142Y-98056247D02*
X144809523Y-98246723D01*
X144809523Y-98246723D02*
X144761904Y-98341961D01*
X144761904Y-98341961D02*
X144666666Y-98437200D01*
X144666666Y-98437200D02*
X144523809Y-98484819D01*
X144523809Y-98484819D02*
X144285714Y-98484819D01*
X145809523Y-98484819D02*
X145238095Y-98484819D01*
X145523809Y-98484819D02*
X145523809Y-97484819D01*
X145523809Y-97484819D02*
X145428571Y-97627676D01*
X145428571Y-97627676D02*
X145333333Y-97722914D01*
X145333333Y-97722914D02*
X145238095Y-97770533D01*
X146380952Y-97913390D02*
X146285714Y-97865771D01*
X146285714Y-97865771D02*
X146238095Y-97818152D01*
X146238095Y-97818152D02*
X146190476Y-97722914D01*
X146190476Y-97722914D02*
X146190476Y-97675295D01*
X146190476Y-97675295D02*
X146238095Y-97580057D01*
X146238095Y-97580057D02*
X146285714Y-97532438D01*
X146285714Y-97532438D02*
X146380952Y-97484819D01*
X146380952Y-97484819D02*
X146571428Y-97484819D01*
X146571428Y-97484819D02*
X146666666Y-97532438D01*
X146666666Y-97532438D02*
X146714285Y-97580057D01*
X146714285Y-97580057D02*
X146761904Y-97675295D01*
X146761904Y-97675295D02*
X146761904Y-97722914D01*
X146761904Y-97722914D02*
X146714285Y-97818152D01*
X146714285Y-97818152D02*
X146666666Y-97865771D01*
X146666666Y-97865771D02*
X146571428Y-97913390D01*
X146571428Y-97913390D02*
X146380952Y-97913390D01*
X146380952Y-97913390D02*
X146285714Y-97961009D01*
X146285714Y-97961009D02*
X146238095Y-98008628D01*
X146238095Y-98008628D02*
X146190476Y-98103866D01*
X146190476Y-98103866D02*
X146190476Y-98294342D01*
X146190476Y-98294342D02*
X146238095Y-98389580D01*
X146238095Y-98389580D02*
X146285714Y-98437200D01*
X146285714Y-98437200D02*
X146380952Y-98484819D01*
X146380952Y-98484819D02*
X146571428Y-98484819D01*
X146571428Y-98484819D02*
X146666666Y-98437200D01*
X146666666Y-98437200D02*
X146714285Y-98389580D01*
X146714285Y-98389580D02*
X146761904Y-98294342D01*
X146761904Y-98294342D02*
X146761904Y-98103866D01*
X146761904Y-98103866D02*
X146714285Y-98008628D01*
X146714285Y-98008628D02*
X146666666Y-97961009D01*
X146666666Y-97961009D02*
X146571428Y-97913390D01*
X141428095Y-98854819D02*
X141428095Y-97854819D01*
X141999523Y-98854819D02*
X141570952Y-98283390D01*
X141999523Y-97854819D02*
X141428095Y-98426247D01*
X158642857Y-109907200D02*
X158785714Y-109954819D01*
X158785714Y-109954819D02*
X159023809Y-109954819D01*
X159023809Y-109954819D02*
X159119047Y-109907200D01*
X159119047Y-109907200D02*
X159166666Y-109859580D01*
X159166666Y-109859580D02*
X159214285Y-109764342D01*
X159214285Y-109764342D02*
X159214285Y-109669104D01*
X159214285Y-109669104D02*
X159166666Y-109573866D01*
X159166666Y-109573866D02*
X159119047Y-109526247D01*
X159119047Y-109526247D02*
X159023809Y-109478628D01*
X159023809Y-109478628D02*
X158833333Y-109431009D01*
X158833333Y-109431009D02*
X158738095Y-109383390D01*
X158738095Y-109383390D02*
X158690476Y-109335771D01*
X158690476Y-109335771D02*
X158642857Y-109240533D01*
X158642857Y-109240533D02*
X158642857Y-109145295D01*
X158642857Y-109145295D02*
X158690476Y-109050057D01*
X158690476Y-109050057D02*
X158738095Y-109002438D01*
X158738095Y-109002438D02*
X158833333Y-108954819D01*
X158833333Y-108954819D02*
X159071428Y-108954819D01*
X159071428Y-108954819D02*
X159214285Y-109002438D01*
X159547619Y-108954819D02*
X159785714Y-109954819D01*
X159785714Y-109954819D02*
X159976190Y-109240533D01*
X159976190Y-109240533D02*
X160166666Y-109954819D01*
X160166666Y-109954819D02*
X160404762Y-108954819D01*
X160785714Y-108954819D02*
X160785714Y-109764342D01*
X160785714Y-109764342D02*
X160833333Y-109859580D01*
X160833333Y-109859580D02*
X160880952Y-109907200D01*
X160880952Y-109907200D02*
X160976190Y-109954819D01*
X160976190Y-109954819D02*
X161166666Y-109954819D01*
X161166666Y-109954819D02*
X161261904Y-109907200D01*
X161261904Y-109907200D02*
X161309523Y-109859580D01*
X161309523Y-109859580D02*
X161357142Y-109764342D01*
X161357142Y-109764342D02*
X161357142Y-108954819D01*
X162357142Y-109954819D02*
X161785714Y-109954819D01*
X162071428Y-109954819D02*
X162071428Y-108954819D01*
X162071428Y-108954819D02*
X161976190Y-109097676D01*
X161976190Y-109097676D02*
X161880952Y-109192914D01*
X161880952Y-109192914D02*
X161785714Y-109240533D01*
X167261905Y-98484819D02*
X167261905Y-97484819D01*
X167261905Y-97484819D02*
X167500000Y-97484819D01*
X167500000Y-97484819D02*
X167642857Y-97532438D01*
X167642857Y-97532438D02*
X167738095Y-97627676D01*
X167738095Y-97627676D02*
X167785714Y-97722914D01*
X167785714Y-97722914D02*
X167833333Y-97913390D01*
X167833333Y-97913390D02*
X167833333Y-98056247D01*
X167833333Y-98056247D02*
X167785714Y-98246723D01*
X167785714Y-98246723D02*
X167738095Y-98341961D01*
X167738095Y-98341961D02*
X167642857Y-98437200D01*
X167642857Y-98437200D02*
X167500000Y-98484819D01*
X167500000Y-98484819D02*
X167261905Y-98484819D01*
X168690476Y-97484819D02*
X168500000Y-97484819D01*
X168500000Y-97484819D02*
X168404762Y-97532438D01*
X168404762Y-97532438D02*
X168357143Y-97580057D01*
X168357143Y-97580057D02*
X168261905Y-97722914D01*
X168261905Y-97722914D02*
X168214286Y-97913390D01*
X168214286Y-97913390D02*
X168214286Y-98294342D01*
X168214286Y-98294342D02*
X168261905Y-98389580D01*
X168261905Y-98389580D02*
X168309524Y-98437200D01*
X168309524Y-98437200D02*
X168404762Y-98484819D01*
X168404762Y-98484819D02*
X168595238Y-98484819D01*
X168595238Y-98484819D02*
X168690476Y-98437200D01*
X168690476Y-98437200D02*
X168738095Y-98389580D01*
X168738095Y-98389580D02*
X168785714Y-98294342D01*
X168785714Y-98294342D02*
X168785714Y-98056247D01*
X168785714Y-98056247D02*
X168738095Y-97961009D01*
X168738095Y-97961009D02*
X168690476Y-97913390D01*
X168690476Y-97913390D02*
X168595238Y-97865771D01*
X168595238Y-97865771D02*
X168404762Y-97865771D01*
X168404762Y-97865771D02*
X168309524Y-97913390D01*
X168309524Y-97913390D02*
X168261905Y-97961009D01*
X168261905Y-97961009D02*
X168214286Y-98056247D01*
X163928095Y-98854819D02*
X163928095Y-97854819D01*
X164499523Y-98854819D02*
X164070952Y-98283390D01*
X164499523Y-97854819D02*
X163928095Y-98426247D01*
X158166667Y-74907200D02*
X158309524Y-74954819D01*
X158309524Y-74954819D02*
X158547619Y-74954819D01*
X158547619Y-74954819D02*
X158642857Y-74907200D01*
X158642857Y-74907200D02*
X158690476Y-74859580D01*
X158690476Y-74859580D02*
X158738095Y-74764342D01*
X158738095Y-74764342D02*
X158738095Y-74669104D01*
X158738095Y-74669104D02*
X158690476Y-74573866D01*
X158690476Y-74573866D02*
X158642857Y-74526247D01*
X158642857Y-74526247D02*
X158547619Y-74478628D01*
X158547619Y-74478628D02*
X158357143Y-74431009D01*
X158357143Y-74431009D02*
X158261905Y-74383390D01*
X158261905Y-74383390D02*
X158214286Y-74335771D01*
X158214286Y-74335771D02*
X158166667Y-74240533D01*
X158166667Y-74240533D02*
X158166667Y-74145295D01*
X158166667Y-74145295D02*
X158214286Y-74050057D01*
X158214286Y-74050057D02*
X158261905Y-74002438D01*
X158261905Y-74002438D02*
X158357143Y-73954819D01*
X158357143Y-73954819D02*
X158595238Y-73954819D01*
X158595238Y-73954819D02*
X158738095Y-74002438D01*
X159071429Y-73954819D02*
X159309524Y-74954819D01*
X159309524Y-74954819D02*
X159500000Y-74240533D01*
X159500000Y-74240533D02*
X159690476Y-74954819D01*
X159690476Y-74954819D02*
X159928572Y-73954819D01*
X160642857Y-74431009D02*
X160785714Y-74478628D01*
X160785714Y-74478628D02*
X160833333Y-74526247D01*
X160833333Y-74526247D02*
X160880952Y-74621485D01*
X160880952Y-74621485D02*
X160880952Y-74764342D01*
X160880952Y-74764342D02*
X160833333Y-74859580D01*
X160833333Y-74859580D02*
X160785714Y-74907200D01*
X160785714Y-74907200D02*
X160690476Y-74954819D01*
X160690476Y-74954819D02*
X160309524Y-74954819D01*
X160309524Y-74954819D02*
X160309524Y-73954819D01*
X160309524Y-73954819D02*
X160642857Y-73954819D01*
X160642857Y-73954819D02*
X160738095Y-74002438D01*
X160738095Y-74002438D02*
X160785714Y-74050057D01*
X160785714Y-74050057D02*
X160833333Y-74145295D01*
X160833333Y-74145295D02*
X160833333Y-74240533D01*
X160833333Y-74240533D02*
X160785714Y-74335771D01*
X160785714Y-74335771D02*
X160738095Y-74383390D01*
X160738095Y-74383390D02*
X160642857Y-74431009D01*
X160642857Y-74431009D02*
X160309524Y-74431009D01*
X161833333Y-74954819D02*
X161261905Y-74954819D01*
X161547619Y-74954819D02*
X161547619Y-73954819D01*
X161547619Y-73954819D02*
X161452381Y-74097676D01*
X161452381Y-74097676D02*
X161357143Y-74192914D01*
X161357143Y-74192914D02*
X161261905Y-74240533D01*
X74484819Y-49738094D02*
X73484819Y-49738094D01*
X73484819Y-49738094D02*
X73484819Y-49499999D01*
X73484819Y-49499999D02*
X73532438Y-49357142D01*
X73532438Y-49357142D02*
X73627676Y-49261904D01*
X73627676Y-49261904D02*
X73722914Y-49214285D01*
X73722914Y-49214285D02*
X73913390Y-49166666D01*
X73913390Y-49166666D02*
X74056247Y-49166666D01*
X74056247Y-49166666D02*
X74246723Y-49214285D01*
X74246723Y-49214285D02*
X74341961Y-49261904D01*
X74341961Y-49261904D02*
X74437200Y-49357142D01*
X74437200Y-49357142D02*
X74484819Y-49499999D01*
X74484819Y-49499999D02*
X74484819Y-49738094D01*
X74484819Y-48690475D02*
X74484819Y-48499999D01*
X74484819Y-48499999D02*
X74437200Y-48404761D01*
X74437200Y-48404761D02*
X74389580Y-48357142D01*
X74389580Y-48357142D02*
X74246723Y-48261904D01*
X74246723Y-48261904D02*
X74056247Y-48214285D01*
X74056247Y-48214285D02*
X73675295Y-48214285D01*
X73675295Y-48214285D02*
X73580057Y-48261904D01*
X73580057Y-48261904D02*
X73532438Y-48309523D01*
X73532438Y-48309523D02*
X73484819Y-48404761D01*
X73484819Y-48404761D02*
X73484819Y-48595237D01*
X73484819Y-48595237D02*
X73532438Y-48690475D01*
X73532438Y-48690475D02*
X73580057Y-48738094D01*
X73580057Y-48738094D02*
X73675295Y-48785713D01*
X73675295Y-48785713D02*
X73913390Y-48785713D01*
X73913390Y-48785713D02*
X74008628Y-48738094D01*
X74008628Y-48738094D02*
X74056247Y-48690475D01*
X74056247Y-48690475D02*
X74103866Y-48595237D01*
X74103866Y-48595237D02*
X74103866Y-48404761D01*
X74103866Y-48404761D02*
X74056247Y-48309523D01*
X74056247Y-48309523D02*
X74008628Y-48261904D01*
X74008628Y-48261904D02*
X73913390Y-48214285D01*
X74854819Y-53071904D02*
X73854819Y-53071904D01*
X74854819Y-52500476D02*
X74283390Y-52929047D01*
X73854819Y-52500476D02*
X74426247Y-53071904D01*
X121975714Y-84984819D02*
X121975714Y-83984819D01*
X121975714Y-83984819D02*
X122213809Y-83984819D01*
X122213809Y-83984819D02*
X122356666Y-84032438D01*
X122356666Y-84032438D02*
X122451904Y-84127676D01*
X122451904Y-84127676D02*
X122499523Y-84222914D01*
X122499523Y-84222914D02*
X122547142Y-84413390D01*
X122547142Y-84413390D02*
X122547142Y-84556247D01*
X122547142Y-84556247D02*
X122499523Y-84746723D01*
X122499523Y-84746723D02*
X122451904Y-84841961D01*
X122451904Y-84841961D02*
X122356666Y-84937200D01*
X122356666Y-84937200D02*
X122213809Y-84984819D01*
X122213809Y-84984819D02*
X121975714Y-84984819D01*
X123499523Y-84984819D02*
X122928095Y-84984819D01*
X123213809Y-84984819D02*
X123213809Y-83984819D01*
X123213809Y-83984819D02*
X123118571Y-84127676D01*
X123118571Y-84127676D02*
X123023333Y-84222914D01*
X123023333Y-84222914D02*
X122928095Y-84270533D01*
X124451904Y-84984819D02*
X123880476Y-84984819D01*
X124166190Y-84984819D02*
X124166190Y-83984819D01*
X124166190Y-83984819D02*
X124070952Y-84127676D01*
X124070952Y-84127676D02*
X123975714Y-84222914D01*
X123975714Y-84222914D02*
X123880476Y-84270533D01*
X119118095Y-85354819D02*
X119118095Y-84354819D01*
X119689523Y-85354819D02*
X119260952Y-84783390D01*
X119689523Y-84354819D02*
X119118095Y-84926247D01*
D12*
X128322666Y-45906985D02*
X128322666Y-46626652D01*
X128322666Y-46626652D02*
X128365000Y-46711318D01*
X128365000Y-46711318D02*
X128407333Y-46753652D01*
X128407333Y-46753652D02*
X128492000Y-46795985D01*
X128492000Y-46795985D02*
X128661333Y-46795985D01*
X128661333Y-46795985D02*
X128746000Y-46753652D01*
X128746000Y-46753652D02*
X128788333Y-46711318D01*
X128788333Y-46711318D02*
X128830666Y-46626652D01*
X128830666Y-46626652D02*
X128830666Y-45906985D01*
X129719666Y-46795985D02*
X129211666Y-46795985D01*
X129465666Y-46795985D02*
X129465666Y-45906985D01*
X129465666Y-45906985D02*
X129380999Y-46033985D01*
X129380999Y-46033985D02*
X129296333Y-46118652D01*
X129296333Y-46118652D02*
X129211666Y-46160985D01*
D11*
X124238095Y-42757200D02*
X124380952Y-42804819D01*
X124380952Y-42804819D02*
X124619047Y-42804819D01*
X124619047Y-42804819D02*
X124714285Y-42757200D01*
X124714285Y-42757200D02*
X124761904Y-42709580D01*
X124761904Y-42709580D02*
X124809523Y-42614342D01*
X124809523Y-42614342D02*
X124809523Y-42519104D01*
X124809523Y-42519104D02*
X124761904Y-42423866D01*
X124761904Y-42423866D02*
X124714285Y-42376247D01*
X124714285Y-42376247D02*
X124619047Y-42328628D01*
X124619047Y-42328628D02*
X124428571Y-42281009D01*
X124428571Y-42281009D02*
X124333333Y-42233390D01*
X124333333Y-42233390D02*
X124285714Y-42185771D01*
X124285714Y-42185771D02*
X124238095Y-42090533D01*
X124238095Y-42090533D02*
X124238095Y-41995295D01*
X124238095Y-41995295D02*
X124285714Y-41900057D01*
X124285714Y-41900057D02*
X124333333Y-41852438D01*
X124333333Y-41852438D02*
X124428571Y-41804819D01*
X124428571Y-41804819D02*
X124666666Y-41804819D01*
X124666666Y-41804819D02*
X124809523Y-41852438D01*
X125619047Y-42757200D02*
X125523809Y-42804819D01*
X125523809Y-42804819D02*
X125333333Y-42804819D01*
X125333333Y-42804819D02*
X125238095Y-42757200D01*
X125238095Y-42757200D02*
X125190476Y-42661961D01*
X125190476Y-42661961D02*
X125190476Y-42281009D01*
X125190476Y-42281009D02*
X125238095Y-42185771D01*
X125238095Y-42185771D02*
X125333333Y-42138152D01*
X125333333Y-42138152D02*
X125523809Y-42138152D01*
X125523809Y-42138152D02*
X125619047Y-42185771D01*
X125619047Y-42185771D02*
X125666666Y-42281009D01*
X125666666Y-42281009D02*
X125666666Y-42376247D01*
X125666666Y-42376247D02*
X125190476Y-42471485D01*
X126476190Y-42757200D02*
X126380952Y-42804819D01*
X126380952Y-42804819D02*
X126190476Y-42804819D01*
X126190476Y-42804819D02*
X126095238Y-42757200D01*
X126095238Y-42757200D02*
X126047619Y-42661961D01*
X126047619Y-42661961D02*
X126047619Y-42281009D01*
X126047619Y-42281009D02*
X126095238Y-42185771D01*
X126095238Y-42185771D02*
X126190476Y-42138152D01*
X126190476Y-42138152D02*
X126380952Y-42138152D01*
X126380952Y-42138152D02*
X126476190Y-42185771D01*
X126476190Y-42185771D02*
X126523809Y-42281009D01*
X126523809Y-42281009D02*
X126523809Y-42376247D01*
X126523809Y-42376247D02*
X126047619Y-42471485D01*
X127333333Y-42757200D02*
X127238095Y-42804819D01*
X127238095Y-42804819D02*
X127047619Y-42804819D01*
X127047619Y-42804819D02*
X126952381Y-42757200D01*
X126952381Y-42757200D02*
X126904762Y-42661961D01*
X126904762Y-42661961D02*
X126904762Y-42281009D01*
X126904762Y-42281009D02*
X126952381Y-42185771D01*
X126952381Y-42185771D02*
X127047619Y-42138152D01*
X127047619Y-42138152D02*
X127238095Y-42138152D01*
X127238095Y-42138152D02*
X127333333Y-42185771D01*
X127333333Y-42185771D02*
X127380952Y-42281009D01*
X127380952Y-42281009D02*
X127380952Y-42376247D01*
X127380952Y-42376247D02*
X126904762Y-42471485D01*
X128238095Y-42804819D02*
X128238095Y-41804819D01*
X128238095Y-42757200D02*
X128142857Y-42804819D01*
X128142857Y-42804819D02*
X127952381Y-42804819D01*
X127952381Y-42804819D02*
X127857143Y-42757200D01*
X127857143Y-42757200D02*
X127809524Y-42709580D01*
X127809524Y-42709580D02*
X127761905Y-42614342D01*
X127761905Y-42614342D02*
X127761905Y-42328628D01*
X127761905Y-42328628D02*
X127809524Y-42233390D01*
X127809524Y-42233390D02*
X127857143Y-42185771D01*
X127857143Y-42185771D02*
X127952381Y-42138152D01*
X127952381Y-42138152D02*
X128142857Y-42138152D01*
X128142857Y-42138152D02*
X128238095Y-42185771D01*
X129428572Y-42757200D02*
X129571429Y-42804819D01*
X129571429Y-42804819D02*
X129809524Y-42804819D01*
X129809524Y-42804819D02*
X129904762Y-42757200D01*
X129904762Y-42757200D02*
X129952381Y-42709580D01*
X129952381Y-42709580D02*
X130000000Y-42614342D01*
X130000000Y-42614342D02*
X130000000Y-42519104D01*
X130000000Y-42519104D02*
X129952381Y-42423866D01*
X129952381Y-42423866D02*
X129904762Y-42376247D01*
X129904762Y-42376247D02*
X129809524Y-42328628D01*
X129809524Y-42328628D02*
X129619048Y-42281009D01*
X129619048Y-42281009D02*
X129523810Y-42233390D01*
X129523810Y-42233390D02*
X129476191Y-42185771D01*
X129476191Y-42185771D02*
X129428572Y-42090533D01*
X129428572Y-42090533D02*
X129428572Y-41995295D01*
X129428572Y-41995295D02*
X129476191Y-41900057D01*
X129476191Y-41900057D02*
X129523810Y-41852438D01*
X129523810Y-41852438D02*
X129619048Y-41804819D01*
X129619048Y-41804819D02*
X129857143Y-41804819D01*
X129857143Y-41804819D02*
X130000000Y-41852438D01*
X130285715Y-42138152D02*
X130666667Y-42138152D01*
X130428572Y-41804819D02*
X130428572Y-42661961D01*
X130428572Y-42661961D02*
X130476191Y-42757200D01*
X130476191Y-42757200D02*
X130571429Y-42804819D01*
X130571429Y-42804819D02*
X130666667Y-42804819D01*
X131428572Y-42138152D02*
X131428572Y-42804819D01*
X131000001Y-42138152D02*
X131000001Y-42661961D01*
X131000001Y-42661961D02*
X131047620Y-42757200D01*
X131047620Y-42757200D02*
X131142858Y-42804819D01*
X131142858Y-42804819D02*
X131285715Y-42804819D01*
X131285715Y-42804819D02*
X131380953Y-42757200D01*
X131380953Y-42757200D02*
X131428572Y-42709580D01*
X132333334Y-42804819D02*
X132333334Y-41804819D01*
X132333334Y-42757200D02*
X132238096Y-42804819D01*
X132238096Y-42804819D02*
X132047620Y-42804819D01*
X132047620Y-42804819D02*
X131952382Y-42757200D01*
X131952382Y-42757200D02*
X131904763Y-42709580D01*
X131904763Y-42709580D02*
X131857144Y-42614342D01*
X131857144Y-42614342D02*
X131857144Y-42328628D01*
X131857144Y-42328628D02*
X131904763Y-42233390D01*
X131904763Y-42233390D02*
X131952382Y-42185771D01*
X131952382Y-42185771D02*
X132047620Y-42138152D01*
X132047620Y-42138152D02*
X132238096Y-42138152D01*
X132238096Y-42138152D02*
X132333334Y-42185771D01*
X132809525Y-42804819D02*
X132809525Y-42138152D01*
X132809525Y-41804819D02*
X132761906Y-41852438D01*
X132761906Y-41852438D02*
X132809525Y-41900057D01*
X132809525Y-41900057D02*
X132857144Y-41852438D01*
X132857144Y-41852438D02*
X132809525Y-41804819D01*
X132809525Y-41804819D02*
X132809525Y-41900057D01*
X133428572Y-42804819D02*
X133333334Y-42757200D01*
X133333334Y-42757200D02*
X133285715Y-42709580D01*
X133285715Y-42709580D02*
X133238096Y-42614342D01*
X133238096Y-42614342D02*
X133238096Y-42328628D01*
X133238096Y-42328628D02*
X133285715Y-42233390D01*
X133285715Y-42233390D02*
X133333334Y-42185771D01*
X133333334Y-42185771D02*
X133428572Y-42138152D01*
X133428572Y-42138152D02*
X133571429Y-42138152D01*
X133571429Y-42138152D02*
X133666667Y-42185771D01*
X133666667Y-42185771D02*
X133714286Y-42233390D01*
X133714286Y-42233390D02*
X133761905Y-42328628D01*
X133761905Y-42328628D02*
X133761905Y-42614342D01*
X133761905Y-42614342D02*
X133714286Y-42709580D01*
X133714286Y-42709580D02*
X133666667Y-42757200D01*
X133666667Y-42757200D02*
X133571429Y-42804819D01*
X133571429Y-42804819D02*
X133428572Y-42804819D01*
X127476191Y-43804819D02*
X128142857Y-44804819D01*
X128142857Y-43804819D02*
X127476191Y-44804819D01*
X128523810Y-44804819D02*
X128523810Y-43804819D01*
X128952381Y-44519104D02*
X129428571Y-44519104D01*
X128857143Y-44804819D02*
X129190476Y-43804819D01*
X129190476Y-43804819D02*
X129523809Y-44804819D01*
X130047619Y-43804819D02*
X130238095Y-43804819D01*
X130238095Y-43804819D02*
X130333333Y-43852438D01*
X130333333Y-43852438D02*
X130428571Y-43947676D01*
X130428571Y-43947676D02*
X130476190Y-44138152D01*
X130476190Y-44138152D02*
X130476190Y-44471485D01*
X130476190Y-44471485D02*
X130428571Y-44661961D01*
X130428571Y-44661961D02*
X130333333Y-44757200D01*
X130333333Y-44757200D02*
X130238095Y-44804819D01*
X130238095Y-44804819D02*
X130047619Y-44804819D01*
X130047619Y-44804819D02*
X129952381Y-44757200D01*
X129952381Y-44757200D02*
X129857143Y-44661961D01*
X129857143Y-44661961D02*
X129809524Y-44471485D01*
X129809524Y-44471485D02*
X129809524Y-44138152D01*
X129809524Y-44138152D02*
X129857143Y-43947676D01*
X129857143Y-43947676D02*
X129952381Y-43852438D01*
X129952381Y-43852438D02*
X130047619Y-43804819D01*
X64285714Y-93984819D02*
X64285714Y-92984819D01*
X64285714Y-92984819D02*
X64523809Y-92984819D01*
X64523809Y-92984819D02*
X64666666Y-93032438D01*
X64666666Y-93032438D02*
X64761904Y-93127676D01*
X64761904Y-93127676D02*
X64809523Y-93222914D01*
X64809523Y-93222914D02*
X64857142Y-93413390D01*
X64857142Y-93413390D02*
X64857142Y-93556247D01*
X64857142Y-93556247D02*
X64809523Y-93746723D01*
X64809523Y-93746723D02*
X64761904Y-93841961D01*
X64761904Y-93841961D02*
X64666666Y-93937200D01*
X64666666Y-93937200D02*
X64523809Y-93984819D01*
X64523809Y-93984819D02*
X64285714Y-93984819D01*
X65809523Y-93984819D02*
X65238095Y-93984819D01*
X65523809Y-93984819D02*
X65523809Y-92984819D01*
X65523809Y-92984819D02*
X65428571Y-93127676D01*
X65428571Y-93127676D02*
X65333333Y-93222914D01*
X65333333Y-93222914D02*
X65238095Y-93270533D01*
X66666666Y-92984819D02*
X66476190Y-92984819D01*
X66476190Y-92984819D02*
X66380952Y-93032438D01*
X66380952Y-93032438D02*
X66333333Y-93080057D01*
X66333333Y-93080057D02*
X66238095Y-93222914D01*
X66238095Y-93222914D02*
X66190476Y-93413390D01*
X66190476Y-93413390D02*
X66190476Y-93794342D01*
X66190476Y-93794342D02*
X66238095Y-93889580D01*
X66238095Y-93889580D02*
X66285714Y-93937200D01*
X66285714Y-93937200D02*
X66380952Y-93984819D01*
X66380952Y-93984819D02*
X66571428Y-93984819D01*
X66571428Y-93984819D02*
X66666666Y-93937200D01*
X66666666Y-93937200D02*
X66714285Y-93889580D01*
X66714285Y-93889580D02*
X66761904Y-93794342D01*
X66761904Y-93794342D02*
X66761904Y-93556247D01*
X66761904Y-93556247D02*
X66714285Y-93461009D01*
X66714285Y-93461009D02*
X66666666Y-93413390D01*
X66666666Y-93413390D02*
X66571428Y-93365771D01*
X66571428Y-93365771D02*
X66380952Y-93365771D01*
X66380952Y-93365771D02*
X66285714Y-93413390D01*
X66285714Y-93413390D02*
X66238095Y-93461009D01*
X66238095Y-93461009D02*
X66190476Y-93556247D01*
X61428095Y-94354819D02*
X61428095Y-93354819D01*
X61999523Y-94354819D02*
X61570952Y-93783390D01*
X61999523Y-93354819D02*
X61428095Y-93926247D01*
X103642857Y-57407200D02*
X103785714Y-57454819D01*
X103785714Y-57454819D02*
X104023809Y-57454819D01*
X104023809Y-57454819D02*
X104119047Y-57407200D01*
X104119047Y-57407200D02*
X104166666Y-57359580D01*
X104166666Y-57359580D02*
X104214285Y-57264342D01*
X104214285Y-57264342D02*
X104214285Y-57169104D01*
X104214285Y-57169104D02*
X104166666Y-57073866D01*
X104166666Y-57073866D02*
X104119047Y-57026247D01*
X104119047Y-57026247D02*
X104023809Y-56978628D01*
X104023809Y-56978628D02*
X103833333Y-56931009D01*
X103833333Y-56931009D02*
X103738095Y-56883390D01*
X103738095Y-56883390D02*
X103690476Y-56835771D01*
X103690476Y-56835771D02*
X103642857Y-56740533D01*
X103642857Y-56740533D02*
X103642857Y-56645295D01*
X103642857Y-56645295D02*
X103690476Y-56550057D01*
X103690476Y-56550057D02*
X103738095Y-56502438D01*
X103738095Y-56502438D02*
X103833333Y-56454819D01*
X103833333Y-56454819D02*
X104071428Y-56454819D01*
X104071428Y-56454819D02*
X104214285Y-56502438D01*
X104547619Y-56454819D02*
X104785714Y-57454819D01*
X104785714Y-57454819D02*
X104976190Y-56740533D01*
X104976190Y-56740533D02*
X105166666Y-57454819D01*
X105166666Y-57454819D02*
X105404762Y-56454819D01*
X105785714Y-57454819D02*
X105785714Y-56454819D01*
X105785714Y-56931009D02*
X106357142Y-56931009D01*
X106357142Y-57454819D02*
X106357142Y-56454819D01*
X107357142Y-57454819D02*
X106785714Y-57454819D01*
X107071428Y-57454819D02*
X107071428Y-56454819D01*
X107071428Y-56454819D02*
X106976190Y-56597676D01*
X106976190Y-56597676D02*
X106880952Y-56692914D01*
X106880952Y-56692914D02*
X106785714Y-56740533D01*
X66785714Y-57407200D02*
X66928571Y-57454819D01*
X66928571Y-57454819D02*
X67166666Y-57454819D01*
X67166666Y-57454819D02*
X67261904Y-57407200D01*
X67261904Y-57407200D02*
X67309523Y-57359580D01*
X67309523Y-57359580D02*
X67357142Y-57264342D01*
X67357142Y-57264342D02*
X67357142Y-57169104D01*
X67357142Y-57169104D02*
X67309523Y-57073866D01*
X67309523Y-57073866D02*
X67261904Y-57026247D01*
X67261904Y-57026247D02*
X67166666Y-56978628D01*
X67166666Y-56978628D02*
X66976190Y-56931009D01*
X66976190Y-56931009D02*
X66880952Y-56883390D01*
X66880952Y-56883390D02*
X66833333Y-56835771D01*
X66833333Y-56835771D02*
X66785714Y-56740533D01*
X66785714Y-56740533D02*
X66785714Y-56645295D01*
X66785714Y-56645295D02*
X66833333Y-56550057D01*
X66833333Y-56550057D02*
X66880952Y-56502438D01*
X66880952Y-56502438D02*
X66976190Y-56454819D01*
X66976190Y-56454819D02*
X67214285Y-56454819D01*
X67214285Y-56454819D02*
X67357142Y-56502438D01*
X67690476Y-56454819D02*
X67928571Y-57454819D01*
X67928571Y-57454819D02*
X68119047Y-56740533D01*
X68119047Y-56740533D02*
X68309523Y-57454819D01*
X68309523Y-57454819D02*
X68547619Y-56454819D01*
X68785714Y-56454819D02*
X69357142Y-56454819D01*
X69071428Y-57454819D02*
X69071428Y-56454819D01*
X70214285Y-57454819D02*
X69642857Y-57454819D01*
X69928571Y-57454819D02*
X69928571Y-56454819D01*
X69928571Y-56454819D02*
X69833333Y-56597676D01*
X69833333Y-56597676D02*
X69738095Y-56692914D01*
X69738095Y-56692914D02*
X69642857Y-56740533D01*
X155785714Y-102984819D02*
X155785714Y-101984819D01*
X155785714Y-101984819D02*
X156023809Y-101984819D01*
X156023809Y-101984819D02*
X156166666Y-102032438D01*
X156166666Y-102032438D02*
X156261904Y-102127676D01*
X156261904Y-102127676D02*
X156309523Y-102222914D01*
X156309523Y-102222914D02*
X156357142Y-102413390D01*
X156357142Y-102413390D02*
X156357142Y-102556247D01*
X156357142Y-102556247D02*
X156309523Y-102746723D01*
X156309523Y-102746723D02*
X156261904Y-102841961D01*
X156261904Y-102841961D02*
X156166666Y-102937200D01*
X156166666Y-102937200D02*
X156023809Y-102984819D01*
X156023809Y-102984819D02*
X155785714Y-102984819D01*
X157309523Y-102984819D02*
X156738095Y-102984819D01*
X157023809Y-102984819D02*
X157023809Y-101984819D01*
X157023809Y-101984819D02*
X156928571Y-102127676D01*
X156928571Y-102127676D02*
X156833333Y-102222914D01*
X156833333Y-102222914D02*
X156738095Y-102270533D01*
X157690476Y-102080057D02*
X157738095Y-102032438D01*
X157738095Y-102032438D02*
X157833333Y-101984819D01*
X157833333Y-101984819D02*
X158071428Y-101984819D01*
X158071428Y-101984819D02*
X158166666Y-102032438D01*
X158166666Y-102032438D02*
X158214285Y-102080057D01*
X158214285Y-102080057D02*
X158261904Y-102175295D01*
X158261904Y-102175295D02*
X158261904Y-102270533D01*
X158261904Y-102270533D02*
X158214285Y-102413390D01*
X158214285Y-102413390D02*
X157642857Y-102984819D01*
X157642857Y-102984819D02*
X158261904Y-102984819D01*
X152928095Y-103354819D02*
X152928095Y-102354819D01*
X153499523Y-103354819D02*
X153070952Y-102783390D01*
X153499523Y-102354819D02*
X152928095Y-102926247D01*
X188984819Y-44714285D02*
X187984819Y-44714285D01*
X187984819Y-44714285D02*
X187984819Y-44476190D01*
X187984819Y-44476190D02*
X188032438Y-44333333D01*
X188032438Y-44333333D02*
X188127676Y-44238095D01*
X188127676Y-44238095D02*
X188222914Y-44190476D01*
X188222914Y-44190476D02*
X188413390Y-44142857D01*
X188413390Y-44142857D02*
X188556247Y-44142857D01*
X188556247Y-44142857D02*
X188746723Y-44190476D01*
X188746723Y-44190476D02*
X188841961Y-44238095D01*
X188841961Y-44238095D02*
X188937200Y-44333333D01*
X188937200Y-44333333D02*
X188984819Y-44476190D01*
X188984819Y-44476190D02*
X188984819Y-44714285D01*
X188080057Y-43761904D02*
X188032438Y-43714285D01*
X188032438Y-43714285D02*
X187984819Y-43619047D01*
X187984819Y-43619047D02*
X187984819Y-43380952D01*
X187984819Y-43380952D02*
X188032438Y-43285714D01*
X188032438Y-43285714D02*
X188080057Y-43238095D01*
X188080057Y-43238095D02*
X188175295Y-43190476D01*
X188175295Y-43190476D02*
X188270533Y-43190476D01*
X188270533Y-43190476D02*
X188413390Y-43238095D01*
X188413390Y-43238095D02*
X188984819Y-43809523D01*
X188984819Y-43809523D02*
X188984819Y-43190476D01*
X188984819Y-42238095D02*
X188984819Y-42809523D01*
X188984819Y-42523809D02*
X187984819Y-42523809D01*
X187984819Y-42523809D02*
X188127676Y-42619047D01*
X188127676Y-42619047D02*
X188222914Y-42714285D01*
X188222914Y-42714285D02*
X188270533Y-42809523D01*
X189354819Y-47571904D02*
X188354819Y-47571904D01*
X189354819Y-47000476D02*
X188783390Y-47429047D01*
X188354819Y-47000476D02*
X188926247Y-47571904D01*
X206761905Y-51484819D02*
X206761905Y-50484819D01*
X206761905Y-50484819D02*
X207000000Y-50484819D01*
X207000000Y-50484819D02*
X207142857Y-50532438D01*
X207142857Y-50532438D02*
X207238095Y-50627676D01*
X207238095Y-50627676D02*
X207285714Y-50722914D01*
X207285714Y-50722914D02*
X207333333Y-50913390D01*
X207333333Y-50913390D02*
X207333333Y-51056247D01*
X207333333Y-51056247D02*
X207285714Y-51246723D01*
X207285714Y-51246723D02*
X207238095Y-51341961D01*
X207238095Y-51341961D02*
X207142857Y-51437200D01*
X207142857Y-51437200D02*
X207000000Y-51484819D01*
X207000000Y-51484819D02*
X206761905Y-51484819D01*
X207714286Y-50580057D02*
X207761905Y-50532438D01*
X207761905Y-50532438D02*
X207857143Y-50484819D01*
X207857143Y-50484819D02*
X208095238Y-50484819D01*
X208095238Y-50484819D02*
X208190476Y-50532438D01*
X208190476Y-50532438D02*
X208238095Y-50580057D01*
X208238095Y-50580057D02*
X208285714Y-50675295D01*
X208285714Y-50675295D02*
X208285714Y-50770533D01*
X208285714Y-50770533D02*
X208238095Y-50913390D01*
X208238095Y-50913390D02*
X207666667Y-51484819D01*
X207666667Y-51484819D02*
X208285714Y-51484819D01*
X203428095Y-51854819D02*
X203428095Y-50854819D01*
X203999523Y-51854819D02*
X203570952Y-51283390D01*
X203999523Y-50854819D02*
X203428095Y-51426247D01*
X96238095Y-109907200D02*
X96380952Y-109954819D01*
X96380952Y-109954819D02*
X96619047Y-109954819D01*
X96619047Y-109954819D02*
X96714285Y-109907200D01*
X96714285Y-109907200D02*
X96761904Y-109859580D01*
X96761904Y-109859580D02*
X96809523Y-109764342D01*
X96809523Y-109764342D02*
X96809523Y-109669104D01*
X96809523Y-109669104D02*
X96761904Y-109573866D01*
X96761904Y-109573866D02*
X96714285Y-109526247D01*
X96714285Y-109526247D02*
X96619047Y-109478628D01*
X96619047Y-109478628D02*
X96428571Y-109431009D01*
X96428571Y-109431009D02*
X96333333Y-109383390D01*
X96333333Y-109383390D02*
X96285714Y-109335771D01*
X96285714Y-109335771D02*
X96238095Y-109240533D01*
X96238095Y-109240533D02*
X96238095Y-109145295D01*
X96238095Y-109145295D02*
X96285714Y-109050057D01*
X96285714Y-109050057D02*
X96333333Y-109002438D01*
X96333333Y-109002438D02*
X96428571Y-108954819D01*
X96428571Y-108954819D02*
X96666666Y-108954819D01*
X96666666Y-108954819D02*
X96809523Y-109002438D01*
X97142857Y-108954819D02*
X97380952Y-109954819D01*
X97380952Y-109954819D02*
X97571428Y-109240533D01*
X97571428Y-109240533D02*
X97761904Y-109954819D01*
X97761904Y-109954819D02*
X98000000Y-108954819D01*
X98333333Y-109669104D02*
X98809523Y-109669104D01*
X98238095Y-109954819D02*
X98571428Y-108954819D01*
X98571428Y-108954819D02*
X98904761Y-109954819D01*
X99761904Y-109954819D02*
X99190476Y-109954819D01*
X99476190Y-109954819D02*
X99476190Y-108954819D01*
X99476190Y-108954819D02*
X99380952Y-109097676D01*
X99380952Y-109097676D02*
X99285714Y-109192914D01*
X99285714Y-109192914D02*
X99190476Y-109240533D01*
X176761905Y-57407200D02*
X176904762Y-57454819D01*
X176904762Y-57454819D02*
X177142857Y-57454819D01*
X177142857Y-57454819D02*
X177238095Y-57407200D01*
X177238095Y-57407200D02*
X177285714Y-57359580D01*
X177285714Y-57359580D02*
X177333333Y-57264342D01*
X177333333Y-57264342D02*
X177333333Y-57169104D01*
X177333333Y-57169104D02*
X177285714Y-57073866D01*
X177285714Y-57073866D02*
X177238095Y-57026247D01*
X177238095Y-57026247D02*
X177142857Y-56978628D01*
X177142857Y-56978628D02*
X176952381Y-56931009D01*
X176952381Y-56931009D02*
X176857143Y-56883390D01*
X176857143Y-56883390D02*
X176809524Y-56835771D01*
X176809524Y-56835771D02*
X176761905Y-56740533D01*
X176761905Y-56740533D02*
X176761905Y-56645295D01*
X176761905Y-56645295D02*
X176809524Y-56550057D01*
X176809524Y-56550057D02*
X176857143Y-56502438D01*
X176857143Y-56502438D02*
X176952381Y-56454819D01*
X176952381Y-56454819D02*
X177190476Y-56454819D01*
X177190476Y-56454819D02*
X177333333Y-56502438D01*
X177666667Y-56454819D02*
X177904762Y-57454819D01*
X177904762Y-57454819D02*
X178095238Y-56740533D01*
X178095238Y-56740533D02*
X178285714Y-57454819D01*
X178285714Y-57454819D02*
X178523810Y-56454819D01*
X179380952Y-57454819D02*
X178904762Y-57454819D01*
X178904762Y-57454819D02*
X178904762Y-56454819D01*
X180238095Y-57454819D02*
X179666667Y-57454819D01*
X179952381Y-57454819D02*
X179952381Y-56454819D01*
X179952381Y-56454819D02*
X179857143Y-56597676D01*
X179857143Y-56597676D02*
X179761905Y-56692914D01*
X179761905Y-56692914D02*
X179666667Y-56740533D01*
X123285714Y-100424819D02*
X123285714Y-99424819D01*
X123285714Y-99424819D02*
X123523809Y-99424819D01*
X123523809Y-99424819D02*
X123666666Y-99472438D01*
X123666666Y-99472438D02*
X123761904Y-99567676D01*
X123761904Y-99567676D02*
X123809523Y-99662914D01*
X123809523Y-99662914D02*
X123857142Y-99853390D01*
X123857142Y-99853390D02*
X123857142Y-99996247D01*
X123857142Y-99996247D02*
X123809523Y-100186723D01*
X123809523Y-100186723D02*
X123761904Y-100281961D01*
X123761904Y-100281961D02*
X123666666Y-100377200D01*
X123666666Y-100377200D02*
X123523809Y-100424819D01*
X123523809Y-100424819D02*
X123285714Y-100424819D01*
X124809523Y-100424819D02*
X124238095Y-100424819D01*
X124523809Y-100424819D02*
X124523809Y-99424819D01*
X124523809Y-99424819D02*
X124428571Y-99567676D01*
X124428571Y-99567676D02*
X124333333Y-99662914D01*
X124333333Y-99662914D02*
X124238095Y-99710533D01*
X125428571Y-99424819D02*
X125523809Y-99424819D01*
X125523809Y-99424819D02*
X125619047Y-99472438D01*
X125619047Y-99472438D02*
X125666666Y-99520057D01*
X125666666Y-99520057D02*
X125714285Y-99615295D01*
X125714285Y-99615295D02*
X125761904Y-99805771D01*
X125761904Y-99805771D02*
X125761904Y-100043866D01*
X125761904Y-100043866D02*
X125714285Y-100234342D01*
X125714285Y-100234342D02*
X125666666Y-100329580D01*
X125666666Y-100329580D02*
X125619047Y-100377200D01*
X125619047Y-100377200D02*
X125523809Y-100424819D01*
X125523809Y-100424819D02*
X125428571Y-100424819D01*
X125428571Y-100424819D02*
X125333333Y-100377200D01*
X125333333Y-100377200D02*
X125285714Y-100329580D01*
X125285714Y-100329580D02*
X125238095Y-100234342D01*
X125238095Y-100234342D02*
X125190476Y-100043866D01*
X125190476Y-100043866D02*
X125190476Y-99805771D01*
X125190476Y-99805771D02*
X125238095Y-99615295D01*
X125238095Y-99615295D02*
X125285714Y-99520057D01*
X125285714Y-99520057D02*
X125333333Y-99472438D01*
X125333333Y-99472438D02*
X125428571Y-99424819D01*
X128048095Y-100054819D02*
X128048095Y-99054819D01*
X128619523Y-100054819D02*
X128190952Y-99483390D01*
X128619523Y-99054819D02*
X128048095Y-99626247D01*
X139738095Y-57407200D02*
X139880952Y-57454819D01*
X139880952Y-57454819D02*
X140119047Y-57454819D01*
X140119047Y-57454819D02*
X140214285Y-57407200D01*
X140214285Y-57407200D02*
X140261904Y-57359580D01*
X140261904Y-57359580D02*
X140309523Y-57264342D01*
X140309523Y-57264342D02*
X140309523Y-57169104D01*
X140309523Y-57169104D02*
X140261904Y-57073866D01*
X140261904Y-57073866D02*
X140214285Y-57026247D01*
X140214285Y-57026247D02*
X140119047Y-56978628D01*
X140119047Y-56978628D02*
X139928571Y-56931009D01*
X139928571Y-56931009D02*
X139833333Y-56883390D01*
X139833333Y-56883390D02*
X139785714Y-56835771D01*
X139785714Y-56835771D02*
X139738095Y-56740533D01*
X139738095Y-56740533D02*
X139738095Y-56645295D01*
X139738095Y-56645295D02*
X139785714Y-56550057D01*
X139785714Y-56550057D02*
X139833333Y-56502438D01*
X139833333Y-56502438D02*
X139928571Y-56454819D01*
X139928571Y-56454819D02*
X140166666Y-56454819D01*
X140166666Y-56454819D02*
X140309523Y-56502438D01*
X140642857Y-56454819D02*
X140880952Y-57454819D01*
X140880952Y-57454819D02*
X141071428Y-56740533D01*
X141071428Y-56740533D02*
X141261904Y-57454819D01*
X141261904Y-57454819D02*
X141500000Y-56454819D01*
X142214285Y-56931009D02*
X141880952Y-56931009D01*
X141880952Y-57454819D02*
X141880952Y-56454819D01*
X141880952Y-56454819D02*
X142357142Y-56454819D01*
X143261904Y-57454819D02*
X142690476Y-57454819D01*
X142976190Y-57454819D02*
X142976190Y-56454819D01*
X142976190Y-56454819D02*
X142880952Y-56597676D01*
X142880952Y-56597676D02*
X142785714Y-56692914D01*
X142785714Y-56692914D02*
X142690476Y-56740533D01*
X123785714Y-58484819D02*
X123785714Y-57484819D01*
X123785714Y-57484819D02*
X124023809Y-57484819D01*
X124023809Y-57484819D02*
X124166666Y-57532438D01*
X124166666Y-57532438D02*
X124261904Y-57627676D01*
X124261904Y-57627676D02*
X124309523Y-57722914D01*
X124309523Y-57722914D02*
X124357142Y-57913390D01*
X124357142Y-57913390D02*
X124357142Y-58056247D01*
X124357142Y-58056247D02*
X124309523Y-58246723D01*
X124309523Y-58246723D02*
X124261904Y-58341961D01*
X124261904Y-58341961D02*
X124166666Y-58437200D01*
X124166666Y-58437200D02*
X124023809Y-58484819D01*
X124023809Y-58484819D02*
X123785714Y-58484819D01*
X125309523Y-58484819D02*
X124738095Y-58484819D01*
X125023809Y-58484819D02*
X125023809Y-57484819D01*
X125023809Y-57484819D02*
X124928571Y-57627676D01*
X124928571Y-57627676D02*
X124833333Y-57722914D01*
X124833333Y-57722914D02*
X124738095Y-57770533D01*
X125642857Y-57484819D02*
X126261904Y-57484819D01*
X126261904Y-57484819D02*
X125928571Y-57865771D01*
X125928571Y-57865771D02*
X126071428Y-57865771D01*
X126071428Y-57865771D02*
X126166666Y-57913390D01*
X126166666Y-57913390D02*
X126214285Y-57961009D01*
X126214285Y-57961009D02*
X126261904Y-58056247D01*
X126261904Y-58056247D02*
X126261904Y-58294342D01*
X126261904Y-58294342D02*
X126214285Y-58389580D01*
X126214285Y-58389580D02*
X126166666Y-58437200D01*
X126166666Y-58437200D02*
X126071428Y-58484819D01*
X126071428Y-58484819D02*
X125785714Y-58484819D01*
X125785714Y-58484819D02*
X125690476Y-58437200D01*
X125690476Y-58437200D02*
X125642857Y-58389580D01*
X120928095Y-58854819D02*
X120928095Y-57854819D01*
X121499523Y-58854819D02*
X121070952Y-58283390D01*
X121499523Y-57854819D02*
X120928095Y-58426247D01*
X102785714Y-55424819D02*
X102785714Y-54424819D01*
X102785714Y-54424819D02*
X103023809Y-54424819D01*
X103023809Y-54424819D02*
X103166666Y-54472438D01*
X103166666Y-54472438D02*
X103261904Y-54567676D01*
X103261904Y-54567676D02*
X103309523Y-54662914D01*
X103309523Y-54662914D02*
X103357142Y-54853390D01*
X103357142Y-54853390D02*
X103357142Y-54996247D01*
X103357142Y-54996247D02*
X103309523Y-55186723D01*
X103309523Y-55186723D02*
X103261904Y-55281961D01*
X103261904Y-55281961D02*
X103166666Y-55377200D01*
X103166666Y-55377200D02*
X103023809Y-55424819D01*
X103023809Y-55424819D02*
X102785714Y-55424819D01*
X104309523Y-55424819D02*
X103738095Y-55424819D01*
X104023809Y-55424819D02*
X104023809Y-54424819D01*
X104023809Y-54424819D02*
X103928571Y-54567676D01*
X103928571Y-54567676D02*
X103833333Y-54662914D01*
X103833333Y-54662914D02*
X103738095Y-54710533D01*
X104785714Y-55424819D02*
X104976190Y-55424819D01*
X104976190Y-55424819D02*
X105071428Y-55377200D01*
X105071428Y-55377200D02*
X105119047Y-55329580D01*
X105119047Y-55329580D02*
X105214285Y-55186723D01*
X105214285Y-55186723D02*
X105261904Y-54996247D01*
X105261904Y-54996247D02*
X105261904Y-54615295D01*
X105261904Y-54615295D02*
X105214285Y-54520057D01*
X105214285Y-54520057D02*
X105166666Y-54472438D01*
X105166666Y-54472438D02*
X105071428Y-54424819D01*
X105071428Y-54424819D02*
X104880952Y-54424819D01*
X104880952Y-54424819D02*
X104785714Y-54472438D01*
X104785714Y-54472438D02*
X104738095Y-54520057D01*
X104738095Y-54520057D02*
X104690476Y-54615295D01*
X104690476Y-54615295D02*
X104690476Y-54853390D01*
X104690476Y-54853390D02*
X104738095Y-54948628D01*
X104738095Y-54948628D02*
X104785714Y-54996247D01*
X104785714Y-54996247D02*
X104880952Y-55043866D01*
X104880952Y-55043866D02*
X105071428Y-55043866D01*
X105071428Y-55043866D02*
X105166666Y-54996247D01*
X105166666Y-54996247D02*
X105214285Y-54948628D01*
X105214285Y-54948628D02*
X105261904Y-54853390D01*
X107548095Y-55054819D02*
X107548095Y-54054819D01*
X108119523Y-55054819D02*
X107690952Y-54483390D01*
X108119523Y-54054819D02*
X107548095Y-54626247D01*
X176666667Y-74907200D02*
X176809524Y-74954819D01*
X176809524Y-74954819D02*
X177047619Y-74954819D01*
X177047619Y-74954819D02*
X177142857Y-74907200D01*
X177142857Y-74907200D02*
X177190476Y-74859580D01*
X177190476Y-74859580D02*
X177238095Y-74764342D01*
X177238095Y-74764342D02*
X177238095Y-74669104D01*
X177238095Y-74669104D02*
X177190476Y-74573866D01*
X177190476Y-74573866D02*
X177142857Y-74526247D01*
X177142857Y-74526247D02*
X177047619Y-74478628D01*
X177047619Y-74478628D02*
X176857143Y-74431009D01*
X176857143Y-74431009D02*
X176761905Y-74383390D01*
X176761905Y-74383390D02*
X176714286Y-74335771D01*
X176714286Y-74335771D02*
X176666667Y-74240533D01*
X176666667Y-74240533D02*
X176666667Y-74145295D01*
X176666667Y-74145295D02*
X176714286Y-74050057D01*
X176714286Y-74050057D02*
X176761905Y-74002438D01*
X176761905Y-74002438D02*
X176857143Y-73954819D01*
X176857143Y-73954819D02*
X177095238Y-73954819D01*
X177095238Y-73954819D02*
X177238095Y-74002438D01*
X177571429Y-73954819D02*
X177809524Y-74954819D01*
X177809524Y-74954819D02*
X178000000Y-74240533D01*
X178000000Y-74240533D02*
X178190476Y-74954819D01*
X178190476Y-74954819D02*
X178428572Y-73954819D01*
X179333333Y-74002438D02*
X179238095Y-73954819D01*
X179238095Y-73954819D02*
X179095238Y-73954819D01*
X179095238Y-73954819D02*
X178952381Y-74002438D01*
X178952381Y-74002438D02*
X178857143Y-74097676D01*
X178857143Y-74097676D02*
X178809524Y-74192914D01*
X178809524Y-74192914D02*
X178761905Y-74383390D01*
X178761905Y-74383390D02*
X178761905Y-74526247D01*
X178761905Y-74526247D02*
X178809524Y-74716723D01*
X178809524Y-74716723D02*
X178857143Y-74811961D01*
X178857143Y-74811961D02*
X178952381Y-74907200D01*
X178952381Y-74907200D02*
X179095238Y-74954819D01*
X179095238Y-74954819D02*
X179190476Y-74954819D01*
X179190476Y-74954819D02*
X179333333Y-74907200D01*
X179333333Y-74907200D02*
X179380952Y-74859580D01*
X179380952Y-74859580D02*
X179380952Y-74526247D01*
X179380952Y-74526247D02*
X179190476Y-74526247D01*
X180333333Y-74954819D02*
X179761905Y-74954819D01*
X180047619Y-74954819D02*
X180047619Y-73954819D01*
X180047619Y-73954819D02*
X179952381Y-74097676D01*
X179952381Y-74097676D02*
X179857143Y-74192914D01*
X179857143Y-74192914D02*
X179761905Y-74240533D01*
X72285714Y-43424819D02*
X72285714Y-42424819D01*
X72285714Y-42424819D02*
X72523809Y-42424819D01*
X72523809Y-42424819D02*
X72666666Y-42472438D01*
X72666666Y-42472438D02*
X72761904Y-42567676D01*
X72761904Y-42567676D02*
X72809523Y-42662914D01*
X72809523Y-42662914D02*
X72857142Y-42853390D01*
X72857142Y-42853390D02*
X72857142Y-42996247D01*
X72857142Y-42996247D02*
X72809523Y-43186723D01*
X72809523Y-43186723D02*
X72761904Y-43281961D01*
X72761904Y-43281961D02*
X72666666Y-43377200D01*
X72666666Y-43377200D02*
X72523809Y-43424819D01*
X72523809Y-43424819D02*
X72285714Y-43424819D01*
X73238095Y-42520057D02*
X73285714Y-42472438D01*
X73285714Y-42472438D02*
X73380952Y-42424819D01*
X73380952Y-42424819D02*
X73619047Y-42424819D01*
X73619047Y-42424819D02*
X73714285Y-42472438D01*
X73714285Y-42472438D02*
X73761904Y-42520057D01*
X73761904Y-42520057D02*
X73809523Y-42615295D01*
X73809523Y-42615295D02*
X73809523Y-42710533D01*
X73809523Y-42710533D02*
X73761904Y-42853390D01*
X73761904Y-42853390D02*
X73190476Y-43424819D01*
X73190476Y-43424819D02*
X73809523Y-43424819D01*
X74666666Y-42758152D02*
X74666666Y-43424819D01*
X74428571Y-42377200D02*
X74190476Y-43091485D01*
X74190476Y-43091485D02*
X74809523Y-43091485D01*
X77048095Y-43054819D02*
X77048095Y-42054819D01*
X77619523Y-43054819D02*
X77190952Y-42483390D01*
X77619523Y-42054819D02*
X77048095Y-42626247D01*
X66666667Y-74907200D02*
X66809524Y-74954819D01*
X66809524Y-74954819D02*
X67047619Y-74954819D01*
X67047619Y-74954819D02*
X67142857Y-74907200D01*
X67142857Y-74907200D02*
X67190476Y-74859580D01*
X67190476Y-74859580D02*
X67238095Y-74764342D01*
X67238095Y-74764342D02*
X67238095Y-74669104D01*
X67238095Y-74669104D02*
X67190476Y-74573866D01*
X67190476Y-74573866D02*
X67142857Y-74526247D01*
X67142857Y-74526247D02*
X67047619Y-74478628D01*
X67047619Y-74478628D02*
X66857143Y-74431009D01*
X66857143Y-74431009D02*
X66761905Y-74383390D01*
X66761905Y-74383390D02*
X66714286Y-74335771D01*
X66714286Y-74335771D02*
X66666667Y-74240533D01*
X66666667Y-74240533D02*
X66666667Y-74145295D01*
X66666667Y-74145295D02*
X66714286Y-74050057D01*
X66714286Y-74050057D02*
X66761905Y-74002438D01*
X66761905Y-74002438D02*
X66857143Y-73954819D01*
X66857143Y-73954819D02*
X67095238Y-73954819D01*
X67095238Y-73954819D02*
X67238095Y-74002438D01*
X67571429Y-73954819D02*
X67809524Y-74954819D01*
X67809524Y-74954819D02*
X68000000Y-74240533D01*
X68000000Y-74240533D02*
X68190476Y-74954819D01*
X68190476Y-74954819D02*
X68428572Y-73954819D01*
X68809524Y-74954819D02*
X68809524Y-73954819D01*
X69380952Y-74954819D02*
X68952381Y-74383390D01*
X69380952Y-73954819D02*
X68809524Y-74526247D01*
X70333333Y-74954819D02*
X69761905Y-74954819D01*
X70047619Y-74954819D02*
X70047619Y-73954819D01*
X70047619Y-73954819D02*
X69952381Y-74097676D01*
X69952381Y-74097676D02*
X69857143Y-74192914D01*
X69857143Y-74192914D02*
X69761905Y-74240533D01*
X52761905Y-65924819D02*
X52761905Y-64924819D01*
X52761905Y-64924819D02*
X53000000Y-64924819D01*
X53000000Y-64924819D02*
X53142857Y-64972438D01*
X53142857Y-64972438D02*
X53238095Y-65067676D01*
X53238095Y-65067676D02*
X53285714Y-65162914D01*
X53285714Y-65162914D02*
X53333333Y-65353390D01*
X53333333Y-65353390D02*
X53333333Y-65496247D01*
X53333333Y-65496247D02*
X53285714Y-65686723D01*
X53285714Y-65686723D02*
X53238095Y-65781961D01*
X53238095Y-65781961D02*
X53142857Y-65877200D01*
X53142857Y-65877200D02*
X53000000Y-65924819D01*
X53000000Y-65924819D02*
X52761905Y-65924819D01*
X54285714Y-65924819D02*
X53714286Y-65924819D01*
X54000000Y-65924819D02*
X54000000Y-64924819D01*
X54000000Y-64924819D02*
X53904762Y-65067676D01*
X53904762Y-65067676D02*
X53809524Y-65162914D01*
X53809524Y-65162914D02*
X53714286Y-65210533D01*
X57048095Y-65554819D02*
X57048095Y-64554819D01*
X57619523Y-65554819D02*
X57190952Y-64983390D01*
X57619523Y-64554819D02*
X57048095Y-65126247D01*
X213666667Y-57407200D02*
X213809524Y-57454819D01*
X213809524Y-57454819D02*
X214047619Y-57454819D01*
X214047619Y-57454819D02*
X214142857Y-57407200D01*
X214142857Y-57407200D02*
X214190476Y-57359580D01*
X214190476Y-57359580D02*
X214238095Y-57264342D01*
X214238095Y-57264342D02*
X214238095Y-57169104D01*
X214238095Y-57169104D02*
X214190476Y-57073866D01*
X214190476Y-57073866D02*
X214142857Y-57026247D01*
X214142857Y-57026247D02*
X214047619Y-56978628D01*
X214047619Y-56978628D02*
X213857143Y-56931009D01*
X213857143Y-56931009D02*
X213761905Y-56883390D01*
X213761905Y-56883390D02*
X213714286Y-56835771D01*
X213714286Y-56835771D02*
X213666667Y-56740533D01*
X213666667Y-56740533D02*
X213666667Y-56645295D01*
X213666667Y-56645295D02*
X213714286Y-56550057D01*
X213714286Y-56550057D02*
X213761905Y-56502438D01*
X213761905Y-56502438D02*
X213857143Y-56454819D01*
X213857143Y-56454819D02*
X214095238Y-56454819D01*
X214095238Y-56454819D02*
X214238095Y-56502438D01*
X214571429Y-56454819D02*
X214809524Y-57454819D01*
X214809524Y-57454819D02*
X215000000Y-56740533D01*
X215000000Y-56740533D02*
X215190476Y-57454819D01*
X215190476Y-57454819D02*
X215428572Y-56454819D01*
X215809524Y-57454819D02*
X215809524Y-56454819D01*
X215809524Y-56454819D02*
X216047619Y-56454819D01*
X216047619Y-56454819D02*
X216190476Y-56502438D01*
X216190476Y-56502438D02*
X216285714Y-56597676D01*
X216285714Y-56597676D02*
X216333333Y-56692914D01*
X216333333Y-56692914D02*
X216380952Y-56883390D01*
X216380952Y-56883390D02*
X216380952Y-57026247D01*
X216380952Y-57026247D02*
X216333333Y-57216723D01*
X216333333Y-57216723D02*
X216285714Y-57311961D01*
X216285714Y-57311961D02*
X216190476Y-57407200D01*
X216190476Y-57407200D02*
X216047619Y-57454819D01*
X216047619Y-57454819D02*
X215809524Y-57454819D01*
X217333333Y-57454819D02*
X216761905Y-57454819D01*
X217047619Y-57454819D02*
X217047619Y-56454819D01*
X217047619Y-56454819D02*
X216952381Y-56597676D01*
X216952381Y-56597676D02*
X216857143Y-56692914D01*
X216857143Y-56692914D02*
X216761905Y-56740533D01*
X85095238Y-74807200D02*
X85238095Y-74854819D01*
X85238095Y-74854819D02*
X85476190Y-74854819D01*
X85476190Y-74854819D02*
X85571428Y-74807200D01*
X85571428Y-74807200D02*
X85619047Y-74759580D01*
X85619047Y-74759580D02*
X85666666Y-74664342D01*
X85666666Y-74664342D02*
X85666666Y-74569104D01*
X85666666Y-74569104D02*
X85619047Y-74473866D01*
X85619047Y-74473866D02*
X85571428Y-74426247D01*
X85571428Y-74426247D02*
X85476190Y-74378628D01*
X85476190Y-74378628D02*
X85285714Y-74331009D01*
X85285714Y-74331009D02*
X85190476Y-74283390D01*
X85190476Y-74283390D02*
X85142857Y-74235771D01*
X85142857Y-74235771D02*
X85095238Y-74140533D01*
X85095238Y-74140533D02*
X85095238Y-74045295D01*
X85095238Y-74045295D02*
X85142857Y-73950057D01*
X85142857Y-73950057D02*
X85190476Y-73902438D01*
X85190476Y-73902438D02*
X85285714Y-73854819D01*
X85285714Y-73854819D02*
X85523809Y-73854819D01*
X85523809Y-73854819D02*
X85666666Y-73902438D01*
X86000000Y-73854819D02*
X86238095Y-74854819D01*
X86238095Y-74854819D02*
X86428571Y-74140533D01*
X86428571Y-74140533D02*
X86619047Y-74854819D01*
X86619047Y-74854819D02*
X86857143Y-73854819D01*
X87142857Y-73854819D02*
X87380952Y-74854819D01*
X87380952Y-74854819D02*
X87571428Y-74140533D01*
X87571428Y-74140533D02*
X87761904Y-74854819D01*
X87761904Y-74854819D02*
X88000000Y-73854819D01*
X88904761Y-74854819D02*
X88333333Y-74854819D01*
X88619047Y-74854819D02*
X88619047Y-73854819D01*
X88619047Y-73854819D02*
X88523809Y-73997676D01*
X88523809Y-73997676D02*
X88428571Y-74092914D01*
X88428571Y-74092914D02*
X88333333Y-74140533D01*
X195571905Y-93984819D02*
X195571905Y-92984819D01*
X195571905Y-92984819D02*
X195810000Y-92984819D01*
X195810000Y-92984819D02*
X195952857Y-93032438D01*
X195952857Y-93032438D02*
X196048095Y-93127676D01*
X196048095Y-93127676D02*
X196095714Y-93222914D01*
X196095714Y-93222914D02*
X196143333Y-93413390D01*
X196143333Y-93413390D02*
X196143333Y-93556247D01*
X196143333Y-93556247D02*
X196095714Y-93746723D01*
X196095714Y-93746723D02*
X196048095Y-93841961D01*
X196048095Y-93841961D02*
X195952857Y-93937200D01*
X195952857Y-93937200D02*
X195810000Y-93984819D01*
X195810000Y-93984819D02*
X195571905Y-93984819D01*
X196476667Y-92984819D02*
X197095714Y-92984819D01*
X197095714Y-92984819D02*
X196762381Y-93365771D01*
X196762381Y-93365771D02*
X196905238Y-93365771D01*
X196905238Y-93365771D02*
X197000476Y-93413390D01*
X197000476Y-93413390D02*
X197048095Y-93461009D01*
X197048095Y-93461009D02*
X197095714Y-93556247D01*
X197095714Y-93556247D02*
X197095714Y-93794342D01*
X197095714Y-93794342D02*
X197048095Y-93889580D01*
X197048095Y-93889580D02*
X197000476Y-93937200D01*
X197000476Y-93937200D02*
X196905238Y-93984819D01*
X196905238Y-93984819D02*
X196619524Y-93984819D01*
X196619524Y-93984819D02*
X196524286Y-93937200D01*
X196524286Y-93937200D02*
X196476667Y-93889580D01*
X192238095Y-94354819D02*
X192238095Y-93354819D01*
X192809523Y-94354819D02*
X192380952Y-93783390D01*
X192809523Y-93354819D02*
X192238095Y-93926247D01*
X99785714Y-99954819D02*
X99785714Y-98954819D01*
X99785714Y-98954819D02*
X100023809Y-98954819D01*
X100023809Y-98954819D02*
X100166666Y-99002438D01*
X100166666Y-99002438D02*
X100261904Y-99097676D01*
X100261904Y-99097676D02*
X100309523Y-99192914D01*
X100309523Y-99192914D02*
X100357142Y-99383390D01*
X100357142Y-99383390D02*
X100357142Y-99526247D01*
X100357142Y-99526247D02*
X100309523Y-99716723D01*
X100309523Y-99716723D02*
X100261904Y-99811961D01*
X100261904Y-99811961D02*
X100166666Y-99907200D01*
X100166666Y-99907200D02*
X100023809Y-99954819D01*
X100023809Y-99954819D02*
X99785714Y-99954819D01*
X101309523Y-99954819D02*
X100738095Y-99954819D01*
X101023809Y-99954819D02*
X101023809Y-98954819D01*
X101023809Y-98954819D02*
X100928571Y-99097676D01*
X100928571Y-99097676D02*
X100833333Y-99192914D01*
X100833333Y-99192914D02*
X100738095Y-99240533D01*
X102214285Y-98954819D02*
X101738095Y-98954819D01*
X101738095Y-98954819D02*
X101690476Y-99431009D01*
X101690476Y-99431009D02*
X101738095Y-99383390D01*
X101738095Y-99383390D02*
X101833333Y-99335771D01*
X101833333Y-99335771D02*
X102071428Y-99335771D01*
X102071428Y-99335771D02*
X102166666Y-99383390D01*
X102166666Y-99383390D02*
X102214285Y-99431009D01*
X102214285Y-99431009D02*
X102261904Y-99526247D01*
X102261904Y-99526247D02*
X102261904Y-99764342D01*
X102261904Y-99764342D02*
X102214285Y-99859580D01*
X102214285Y-99859580D02*
X102166666Y-99907200D01*
X102166666Y-99907200D02*
X102071428Y-99954819D01*
X102071428Y-99954819D02*
X101833333Y-99954819D01*
X101833333Y-99954819D02*
X101738095Y-99907200D01*
X101738095Y-99907200D02*
X101690476Y-99859580D01*
X155761905Y-94984819D02*
X155761905Y-93984819D01*
X155761905Y-93984819D02*
X156000000Y-93984819D01*
X156000000Y-93984819D02*
X156142857Y-94032438D01*
X156142857Y-94032438D02*
X156238095Y-94127676D01*
X156238095Y-94127676D02*
X156285714Y-94222914D01*
X156285714Y-94222914D02*
X156333333Y-94413390D01*
X156333333Y-94413390D02*
X156333333Y-94556247D01*
X156333333Y-94556247D02*
X156285714Y-94746723D01*
X156285714Y-94746723D02*
X156238095Y-94841961D01*
X156238095Y-94841961D02*
X156142857Y-94937200D01*
X156142857Y-94937200D02*
X156000000Y-94984819D01*
X156000000Y-94984819D02*
X155761905Y-94984819D01*
X156904762Y-94413390D02*
X156809524Y-94365771D01*
X156809524Y-94365771D02*
X156761905Y-94318152D01*
X156761905Y-94318152D02*
X156714286Y-94222914D01*
X156714286Y-94222914D02*
X156714286Y-94175295D01*
X156714286Y-94175295D02*
X156761905Y-94080057D01*
X156761905Y-94080057D02*
X156809524Y-94032438D01*
X156809524Y-94032438D02*
X156904762Y-93984819D01*
X156904762Y-93984819D02*
X157095238Y-93984819D01*
X157095238Y-93984819D02*
X157190476Y-94032438D01*
X157190476Y-94032438D02*
X157238095Y-94080057D01*
X157238095Y-94080057D02*
X157285714Y-94175295D01*
X157285714Y-94175295D02*
X157285714Y-94222914D01*
X157285714Y-94222914D02*
X157238095Y-94318152D01*
X157238095Y-94318152D02*
X157190476Y-94365771D01*
X157190476Y-94365771D02*
X157095238Y-94413390D01*
X157095238Y-94413390D02*
X156904762Y-94413390D01*
X156904762Y-94413390D02*
X156809524Y-94461009D01*
X156809524Y-94461009D02*
X156761905Y-94508628D01*
X156761905Y-94508628D02*
X156714286Y-94603866D01*
X156714286Y-94603866D02*
X156714286Y-94794342D01*
X156714286Y-94794342D02*
X156761905Y-94889580D01*
X156761905Y-94889580D02*
X156809524Y-94937200D01*
X156809524Y-94937200D02*
X156904762Y-94984819D01*
X156904762Y-94984819D02*
X157095238Y-94984819D01*
X157095238Y-94984819D02*
X157190476Y-94937200D01*
X157190476Y-94937200D02*
X157238095Y-94889580D01*
X157238095Y-94889580D02*
X157285714Y-94794342D01*
X157285714Y-94794342D02*
X157285714Y-94603866D01*
X157285714Y-94603866D02*
X157238095Y-94508628D01*
X157238095Y-94508628D02*
X157190476Y-94461009D01*
X157190476Y-94461009D02*
X157095238Y-94413390D01*
X152428095Y-95354819D02*
X152428095Y-94354819D01*
X152999523Y-95354819D02*
X152570952Y-94783390D01*
X152999523Y-94354819D02*
X152428095Y-94926247D01*
X103666667Y-74907200D02*
X103809524Y-74954819D01*
X103809524Y-74954819D02*
X104047619Y-74954819D01*
X104047619Y-74954819D02*
X104142857Y-74907200D01*
X104142857Y-74907200D02*
X104190476Y-74859580D01*
X104190476Y-74859580D02*
X104238095Y-74764342D01*
X104238095Y-74764342D02*
X104238095Y-74669104D01*
X104238095Y-74669104D02*
X104190476Y-74573866D01*
X104190476Y-74573866D02*
X104142857Y-74526247D01*
X104142857Y-74526247D02*
X104047619Y-74478628D01*
X104047619Y-74478628D02*
X103857143Y-74431009D01*
X103857143Y-74431009D02*
X103761905Y-74383390D01*
X103761905Y-74383390D02*
X103714286Y-74335771D01*
X103714286Y-74335771D02*
X103666667Y-74240533D01*
X103666667Y-74240533D02*
X103666667Y-74145295D01*
X103666667Y-74145295D02*
X103714286Y-74050057D01*
X103714286Y-74050057D02*
X103761905Y-74002438D01*
X103761905Y-74002438D02*
X103857143Y-73954819D01*
X103857143Y-73954819D02*
X104095238Y-73954819D01*
X104095238Y-73954819D02*
X104238095Y-74002438D01*
X104571429Y-73954819D02*
X104809524Y-74954819D01*
X104809524Y-74954819D02*
X105000000Y-74240533D01*
X105000000Y-74240533D02*
X105190476Y-74954819D01*
X105190476Y-74954819D02*
X105428572Y-73954819D01*
X106380952Y-74954819D02*
X106047619Y-74478628D01*
X105809524Y-74954819D02*
X105809524Y-73954819D01*
X105809524Y-73954819D02*
X106190476Y-73954819D01*
X106190476Y-73954819D02*
X106285714Y-74002438D01*
X106285714Y-74002438D02*
X106333333Y-74050057D01*
X106333333Y-74050057D02*
X106380952Y-74145295D01*
X106380952Y-74145295D02*
X106380952Y-74288152D01*
X106380952Y-74288152D02*
X106333333Y-74383390D01*
X106333333Y-74383390D02*
X106285714Y-74431009D01*
X106285714Y-74431009D02*
X106190476Y-74478628D01*
X106190476Y-74478628D02*
X105809524Y-74478628D01*
X107333333Y-74954819D02*
X106761905Y-74954819D01*
X107047619Y-74954819D02*
X107047619Y-73954819D01*
X107047619Y-73954819D02*
X106952381Y-74097676D01*
X106952381Y-74097676D02*
X106857143Y-74192914D01*
X106857143Y-74192914D02*
X106761905Y-74240533D01*
X85166667Y-57407200D02*
X85309524Y-57454819D01*
X85309524Y-57454819D02*
X85547619Y-57454819D01*
X85547619Y-57454819D02*
X85642857Y-57407200D01*
X85642857Y-57407200D02*
X85690476Y-57359580D01*
X85690476Y-57359580D02*
X85738095Y-57264342D01*
X85738095Y-57264342D02*
X85738095Y-57169104D01*
X85738095Y-57169104D02*
X85690476Y-57073866D01*
X85690476Y-57073866D02*
X85642857Y-57026247D01*
X85642857Y-57026247D02*
X85547619Y-56978628D01*
X85547619Y-56978628D02*
X85357143Y-56931009D01*
X85357143Y-56931009D02*
X85261905Y-56883390D01*
X85261905Y-56883390D02*
X85214286Y-56835771D01*
X85214286Y-56835771D02*
X85166667Y-56740533D01*
X85166667Y-56740533D02*
X85166667Y-56645295D01*
X85166667Y-56645295D02*
X85214286Y-56550057D01*
X85214286Y-56550057D02*
X85261905Y-56502438D01*
X85261905Y-56502438D02*
X85357143Y-56454819D01*
X85357143Y-56454819D02*
X85595238Y-56454819D01*
X85595238Y-56454819D02*
X85738095Y-56502438D01*
X86071429Y-56454819D02*
X86309524Y-57454819D01*
X86309524Y-57454819D02*
X86500000Y-56740533D01*
X86500000Y-56740533D02*
X86690476Y-57454819D01*
X86690476Y-57454819D02*
X86928572Y-56454819D01*
X87309524Y-57454819D02*
X87309524Y-56454819D01*
X87309524Y-56454819D02*
X87690476Y-56454819D01*
X87690476Y-56454819D02*
X87785714Y-56502438D01*
X87785714Y-56502438D02*
X87833333Y-56550057D01*
X87833333Y-56550057D02*
X87880952Y-56645295D01*
X87880952Y-56645295D02*
X87880952Y-56788152D01*
X87880952Y-56788152D02*
X87833333Y-56883390D01*
X87833333Y-56883390D02*
X87785714Y-56931009D01*
X87785714Y-56931009D02*
X87690476Y-56978628D01*
X87690476Y-56978628D02*
X87309524Y-56978628D01*
X88833333Y-57454819D02*
X88261905Y-57454819D01*
X88547619Y-57454819D02*
X88547619Y-56454819D01*
X88547619Y-56454819D02*
X88452381Y-56597676D01*
X88452381Y-56597676D02*
X88357143Y-56692914D01*
X88357143Y-56692914D02*
X88261905Y-56740533D01*
X136761905Y-107924819D02*
X136761905Y-106924819D01*
X136761905Y-106924819D02*
X137000000Y-106924819D01*
X137000000Y-106924819D02*
X137142857Y-106972438D01*
X137142857Y-106972438D02*
X137238095Y-107067676D01*
X137238095Y-107067676D02*
X137285714Y-107162914D01*
X137285714Y-107162914D02*
X137333333Y-107353390D01*
X137333333Y-107353390D02*
X137333333Y-107496247D01*
X137333333Y-107496247D02*
X137285714Y-107686723D01*
X137285714Y-107686723D02*
X137238095Y-107781961D01*
X137238095Y-107781961D02*
X137142857Y-107877200D01*
X137142857Y-107877200D02*
X137000000Y-107924819D01*
X137000000Y-107924819D02*
X136761905Y-107924819D01*
X138190476Y-107258152D02*
X138190476Y-107924819D01*
X137952381Y-106877200D02*
X137714286Y-107591485D01*
X137714286Y-107591485D02*
X138333333Y-107591485D01*
X141048095Y-107554819D02*
X141048095Y-106554819D01*
X141619523Y-107554819D02*
X141190952Y-106983390D01*
X141619523Y-106554819D02*
X141048095Y-107126247D01*
X88595714Y-98924819D02*
X88595714Y-97924819D01*
X88595714Y-97924819D02*
X88833809Y-97924819D01*
X88833809Y-97924819D02*
X88976666Y-97972438D01*
X88976666Y-97972438D02*
X89071904Y-98067676D01*
X89071904Y-98067676D02*
X89119523Y-98162914D01*
X89119523Y-98162914D02*
X89167142Y-98353390D01*
X89167142Y-98353390D02*
X89167142Y-98496247D01*
X89167142Y-98496247D02*
X89119523Y-98686723D01*
X89119523Y-98686723D02*
X89071904Y-98781961D01*
X89071904Y-98781961D02*
X88976666Y-98877200D01*
X88976666Y-98877200D02*
X88833809Y-98924819D01*
X88833809Y-98924819D02*
X88595714Y-98924819D01*
X89548095Y-98020057D02*
X89595714Y-97972438D01*
X89595714Y-97972438D02*
X89690952Y-97924819D01*
X89690952Y-97924819D02*
X89929047Y-97924819D01*
X89929047Y-97924819D02*
X90024285Y-97972438D01*
X90024285Y-97972438D02*
X90071904Y-98020057D01*
X90071904Y-98020057D02*
X90119523Y-98115295D01*
X90119523Y-98115295D02*
X90119523Y-98210533D01*
X90119523Y-98210533D02*
X90071904Y-98353390D01*
X90071904Y-98353390D02*
X89500476Y-98924819D01*
X89500476Y-98924819D02*
X90119523Y-98924819D01*
X90500476Y-98020057D02*
X90548095Y-97972438D01*
X90548095Y-97972438D02*
X90643333Y-97924819D01*
X90643333Y-97924819D02*
X90881428Y-97924819D01*
X90881428Y-97924819D02*
X90976666Y-97972438D01*
X90976666Y-97972438D02*
X91024285Y-98020057D01*
X91024285Y-98020057D02*
X91071904Y-98115295D01*
X91071904Y-98115295D02*
X91071904Y-98210533D01*
X91071904Y-98210533D02*
X91024285Y-98353390D01*
X91024285Y-98353390D02*
X90452857Y-98924819D01*
X90452857Y-98924819D02*
X91071904Y-98924819D01*
X93358095Y-98554819D02*
X93358095Y-97554819D01*
X93929523Y-98554819D02*
X93500952Y-97983390D01*
X93929523Y-97554819D02*
X93358095Y-98126247D01*
X107785714Y-95484819D02*
X107785714Y-94484819D01*
X107785714Y-94484819D02*
X108023809Y-94484819D01*
X108023809Y-94484819D02*
X108166666Y-94532438D01*
X108166666Y-94532438D02*
X108261904Y-94627676D01*
X108261904Y-94627676D02*
X108309523Y-94722914D01*
X108309523Y-94722914D02*
X108357142Y-94913390D01*
X108357142Y-94913390D02*
X108357142Y-95056247D01*
X108357142Y-95056247D02*
X108309523Y-95246723D01*
X108309523Y-95246723D02*
X108261904Y-95341961D01*
X108261904Y-95341961D02*
X108166666Y-95437200D01*
X108166666Y-95437200D02*
X108023809Y-95484819D01*
X108023809Y-95484819D02*
X107785714Y-95484819D01*
X109309523Y-95484819D02*
X108738095Y-95484819D01*
X109023809Y-95484819D02*
X109023809Y-94484819D01*
X109023809Y-94484819D02*
X108928571Y-94627676D01*
X108928571Y-94627676D02*
X108833333Y-94722914D01*
X108833333Y-94722914D02*
X108738095Y-94770533D01*
X110166666Y-94818152D02*
X110166666Y-95484819D01*
X109928571Y-94437200D02*
X109690476Y-95151485D01*
X109690476Y-95151485D02*
X110309523Y-95151485D01*
X104928095Y-95854819D02*
X104928095Y-94854819D01*
X105499523Y-95854819D02*
X105070952Y-95283390D01*
X105499523Y-94854819D02*
X104928095Y-95426247D01*
D13*
%TO.C,SWZ1*%
X207900000Y-75900000D02*
X207900000Y-91100000D01*
X207900000Y-91100000D02*
X223100000Y-91100000D01*
X223100000Y-75900000D02*
X207900000Y-75900000D01*
X223100000Y-91100000D02*
X223100000Y-75900000D01*
%TO.C,D17*%
X191090000Y-51530000D02*
X196530000Y-51530000D01*
X191090000Y-51660000D02*
X191090000Y-51530000D01*
X191090000Y-54340000D02*
X191090000Y-54470000D01*
X191090000Y-54470000D02*
X196530000Y-54470000D01*
X191870000Y-51530000D02*
X191870000Y-54470000D01*
X191990000Y-51530000D02*
X191990000Y-54470000D01*
X192110000Y-51530000D02*
X192110000Y-54470000D01*
X196530000Y-51530000D02*
X196530000Y-51660000D01*
X196530000Y-54470000D02*
X196530000Y-54340000D01*
%TO.C,SW#2*%
X170900000Y-40900000D02*
X170900000Y-56100000D01*
X170900000Y-56100000D02*
X186100000Y-56100000D01*
X186100000Y-40900000D02*
X170900000Y-40900000D01*
X186100000Y-56100000D02*
X186100000Y-40900000D01*
%TO.C,D5*%
X65280000Y-52030000D02*
X70720000Y-52030000D01*
X65280000Y-52160000D02*
X65280000Y-52030000D01*
X65280000Y-54840000D02*
X65280000Y-54970000D01*
X65280000Y-54970000D02*
X70720000Y-54970000D01*
X66060000Y-52030000D02*
X66060000Y-54970000D01*
X66180000Y-52030000D02*
X66180000Y-54970000D01*
X66300000Y-52030000D02*
X66300000Y-54970000D01*
X70720000Y-52030000D02*
X70720000Y-52160000D01*
X70720000Y-54970000D02*
X70720000Y-54840000D01*
%TO.C,SWE1*%
X134400000Y-110900000D02*
X134400000Y-126100000D01*
X134400000Y-126100000D02*
X149600000Y-126100000D01*
X149600000Y-110900000D02*
X134400000Y-110900000D01*
X149600000Y-126100000D02*
X149600000Y-110900000D01*
%TO.C,D20*%
X178780000Y-95030000D02*
X178780000Y-95160000D01*
X178780000Y-97970000D02*
X178780000Y-97840000D01*
X183200000Y-97970000D02*
X183200000Y-95030000D01*
X183320000Y-97970000D02*
X183320000Y-95030000D01*
X183440000Y-97970000D02*
X183440000Y-95030000D01*
X184220000Y-95030000D02*
X178780000Y-95030000D01*
X184220000Y-95160000D02*
X184220000Y-95030000D01*
X184220000Y-97840000D02*
X184220000Y-97970000D01*
X184220000Y-97970000D02*
X178780000Y-97970000D01*
%TO.C,D7*%
X153280000Y-52030000D02*
X158720000Y-52030000D01*
X153280000Y-52160000D02*
X153280000Y-52030000D01*
X153280000Y-54840000D02*
X153280000Y-54970000D01*
X153280000Y-54970000D02*
X158720000Y-54970000D01*
X154060000Y-52030000D02*
X154060000Y-54970000D01*
X154180000Y-52030000D02*
X154180000Y-54970000D01*
X154300000Y-52030000D02*
X154300000Y-54970000D01*
X158720000Y-52030000D02*
X158720000Y-52160000D01*
X158720000Y-54970000D02*
X158720000Y-54840000D01*
%TO.C,SW\u002A1*%
X115900000Y-66900000D02*
X115900000Y-82100000D01*
X115900000Y-82100000D02*
X131100000Y-82100000D01*
X131100000Y-66900000D02*
X115900000Y-66900000D01*
X131100000Y-82100000D02*
X131100000Y-66900000D01*
%TO.C,SWT2*%
X189400000Y-58400000D02*
X189400000Y-73600000D01*
X189400000Y-73600000D02*
X204600000Y-73600000D01*
X204600000Y-58400000D02*
X189400000Y-58400000D01*
X204600000Y-73600000D02*
X204600000Y-58400000D01*
%TO.C,SWR2*%
X133900000Y-75900000D02*
X133900000Y-91100000D01*
X133900000Y-91100000D02*
X149100000Y-91100000D01*
X149100000Y-75900000D02*
X133900000Y-75900000D01*
X149100000Y-91100000D02*
X149100000Y-75900000D01*
%TO.C,SWS2*%
X189400000Y-75900000D02*
X189400000Y-91100000D01*
X189400000Y-91100000D02*
X204600000Y-91100000D01*
X204600000Y-75900000D02*
X189400000Y-75900000D01*
X204600000Y-91100000D02*
X204600000Y-75900000D01*
%TO.C,D23*%
X144530000Y-46780000D02*
X144530000Y-52220000D01*
X144530000Y-52220000D02*
X144660000Y-52220000D01*
X144660000Y-46780000D02*
X144530000Y-46780000D01*
X147340000Y-46780000D02*
X147470000Y-46780000D01*
X147470000Y-46780000D02*
X147470000Y-52220000D01*
X147470000Y-47560000D02*
X144530000Y-47560000D01*
X147470000Y-47680000D02*
X144530000Y-47680000D01*
X147470000Y-47800000D02*
X144530000Y-47800000D01*
X147470000Y-52220000D02*
X147340000Y-52220000D01*
%TO.C,SWP2*%
X152400000Y-58400000D02*
X152400000Y-73600000D01*
X152400000Y-73600000D02*
X167600000Y-73600000D01*
X167600000Y-58400000D02*
X152400000Y-58400000D01*
X167600000Y-73600000D02*
X167600000Y-58400000D01*
%TO.C,SWO1*%
X108900000Y-110900000D02*
X108900000Y-126100000D01*
X108900000Y-126100000D02*
X124100000Y-126100000D01*
X124100000Y-110900000D02*
X108900000Y-110900000D01*
X124100000Y-126100000D02*
X124100000Y-110900000D01*
%TO.C,SW#1*%
X79400000Y-40400000D02*
X79400000Y-55600000D01*
X79400000Y-55600000D02*
X94600000Y-55600000D01*
X94600000Y-40400000D02*
X79400000Y-40400000D01*
X94600000Y-55600000D02*
X94600000Y-40400000D01*
%TO.C,SWS1*%
X42900000Y-65400000D02*
X42900000Y-80600000D01*
X42900000Y-80600000D02*
X58100000Y-80600000D01*
X58100000Y-65400000D02*
X42900000Y-65400000D01*
X58100000Y-80600000D02*
X58100000Y-65400000D01*
%TO.C,D18*%
X142780000Y-99030000D02*
X148220000Y-99030000D01*
X142780000Y-99160000D02*
X142780000Y-99030000D01*
X142780000Y-101840000D02*
X142780000Y-101970000D01*
X142780000Y-101970000D02*
X148220000Y-101970000D01*
X143560000Y-99030000D02*
X143560000Y-101970000D01*
X143680000Y-99030000D02*
X143680000Y-101970000D01*
X143800000Y-99030000D02*
X143800000Y-101970000D01*
X148220000Y-99030000D02*
X148220000Y-99160000D01*
X148220000Y-101970000D02*
X148220000Y-101840000D01*
%TO.C,SWU1*%
X152900000Y-110900000D02*
X152900000Y-126100000D01*
X152900000Y-126100000D02*
X168100000Y-126100000D01*
X168100000Y-110900000D02*
X152900000Y-110900000D01*
X168100000Y-126100000D02*
X168100000Y-110900000D01*
%TO.C,D6*%
X165280000Y-99030000D02*
X170720000Y-99030000D01*
X165280000Y-99160000D02*
X165280000Y-99030000D01*
X165280000Y-101840000D02*
X165280000Y-101970000D01*
X165280000Y-101970000D02*
X170720000Y-101970000D01*
X166060000Y-99030000D02*
X166060000Y-101970000D01*
X166180000Y-99030000D02*
X166180000Y-101970000D01*
X166300000Y-99030000D02*
X166300000Y-101970000D01*
X170720000Y-99030000D02*
X170720000Y-99160000D01*
X170720000Y-101970000D02*
X170720000Y-101840000D01*
%TO.C,SWB1*%
X152400000Y-75900000D02*
X152400000Y-91100000D01*
X152400000Y-91100000D02*
X167600000Y-91100000D01*
X167600000Y-75900000D02*
X152400000Y-75900000D01*
X167600000Y-91100000D02*
X167600000Y-75900000D01*
%TO.C,D9*%
X75030000Y-46280000D02*
X75160000Y-46280000D01*
X75030000Y-50700000D02*
X77970000Y-50700000D01*
X75030000Y-50820000D02*
X77970000Y-50820000D01*
X75030000Y-50940000D02*
X77970000Y-50940000D01*
X75030000Y-51720000D02*
X75030000Y-46280000D01*
X75160000Y-51720000D02*
X75030000Y-51720000D01*
X77840000Y-51720000D02*
X77970000Y-51720000D01*
X77970000Y-46280000D02*
X77840000Y-46280000D01*
X77970000Y-51720000D02*
X77970000Y-46280000D01*
%TO.C,D11*%
X120470000Y-85530000D02*
X125910000Y-85530000D01*
X120470000Y-85660000D02*
X120470000Y-85530000D01*
X120470000Y-88340000D02*
X120470000Y-88470000D01*
X120470000Y-88470000D02*
X125910000Y-88470000D01*
X121250000Y-85530000D02*
X121250000Y-88470000D01*
X121370000Y-85530000D02*
X121370000Y-88470000D01*
X121490000Y-85530000D02*
X121490000Y-88470000D01*
X125910000Y-85530000D02*
X125910000Y-85660000D01*
X125910000Y-88470000D02*
X125910000Y-88340000D01*
D14*
%TO.C,U1*%
X120100000Y-35350000D02*
X120100000Y-52350000D01*
X122100000Y-54350000D02*
X135900000Y-54350000D01*
X124500000Y-31925970D02*
X133500000Y-31925970D01*
X124500000Y-39279270D02*
X124500000Y-31925970D01*
X133500000Y-31925970D02*
X133500000Y-39279270D01*
X133500000Y-39279270D02*
X124500000Y-39279270D01*
X135900000Y-33350910D02*
X122100000Y-33350910D01*
X137900000Y-52350000D02*
X137900000Y-35350000D01*
D13*
X120100000Y-35350000D02*
G75*
G02*
X122100000Y-33350000I2044612J-44612D01*
G01*
X122100000Y-54350000D02*
G75*
G02*
X120100000Y-52350000I44857J2044857D01*
G01*
X135900000Y-33350000D02*
G75*
G02*
X137900000Y-35350000I-44600J-2044600D01*
G01*
X137900000Y-52350000D02*
G75*
G02*
X135900000Y-54350000I-2000000J0D01*
G01*
D15*
X118127000Y-35050000D02*
G75*
G02*
X117873000Y-35050000I-127000J0D01*
G01*
X117873000Y-35050000D02*
G75*
G02*
X118127000Y-35050000I127000J0D01*
G01*
D16*
X120112285Y-35288295D02*
X120115333Y-35239527D01*
X120119397Y-35190506D01*
X120112285Y-35288295D01*
X137887713Y-52420850D02*
X137884665Y-52469618D01*
X137880601Y-52518639D01*
X137875268Y-52567407D01*
X137868664Y-52616175D01*
X137861044Y-52664690D01*
X137852153Y-52712950D01*
X137842248Y-52760955D01*
X137889492Y-52371574D01*
X137887713Y-52420850D01*
D13*
%TO.C,D16*%
X62780000Y-94530000D02*
X68220000Y-94530000D01*
X62780000Y-94660000D02*
X62780000Y-94530000D01*
X62780000Y-97340000D02*
X62780000Y-97470000D01*
X62780000Y-97470000D02*
X68220000Y-97470000D01*
X63560000Y-94530000D02*
X63560000Y-97470000D01*
X63680000Y-94530000D02*
X63680000Y-97470000D01*
X63800000Y-94530000D02*
X63800000Y-97470000D01*
X68220000Y-94530000D02*
X68220000Y-94660000D01*
X68220000Y-97470000D02*
X68220000Y-97340000D01*
%TO.C,SWH1*%
X97900000Y-58400000D02*
X97900000Y-73600000D01*
X97900000Y-73600000D02*
X113100000Y-73600000D01*
X113100000Y-58400000D02*
X97900000Y-58400000D01*
X113100000Y-73600000D02*
X113100000Y-58400000D01*
%TO.C,SWT1*%
X60900000Y-58400000D02*
X60900000Y-73600000D01*
X60900000Y-73600000D02*
X76100000Y-73600000D01*
X76100000Y-58400000D02*
X60900000Y-58400000D01*
X76100000Y-73600000D02*
X76100000Y-58400000D01*
%TO.C,D12*%
X154280000Y-103530000D02*
X159720000Y-103530000D01*
X154280000Y-103660000D02*
X154280000Y-103530000D01*
X154280000Y-106340000D02*
X154280000Y-106470000D01*
X154280000Y-106470000D02*
X159720000Y-106470000D01*
X155060000Y-103530000D02*
X155060000Y-106470000D01*
X155180000Y-103530000D02*
X155180000Y-106470000D01*
X155300000Y-103530000D02*
X155300000Y-106470000D01*
X159720000Y-103530000D02*
X159720000Y-103660000D01*
X159720000Y-106470000D02*
X159720000Y-106340000D01*
%TO.C,D21*%
X189530000Y-40780000D02*
X189660000Y-40780000D01*
X189530000Y-45200000D02*
X192470000Y-45200000D01*
X189530000Y-45320000D02*
X192470000Y-45320000D01*
X189530000Y-45440000D02*
X192470000Y-45440000D01*
X189530000Y-46220000D02*
X189530000Y-40780000D01*
X189660000Y-46220000D02*
X189530000Y-46220000D01*
X192340000Y-46220000D02*
X192470000Y-46220000D01*
X192470000Y-40780000D02*
X192340000Y-40780000D01*
X192470000Y-46220000D02*
X192470000Y-40780000D01*
%TO.C,D2*%
X204780000Y-52030000D02*
X210220000Y-52030000D01*
X204780000Y-52160000D02*
X204780000Y-52030000D01*
X204780000Y-54840000D02*
X204780000Y-54970000D01*
X204780000Y-54970000D02*
X210220000Y-54970000D01*
X205560000Y-52030000D02*
X205560000Y-54970000D01*
X205680000Y-52030000D02*
X205680000Y-54970000D01*
X205800000Y-52030000D02*
X205800000Y-54970000D01*
X210220000Y-52030000D02*
X210220000Y-52160000D01*
X210220000Y-54970000D02*
X210220000Y-54840000D01*
%TO.C,SWA1*%
X90400000Y-110900000D02*
X90400000Y-126100000D01*
X90400000Y-126100000D02*
X105600000Y-126100000D01*
X105600000Y-110900000D02*
X90400000Y-110900000D01*
X105600000Y-126100000D02*
X105600000Y-110900000D01*
%TO.C,SWL1*%
X170900000Y-58400000D02*
X170900000Y-73600000D01*
X170900000Y-73600000D02*
X186100000Y-73600000D01*
X186100000Y-58400000D02*
X170900000Y-58400000D01*
X186100000Y-73600000D02*
X186100000Y-58400000D01*
%TO.C,D10*%
X121780000Y-96030000D02*
X121780000Y-96160000D01*
X121780000Y-98970000D02*
X121780000Y-98840000D01*
X126200000Y-98970000D02*
X126200000Y-96030000D01*
X126320000Y-98970000D02*
X126320000Y-96030000D01*
X126440000Y-98970000D02*
X126440000Y-96030000D01*
X127220000Y-96030000D02*
X121780000Y-96030000D01*
X127220000Y-96160000D02*
X127220000Y-96030000D01*
X127220000Y-98840000D02*
X127220000Y-98970000D01*
X127220000Y-98970000D02*
X121780000Y-98970000D01*
%TO.C,SWF1*%
X133900000Y-58400000D02*
X133900000Y-73600000D01*
X133900000Y-73600000D02*
X149100000Y-73600000D01*
X149100000Y-58400000D02*
X133900000Y-58400000D01*
X149100000Y-73600000D02*
X149100000Y-58400000D01*
%TO.C,D13*%
X122280000Y-59030000D02*
X127720000Y-59030000D01*
X122280000Y-59160000D02*
X122280000Y-59030000D01*
X122280000Y-61840000D02*
X122280000Y-61970000D01*
X122280000Y-61970000D02*
X127720000Y-61970000D01*
X123060000Y-59030000D02*
X123060000Y-61970000D01*
X123180000Y-59030000D02*
X123180000Y-61970000D01*
X123300000Y-59030000D02*
X123300000Y-61970000D01*
X127720000Y-59030000D02*
X127720000Y-59160000D01*
X127720000Y-61970000D02*
X127720000Y-61840000D01*
%TO.C,D19*%
X101280000Y-51030000D02*
X101280000Y-51160000D01*
X101280000Y-53970000D02*
X101280000Y-53840000D01*
X105700000Y-53970000D02*
X105700000Y-51030000D01*
X105820000Y-53970000D02*
X105820000Y-51030000D01*
X105940000Y-53970000D02*
X105940000Y-51030000D01*
X106720000Y-51030000D02*
X101280000Y-51030000D01*
X106720000Y-51160000D02*
X106720000Y-51030000D01*
X106720000Y-53840000D02*
X106720000Y-53970000D01*
X106720000Y-53970000D02*
X101280000Y-53970000D01*
%TO.C,SWG1*%
X170900000Y-75900000D02*
X170900000Y-91100000D01*
X170900000Y-91100000D02*
X186100000Y-91100000D01*
X186100000Y-75900000D02*
X170900000Y-75900000D01*
X186100000Y-91100000D02*
X186100000Y-75900000D01*
%TO.C,D24*%
X70780000Y-39030000D02*
X70780000Y-39160000D01*
X70780000Y-41970000D02*
X70780000Y-41840000D01*
X75200000Y-41970000D02*
X75200000Y-39030000D01*
X75320000Y-41970000D02*
X75320000Y-39030000D01*
X75440000Y-41970000D02*
X75440000Y-39030000D01*
X76220000Y-39030000D02*
X70780000Y-39030000D01*
X76220000Y-39160000D02*
X76220000Y-39030000D01*
X76220000Y-41840000D02*
X76220000Y-41970000D01*
X76220000Y-41970000D02*
X70780000Y-41970000D01*
%TO.C,SWK1*%
X60900000Y-75900000D02*
X60900000Y-91100000D01*
X60900000Y-91100000D02*
X76100000Y-91100000D01*
X76100000Y-75900000D02*
X60900000Y-75900000D01*
X76100000Y-91100000D02*
X76100000Y-75900000D01*
%TO.C,D1*%
X50780000Y-61530000D02*
X50780000Y-61660000D01*
X50780000Y-64470000D02*
X50780000Y-64340000D01*
X55200000Y-64470000D02*
X55200000Y-61530000D01*
X55320000Y-64470000D02*
X55320000Y-61530000D01*
X55440000Y-64470000D02*
X55440000Y-61530000D01*
X56220000Y-61530000D02*
X50780000Y-61530000D01*
X56220000Y-61660000D02*
X56220000Y-61530000D01*
X56220000Y-64340000D02*
X56220000Y-64470000D01*
X56220000Y-64470000D02*
X50780000Y-64470000D01*
%TO.C,SWD1*%
X207900000Y-58400000D02*
X207900000Y-73600000D01*
X207900000Y-73600000D02*
X223100000Y-73600000D01*
X223100000Y-58400000D02*
X207900000Y-58400000D01*
X223100000Y-73600000D02*
X223100000Y-58400000D01*
%TO.C,SWW1*%
X79400000Y-75800000D02*
X79400000Y-91000000D01*
X79400000Y-91000000D02*
X94600000Y-91000000D01*
X94600000Y-75800000D02*
X79400000Y-75800000D01*
X94600000Y-91000000D02*
X94600000Y-75800000D01*
%TO.C,D3*%
X193590000Y-94530000D02*
X199030000Y-94530000D01*
X193590000Y-94660000D02*
X193590000Y-94530000D01*
X193590000Y-97340000D02*
X193590000Y-97470000D01*
X193590000Y-97470000D02*
X199030000Y-97470000D01*
X194370000Y-94530000D02*
X194370000Y-97470000D01*
X194490000Y-94530000D02*
X194490000Y-97470000D01*
X194610000Y-94530000D02*
X194610000Y-97470000D01*
X199030000Y-94530000D02*
X199030000Y-94660000D01*
X199030000Y-97470000D02*
X199030000Y-97340000D01*
%TO.C,D15*%
X98280000Y-100530000D02*
X98280000Y-100660000D01*
X98280000Y-103470000D02*
X98280000Y-103340000D01*
X102700000Y-103470000D02*
X102700000Y-100530000D01*
X102820000Y-103470000D02*
X102820000Y-100530000D01*
X102940000Y-103470000D02*
X102940000Y-100530000D01*
X103720000Y-100530000D02*
X98280000Y-100530000D01*
X103720000Y-100660000D02*
X103720000Y-100530000D01*
X103720000Y-103340000D02*
X103720000Y-103470000D01*
X103720000Y-103470000D02*
X98280000Y-103470000D01*
%TO.C,D8*%
X153780000Y-95530000D02*
X159220000Y-95530000D01*
X153780000Y-95660000D02*
X153780000Y-95530000D01*
X153780000Y-98340000D02*
X153780000Y-98470000D01*
X153780000Y-98470000D02*
X159220000Y-98470000D01*
X154560000Y-95530000D02*
X154560000Y-98470000D01*
X154680000Y-95530000D02*
X154680000Y-98470000D01*
X154800000Y-95530000D02*
X154800000Y-98470000D01*
X159220000Y-95530000D02*
X159220000Y-95660000D01*
X159220000Y-98470000D02*
X159220000Y-98340000D01*
%TO.C,SWR1*%
X97900000Y-75900000D02*
X97900000Y-91100000D01*
X97900000Y-91100000D02*
X113100000Y-91100000D01*
X113100000Y-75900000D02*
X97900000Y-75900000D01*
X113100000Y-91100000D02*
X113100000Y-75900000D01*
%TO.C,SWP1*%
X79400000Y-58400000D02*
X79400000Y-73600000D01*
X79400000Y-73600000D02*
X94600000Y-73600000D01*
X94600000Y-58400000D02*
X79400000Y-58400000D01*
X94600000Y-73600000D02*
X94600000Y-58400000D01*
%TO.C,D4*%
X134780000Y-103530000D02*
X134780000Y-103660000D01*
X134780000Y-106470000D02*
X134780000Y-106340000D01*
X139200000Y-106470000D02*
X139200000Y-103530000D01*
X139320000Y-106470000D02*
X139320000Y-103530000D01*
X139440000Y-106470000D02*
X139440000Y-103530000D01*
X140220000Y-103530000D02*
X134780000Y-103530000D01*
X140220000Y-103660000D02*
X140220000Y-103530000D01*
X140220000Y-106340000D02*
X140220000Y-106470000D01*
X140220000Y-106470000D02*
X134780000Y-106470000D01*
%TO.C,D22*%
X87090000Y-94530000D02*
X87090000Y-94660000D01*
X87090000Y-97470000D02*
X87090000Y-97340000D01*
X91510000Y-97470000D02*
X91510000Y-94530000D01*
X91630000Y-97470000D02*
X91630000Y-94530000D01*
X91750000Y-97470000D02*
X91750000Y-94530000D01*
X92530000Y-94530000D02*
X87090000Y-94530000D01*
X92530000Y-94660000D02*
X92530000Y-94530000D01*
X92530000Y-97340000D02*
X92530000Y-97470000D01*
X92530000Y-97470000D02*
X87090000Y-97470000D01*
%TO.C,D14*%
X106280000Y-96030000D02*
X111720000Y-96030000D01*
X106280000Y-96160000D02*
X106280000Y-96030000D01*
X106280000Y-98840000D02*
X106280000Y-98970000D01*
X106280000Y-98970000D02*
X111720000Y-98970000D01*
X107060000Y-96030000D02*
X107060000Y-98970000D01*
X107180000Y-96030000D02*
X107180000Y-98970000D01*
X107300000Y-96030000D02*
X107300000Y-98970000D01*
X111720000Y-96030000D02*
X111720000Y-96160000D01*
X111720000Y-98970000D02*
X111720000Y-98840000D01*
%TD*%
%LPC*%
D17*
%TO.C,SWZ1*%
X210000000Y-83500000D03*
D18*
X215500000Y-83500000D03*
D17*
X221000000Y-83500000D03*
D19*
X215500000Y-77600000D03*
X220500000Y-79700000D03*
%TD*%
D20*
%TO.C,D17*%
X190000000Y-53000000D03*
D21*
X197620000Y-53000000D03*
%TD*%
D17*
%TO.C,SW#2*%
X173000000Y-48500000D03*
D18*
X178500000Y-48500000D03*
D17*
X184000000Y-48500000D03*
D19*
X178500000Y-42600000D03*
X183500000Y-44700000D03*
%TD*%
D20*
%TO.C,D5*%
X64190000Y-53500000D03*
D21*
X71810000Y-53500000D03*
%TD*%
D17*
%TO.C,SWE1*%
X136500000Y-118500000D03*
D18*
X142000000Y-118500000D03*
D17*
X147500000Y-118500000D03*
D19*
X142000000Y-112600000D03*
X147000000Y-114700000D03*
%TD*%
D20*
%TO.C,D20*%
X185310000Y-96500000D03*
D21*
X177690000Y-96500000D03*
%TD*%
D20*
%TO.C,D7*%
X152190000Y-53500000D03*
D21*
X159810000Y-53500000D03*
%TD*%
D17*
%TO.C,SW\u002A1*%
X118000000Y-74500000D03*
D18*
X123500000Y-74500000D03*
D17*
X129000000Y-74500000D03*
D19*
X123500000Y-68600000D03*
X128500000Y-70700000D03*
%TD*%
D17*
%TO.C,SWT2*%
X191500000Y-66000000D03*
D18*
X197000000Y-66000000D03*
D17*
X202500000Y-66000000D03*
D19*
X197000000Y-60100000D03*
X202000000Y-62200000D03*
%TD*%
D17*
%TO.C,SWR2*%
X136000000Y-83500000D03*
D18*
X141500000Y-83500000D03*
D17*
X147000000Y-83500000D03*
D19*
X141500000Y-77600000D03*
X146500000Y-79700000D03*
%TD*%
D17*
%TO.C,SWS2*%
X191500000Y-83500000D03*
D18*
X197000000Y-83500000D03*
D17*
X202500000Y-83500000D03*
D19*
X197000000Y-77600000D03*
X202000000Y-79700000D03*
%TD*%
D20*
%TO.C,D23*%
X146000000Y-45690000D03*
D21*
X146000000Y-53310000D03*
%TD*%
D17*
%TO.C,SWP2*%
X154500000Y-66000000D03*
D18*
X160000000Y-66000000D03*
D17*
X165500000Y-66000000D03*
D19*
X160000000Y-60100000D03*
X165000000Y-62200000D03*
%TD*%
D17*
%TO.C,SWO1*%
X111000000Y-118500000D03*
D18*
X116500000Y-118500000D03*
D17*
X122000000Y-118500000D03*
D19*
X116500000Y-112600000D03*
X121500000Y-114700000D03*
%TD*%
D17*
%TO.C,SW#1*%
X81500000Y-48000000D03*
D18*
X87000000Y-48000000D03*
D17*
X92500000Y-48000000D03*
D19*
X87000000Y-42100000D03*
X92000000Y-44200000D03*
%TD*%
D17*
%TO.C,SWS1*%
X45000000Y-73000000D03*
D18*
X50500000Y-73000000D03*
D17*
X56000000Y-73000000D03*
D19*
X50500000Y-67100000D03*
X55500000Y-69200000D03*
%TD*%
D20*
%TO.C,D18*%
X141690000Y-100500000D03*
D21*
X149310000Y-100500000D03*
%TD*%
D17*
%TO.C,SWU1*%
X155000000Y-118500000D03*
D18*
X160500000Y-118500000D03*
D17*
X166000000Y-118500000D03*
D19*
X160500000Y-112600000D03*
X165500000Y-114700000D03*
%TD*%
D20*
%TO.C,D6*%
X164190000Y-100500000D03*
D21*
X171810000Y-100500000D03*
%TD*%
D17*
%TO.C,SWB1*%
X154500000Y-83500000D03*
D18*
X160000000Y-83500000D03*
D17*
X165500000Y-83500000D03*
D19*
X160000000Y-77600000D03*
X165000000Y-79700000D03*
%TD*%
D22*
%TO.C,REF\u002A\u002A*%
X42500000Y-92000000D03*
%TD*%
D20*
%TO.C,D9*%
X76500000Y-52810000D03*
D21*
X76500000Y-45190000D03*
%TD*%
D20*
%TO.C,D11*%
X119380000Y-87000000D03*
D21*
X127000000Y-87000000D03*
%TD*%
D23*
%TO.C,U1*%
X120500000Y-36230000D03*
X120500000Y-38770000D03*
X120500000Y-41310000D03*
X120500000Y-43850000D03*
X120500000Y-46390000D03*
X120500000Y-48930000D03*
X120500000Y-51470000D03*
X137500000Y-51470000D03*
X137500000Y-48930000D03*
X137500000Y-46390000D03*
X137500000Y-43850000D03*
X137500000Y-41310000D03*
X137500000Y-38770000D03*
X137500000Y-36230000D03*
D24*
X127730000Y-35460000D03*
X130270000Y-35460000D03*
X127730000Y-38000000D03*
X130270000Y-38000000D03*
D25*
X127730000Y-52450000D03*
X130270000Y-52450000D03*
%TD*%
D20*
%TO.C,D16*%
X61690000Y-96000000D03*
D21*
X69310000Y-96000000D03*
%TD*%
D17*
%TO.C,SWH1*%
X100000000Y-66000000D03*
D18*
X105500000Y-66000000D03*
D17*
X111000000Y-66000000D03*
D19*
X105500000Y-60100000D03*
X110500000Y-62200000D03*
%TD*%
D17*
%TO.C,SWT1*%
X63000000Y-66000000D03*
D18*
X68500000Y-66000000D03*
D17*
X74000000Y-66000000D03*
D19*
X68500000Y-60100000D03*
X73500000Y-62200000D03*
%TD*%
D20*
%TO.C,D12*%
X153190000Y-105000000D03*
D21*
X160810000Y-105000000D03*
%TD*%
D20*
%TO.C,D21*%
X191000000Y-47310000D03*
D21*
X191000000Y-39690000D03*
%TD*%
D20*
%TO.C,D2*%
X203690000Y-53500000D03*
D21*
X211310000Y-53500000D03*
%TD*%
D17*
%TO.C,SWA1*%
X92500000Y-118500000D03*
D18*
X98000000Y-118500000D03*
D17*
X103500000Y-118500000D03*
D19*
X98000000Y-112600000D03*
X103000000Y-114700000D03*
%TD*%
D17*
%TO.C,SWL1*%
X173000000Y-66000000D03*
D18*
X178500000Y-66000000D03*
D17*
X184000000Y-66000000D03*
D19*
X178500000Y-60100000D03*
X183500000Y-62200000D03*
%TD*%
D20*
%TO.C,D10*%
X128310000Y-97500000D03*
D21*
X120690000Y-97500000D03*
%TD*%
D22*
%TO.C,REF\u002A\u002A*%
X229000000Y-38000000D03*
%TD*%
D17*
%TO.C,SWF1*%
X136000000Y-66000000D03*
D18*
X141500000Y-66000000D03*
D17*
X147000000Y-66000000D03*
D19*
X141500000Y-60100000D03*
X146500000Y-62200000D03*
%TD*%
D20*
%TO.C,D13*%
X121190000Y-60500000D03*
D21*
X128810000Y-60500000D03*
%TD*%
D20*
%TO.C,D19*%
X107810000Y-52500000D03*
D21*
X100190000Y-52500000D03*
%TD*%
D17*
%TO.C,SWG1*%
X173000000Y-83500000D03*
D18*
X178500000Y-83500000D03*
D17*
X184000000Y-83500000D03*
D19*
X178500000Y-77600000D03*
X183500000Y-79700000D03*
%TD*%
D20*
%TO.C,D24*%
X77310000Y-40500000D03*
D21*
X69690000Y-40500000D03*
%TD*%
D17*
%TO.C,SWK1*%
X63000000Y-83500000D03*
D18*
X68500000Y-83500000D03*
D17*
X74000000Y-83500000D03*
D19*
X68500000Y-77600000D03*
X73500000Y-79700000D03*
%TD*%
D20*
%TO.C,D1*%
X57310000Y-63000000D03*
D21*
X49690000Y-63000000D03*
%TD*%
D22*
%TO.C,REF\u002A\u002A*%
X229000000Y-87500000D03*
%TD*%
D17*
%TO.C,SWD1*%
X210000000Y-66000000D03*
D18*
X215500000Y-66000000D03*
D17*
X221000000Y-66000000D03*
D19*
X215500000Y-60100000D03*
X220500000Y-62200000D03*
%TD*%
D17*
%TO.C,SWW1*%
X81500000Y-83400000D03*
D18*
X87000000Y-83400000D03*
D17*
X92500000Y-83400000D03*
D19*
X87000000Y-77500000D03*
X92000000Y-79600000D03*
%TD*%
D20*
%TO.C,D3*%
X192500000Y-96000000D03*
D21*
X200120000Y-96000000D03*
%TD*%
D20*
%TO.C,D15*%
X104810000Y-102000000D03*
D21*
X97190000Y-102000000D03*
%TD*%
D20*
%TO.C,D8*%
X152690000Y-97000000D03*
D21*
X160310000Y-97000000D03*
%TD*%
D17*
%TO.C,SWR1*%
X100000000Y-83500000D03*
D18*
X105500000Y-83500000D03*
D17*
X111000000Y-83500000D03*
D19*
X105500000Y-77600000D03*
X110500000Y-79700000D03*
%TD*%
D17*
%TO.C,SWP1*%
X81500000Y-66000000D03*
D18*
X87000000Y-66000000D03*
D17*
X92500000Y-66000000D03*
D19*
X87000000Y-60100000D03*
X92000000Y-62200000D03*
%TD*%
D20*
%TO.C,D4*%
X141310000Y-105000000D03*
D21*
X133690000Y-105000000D03*
%TD*%
D22*
%TO.C,REF\u002A\u002A*%
X42500000Y-38000000D03*
%TD*%
D20*
%TO.C,D22*%
X93620000Y-96000000D03*
D21*
X86000000Y-96000000D03*
%TD*%
D20*
%TO.C,D14*%
X105190000Y-97500000D03*
D21*
X112810000Y-97500000D03*
%TD*%
%LPD*%
M02*
