%TF.GenerationSoftware,KiCad,Pcbnew,8.0.5*%
%TF.CreationDate,2024-10-09T19:36:39-04:00*%
%TF.ProjectId,board,626f6172-642e-46b6-9963-61645f706362,1*%
%TF.SameCoordinates,Original*%
%TF.FileFunction,Legend,Top*%
%TF.FilePolarity,Positive*%
%FSLAX46Y46*%
G04 Gerber Fmt 4.6, Leading zero omitted, Abs format (unit mm)*
G04 Created by KiCad (PCBNEW 8.0.5) date 2024-10-09 19:36:39*
%MOMM*%
%LPD*%
G01*
G04 APERTURE LIST*
%ADD10C,0.100000*%
%ADD11C,0.150000*%
%ADD12C,0.101600*%
%ADD13C,0.120000*%
%ADD14C,0.127000*%
%ADD15C,0.254000*%
%ADD16C,0.025400*%
%ADD17O,2.200000X2.200000*%
%ADD18R,2.200000X2.200000*%
%ADD19C,2.200000*%
%ADD20R,3.000000X2.000000*%
%ADD21C,1.500000*%
%ADD22R,1.300000X2.300000*%
G04 APERTURE END LIST*
D10*
X89256265Y-106154800D02*
X89351503Y-106250038D01*
X89351503Y-106250038D02*
X89541979Y-106250038D01*
X89541979Y-106250038D02*
X89637217Y-106154800D01*
X89637217Y-106154800D02*
X89684836Y-105964323D01*
X89684836Y-105964323D02*
X89684836Y-105869085D01*
X89684836Y-105869085D02*
X89637217Y-105678609D01*
X89637217Y-105678609D02*
X89541979Y-105583371D01*
X89541979Y-105583371D02*
X89399122Y-105583371D01*
X89399122Y-105583371D02*
X89303884Y-105488133D01*
X89303884Y-105488133D02*
X89256265Y-105297657D01*
X89256265Y-105297657D02*
X89256265Y-105202419D01*
X89256265Y-105202419D02*
X89303884Y-105011942D01*
X89303884Y-105011942D02*
X89399122Y-104916704D01*
X89399122Y-104916704D02*
X89541979Y-104916704D01*
X89541979Y-104916704D02*
X89637217Y-105011942D01*
X89970551Y-104916704D02*
X90351503Y-104916704D01*
X90113408Y-104250038D02*
X90113408Y-105964323D01*
X90113408Y-105964323D02*
X90161027Y-106154800D01*
X90161027Y-106154800D02*
X90256265Y-106250038D01*
X90256265Y-106250038D02*
X90351503Y-106250038D01*
X91065789Y-106154800D02*
X90970551Y-106250038D01*
X90970551Y-106250038D02*
X90780075Y-106250038D01*
X90780075Y-106250038D02*
X90684837Y-106154800D01*
X90684837Y-106154800D02*
X90637218Y-105964323D01*
X90637218Y-105964323D02*
X90637218Y-105202419D01*
X90637218Y-105202419D02*
X90684837Y-105011942D01*
X90684837Y-105011942D02*
X90780075Y-104916704D01*
X90780075Y-104916704D02*
X90970551Y-104916704D01*
X90970551Y-104916704D02*
X91065789Y-105011942D01*
X91065789Y-105011942D02*
X91113408Y-105202419D01*
X91113408Y-105202419D02*
X91113408Y-105392895D01*
X91113408Y-105392895D02*
X90637218Y-105583371D01*
X91541980Y-104916704D02*
X91541980Y-106250038D01*
X91541980Y-105107180D02*
X91589599Y-105011942D01*
X91589599Y-105011942D02*
X91684837Y-104916704D01*
X91684837Y-104916704D02*
X91827694Y-104916704D01*
X91827694Y-104916704D02*
X91922932Y-105011942D01*
X91922932Y-105011942D02*
X91970551Y-105202419D01*
X91970551Y-105202419D02*
X91970551Y-106250038D01*
X92589599Y-106250038D02*
X92494361Y-106154800D01*
X92494361Y-106154800D02*
X92446742Y-106059561D01*
X92446742Y-106059561D02*
X92399123Y-105869085D01*
X92399123Y-105869085D02*
X92399123Y-105297657D01*
X92399123Y-105297657D02*
X92446742Y-105107180D01*
X92446742Y-105107180D02*
X92494361Y-105011942D01*
X92494361Y-105011942D02*
X92589599Y-104916704D01*
X92589599Y-104916704D02*
X92732456Y-104916704D01*
X92732456Y-104916704D02*
X92827694Y-105011942D01*
X92827694Y-105011942D02*
X92875313Y-105107180D01*
X92875313Y-105107180D02*
X92922932Y-105297657D01*
X92922932Y-105297657D02*
X92922932Y-105869085D01*
X92922932Y-105869085D02*
X92875313Y-106059561D01*
X92875313Y-106059561D02*
X92827694Y-106154800D01*
X92827694Y-106154800D02*
X92732456Y-106250038D01*
X92732456Y-106250038D02*
X92589599Y-106250038D01*
X93351504Y-106250038D02*
X93351504Y-104916704D01*
X93351504Y-105107180D02*
X93399123Y-105011942D01*
X93399123Y-105011942D02*
X93494361Y-104916704D01*
X93494361Y-104916704D02*
X93637218Y-104916704D01*
X93637218Y-104916704D02*
X93732456Y-105011942D01*
X93732456Y-105011942D02*
X93780075Y-105202419D01*
X93780075Y-105202419D02*
X93780075Y-106250038D01*
X93780075Y-105202419D02*
X93827694Y-105011942D01*
X93827694Y-105011942D02*
X93922932Y-104916704D01*
X93922932Y-104916704D02*
X94065789Y-104916704D01*
X94065789Y-104916704D02*
X94161028Y-105011942D01*
X94161028Y-105011942D02*
X94208647Y-105202419D01*
X94208647Y-105202419D02*
X94208647Y-106250038D01*
X95113408Y-106250038D02*
X95113408Y-105202419D01*
X95113408Y-105202419D02*
X95065789Y-105011942D01*
X95065789Y-105011942D02*
X94970551Y-104916704D01*
X94970551Y-104916704D02*
X94780075Y-104916704D01*
X94780075Y-104916704D02*
X94684837Y-105011942D01*
X95113408Y-106154800D02*
X95018170Y-106250038D01*
X95018170Y-106250038D02*
X94780075Y-106250038D01*
X94780075Y-106250038D02*
X94684837Y-106154800D01*
X94684837Y-106154800D02*
X94637218Y-105964323D01*
X94637218Y-105964323D02*
X94637218Y-105773847D01*
X94637218Y-105773847D02*
X94684837Y-105583371D01*
X94684837Y-105583371D02*
X94780075Y-105488133D01*
X94780075Y-105488133D02*
X95018170Y-105488133D01*
X95018170Y-105488133D02*
X95113408Y-105392895D01*
X95446742Y-104916704D02*
X95827694Y-104916704D01*
X95589599Y-104250038D02*
X95589599Y-105964323D01*
X95589599Y-105964323D02*
X95637218Y-106154800D01*
X95637218Y-106154800D02*
X95732456Y-106250038D01*
X95732456Y-106250038D02*
X95827694Y-106250038D01*
X96161028Y-106250038D02*
X96161028Y-104916704D01*
X96161028Y-104250038D02*
X96113409Y-104345276D01*
X96113409Y-104345276D02*
X96161028Y-104440514D01*
X96161028Y-104440514D02*
X96208647Y-104345276D01*
X96208647Y-104345276D02*
X96161028Y-104250038D01*
X96161028Y-104250038D02*
X96161028Y-104440514D01*
X97065789Y-106154800D02*
X96970551Y-106250038D01*
X96970551Y-106250038D02*
X96780075Y-106250038D01*
X96780075Y-106250038D02*
X96684837Y-106154800D01*
X96684837Y-106154800D02*
X96637218Y-106059561D01*
X96637218Y-106059561D02*
X96589599Y-105869085D01*
X96589599Y-105869085D02*
X96589599Y-105297657D01*
X96589599Y-105297657D02*
X96637218Y-105107180D01*
X96637218Y-105107180D02*
X96684837Y-105011942D01*
X96684837Y-105011942D02*
X96780075Y-104916704D01*
X96780075Y-104916704D02*
X96970551Y-104916704D01*
X96970551Y-104916704D02*
X97065789Y-105011942D01*
X98161028Y-104916704D02*
X98399123Y-106250038D01*
X98399123Y-106250038D02*
X98637218Y-104916704D01*
X99541980Y-106250038D02*
X98970552Y-106250038D01*
X99256266Y-106250038D02*
X99256266Y-104250038D01*
X99256266Y-104250038D02*
X99161028Y-104535752D01*
X99161028Y-104535752D02*
X99065790Y-104726228D01*
X99065790Y-104726228D02*
X98970552Y-104821466D01*
X99970552Y-106059561D02*
X100018171Y-106154800D01*
X100018171Y-106154800D02*
X99970552Y-106250038D01*
X99970552Y-106250038D02*
X99922933Y-106154800D01*
X99922933Y-106154800D02*
X99970552Y-106059561D01*
X99970552Y-106059561D02*
X99970552Y-106250038D01*
X100970551Y-106250038D02*
X100399123Y-106250038D01*
X100684837Y-106250038D02*
X100684837Y-104250038D01*
X100684837Y-104250038D02*
X100589599Y-104535752D01*
X100589599Y-104535752D02*
X100494361Y-104726228D01*
X100494361Y-104726228D02*
X100399123Y-104821466D01*
X102161028Y-106250038D02*
X102161028Y-104250038D01*
X102161028Y-105011942D02*
X102256266Y-104916704D01*
X102256266Y-104916704D02*
X102446742Y-104916704D01*
X102446742Y-104916704D02*
X102541980Y-105011942D01*
X102541980Y-105011942D02*
X102589599Y-105107180D01*
X102589599Y-105107180D02*
X102637218Y-105297657D01*
X102637218Y-105297657D02*
X102637218Y-105869085D01*
X102637218Y-105869085D02*
X102589599Y-106059561D01*
X102589599Y-106059561D02*
X102541980Y-106154800D01*
X102541980Y-106154800D02*
X102446742Y-106250038D01*
X102446742Y-106250038D02*
X102256266Y-106250038D01*
X102256266Y-106250038D02*
X102161028Y-106154800D01*
X102970552Y-104916704D02*
X103208647Y-106250038D01*
X103446742Y-104916704D02*
X103208647Y-106250038D01*
X103208647Y-106250038D02*
X103113409Y-106726228D01*
X103113409Y-106726228D02*
X103065790Y-106821466D01*
X103065790Y-106821466D02*
X102970552Y-106916704D01*
X104541981Y-106154800D02*
X104637219Y-106250038D01*
X104637219Y-106250038D02*
X104827695Y-106250038D01*
X104827695Y-106250038D02*
X104922933Y-106154800D01*
X104922933Y-106154800D02*
X104970552Y-105964323D01*
X104970552Y-105964323D02*
X104970552Y-105869085D01*
X104970552Y-105869085D02*
X104922933Y-105678609D01*
X104922933Y-105678609D02*
X104827695Y-105583371D01*
X104827695Y-105583371D02*
X104684838Y-105583371D01*
X104684838Y-105583371D02*
X104589600Y-105488133D01*
X104589600Y-105488133D02*
X104541981Y-105297657D01*
X104541981Y-105297657D02*
X104541981Y-105202419D01*
X104541981Y-105202419D02*
X104589600Y-105011942D01*
X104589600Y-105011942D02*
X104684838Y-104916704D01*
X104684838Y-104916704D02*
X104827695Y-104916704D01*
X104827695Y-104916704D02*
X104922933Y-105011942D01*
X105827695Y-106154800D02*
X105732457Y-106250038D01*
X105732457Y-106250038D02*
X105541981Y-106250038D01*
X105541981Y-106250038D02*
X105446743Y-106154800D01*
X105446743Y-106154800D02*
X105399124Y-106059561D01*
X105399124Y-106059561D02*
X105351505Y-105869085D01*
X105351505Y-105869085D02*
X105351505Y-105297657D01*
X105351505Y-105297657D02*
X105399124Y-105107180D01*
X105399124Y-105107180D02*
X105446743Y-105011942D01*
X105446743Y-105011942D02*
X105541981Y-104916704D01*
X105541981Y-104916704D02*
X105732457Y-104916704D01*
X105732457Y-104916704D02*
X105827695Y-105011942D01*
X106684838Y-106250038D02*
X106684838Y-105202419D01*
X106684838Y-105202419D02*
X106637219Y-105011942D01*
X106637219Y-105011942D02*
X106541981Y-104916704D01*
X106541981Y-104916704D02*
X106351505Y-104916704D01*
X106351505Y-104916704D02*
X106256267Y-105011942D01*
X106684838Y-106154800D02*
X106589600Y-106250038D01*
X106589600Y-106250038D02*
X106351505Y-106250038D01*
X106351505Y-106250038D02*
X106256267Y-106154800D01*
X106256267Y-106154800D02*
X106208648Y-105964323D01*
X106208648Y-105964323D02*
X106208648Y-105773847D01*
X106208648Y-105773847D02*
X106256267Y-105583371D01*
X106256267Y-105583371D02*
X106351505Y-105488133D01*
X106351505Y-105488133D02*
X106589600Y-105488133D01*
X106589600Y-105488133D02*
X106684838Y-105392895D01*
X107161029Y-106250038D02*
X107161029Y-104916704D01*
X107161029Y-105297657D02*
X107208648Y-105107180D01*
X107208648Y-105107180D02*
X107256267Y-105011942D01*
X107256267Y-105011942D02*
X107351505Y-104916704D01*
X107351505Y-104916704D02*
X107446743Y-104916704D01*
X107922934Y-106250038D02*
X107827696Y-106154800D01*
X107827696Y-106154800D02*
X107780077Y-105964323D01*
X107780077Y-105964323D02*
X107780077Y-104250038D01*
X108684839Y-106154800D02*
X108589601Y-106250038D01*
X108589601Y-106250038D02*
X108399125Y-106250038D01*
X108399125Y-106250038D02*
X108303887Y-106154800D01*
X108303887Y-106154800D02*
X108256268Y-105964323D01*
X108256268Y-105964323D02*
X108256268Y-105202419D01*
X108256268Y-105202419D02*
X108303887Y-105011942D01*
X108303887Y-105011942D02*
X108399125Y-104916704D01*
X108399125Y-104916704D02*
X108589601Y-104916704D01*
X108589601Y-104916704D02*
X108684839Y-105011942D01*
X108684839Y-105011942D02*
X108732458Y-105202419D01*
X108732458Y-105202419D02*
X108732458Y-105392895D01*
X108732458Y-105392895D02*
X108256268Y-105583371D01*
X109018173Y-104916704D02*
X109399125Y-104916704D01*
X109161030Y-104250038D02*
X109161030Y-105964323D01*
X109161030Y-105964323D02*
X109208649Y-106154800D01*
X109208649Y-106154800D02*
X109303887Y-106250038D01*
X109303887Y-106250038D02*
X109399125Y-106250038D01*
X109589602Y-104916704D02*
X109970554Y-104916704D01*
X109732459Y-104250038D02*
X109732459Y-105964323D01*
X109732459Y-105964323D02*
X109780078Y-106154800D01*
X109780078Y-106154800D02*
X109875316Y-106250038D01*
X109875316Y-106250038D02*
X109970554Y-106250038D01*
X110684840Y-106154800D02*
X110589602Y-106250038D01*
X110589602Y-106250038D02*
X110399126Y-106250038D01*
X110399126Y-106250038D02*
X110303888Y-106154800D01*
X110303888Y-106154800D02*
X110256269Y-105964323D01*
X110256269Y-105964323D02*
X110256269Y-105202419D01*
X110256269Y-105202419D02*
X110303888Y-105011942D01*
X110303888Y-105011942D02*
X110399126Y-104916704D01*
X110399126Y-104916704D02*
X110589602Y-104916704D01*
X110589602Y-104916704D02*
X110684840Y-105011942D01*
X110684840Y-105011942D02*
X110732459Y-105202419D01*
X110732459Y-105202419D02*
X110732459Y-105392895D01*
X110732459Y-105392895D02*
X110256269Y-105583371D01*
X111161031Y-106250038D02*
X111161031Y-104250038D01*
X111256269Y-105488133D02*
X111541983Y-106250038D01*
X111541983Y-104916704D02*
X111161031Y-105678609D01*
X111970555Y-106250038D02*
X111970555Y-104250038D01*
X112065793Y-105488133D02*
X112351507Y-106250038D01*
X112351507Y-104916704D02*
X111970555Y-105678609D01*
G36*
X113846545Y-106015896D02*
G01*
X113794675Y-105932453D01*
X113728517Y-105848819D01*
X113648072Y-105764994D01*
X113573429Y-105697797D01*
X113489642Y-105630477D01*
X113396711Y-105563036D01*
X113294637Y-105495472D01*
X113267690Y-105478562D01*
X113188509Y-105419798D01*
X113121831Y-105344281D01*
X113077180Y-105248668D01*
X113064480Y-105154207D01*
X113074640Y-105056736D01*
X113093300Y-104992030D01*
X113140584Y-104903721D01*
X113179762Y-104856231D01*
X113255058Y-104793148D01*
X113306280Y-104763907D01*
X113401519Y-104736338D01*
X113455268Y-104732644D01*
X113556007Y-104746108D01*
X113604745Y-104763907D01*
X113687978Y-104815542D01*
X113732240Y-104856231D01*
X113791316Y-104936297D01*
X113817236Y-104992030D01*
X113842424Y-105090185D01*
X113846545Y-105154207D01*
X113857050Y-105054616D01*
X113876343Y-104992030D01*
X113923932Y-104902347D01*
X113961828Y-104856231D01*
X114037963Y-104792461D01*
X114089323Y-104763907D01*
X114184562Y-104736338D01*
X114238311Y-104732644D01*
X114339049Y-104746108D01*
X114387787Y-104763907D01*
X114470448Y-104816229D01*
X114513817Y-104856231D01*
X114575030Y-104937671D01*
X114600767Y-104992030D01*
X114624831Y-105087145D01*
X114629588Y-105154207D01*
X114613475Y-105261034D01*
X114565136Y-105355651D01*
X114495115Y-105429503D01*
X114425889Y-105478562D01*
X114321628Y-105546156D01*
X114226465Y-105613628D01*
X114140400Y-105680978D01*
X114063433Y-105748206D01*
X113980018Y-105832069D01*
X113910819Y-105915741D01*
X113855836Y-105999223D01*
X113846545Y-106015896D01*
G37*
D11*
X72285714Y-43424819D02*
X72285714Y-42424819D01*
X72285714Y-42424819D02*
X72523809Y-42424819D01*
X72523809Y-42424819D02*
X72666666Y-42472438D01*
X72666666Y-42472438D02*
X72761904Y-42567676D01*
X72761904Y-42567676D02*
X72809523Y-42662914D01*
X72809523Y-42662914D02*
X72857142Y-42853390D01*
X72857142Y-42853390D02*
X72857142Y-42996247D01*
X72857142Y-42996247D02*
X72809523Y-43186723D01*
X72809523Y-43186723D02*
X72761904Y-43281961D01*
X72761904Y-43281961D02*
X72666666Y-43377200D01*
X72666666Y-43377200D02*
X72523809Y-43424819D01*
X72523809Y-43424819D02*
X72285714Y-43424819D01*
X73238095Y-42520057D02*
X73285714Y-42472438D01*
X73285714Y-42472438D02*
X73380952Y-42424819D01*
X73380952Y-42424819D02*
X73619047Y-42424819D01*
X73619047Y-42424819D02*
X73714285Y-42472438D01*
X73714285Y-42472438D02*
X73761904Y-42520057D01*
X73761904Y-42520057D02*
X73809523Y-42615295D01*
X73809523Y-42615295D02*
X73809523Y-42710533D01*
X73809523Y-42710533D02*
X73761904Y-42853390D01*
X73761904Y-42853390D02*
X73190476Y-43424819D01*
X73190476Y-43424819D02*
X73809523Y-43424819D01*
X74666666Y-42758152D02*
X74666666Y-43424819D01*
X74428571Y-42377200D02*
X74190476Y-43091485D01*
X74190476Y-43091485D02*
X74809523Y-43091485D01*
X77048095Y-43054819D02*
X77048095Y-42054819D01*
X77619523Y-43054819D02*
X77190952Y-42483390D01*
X77619523Y-42054819D02*
X77048095Y-42626247D01*
X151785714Y-49984819D02*
X151785714Y-48984819D01*
X151785714Y-48984819D02*
X152023809Y-48984819D01*
X152023809Y-48984819D02*
X152166666Y-49032438D01*
X152166666Y-49032438D02*
X152261904Y-49127676D01*
X152261904Y-49127676D02*
X152309523Y-49222914D01*
X152309523Y-49222914D02*
X152357142Y-49413390D01*
X152357142Y-49413390D02*
X152357142Y-49556247D01*
X152357142Y-49556247D02*
X152309523Y-49746723D01*
X152309523Y-49746723D02*
X152261904Y-49841961D01*
X152261904Y-49841961D02*
X152166666Y-49937200D01*
X152166666Y-49937200D02*
X152023809Y-49984819D01*
X152023809Y-49984819D02*
X151785714Y-49984819D01*
X152738095Y-49080057D02*
X152785714Y-49032438D01*
X152785714Y-49032438D02*
X152880952Y-48984819D01*
X152880952Y-48984819D02*
X153119047Y-48984819D01*
X153119047Y-48984819D02*
X153214285Y-49032438D01*
X153214285Y-49032438D02*
X153261904Y-49080057D01*
X153261904Y-49080057D02*
X153309523Y-49175295D01*
X153309523Y-49175295D02*
X153309523Y-49270533D01*
X153309523Y-49270533D02*
X153261904Y-49413390D01*
X153261904Y-49413390D02*
X152690476Y-49984819D01*
X152690476Y-49984819D02*
X153309523Y-49984819D01*
X153642857Y-48984819D02*
X154261904Y-48984819D01*
X154261904Y-48984819D02*
X153928571Y-49365771D01*
X153928571Y-49365771D02*
X154071428Y-49365771D01*
X154071428Y-49365771D02*
X154166666Y-49413390D01*
X154166666Y-49413390D02*
X154214285Y-49461009D01*
X154214285Y-49461009D02*
X154261904Y-49556247D01*
X154261904Y-49556247D02*
X154261904Y-49794342D01*
X154261904Y-49794342D02*
X154214285Y-49889580D01*
X154214285Y-49889580D02*
X154166666Y-49937200D01*
X154166666Y-49937200D02*
X154071428Y-49984819D01*
X154071428Y-49984819D02*
X153785714Y-49984819D01*
X153785714Y-49984819D02*
X153690476Y-49937200D01*
X153690476Y-49937200D02*
X153642857Y-49889580D01*
X148928095Y-50354819D02*
X148928095Y-49354819D01*
X149499523Y-50354819D02*
X149070952Y-49783390D01*
X149499523Y-49354819D02*
X148928095Y-49926247D01*
X90785714Y-99924819D02*
X90785714Y-98924819D01*
X90785714Y-98924819D02*
X91023809Y-98924819D01*
X91023809Y-98924819D02*
X91166666Y-98972438D01*
X91166666Y-98972438D02*
X91261904Y-99067676D01*
X91261904Y-99067676D02*
X91309523Y-99162914D01*
X91309523Y-99162914D02*
X91357142Y-99353390D01*
X91357142Y-99353390D02*
X91357142Y-99496247D01*
X91357142Y-99496247D02*
X91309523Y-99686723D01*
X91309523Y-99686723D02*
X91261904Y-99781961D01*
X91261904Y-99781961D02*
X91166666Y-99877200D01*
X91166666Y-99877200D02*
X91023809Y-99924819D01*
X91023809Y-99924819D02*
X90785714Y-99924819D01*
X91738095Y-99020057D02*
X91785714Y-98972438D01*
X91785714Y-98972438D02*
X91880952Y-98924819D01*
X91880952Y-98924819D02*
X92119047Y-98924819D01*
X92119047Y-98924819D02*
X92214285Y-98972438D01*
X92214285Y-98972438D02*
X92261904Y-99020057D01*
X92261904Y-99020057D02*
X92309523Y-99115295D01*
X92309523Y-99115295D02*
X92309523Y-99210533D01*
X92309523Y-99210533D02*
X92261904Y-99353390D01*
X92261904Y-99353390D02*
X91690476Y-99924819D01*
X91690476Y-99924819D02*
X92309523Y-99924819D01*
X92690476Y-99020057D02*
X92738095Y-98972438D01*
X92738095Y-98972438D02*
X92833333Y-98924819D01*
X92833333Y-98924819D02*
X93071428Y-98924819D01*
X93071428Y-98924819D02*
X93166666Y-98972438D01*
X93166666Y-98972438D02*
X93214285Y-99020057D01*
X93214285Y-99020057D02*
X93261904Y-99115295D01*
X93261904Y-99115295D02*
X93261904Y-99210533D01*
X93261904Y-99210533D02*
X93214285Y-99353390D01*
X93214285Y-99353390D02*
X92642857Y-99924819D01*
X92642857Y-99924819D02*
X93261904Y-99924819D01*
X95548095Y-99554819D02*
X95548095Y-98554819D01*
X96119523Y-99554819D02*
X95690952Y-98983390D01*
X96119523Y-98554819D02*
X95548095Y-99126247D01*
X199984819Y-42714285D02*
X198984819Y-42714285D01*
X198984819Y-42714285D02*
X198984819Y-42476190D01*
X198984819Y-42476190D02*
X199032438Y-42333333D01*
X199032438Y-42333333D02*
X199127676Y-42238095D01*
X199127676Y-42238095D02*
X199222914Y-42190476D01*
X199222914Y-42190476D02*
X199413390Y-42142857D01*
X199413390Y-42142857D02*
X199556247Y-42142857D01*
X199556247Y-42142857D02*
X199746723Y-42190476D01*
X199746723Y-42190476D02*
X199841961Y-42238095D01*
X199841961Y-42238095D02*
X199937200Y-42333333D01*
X199937200Y-42333333D02*
X199984819Y-42476190D01*
X199984819Y-42476190D02*
X199984819Y-42714285D01*
X199080057Y-41761904D02*
X199032438Y-41714285D01*
X199032438Y-41714285D02*
X198984819Y-41619047D01*
X198984819Y-41619047D02*
X198984819Y-41380952D01*
X198984819Y-41380952D02*
X199032438Y-41285714D01*
X199032438Y-41285714D02*
X199080057Y-41238095D01*
X199080057Y-41238095D02*
X199175295Y-41190476D01*
X199175295Y-41190476D02*
X199270533Y-41190476D01*
X199270533Y-41190476D02*
X199413390Y-41238095D01*
X199413390Y-41238095D02*
X199984819Y-41809523D01*
X199984819Y-41809523D02*
X199984819Y-41190476D01*
X199984819Y-40238095D02*
X199984819Y-40809523D01*
X199984819Y-40523809D02*
X198984819Y-40523809D01*
X198984819Y-40523809D02*
X199127676Y-40619047D01*
X199127676Y-40619047D02*
X199222914Y-40714285D01*
X199222914Y-40714285D02*
X199270533Y-40809523D01*
X200354819Y-45571904D02*
X199354819Y-45571904D01*
X200354819Y-45000476D02*
X199783390Y-45429047D01*
X199354819Y-45000476D02*
X199926247Y-45571904D01*
X205285714Y-99424819D02*
X205285714Y-98424819D01*
X205285714Y-98424819D02*
X205523809Y-98424819D01*
X205523809Y-98424819D02*
X205666666Y-98472438D01*
X205666666Y-98472438D02*
X205761904Y-98567676D01*
X205761904Y-98567676D02*
X205809523Y-98662914D01*
X205809523Y-98662914D02*
X205857142Y-98853390D01*
X205857142Y-98853390D02*
X205857142Y-98996247D01*
X205857142Y-98996247D02*
X205809523Y-99186723D01*
X205809523Y-99186723D02*
X205761904Y-99281961D01*
X205761904Y-99281961D02*
X205666666Y-99377200D01*
X205666666Y-99377200D02*
X205523809Y-99424819D01*
X205523809Y-99424819D02*
X205285714Y-99424819D01*
X206238095Y-98520057D02*
X206285714Y-98472438D01*
X206285714Y-98472438D02*
X206380952Y-98424819D01*
X206380952Y-98424819D02*
X206619047Y-98424819D01*
X206619047Y-98424819D02*
X206714285Y-98472438D01*
X206714285Y-98472438D02*
X206761904Y-98520057D01*
X206761904Y-98520057D02*
X206809523Y-98615295D01*
X206809523Y-98615295D02*
X206809523Y-98710533D01*
X206809523Y-98710533D02*
X206761904Y-98853390D01*
X206761904Y-98853390D02*
X206190476Y-99424819D01*
X206190476Y-99424819D02*
X206809523Y-99424819D01*
X207428571Y-98424819D02*
X207523809Y-98424819D01*
X207523809Y-98424819D02*
X207619047Y-98472438D01*
X207619047Y-98472438D02*
X207666666Y-98520057D01*
X207666666Y-98520057D02*
X207714285Y-98615295D01*
X207714285Y-98615295D02*
X207761904Y-98805771D01*
X207761904Y-98805771D02*
X207761904Y-99043866D01*
X207761904Y-99043866D02*
X207714285Y-99234342D01*
X207714285Y-99234342D02*
X207666666Y-99329580D01*
X207666666Y-99329580D02*
X207619047Y-99377200D01*
X207619047Y-99377200D02*
X207523809Y-99424819D01*
X207523809Y-99424819D02*
X207428571Y-99424819D01*
X207428571Y-99424819D02*
X207333333Y-99377200D01*
X207333333Y-99377200D02*
X207285714Y-99329580D01*
X207285714Y-99329580D02*
X207238095Y-99234342D01*
X207238095Y-99234342D02*
X207190476Y-99043866D01*
X207190476Y-99043866D02*
X207190476Y-98805771D01*
X207190476Y-98805771D02*
X207238095Y-98615295D01*
X207238095Y-98615295D02*
X207285714Y-98520057D01*
X207285714Y-98520057D02*
X207333333Y-98472438D01*
X207333333Y-98472438D02*
X207428571Y-98424819D01*
X210048095Y-99054819D02*
X210048095Y-98054819D01*
X210619523Y-99054819D02*
X210190952Y-98483390D01*
X210619523Y-98054819D02*
X210048095Y-98626247D01*
X102785714Y-55424819D02*
X102785714Y-54424819D01*
X102785714Y-54424819D02*
X103023809Y-54424819D01*
X103023809Y-54424819D02*
X103166666Y-54472438D01*
X103166666Y-54472438D02*
X103261904Y-54567676D01*
X103261904Y-54567676D02*
X103309523Y-54662914D01*
X103309523Y-54662914D02*
X103357142Y-54853390D01*
X103357142Y-54853390D02*
X103357142Y-54996247D01*
X103357142Y-54996247D02*
X103309523Y-55186723D01*
X103309523Y-55186723D02*
X103261904Y-55281961D01*
X103261904Y-55281961D02*
X103166666Y-55377200D01*
X103166666Y-55377200D02*
X103023809Y-55424819D01*
X103023809Y-55424819D02*
X102785714Y-55424819D01*
X104309523Y-55424819D02*
X103738095Y-55424819D01*
X104023809Y-55424819D02*
X104023809Y-54424819D01*
X104023809Y-54424819D02*
X103928571Y-54567676D01*
X103928571Y-54567676D02*
X103833333Y-54662914D01*
X103833333Y-54662914D02*
X103738095Y-54710533D01*
X104785714Y-55424819D02*
X104976190Y-55424819D01*
X104976190Y-55424819D02*
X105071428Y-55377200D01*
X105071428Y-55377200D02*
X105119047Y-55329580D01*
X105119047Y-55329580D02*
X105214285Y-55186723D01*
X105214285Y-55186723D02*
X105261904Y-54996247D01*
X105261904Y-54996247D02*
X105261904Y-54615295D01*
X105261904Y-54615295D02*
X105214285Y-54520057D01*
X105214285Y-54520057D02*
X105166666Y-54472438D01*
X105166666Y-54472438D02*
X105071428Y-54424819D01*
X105071428Y-54424819D02*
X104880952Y-54424819D01*
X104880952Y-54424819D02*
X104785714Y-54472438D01*
X104785714Y-54472438D02*
X104738095Y-54520057D01*
X104738095Y-54520057D02*
X104690476Y-54615295D01*
X104690476Y-54615295D02*
X104690476Y-54853390D01*
X104690476Y-54853390D02*
X104738095Y-54948628D01*
X104738095Y-54948628D02*
X104785714Y-54996247D01*
X104785714Y-54996247D02*
X104880952Y-55043866D01*
X104880952Y-55043866D02*
X105071428Y-55043866D01*
X105071428Y-55043866D02*
X105166666Y-54996247D01*
X105166666Y-54996247D02*
X105214285Y-54948628D01*
X105214285Y-54948628D02*
X105261904Y-54853390D01*
X107548095Y-55054819D02*
X107548095Y-54054819D01*
X108119523Y-55054819D02*
X107690952Y-54483390D01*
X108119523Y-54054819D02*
X107548095Y-54626247D01*
X151285714Y-99924819D02*
X151285714Y-98924819D01*
X151285714Y-98924819D02*
X151523809Y-98924819D01*
X151523809Y-98924819D02*
X151666666Y-98972438D01*
X151666666Y-98972438D02*
X151761904Y-99067676D01*
X151761904Y-99067676D02*
X151809523Y-99162914D01*
X151809523Y-99162914D02*
X151857142Y-99353390D01*
X151857142Y-99353390D02*
X151857142Y-99496247D01*
X151857142Y-99496247D02*
X151809523Y-99686723D01*
X151809523Y-99686723D02*
X151761904Y-99781961D01*
X151761904Y-99781961D02*
X151666666Y-99877200D01*
X151666666Y-99877200D02*
X151523809Y-99924819D01*
X151523809Y-99924819D02*
X151285714Y-99924819D01*
X152809523Y-99924819D02*
X152238095Y-99924819D01*
X152523809Y-99924819D02*
X152523809Y-98924819D01*
X152523809Y-98924819D02*
X152428571Y-99067676D01*
X152428571Y-99067676D02*
X152333333Y-99162914D01*
X152333333Y-99162914D02*
X152238095Y-99210533D01*
X153380952Y-99353390D02*
X153285714Y-99305771D01*
X153285714Y-99305771D02*
X153238095Y-99258152D01*
X153238095Y-99258152D02*
X153190476Y-99162914D01*
X153190476Y-99162914D02*
X153190476Y-99115295D01*
X153190476Y-99115295D02*
X153238095Y-99020057D01*
X153238095Y-99020057D02*
X153285714Y-98972438D01*
X153285714Y-98972438D02*
X153380952Y-98924819D01*
X153380952Y-98924819D02*
X153571428Y-98924819D01*
X153571428Y-98924819D02*
X153666666Y-98972438D01*
X153666666Y-98972438D02*
X153714285Y-99020057D01*
X153714285Y-99020057D02*
X153761904Y-99115295D01*
X153761904Y-99115295D02*
X153761904Y-99162914D01*
X153761904Y-99162914D02*
X153714285Y-99258152D01*
X153714285Y-99258152D02*
X153666666Y-99305771D01*
X153666666Y-99305771D02*
X153571428Y-99353390D01*
X153571428Y-99353390D02*
X153380952Y-99353390D01*
X153380952Y-99353390D02*
X153285714Y-99401009D01*
X153285714Y-99401009D02*
X153238095Y-99448628D01*
X153238095Y-99448628D02*
X153190476Y-99543866D01*
X153190476Y-99543866D02*
X153190476Y-99734342D01*
X153190476Y-99734342D02*
X153238095Y-99829580D01*
X153238095Y-99829580D02*
X153285714Y-99877200D01*
X153285714Y-99877200D02*
X153380952Y-99924819D01*
X153380952Y-99924819D02*
X153571428Y-99924819D01*
X153571428Y-99924819D02*
X153666666Y-99877200D01*
X153666666Y-99877200D02*
X153714285Y-99829580D01*
X153714285Y-99829580D02*
X153761904Y-99734342D01*
X153761904Y-99734342D02*
X153761904Y-99543866D01*
X153761904Y-99543866D02*
X153714285Y-99448628D01*
X153714285Y-99448628D02*
X153666666Y-99401009D01*
X153666666Y-99401009D02*
X153571428Y-99353390D01*
X156048095Y-99554819D02*
X156048095Y-98554819D01*
X156619523Y-99554819D02*
X156190952Y-98983390D01*
X156619523Y-98554819D02*
X156048095Y-99126247D01*
X206785714Y-48984819D02*
X206785714Y-47984819D01*
X206785714Y-47984819D02*
X207023809Y-47984819D01*
X207023809Y-47984819D02*
X207166666Y-48032438D01*
X207166666Y-48032438D02*
X207261904Y-48127676D01*
X207261904Y-48127676D02*
X207309523Y-48222914D01*
X207309523Y-48222914D02*
X207357142Y-48413390D01*
X207357142Y-48413390D02*
X207357142Y-48556247D01*
X207357142Y-48556247D02*
X207309523Y-48746723D01*
X207309523Y-48746723D02*
X207261904Y-48841961D01*
X207261904Y-48841961D02*
X207166666Y-48937200D01*
X207166666Y-48937200D02*
X207023809Y-48984819D01*
X207023809Y-48984819D02*
X206785714Y-48984819D01*
X208309523Y-48984819D02*
X207738095Y-48984819D01*
X208023809Y-48984819D02*
X208023809Y-47984819D01*
X208023809Y-47984819D02*
X207928571Y-48127676D01*
X207928571Y-48127676D02*
X207833333Y-48222914D01*
X207833333Y-48222914D02*
X207738095Y-48270533D01*
X208642857Y-47984819D02*
X209309523Y-47984819D01*
X209309523Y-47984819D02*
X208880952Y-48984819D01*
X203928095Y-49354819D02*
X203928095Y-48354819D01*
X204499523Y-49354819D02*
X204070952Y-48783390D01*
X204499523Y-48354819D02*
X203928095Y-48926247D01*
X68785714Y-94984819D02*
X68785714Y-93984819D01*
X68785714Y-93984819D02*
X69023809Y-93984819D01*
X69023809Y-93984819D02*
X69166666Y-94032438D01*
X69166666Y-94032438D02*
X69261904Y-94127676D01*
X69261904Y-94127676D02*
X69309523Y-94222914D01*
X69309523Y-94222914D02*
X69357142Y-94413390D01*
X69357142Y-94413390D02*
X69357142Y-94556247D01*
X69357142Y-94556247D02*
X69309523Y-94746723D01*
X69309523Y-94746723D02*
X69261904Y-94841961D01*
X69261904Y-94841961D02*
X69166666Y-94937200D01*
X69166666Y-94937200D02*
X69023809Y-94984819D01*
X69023809Y-94984819D02*
X68785714Y-94984819D01*
X70309523Y-94984819D02*
X69738095Y-94984819D01*
X70023809Y-94984819D02*
X70023809Y-93984819D01*
X70023809Y-93984819D02*
X69928571Y-94127676D01*
X69928571Y-94127676D02*
X69833333Y-94222914D01*
X69833333Y-94222914D02*
X69738095Y-94270533D01*
X71166666Y-93984819D02*
X70976190Y-93984819D01*
X70976190Y-93984819D02*
X70880952Y-94032438D01*
X70880952Y-94032438D02*
X70833333Y-94080057D01*
X70833333Y-94080057D02*
X70738095Y-94222914D01*
X70738095Y-94222914D02*
X70690476Y-94413390D01*
X70690476Y-94413390D02*
X70690476Y-94794342D01*
X70690476Y-94794342D02*
X70738095Y-94889580D01*
X70738095Y-94889580D02*
X70785714Y-94937200D01*
X70785714Y-94937200D02*
X70880952Y-94984819D01*
X70880952Y-94984819D02*
X71071428Y-94984819D01*
X71071428Y-94984819D02*
X71166666Y-94937200D01*
X71166666Y-94937200D02*
X71214285Y-94889580D01*
X71214285Y-94889580D02*
X71261904Y-94794342D01*
X71261904Y-94794342D02*
X71261904Y-94556247D01*
X71261904Y-94556247D02*
X71214285Y-94461009D01*
X71214285Y-94461009D02*
X71166666Y-94413390D01*
X71166666Y-94413390D02*
X71071428Y-94365771D01*
X71071428Y-94365771D02*
X70880952Y-94365771D01*
X70880952Y-94365771D02*
X70785714Y-94413390D01*
X70785714Y-94413390D02*
X70738095Y-94461009D01*
X70738095Y-94461009D02*
X70690476Y-94556247D01*
X65928095Y-95354819D02*
X65928095Y-94354819D01*
X66499523Y-95354819D02*
X66070952Y-94783390D01*
X66499523Y-94354819D02*
X65928095Y-94926247D01*
X99785714Y-99954819D02*
X99785714Y-98954819D01*
X99785714Y-98954819D02*
X100023809Y-98954819D01*
X100023809Y-98954819D02*
X100166666Y-99002438D01*
X100166666Y-99002438D02*
X100261904Y-99097676D01*
X100261904Y-99097676D02*
X100309523Y-99192914D01*
X100309523Y-99192914D02*
X100357142Y-99383390D01*
X100357142Y-99383390D02*
X100357142Y-99526247D01*
X100357142Y-99526247D02*
X100309523Y-99716723D01*
X100309523Y-99716723D02*
X100261904Y-99811961D01*
X100261904Y-99811961D02*
X100166666Y-99907200D01*
X100166666Y-99907200D02*
X100023809Y-99954819D01*
X100023809Y-99954819D02*
X99785714Y-99954819D01*
X101309523Y-99954819D02*
X100738095Y-99954819D01*
X101023809Y-99954819D02*
X101023809Y-98954819D01*
X101023809Y-98954819D02*
X100928571Y-99097676D01*
X100928571Y-99097676D02*
X100833333Y-99192914D01*
X100833333Y-99192914D02*
X100738095Y-99240533D01*
X102214285Y-98954819D02*
X101738095Y-98954819D01*
X101738095Y-98954819D02*
X101690476Y-99431009D01*
X101690476Y-99431009D02*
X101738095Y-99383390D01*
X101738095Y-99383390D02*
X101833333Y-99335771D01*
X101833333Y-99335771D02*
X102071428Y-99335771D01*
X102071428Y-99335771D02*
X102166666Y-99383390D01*
X102166666Y-99383390D02*
X102214285Y-99431009D01*
X102214285Y-99431009D02*
X102261904Y-99526247D01*
X102261904Y-99526247D02*
X102261904Y-99764342D01*
X102261904Y-99764342D02*
X102214285Y-99859580D01*
X102214285Y-99859580D02*
X102166666Y-99907200D01*
X102166666Y-99907200D02*
X102071428Y-99954819D01*
X102071428Y-99954819D02*
X101833333Y-99954819D01*
X101833333Y-99954819D02*
X101738095Y-99907200D01*
X101738095Y-99907200D02*
X101690476Y-99859580D01*
X115285714Y-101424819D02*
X115285714Y-100424819D01*
X115285714Y-100424819D02*
X115523809Y-100424819D01*
X115523809Y-100424819D02*
X115666666Y-100472438D01*
X115666666Y-100472438D02*
X115761904Y-100567676D01*
X115761904Y-100567676D02*
X115809523Y-100662914D01*
X115809523Y-100662914D02*
X115857142Y-100853390D01*
X115857142Y-100853390D02*
X115857142Y-100996247D01*
X115857142Y-100996247D02*
X115809523Y-101186723D01*
X115809523Y-101186723D02*
X115761904Y-101281961D01*
X115761904Y-101281961D02*
X115666666Y-101377200D01*
X115666666Y-101377200D02*
X115523809Y-101424819D01*
X115523809Y-101424819D02*
X115285714Y-101424819D01*
X116809523Y-101424819D02*
X116238095Y-101424819D01*
X116523809Y-101424819D02*
X116523809Y-100424819D01*
X116523809Y-100424819D02*
X116428571Y-100567676D01*
X116428571Y-100567676D02*
X116333333Y-100662914D01*
X116333333Y-100662914D02*
X116238095Y-100710533D01*
X117666666Y-100758152D02*
X117666666Y-101424819D01*
X117428571Y-100377200D02*
X117190476Y-101091485D01*
X117190476Y-101091485D02*
X117809523Y-101091485D01*
X120048095Y-101054819D02*
X120048095Y-100054819D01*
X120619523Y-101054819D02*
X120190952Y-100483390D01*
X120619523Y-100054819D02*
X120048095Y-100626247D01*
X130785714Y-58484819D02*
X130785714Y-57484819D01*
X130785714Y-57484819D02*
X131023809Y-57484819D01*
X131023809Y-57484819D02*
X131166666Y-57532438D01*
X131166666Y-57532438D02*
X131261904Y-57627676D01*
X131261904Y-57627676D02*
X131309523Y-57722914D01*
X131309523Y-57722914D02*
X131357142Y-57913390D01*
X131357142Y-57913390D02*
X131357142Y-58056247D01*
X131357142Y-58056247D02*
X131309523Y-58246723D01*
X131309523Y-58246723D02*
X131261904Y-58341961D01*
X131261904Y-58341961D02*
X131166666Y-58437200D01*
X131166666Y-58437200D02*
X131023809Y-58484819D01*
X131023809Y-58484819D02*
X130785714Y-58484819D01*
X132309523Y-58484819D02*
X131738095Y-58484819D01*
X132023809Y-58484819D02*
X132023809Y-57484819D01*
X132023809Y-57484819D02*
X131928571Y-57627676D01*
X131928571Y-57627676D02*
X131833333Y-57722914D01*
X131833333Y-57722914D02*
X131738095Y-57770533D01*
X132642857Y-57484819D02*
X133261904Y-57484819D01*
X133261904Y-57484819D02*
X132928571Y-57865771D01*
X132928571Y-57865771D02*
X133071428Y-57865771D01*
X133071428Y-57865771D02*
X133166666Y-57913390D01*
X133166666Y-57913390D02*
X133214285Y-57961009D01*
X133214285Y-57961009D02*
X133261904Y-58056247D01*
X133261904Y-58056247D02*
X133261904Y-58294342D01*
X133261904Y-58294342D02*
X133214285Y-58389580D01*
X133214285Y-58389580D02*
X133166666Y-58437200D01*
X133166666Y-58437200D02*
X133071428Y-58484819D01*
X133071428Y-58484819D02*
X132785714Y-58484819D01*
X132785714Y-58484819D02*
X132690476Y-58437200D01*
X132690476Y-58437200D02*
X132642857Y-58389580D01*
X127928095Y-58854819D02*
X127928095Y-57854819D01*
X128499523Y-58854819D02*
X128070952Y-58283390D01*
X128499523Y-57854819D02*
X127928095Y-58426247D01*
X160785714Y-103484819D02*
X160785714Y-102484819D01*
X160785714Y-102484819D02*
X161023809Y-102484819D01*
X161023809Y-102484819D02*
X161166666Y-102532438D01*
X161166666Y-102532438D02*
X161261904Y-102627676D01*
X161261904Y-102627676D02*
X161309523Y-102722914D01*
X161309523Y-102722914D02*
X161357142Y-102913390D01*
X161357142Y-102913390D02*
X161357142Y-103056247D01*
X161357142Y-103056247D02*
X161309523Y-103246723D01*
X161309523Y-103246723D02*
X161261904Y-103341961D01*
X161261904Y-103341961D02*
X161166666Y-103437200D01*
X161166666Y-103437200D02*
X161023809Y-103484819D01*
X161023809Y-103484819D02*
X160785714Y-103484819D01*
X162309523Y-103484819D02*
X161738095Y-103484819D01*
X162023809Y-103484819D02*
X162023809Y-102484819D01*
X162023809Y-102484819D02*
X161928571Y-102627676D01*
X161928571Y-102627676D02*
X161833333Y-102722914D01*
X161833333Y-102722914D02*
X161738095Y-102770533D01*
X162690476Y-102580057D02*
X162738095Y-102532438D01*
X162738095Y-102532438D02*
X162833333Y-102484819D01*
X162833333Y-102484819D02*
X163071428Y-102484819D01*
X163071428Y-102484819D02*
X163166666Y-102532438D01*
X163166666Y-102532438D02*
X163214285Y-102580057D01*
X163214285Y-102580057D02*
X163261904Y-102675295D01*
X163261904Y-102675295D02*
X163261904Y-102770533D01*
X163261904Y-102770533D02*
X163214285Y-102913390D01*
X163214285Y-102913390D02*
X162642857Y-103484819D01*
X162642857Y-103484819D02*
X163261904Y-103484819D01*
X157928095Y-103854819D02*
X157928095Y-102854819D01*
X158499523Y-103854819D02*
X158070952Y-103283390D01*
X158499523Y-102854819D02*
X157928095Y-103426247D01*
X129285714Y-84984819D02*
X129285714Y-83984819D01*
X129285714Y-83984819D02*
X129523809Y-83984819D01*
X129523809Y-83984819D02*
X129666666Y-84032438D01*
X129666666Y-84032438D02*
X129761904Y-84127676D01*
X129761904Y-84127676D02*
X129809523Y-84222914D01*
X129809523Y-84222914D02*
X129857142Y-84413390D01*
X129857142Y-84413390D02*
X129857142Y-84556247D01*
X129857142Y-84556247D02*
X129809523Y-84746723D01*
X129809523Y-84746723D02*
X129761904Y-84841961D01*
X129761904Y-84841961D02*
X129666666Y-84937200D01*
X129666666Y-84937200D02*
X129523809Y-84984819D01*
X129523809Y-84984819D02*
X129285714Y-84984819D01*
X130809523Y-84984819D02*
X130238095Y-84984819D01*
X130523809Y-84984819D02*
X130523809Y-83984819D01*
X130523809Y-83984819D02*
X130428571Y-84127676D01*
X130428571Y-84127676D02*
X130333333Y-84222914D01*
X130333333Y-84222914D02*
X130238095Y-84270533D01*
X131761904Y-84984819D02*
X131190476Y-84984819D01*
X131476190Y-84984819D02*
X131476190Y-83984819D01*
X131476190Y-83984819D02*
X131380952Y-84127676D01*
X131380952Y-84127676D02*
X131285714Y-84222914D01*
X131285714Y-84222914D02*
X131190476Y-84270533D01*
X126428095Y-85354819D02*
X126428095Y-84354819D01*
X126999523Y-85354819D02*
X126570952Y-84783390D01*
X126999523Y-84354819D02*
X126428095Y-84926247D01*
X122975714Y-108924819D02*
X122975714Y-107924819D01*
X122975714Y-107924819D02*
X123213809Y-107924819D01*
X123213809Y-107924819D02*
X123356666Y-107972438D01*
X123356666Y-107972438D02*
X123451904Y-108067676D01*
X123451904Y-108067676D02*
X123499523Y-108162914D01*
X123499523Y-108162914D02*
X123547142Y-108353390D01*
X123547142Y-108353390D02*
X123547142Y-108496247D01*
X123547142Y-108496247D02*
X123499523Y-108686723D01*
X123499523Y-108686723D02*
X123451904Y-108781961D01*
X123451904Y-108781961D02*
X123356666Y-108877200D01*
X123356666Y-108877200D02*
X123213809Y-108924819D01*
X123213809Y-108924819D02*
X122975714Y-108924819D01*
X124499523Y-108924819D02*
X123928095Y-108924819D01*
X124213809Y-108924819D02*
X124213809Y-107924819D01*
X124213809Y-107924819D02*
X124118571Y-108067676D01*
X124118571Y-108067676D02*
X124023333Y-108162914D01*
X124023333Y-108162914D02*
X123928095Y-108210533D01*
X125118571Y-107924819D02*
X125213809Y-107924819D01*
X125213809Y-107924819D02*
X125309047Y-107972438D01*
X125309047Y-107972438D02*
X125356666Y-108020057D01*
X125356666Y-108020057D02*
X125404285Y-108115295D01*
X125404285Y-108115295D02*
X125451904Y-108305771D01*
X125451904Y-108305771D02*
X125451904Y-108543866D01*
X125451904Y-108543866D02*
X125404285Y-108734342D01*
X125404285Y-108734342D02*
X125356666Y-108829580D01*
X125356666Y-108829580D02*
X125309047Y-108877200D01*
X125309047Y-108877200D02*
X125213809Y-108924819D01*
X125213809Y-108924819D02*
X125118571Y-108924819D01*
X125118571Y-108924819D02*
X125023333Y-108877200D01*
X125023333Y-108877200D02*
X124975714Y-108829580D01*
X124975714Y-108829580D02*
X124928095Y-108734342D01*
X124928095Y-108734342D02*
X124880476Y-108543866D01*
X124880476Y-108543866D02*
X124880476Y-108305771D01*
X124880476Y-108305771D02*
X124928095Y-108115295D01*
X124928095Y-108115295D02*
X124975714Y-108020057D01*
X124975714Y-108020057D02*
X125023333Y-107972438D01*
X125023333Y-107972438D02*
X125118571Y-107924819D01*
X127738095Y-108554819D02*
X127738095Y-107554819D01*
X128309523Y-108554819D02*
X127880952Y-107983390D01*
X128309523Y-107554819D02*
X127738095Y-108126247D01*
X74484819Y-49738094D02*
X73484819Y-49738094D01*
X73484819Y-49738094D02*
X73484819Y-49499999D01*
X73484819Y-49499999D02*
X73532438Y-49357142D01*
X73532438Y-49357142D02*
X73627676Y-49261904D01*
X73627676Y-49261904D02*
X73722914Y-49214285D01*
X73722914Y-49214285D02*
X73913390Y-49166666D01*
X73913390Y-49166666D02*
X74056247Y-49166666D01*
X74056247Y-49166666D02*
X74246723Y-49214285D01*
X74246723Y-49214285D02*
X74341961Y-49261904D01*
X74341961Y-49261904D02*
X74437200Y-49357142D01*
X74437200Y-49357142D02*
X74484819Y-49499999D01*
X74484819Y-49499999D02*
X74484819Y-49738094D01*
X74484819Y-48690475D02*
X74484819Y-48499999D01*
X74484819Y-48499999D02*
X74437200Y-48404761D01*
X74437200Y-48404761D02*
X74389580Y-48357142D01*
X74389580Y-48357142D02*
X74246723Y-48261904D01*
X74246723Y-48261904D02*
X74056247Y-48214285D01*
X74056247Y-48214285D02*
X73675295Y-48214285D01*
X73675295Y-48214285D02*
X73580057Y-48261904D01*
X73580057Y-48261904D02*
X73532438Y-48309523D01*
X73532438Y-48309523D02*
X73484819Y-48404761D01*
X73484819Y-48404761D02*
X73484819Y-48595237D01*
X73484819Y-48595237D02*
X73532438Y-48690475D01*
X73532438Y-48690475D02*
X73580057Y-48738094D01*
X73580057Y-48738094D02*
X73675295Y-48785713D01*
X73675295Y-48785713D02*
X73913390Y-48785713D01*
X73913390Y-48785713D02*
X74008628Y-48738094D01*
X74008628Y-48738094D02*
X74056247Y-48690475D01*
X74056247Y-48690475D02*
X74103866Y-48595237D01*
X74103866Y-48595237D02*
X74103866Y-48404761D01*
X74103866Y-48404761D02*
X74056247Y-48309523D01*
X74056247Y-48309523D02*
X74008628Y-48261904D01*
X74008628Y-48261904D02*
X73913390Y-48214285D01*
X74854819Y-53071904D02*
X73854819Y-53071904D01*
X74854819Y-52500476D02*
X74283390Y-52929047D01*
X73854819Y-52500476D02*
X74426247Y-53071904D01*
X170261905Y-95484819D02*
X170261905Y-94484819D01*
X170261905Y-94484819D02*
X170500000Y-94484819D01*
X170500000Y-94484819D02*
X170642857Y-94532438D01*
X170642857Y-94532438D02*
X170738095Y-94627676D01*
X170738095Y-94627676D02*
X170785714Y-94722914D01*
X170785714Y-94722914D02*
X170833333Y-94913390D01*
X170833333Y-94913390D02*
X170833333Y-95056247D01*
X170833333Y-95056247D02*
X170785714Y-95246723D01*
X170785714Y-95246723D02*
X170738095Y-95341961D01*
X170738095Y-95341961D02*
X170642857Y-95437200D01*
X170642857Y-95437200D02*
X170500000Y-95484819D01*
X170500000Y-95484819D02*
X170261905Y-95484819D01*
X171404762Y-94913390D02*
X171309524Y-94865771D01*
X171309524Y-94865771D02*
X171261905Y-94818152D01*
X171261905Y-94818152D02*
X171214286Y-94722914D01*
X171214286Y-94722914D02*
X171214286Y-94675295D01*
X171214286Y-94675295D02*
X171261905Y-94580057D01*
X171261905Y-94580057D02*
X171309524Y-94532438D01*
X171309524Y-94532438D02*
X171404762Y-94484819D01*
X171404762Y-94484819D02*
X171595238Y-94484819D01*
X171595238Y-94484819D02*
X171690476Y-94532438D01*
X171690476Y-94532438D02*
X171738095Y-94580057D01*
X171738095Y-94580057D02*
X171785714Y-94675295D01*
X171785714Y-94675295D02*
X171785714Y-94722914D01*
X171785714Y-94722914D02*
X171738095Y-94818152D01*
X171738095Y-94818152D02*
X171690476Y-94865771D01*
X171690476Y-94865771D02*
X171595238Y-94913390D01*
X171595238Y-94913390D02*
X171404762Y-94913390D01*
X171404762Y-94913390D02*
X171309524Y-94961009D01*
X171309524Y-94961009D02*
X171261905Y-95008628D01*
X171261905Y-95008628D02*
X171214286Y-95103866D01*
X171214286Y-95103866D02*
X171214286Y-95294342D01*
X171214286Y-95294342D02*
X171261905Y-95389580D01*
X171261905Y-95389580D02*
X171309524Y-95437200D01*
X171309524Y-95437200D02*
X171404762Y-95484819D01*
X171404762Y-95484819D02*
X171595238Y-95484819D01*
X171595238Y-95484819D02*
X171690476Y-95437200D01*
X171690476Y-95437200D02*
X171738095Y-95389580D01*
X171738095Y-95389580D02*
X171785714Y-95294342D01*
X171785714Y-95294342D02*
X171785714Y-95103866D01*
X171785714Y-95103866D02*
X171738095Y-95008628D01*
X171738095Y-95008628D02*
X171690476Y-94961009D01*
X171690476Y-94961009D02*
X171595238Y-94913390D01*
X166928095Y-95854819D02*
X166928095Y-94854819D01*
X167499523Y-95854819D02*
X167070952Y-95283390D01*
X167499523Y-94854819D02*
X166928095Y-95426247D01*
X172761905Y-49984819D02*
X172761905Y-48984819D01*
X172761905Y-48984819D02*
X173000000Y-48984819D01*
X173000000Y-48984819D02*
X173142857Y-49032438D01*
X173142857Y-49032438D02*
X173238095Y-49127676D01*
X173238095Y-49127676D02*
X173285714Y-49222914D01*
X173285714Y-49222914D02*
X173333333Y-49413390D01*
X173333333Y-49413390D02*
X173333333Y-49556247D01*
X173333333Y-49556247D02*
X173285714Y-49746723D01*
X173285714Y-49746723D02*
X173238095Y-49841961D01*
X173238095Y-49841961D02*
X173142857Y-49937200D01*
X173142857Y-49937200D02*
X173000000Y-49984819D01*
X173000000Y-49984819D02*
X172761905Y-49984819D01*
X173666667Y-48984819D02*
X174333333Y-48984819D01*
X174333333Y-48984819D02*
X173904762Y-49984819D01*
X169428095Y-50354819D02*
X169428095Y-49354819D01*
X169999523Y-50354819D02*
X169570952Y-49783390D01*
X169999523Y-49354819D02*
X169428095Y-49926247D01*
X186071905Y-94984819D02*
X186071905Y-93984819D01*
X186071905Y-93984819D02*
X186310000Y-93984819D01*
X186310000Y-93984819D02*
X186452857Y-94032438D01*
X186452857Y-94032438D02*
X186548095Y-94127676D01*
X186548095Y-94127676D02*
X186595714Y-94222914D01*
X186595714Y-94222914D02*
X186643333Y-94413390D01*
X186643333Y-94413390D02*
X186643333Y-94556247D01*
X186643333Y-94556247D02*
X186595714Y-94746723D01*
X186595714Y-94746723D02*
X186548095Y-94841961D01*
X186548095Y-94841961D02*
X186452857Y-94937200D01*
X186452857Y-94937200D02*
X186310000Y-94984819D01*
X186310000Y-94984819D02*
X186071905Y-94984819D01*
X187500476Y-93984819D02*
X187310000Y-93984819D01*
X187310000Y-93984819D02*
X187214762Y-94032438D01*
X187214762Y-94032438D02*
X187167143Y-94080057D01*
X187167143Y-94080057D02*
X187071905Y-94222914D01*
X187071905Y-94222914D02*
X187024286Y-94413390D01*
X187024286Y-94413390D02*
X187024286Y-94794342D01*
X187024286Y-94794342D02*
X187071905Y-94889580D01*
X187071905Y-94889580D02*
X187119524Y-94937200D01*
X187119524Y-94937200D02*
X187214762Y-94984819D01*
X187214762Y-94984819D02*
X187405238Y-94984819D01*
X187405238Y-94984819D02*
X187500476Y-94937200D01*
X187500476Y-94937200D02*
X187548095Y-94889580D01*
X187548095Y-94889580D02*
X187595714Y-94794342D01*
X187595714Y-94794342D02*
X187595714Y-94556247D01*
X187595714Y-94556247D02*
X187548095Y-94461009D01*
X187548095Y-94461009D02*
X187500476Y-94413390D01*
X187500476Y-94413390D02*
X187405238Y-94365771D01*
X187405238Y-94365771D02*
X187214762Y-94365771D01*
X187214762Y-94365771D02*
X187119524Y-94413390D01*
X187119524Y-94413390D02*
X187071905Y-94461009D01*
X187071905Y-94461009D02*
X187024286Y-94556247D01*
X182738095Y-95354819D02*
X182738095Y-94354819D01*
X183309523Y-95354819D02*
X182880952Y-94783390D01*
X183309523Y-94354819D02*
X182738095Y-94926247D01*
X67261905Y-51484819D02*
X67261905Y-50484819D01*
X67261905Y-50484819D02*
X67500000Y-50484819D01*
X67500000Y-50484819D02*
X67642857Y-50532438D01*
X67642857Y-50532438D02*
X67738095Y-50627676D01*
X67738095Y-50627676D02*
X67785714Y-50722914D01*
X67785714Y-50722914D02*
X67833333Y-50913390D01*
X67833333Y-50913390D02*
X67833333Y-51056247D01*
X67833333Y-51056247D02*
X67785714Y-51246723D01*
X67785714Y-51246723D02*
X67738095Y-51341961D01*
X67738095Y-51341961D02*
X67642857Y-51437200D01*
X67642857Y-51437200D02*
X67500000Y-51484819D01*
X67500000Y-51484819D02*
X67261905Y-51484819D01*
X68738095Y-50484819D02*
X68261905Y-50484819D01*
X68261905Y-50484819D02*
X68214286Y-50961009D01*
X68214286Y-50961009D02*
X68261905Y-50913390D01*
X68261905Y-50913390D02*
X68357143Y-50865771D01*
X68357143Y-50865771D02*
X68595238Y-50865771D01*
X68595238Y-50865771D02*
X68690476Y-50913390D01*
X68690476Y-50913390D02*
X68738095Y-50961009D01*
X68738095Y-50961009D02*
X68785714Y-51056247D01*
X68785714Y-51056247D02*
X68785714Y-51294342D01*
X68785714Y-51294342D02*
X68738095Y-51389580D01*
X68738095Y-51389580D02*
X68690476Y-51437200D01*
X68690476Y-51437200D02*
X68595238Y-51484819D01*
X68595238Y-51484819D02*
X68357143Y-51484819D01*
X68357143Y-51484819D02*
X68261905Y-51437200D01*
X68261905Y-51437200D02*
X68214286Y-51389580D01*
X63928095Y-51854819D02*
X63928095Y-50854819D01*
X64499523Y-51854819D02*
X64070952Y-51283390D01*
X64499523Y-50854819D02*
X63928095Y-51426247D01*
X139761905Y-105924819D02*
X139761905Y-104924819D01*
X139761905Y-104924819D02*
X140000000Y-104924819D01*
X140000000Y-104924819D02*
X140142857Y-104972438D01*
X140142857Y-104972438D02*
X140238095Y-105067676D01*
X140238095Y-105067676D02*
X140285714Y-105162914D01*
X140285714Y-105162914D02*
X140333333Y-105353390D01*
X140333333Y-105353390D02*
X140333333Y-105496247D01*
X140333333Y-105496247D02*
X140285714Y-105686723D01*
X140285714Y-105686723D02*
X140238095Y-105781961D01*
X140238095Y-105781961D02*
X140142857Y-105877200D01*
X140142857Y-105877200D02*
X140000000Y-105924819D01*
X140000000Y-105924819D02*
X139761905Y-105924819D01*
X141190476Y-105258152D02*
X141190476Y-105924819D01*
X140952381Y-104877200D02*
X140714286Y-105591485D01*
X140714286Y-105591485D02*
X141333333Y-105591485D01*
X144048095Y-105554819D02*
X144048095Y-104554819D01*
X144619523Y-105554819D02*
X144190952Y-104983390D01*
X144619523Y-104554819D02*
X144048095Y-105126247D01*
X225261905Y-92984819D02*
X225261905Y-91984819D01*
X225261905Y-91984819D02*
X225500000Y-91984819D01*
X225500000Y-91984819D02*
X225642857Y-92032438D01*
X225642857Y-92032438D02*
X225738095Y-92127676D01*
X225738095Y-92127676D02*
X225785714Y-92222914D01*
X225785714Y-92222914D02*
X225833333Y-92413390D01*
X225833333Y-92413390D02*
X225833333Y-92556247D01*
X225833333Y-92556247D02*
X225785714Y-92746723D01*
X225785714Y-92746723D02*
X225738095Y-92841961D01*
X225738095Y-92841961D02*
X225642857Y-92937200D01*
X225642857Y-92937200D02*
X225500000Y-92984819D01*
X225500000Y-92984819D02*
X225261905Y-92984819D01*
X226166667Y-91984819D02*
X226785714Y-91984819D01*
X226785714Y-91984819D02*
X226452381Y-92365771D01*
X226452381Y-92365771D02*
X226595238Y-92365771D01*
X226595238Y-92365771D02*
X226690476Y-92413390D01*
X226690476Y-92413390D02*
X226738095Y-92461009D01*
X226738095Y-92461009D02*
X226785714Y-92556247D01*
X226785714Y-92556247D02*
X226785714Y-92794342D01*
X226785714Y-92794342D02*
X226738095Y-92889580D01*
X226738095Y-92889580D02*
X226690476Y-92937200D01*
X226690476Y-92937200D02*
X226595238Y-92984819D01*
X226595238Y-92984819D02*
X226309524Y-92984819D01*
X226309524Y-92984819D02*
X226214286Y-92937200D01*
X226214286Y-92937200D02*
X226166667Y-92889580D01*
X221928095Y-93354819D02*
X221928095Y-92354819D01*
X222499523Y-93354819D02*
X222070952Y-92783390D01*
X222499523Y-92354819D02*
X221928095Y-92926247D01*
X224509405Y-49984819D02*
X224509405Y-48984819D01*
X224509405Y-48984819D02*
X224747500Y-48984819D01*
X224747500Y-48984819D02*
X224890357Y-49032438D01*
X224890357Y-49032438D02*
X224985595Y-49127676D01*
X224985595Y-49127676D02*
X225033214Y-49222914D01*
X225033214Y-49222914D02*
X225080833Y-49413390D01*
X225080833Y-49413390D02*
X225080833Y-49556247D01*
X225080833Y-49556247D02*
X225033214Y-49746723D01*
X225033214Y-49746723D02*
X224985595Y-49841961D01*
X224985595Y-49841961D02*
X224890357Y-49937200D01*
X224890357Y-49937200D02*
X224747500Y-49984819D01*
X224747500Y-49984819D02*
X224509405Y-49984819D01*
X225461786Y-49080057D02*
X225509405Y-49032438D01*
X225509405Y-49032438D02*
X225604643Y-48984819D01*
X225604643Y-48984819D02*
X225842738Y-48984819D01*
X225842738Y-48984819D02*
X225937976Y-49032438D01*
X225937976Y-49032438D02*
X225985595Y-49080057D01*
X225985595Y-49080057D02*
X226033214Y-49175295D01*
X226033214Y-49175295D02*
X226033214Y-49270533D01*
X226033214Y-49270533D02*
X225985595Y-49413390D01*
X225985595Y-49413390D02*
X225414167Y-49984819D01*
X225414167Y-49984819D02*
X226033214Y-49984819D01*
X221175595Y-50354819D02*
X221175595Y-49354819D01*
X221747023Y-50354819D02*
X221318452Y-49783390D01*
X221747023Y-49354819D02*
X221175595Y-49926247D01*
X52761905Y-65924819D02*
X52761905Y-64924819D01*
X52761905Y-64924819D02*
X53000000Y-64924819D01*
X53000000Y-64924819D02*
X53142857Y-64972438D01*
X53142857Y-64972438D02*
X53238095Y-65067676D01*
X53238095Y-65067676D02*
X53285714Y-65162914D01*
X53285714Y-65162914D02*
X53333333Y-65353390D01*
X53333333Y-65353390D02*
X53333333Y-65496247D01*
X53333333Y-65496247D02*
X53285714Y-65686723D01*
X53285714Y-65686723D02*
X53238095Y-65781961D01*
X53238095Y-65781961D02*
X53142857Y-65877200D01*
X53142857Y-65877200D02*
X53000000Y-65924819D01*
X53000000Y-65924819D02*
X52761905Y-65924819D01*
X54285714Y-65924819D02*
X53714286Y-65924819D01*
X54000000Y-65924819D02*
X54000000Y-64924819D01*
X54000000Y-64924819D02*
X53904762Y-65067676D01*
X53904762Y-65067676D02*
X53809524Y-65162914D01*
X53809524Y-65162914D02*
X53714286Y-65210533D01*
X57048095Y-65554819D02*
X57048095Y-64554819D01*
X57619523Y-65554819D02*
X57190952Y-64983390D01*
X57619523Y-64554819D02*
X57048095Y-65126247D01*
X227190476Y-76657200D02*
X227333333Y-76704819D01*
X227333333Y-76704819D02*
X227571428Y-76704819D01*
X227571428Y-76704819D02*
X227666666Y-76657200D01*
X227666666Y-76657200D02*
X227714285Y-76609580D01*
X227714285Y-76609580D02*
X227761904Y-76514342D01*
X227761904Y-76514342D02*
X227761904Y-76419104D01*
X227761904Y-76419104D02*
X227714285Y-76323866D01*
X227714285Y-76323866D02*
X227666666Y-76276247D01*
X227666666Y-76276247D02*
X227571428Y-76228628D01*
X227571428Y-76228628D02*
X227380952Y-76181009D01*
X227380952Y-76181009D02*
X227285714Y-76133390D01*
X227285714Y-76133390D02*
X227238095Y-76085771D01*
X227238095Y-76085771D02*
X227190476Y-75990533D01*
X227190476Y-75990533D02*
X227190476Y-75895295D01*
X227190476Y-75895295D02*
X227238095Y-75800057D01*
X227238095Y-75800057D02*
X227285714Y-75752438D01*
X227285714Y-75752438D02*
X227380952Y-75704819D01*
X227380952Y-75704819D02*
X227619047Y-75704819D01*
X227619047Y-75704819D02*
X227761904Y-75752438D01*
X228095238Y-75704819D02*
X228333333Y-76704819D01*
X228333333Y-76704819D02*
X228523809Y-75990533D01*
X228523809Y-75990533D02*
X228714285Y-76704819D01*
X228714285Y-76704819D02*
X228952381Y-75704819D01*
X229238095Y-75704819D02*
X229904761Y-75704819D01*
X229904761Y-75704819D02*
X229238095Y-76704819D01*
X229238095Y-76704819D02*
X229904761Y-76704819D01*
X230809523Y-76704819D02*
X230238095Y-76704819D01*
X230523809Y-76704819D02*
X230523809Y-75704819D01*
X230523809Y-75704819D02*
X230428571Y-75847676D01*
X230428571Y-75847676D02*
X230333333Y-75942914D01*
X230333333Y-75942914D02*
X230238095Y-75990533D01*
X187166667Y-36657200D02*
X187309524Y-36704819D01*
X187309524Y-36704819D02*
X187547619Y-36704819D01*
X187547619Y-36704819D02*
X187642857Y-36657200D01*
X187642857Y-36657200D02*
X187690476Y-36609580D01*
X187690476Y-36609580D02*
X187738095Y-36514342D01*
X187738095Y-36514342D02*
X187738095Y-36419104D01*
X187738095Y-36419104D02*
X187690476Y-36323866D01*
X187690476Y-36323866D02*
X187642857Y-36276247D01*
X187642857Y-36276247D02*
X187547619Y-36228628D01*
X187547619Y-36228628D02*
X187357143Y-36181009D01*
X187357143Y-36181009D02*
X187261905Y-36133390D01*
X187261905Y-36133390D02*
X187214286Y-36085771D01*
X187214286Y-36085771D02*
X187166667Y-35990533D01*
X187166667Y-35990533D02*
X187166667Y-35895295D01*
X187166667Y-35895295D02*
X187214286Y-35800057D01*
X187214286Y-35800057D02*
X187261905Y-35752438D01*
X187261905Y-35752438D02*
X187357143Y-35704819D01*
X187357143Y-35704819D02*
X187595238Y-35704819D01*
X187595238Y-35704819D02*
X187738095Y-35752438D01*
X188071429Y-35704819D02*
X188309524Y-36704819D01*
X188309524Y-36704819D02*
X188500000Y-35990533D01*
X188500000Y-35990533D02*
X188690476Y-36704819D01*
X188690476Y-36704819D02*
X188928572Y-35704819D01*
X189261905Y-36038152D02*
X189976190Y-36038152D01*
X189547619Y-35609580D02*
X189261905Y-36895295D01*
X189880952Y-36466723D02*
X189166667Y-36466723D01*
X189595238Y-36895295D02*
X189880952Y-35609580D01*
X190261905Y-35800057D02*
X190309524Y-35752438D01*
X190309524Y-35752438D02*
X190404762Y-35704819D01*
X190404762Y-35704819D02*
X190642857Y-35704819D01*
X190642857Y-35704819D02*
X190738095Y-35752438D01*
X190738095Y-35752438D02*
X190785714Y-35800057D01*
X190785714Y-35800057D02*
X190833333Y-35895295D01*
X190833333Y-35895295D02*
X190833333Y-35990533D01*
X190833333Y-35990533D02*
X190785714Y-36133390D01*
X190785714Y-36133390D02*
X190214286Y-36704819D01*
X190214286Y-36704819D02*
X190833333Y-36704819D01*
X127285714Y-66657200D02*
X127428571Y-66704819D01*
X127428571Y-66704819D02*
X127666666Y-66704819D01*
X127666666Y-66704819D02*
X127761904Y-66657200D01*
X127761904Y-66657200D02*
X127809523Y-66609580D01*
X127809523Y-66609580D02*
X127857142Y-66514342D01*
X127857142Y-66514342D02*
X127857142Y-66419104D01*
X127857142Y-66419104D02*
X127809523Y-66323866D01*
X127809523Y-66323866D02*
X127761904Y-66276247D01*
X127761904Y-66276247D02*
X127666666Y-66228628D01*
X127666666Y-66228628D02*
X127476190Y-66181009D01*
X127476190Y-66181009D02*
X127380952Y-66133390D01*
X127380952Y-66133390D02*
X127333333Y-66085771D01*
X127333333Y-66085771D02*
X127285714Y-65990533D01*
X127285714Y-65990533D02*
X127285714Y-65895295D01*
X127285714Y-65895295D02*
X127333333Y-65800057D01*
X127333333Y-65800057D02*
X127380952Y-65752438D01*
X127380952Y-65752438D02*
X127476190Y-65704819D01*
X127476190Y-65704819D02*
X127714285Y-65704819D01*
X127714285Y-65704819D02*
X127857142Y-65752438D01*
X128190476Y-65704819D02*
X128428571Y-66704819D01*
X128428571Y-66704819D02*
X128619047Y-65990533D01*
X128619047Y-65990533D02*
X128809523Y-66704819D01*
X128809523Y-66704819D02*
X129047619Y-65704819D01*
X129571428Y-65704819D02*
X129571428Y-65942914D01*
X129333333Y-65847676D02*
X129571428Y-65942914D01*
X129571428Y-65942914D02*
X129809523Y-65847676D01*
X129428571Y-66133390D02*
X129571428Y-65942914D01*
X129571428Y-65942914D02*
X129714285Y-66133390D01*
X130714285Y-66704819D02*
X130142857Y-66704819D01*
X130428571Y-66704819D02*
X130428571Y-65704819D01*
X130428571Y-65704819D02*
X130333333Y-65847676D01*
X130333333Y-65847676D02*
X130238095Y-65942914D01*
X130238095Y-65942914D02*
X130142857Y-65990533D01*
X207285714Y-56657200D02*
X207428571Y-56704819D01*
X207428571Y-56704819D02*
X207666666Y-56704819D01*
X207666666Y-56704819D02*
X207761904Y-56657200D01*
X207761904Y-56657200D02*
X207809523Y-56609580D01*
X207809523Y-56609580D02*
X207857142Y-56514342D01*
X207857142Y-56514342D02*
X207857142Y-56419104D01*
X207857142Y-56419104D02*
X207809523Y-56323866D01*
X207809523Y-56323866D02*
X207761904Y-56276247D01*
X207761904Y-56276247D02*
X207666666Y-56228628D01*
X207666666Y-56228628D02*
X207476190Y-56181009D01*
X207476190Y-56181009D02*
X207380952Y-56133390D01*
X207380952Y-56133390D02*
X207333333Y-56085771D01*
X207333333Y-56085771D02*
X207285714Y-55990533D01*
X207285714Y-55990533D02*
X207285714Y-55895295D01*
X207285714Y-55895295D02*
X207333333Y-55800057D01*
X207333333Y-55800057D02*
X207380952Y-55752438D01*
X207380952Y-55752438D02*
X207476190Y-55704819D01*
X207476190Y-55704819D02*
X207714285Y-55704819D01*
X207714285Y-55704819D02*
X207857142Y-55752438D01*
X208190476Y-55704819D02*
X208428571Y-56704819D01*
X208428571Y-56704819D02*
X208619047Y-55990533D01*
X208619047Y-55990533D02*
X208809523Y-56704819D01*
X208809523Y-56704819D02*
X209047619Y-55704819D01*
X209285714Y-55704819D02*
X209857142Y-55704819D01*
X209571428Y-56704819D02*
X209571428Y-55704819D01*
X210142857Y-55800057D02*
X210190476Y-55752438D01*
X210190476Y-55752438D02*
X210285714Y-55704819D01*
X210285714Y-55704819D02*
X210523809Y-55704819D01*
X210523809Y-55704819D02*
X210619047Y-55752438D01*
X210619047Y-55752438D02*
X210666666Y-55800057D01*
X210666666Y-55800057D02*
X210714285Y-55895295D01*
X210714285Y-55895295D02*
X210714285Y-55990533D01*
X210714285Y-55990533D02*
X210666666Y-56133390D01*
X210666666Y-56133390D02*
X210095238Y-56704819D01*
X210095238Y-56704819D02*
X210714285Y-56704819D01*
X147166667Y-76657200D02*
X147309524Y-76704819D01*
X147309524Y-76704819D02*
X147547619Y-76704819D01*
X147547619Y-76704819D02*
X147642857Y-76657200D01*
X147642857Y-76657200D02*
X147690476Y-76609580D01*
X147690476Y-76609580D02*
X147738095Y-76514342D01*
X147738095Y-76514342D02*
X147738095Y-76419104D01*
X147738095Y-76419104D02*
X147690476Y-76323866D01*
X147690476Y-76323866D02*
X147642857Y-76276247D01*
X147642857Y-76276247D02*
X147547619Y-76228628D01*
X147547619Y-76228628D02*
X147357143Y-76181009D01*
X147357143Y-76181009D02*
X147261905Y-76133390D01*
X147261905Y-76133390D02*
X147214286Y-76085771D01*
X147214286Y-76085771D02*
X147166667Y-75990533D01*
X147166667Y-75990533D02*
X147166667Y-75895295D01*
X147166667Y-75895295D02*
X147214286Y-75800057D01*
X147214286Y-75800057D02*
X147261905Y-75752438D01*
X147261905Y-75752438D02*
X147357143Y-75704819D01*
X147357143Y-75704819D02*
X147595238Y-75704819D01*
X147595238Y-75704819D02*
X147738095Y-75752438D01*
X148071429Y-75704819D02*
X148309524Y-76704819D01*
X148309524Y-76704819D02*
X148500000Y-75990533D01*
X148500000Y-75990533D02*
X148690476Y-76704819D01*
X148690476Y-76704819D02*
X148928572Y-75704819D01*
X149880952Y-76704819D02*
X149547619Y-76228628D01*
X149309524Y-76704819D02*
X149309524Y-75704819D01*
X149309524Y-75704819D02*
X149690476Y-75704819D01*
X149690476Y-75704819D02*
X149785714Y-75752438D01*
X149785714Y-75752438D02*
X149833333Y-75800057D01*
X149833333Y-75800057D02*
X149880952Y-75895295D01*
X149880952Y-75895295D02*
X149880952Y-76038152D01*
X149880952Y-76038152D02*
X149833333Y-76133390D01*
X149833333Y-76133390D02*
X149785714Y-76181009D01*
X149785714Y-76181009D02*
X149690476Y-76228628D01*
X149690476Y-76228628D02*
X149309524Y-76228628D01*
X150261905Y-75800057D02*
X150309524Y-75752438D01*
X150309524Y-75752438D02*
X150404762Y-75704819D01*
X150404762Y-75704819D02*
X150642857Y-75704819D01*
X150642857Y-75704819D02*
X150738095Y-75752438D01*
X150738095Y-75752438D02*
X150785714Y-75800057D01*
X150785714Y-75800057D02*
X150833333Y-75895295D01*
X150833333Y-75895295D02*
X150833333Y-75990533D01*
X150833333Y-75990533D02*
X150785714Y-76133390D01*
X150785714Y-76133390D02*
X150214286Y-76704819D01*
X150214286Y-76704819D02*
X150833333Y-76704819D01*
X167166667Y-56657200D02*
X167309524Y-56704819D01*
X167309524Y-56704819D02*
X167547619Y-56704819D01*
X167547619Y-56704819D02*
X167642857Y-56657200D01*
X167642857Y-56657200D02*
X167690476Y-56609580D01*
X167690476Y-56609580D02*
X167738095Y-56514342D01*
X167738095Y-56514342D02*
X167738095Y-56419104D01*
X167738095Y-56419104D02*
X167690476Y-56323866D01*
X167690476Y-56323866D02*
X167642857Y-56276247D01*
X167642857Y-56276247D02*
X167547619Y-56228628D01*
X167547619Y-56228628D02*
X167357143Y-56181009D01*
X167357143Y-56181009D02*
X167261905Y-56133390D01*
X167261905Y-56133390D02*
X167214286Y-56085771D01*
X167214286Y-56085771D02*
X167166667Y-55990533D01*
X167166667Y-55990533D02*
X167166667Y-55895295D01*
X167166667Y-55895295D02*
X167214286Y-55800057D01*
X167214286Y-55800057D02*
X167261905Y-55752438D01*
X167261905Y-55752438D02*
X167357143Y-55704819D01*
X167357143Y-55704819D02*
X167595238Y-55704819D01*
X167595238Y-55704819D02*
X167738095Y-55752438D01*
X168071429Y-55704819D02*
X168309524Y-56704819D01*
X168309524Y-56704819D02*
X168500000Y-55990533D01*
X168500000Y-55990533D02*
X168690476Y-56704819D01*
X168690476Y-56704819D02*
X168928572Y-55704819D01*
X169309524Y-56704819D02*
X169309524Y-55704819D01*
X169309524Y-55704819D02*
X169690476Y-55704819D01*
X169690476Y-55704819D02*
X169785714Y-55752438D01*
X169785714Y-55752438D02*
X169833333Y-55800057D01*
X169833333Y-55800057D02*
X169880952Y-55895295D01*
X169880952Y-55895295D02*
X169880952Y-56038152D01*
X169880952Y-56038152D02*
X169833333Y-56133390D01*
X169833333Y-56133390D02*
X169785714Y-56181009D01*
X169785714Y-56181009D02*
X169690476Y-56228628D01*
X169690476Y-56228628D02*
X169309524Y-56228628D01*
X170261905Y-55800057D02*
X170309524Y-55752438D01*
X170309524Y-55752438D02*
X170404762Y-55704819D01*
X170404762Y-55704819D02*
X170642857Y-55704819D01*
X170642857Y-55704819D02*
X170738095Y-55752438D01*
X170738095Y-55752438D02*
X170785714Y-55800057D01*
X170785714Y-55800057D02*
X170833333Y-55895295D01*
X170833333Y-55895295D02*
X170833333Y-55990533D01*
X170833333Y-55990533D02*
X170785714Y-56133390D01*
X170785714Y-56133390D02*
X170214286Y-56704819D01*
X170214286Y-56704819D02*
X170833333Y-56704819D01*
X116142857Y-109657200D02*
X116285714Y-109704819D01*
X116285714Y-109704819D02*
X116523809Y-109704819D01*
X116523809Y-109704819D02*
X116619047Y-109657200D01*
X116619047Y-109657200D02*
X116666666Y-109609580D01*
X116666666Y-109609580D02*
X116714285Y-109514342D01*
X116714285Y-109514342D02*
X116714285Y-109419104D01*
X116714285Y-109419104D02*
X116666666Y-109323866D01*
X116666666Y-109323866D02*
X116619047Y-109276247D01*
X116619047Y-109276247D02*
X116523809Y-109228628D01*
X116523809Y-109228628D02*
X116333333Y-109181009D01*
X116333333Y-109181009D02*
X116238095Y-109133390D01*
X116238095Y-109133390D02*
X116190476Y-109085771D01*
X116190476Y-109085771D02*
X116142857Y-108990533D01*
X116142857Y-108990533D02*
X116142857Y-108895295D01*
X116142857Y-108895295D02*
X116190476Y-108800057D01*
X116190476Y-108800057D02*
X116238095Y-108752438D01*
X116238095Y-108752438D02*
X116333333Y-108704819D01*
X116333333Y-108704819D02*
X116571428Y-108704819D01*
X116571428Y-108704819D02*
X116714285Y-108752438D01*
X117047619Y-108704819D02*
X117285714Y-109704819D01*
X117285714Y-109704819D02*
X117476190Y-108990533D01*
X117476190Y-108990533D02*
X117666666Y-109704819D01*
X117666666Y-109704819D02*
X117904762Y-108704819D01*
X118476190Y-108704819D02*
X118666666Y-108704819D01*
X118666666Y-108704819D02*
X118761904Y-108752438D01*
X118761904Y-108752438D02*
X118857142Y-108847676D01*
X118857142Y-108847676D02*
X118904761Y-109038152D01*
X118904761Y-109038152D02*
X118904761Y-109371485D01*
X118904761Y-109371485D02*
X118857142Y-109561961D01*
X118857142Y-109561961D02*
X118761904Y-109657200D01*
X118761904Y-109657200D02*
X118666666Y-109704819D01*
X118666666Y-109704819D02*
X118476190Y-109704819D01*
X118476190Y-109704819D02*
X118380952Y-109657200D01*
X118380952Y-109657200D02*
X118285714Y-109561961D01*
X118285714Y-109561961D02*
X118238095Y-109371485D01*
X118238095Y-109371485D02*
X118238095Y-109038152D01*
X118238095Y-109038152D02*
X118285714Y-108847676D01*
X118285714Y-108847676D02*
X118380952Y-108752438D01*
X118380952Y-108752438D02*
X118476190Y-108704819D01*
X119857142Y-109704819D02*
X119285714Y-109704819D01*
X119571428Y-109704819D02*
X119571428Y-108704819D01*
X119571428Y-108704819D02*
X119476190Y-108847676D01*
X119476190Y-108847676D02*
X119380952Y-108942914D01*
X119380952Y-108942914D02*
X119285714Y-108990533D01*
X87166667Y-36657200D02*
X87309524Y-36704819D01*
X87309524Y-36704819D02*
X87547619Y-36704819D01*
X87547619Y-36704819D02*
X87642857Y-36657200D01*
X87642857Y-36657200D02*
X87690476Y-36609580D01*
X87690476Y-36609580D02*
X87738095Y-36514342D01*
X87738095Y-36514342D02*
X87738095Y-36419104D01*
X87738095Y-36419104D02*
X87690476Y-36323866D01*
X87690476Y-36323866D02*
X87642857Y-36276247D01*
X87642857Y-36276247D02*
X87547619Y-36228628D01*
X87547619Y-36228628D02*
X87357143Y-36181009D01*
X87357143Y-36181009D02*
X87261905Y-36133390D01*
X87261905Y-36133390D02*
X87214286Y-36085771D01*
X87214286Y-36085771D02*
X87166667Y-35990533D01*
X87166667Y-35990533D02*
X87166667Y-35895295D01*
X87166667Y-35895295D02*
X87214286Y-35800057D01*
X87214286Y-35800057D02*
X87261905Y-35752438D01*
X87261905Y-35752438D02*
X87357143Y-35704819D01*
X87357143Y-35704819D02*
X87595238Y-35704819D01*
X87595238Y-35704819D02*
X87738095Y-35752438D01*
X88071429Y-35704819D02*
X88309524Y-36704819D01*
X88309524Y-36704819D02*
X88500000Y-35990533D01*
X88500000Y-35990533D02*
X88690476Y-36704819D01*
X88690476Y-36704819D02*
X88928572Y-35704819D01*
X89261905Y-36038152D02*
X89976190Y-36038152D01*
X89547619Y-35609580D02*
X89261905Y-36895295D01*
X89880952Y-36466723D02*
X89166667Y-36466723D01*
X89595238Y-36895295D02*
X89880952Y-35609580D01*
X90833333Y-36704819D02*
X90261905Y-36704819D01*
X90547619Y-36704819D02*
X90547619Y-35704819D01*
X90547619Y-35704819D02*
X90452381Y-35847676D01*
X90452381Y-35847676D02*
X90357143Y-35942914D01*
X90357143Y-35942914D02*
X90261905Y-35990533D01*
X158142857Y-109657200D02*
X158285714Y-109704819D01*
X158285714Y-109704819D02*
X158523809Y-109704819D01*
X158523809Y-109704819D02*
X158619047Y-109657200D01*
X158619047Y-109657200D02*
X158666666Y-109609580D01*
X158666666Y-109609580D02*
X158714285Y-109514342D01*
X158714285Y-109514342D02*
X158714285Y-109419104D01*
X158714285Y-109419104D02*
X158666666Y-109323866D01*
X158666666Y-109323866D02*
X158619047Y-109276247D01*
X158619047Y-109276247D02*
X158523809Y-109228628D01*
X158523809Y-109228628D02*
X158333333Y-109181009D01*
X158333333Y-109181009D02*
X158238095Y-109133390D01*
X158238095Y-109133390D02*
X158190476Y-109085771D01*
X158190476Y-109085771D02*
X158142857Y-108990533D01*
X158142857Y-108990533D02*
X158142857Y-108895295D01*
X158142857Y-108895295D02*
X158190476Y-108800057D01*
X158190476Y-108800057D02*
X158238095Y-108752438D01*
X158238095Y-108752438D02*
X158333333Y-108704819D01*
X158333333Y-108704819D02*
X158571428Y-108704819D01*
X158571428Y-108704819D02*
X158714285Y-108752438D01*
X159047619Y-108704819D02*
X159285714Y-109704819D01*
X159285714Y-109704819D02*
X159476190Y-108990533D01*
X159476190Y-108990533D02*
X159666666Y-109704819D01*
X159666666Y-109704819D02*
X159904762Y-108704819D01*
X160285714Y-108704819D02*
X160285714Y-109514342D01*
X160285714Y-109514342D02*
X160333333Y-109609580D01*
X160333333Y-109609580D02*
X160380952Y-109657200D01*
X160380952Y-109657200D02*
X160476190Y-109704819D01*
X160476190Y-109704819D02*
X160666666Y-109704819D01*
X160666666Y-109704819D02*
X160761904Y-109657200D01*
X160761904Y-109657200D02*
X160809523Y-109609580D01*
X160809523Y-109609580D02*
X160857142Y-109514342D01*
X160857142Y-109514342D02*
X160857142Y-108704819D01*
X161857142Y-109704819D02*
X161285714Y-109704819D01*
X161571428Y-109704819D02*
X161571428Y-108704819D01*
X161571428Y-108704819D02*
X161476190Y-108847676D01*
X161476190Y-108847676D02*
X161380952Y-108942914D01*
X161380952Y-108942914D02*
X161285714Y-108990533D01*
X167166667Y-76657200D02*
X167309524Y-76704819D01*
X167309524Y-76704819D02*
X167547619Y-76704819D01*
X167547619Y-76704819D02*
X167642857Y-76657200D01*
X167642857Y-76657200D02*
X167690476Y-76609580D01*
X167690476Y-76609580D02*
X167738095Y-76514342D01*
X167738095Y-76514342D02*
X167738095Y-76419104D01*
X167738095Y-76419104D02*
X167690476Y-76323866D01*
X167690476Y-76323866D02*
X167642857Y-76276247D01*
X167642857Y-76276247D02*
X167547619Y-76228628D01*
X167547619Y-76228628D02*
X167357143Y-76181009D01*
X167357143Y-76181009D02*
X167261905Y-76133390D01*
X167261905Y-76133390D02*
X167214286Y-76085771D01*
X167214286Y-76085771D02*
X167166667Y-75990533D01*
X167166667Y-75990533D02*
X167166667Y-75895295D01*
X167166667Y-75895295D02*
X167214286Y-75800057D01*
X167214286Y-75800057D02*
X167261905Y-75752438D01*
X167261905Y-75752438D02*
X167357143Y-75704819D01*
X167357143Y-75704819D02*
X167595238Y-75704819D01*
X167595238Y-75704819D02*
X167738095Y-75752438D01*
X168071429Y-75704819D02*
X168309524Y-76704819D01*
X168309524Y-76704819D02*
X168500000Y-75990533D01*
X168500000Y-75990533D02*
X168690476Y-76704819D01*
X168690476Y-76704819D02*
X168928572Y-75704819D01*
X169642857Y-76181009D02*
X169785714Y-76228628D01*
X169785714Y-76228628D02*
X169833333Y-76276247D01*
X169833333Y-76276247D02*
X169880952Y-76371485D01*
X169880952Y-76371485D02*
X169880952Y-76514342D01*
X169880952Y-76514342D02*
X169833333Y-76609580D01*
X169833333Y-76609580D02*
X169785714Y-76657200D01*
X169785714Y-76657200D02*
X169690476Y-76704819D01*
X169690476Y-76704819D02*
X169309524Y-76704819D01*
X169309524Y-76704819D02*
X169309524Y-75704819D01*
X169309524Y-75704819D02*
X169642857Y-75704819D01*
X169642857Y-75704819D02*
X169738095Y-75752438D01*
X169738095Y-75752438D02*
X169785714Y-75800057D01*
X169785714Y-75800057D02*
X169833333Y-75895295D01*
X169833333Y-75895295D02*
X169833333Y-75990533D01*
X169833333Y-75990533D02*
X169785714Y-76085771D01*
X169785714Y-76085771D02*
X169738095Y-76133390D01*
X169738095Y-76133390D02*
X169642857Y-76181009D01*
X169642857Y-76181009D02*
X169309524Y-76181009D01*
X170833333Y-76704819D02*
X170261905Y-76704819D01*
X170547619Y-76704819D02*
X170547619Y-75704819D01*
X170547619Y-75704819D02*
X170452381Y-75847676D01*
X170452381Y-75847676D02*
X170357143Y-75942914D01*
X170357143Y-75942914D02*
X170261905Y-75990533D01*
D12*
X128322666Y-45906985D02*
X128322666Y-46626652D01*
X128322666Y-46626652D02*
X128365000Y-46711318D01*
X128365000Y-46711318D02*
X128407333Y-46753652D01*
X128407333Y-46753652D02*
X128492000Y-46795985D01*
X128492000Y-46795985D02*
X128661333Y-46795985D01*
X128661333Y-46795985D02*
X128746000Y-46753652D01*
X128746000Y-46753652D02*
X128788333Y-46711318D01*
X128788333Y-46711318D02*
X128830666Y-46626652D01*
X128830666Y-46626652D02*
X128830666Y-45906985D01*
X129719666Y-46795985D02*
X129211666Y-46795985D01*
X129465666Y-46795985D02*
X129465666Y-45906985D01*
X129465666Y-45906985D02*
X129380999Y-46033985D01*
X129380999Y-46033985D02*
X129296333Y-46118652D01*
X129296333Y-46118652D02*
X129211666Y-46160985D01*
D11*
X124238095Y-42757200D02*
X124380952Y-42804819D01*
X124380952Y-42804819D02*
X124619047Y-42804819D01*
X124619047Y-42804819D02*
X124714285Y-42757200D01*
X124714285Y-42757200D02*
X124761904Y-42709580D01*
X124761904Y-42709580D02*
X124809523Y-42614342D01*
X124809523Y-42614342D02*
X124809523Y-42519104D01*
X124809523Y-42519104D02*
X124761904Y-42423866D01*
X124761904Y-42423866D02*
X124714285Y-42376247D01*
X124714285Y-42376247D02*
X124619047Y-42328628D01*
X124619047Y-42328628D02*
X124428571Y-42281009D01*
X124428571Y-42281009D02*
X124333333Y-42233390D01*
X124333333Y-42233390D02*
X124285714Y-42185771D01*
X124285714Y-42185771D02*
X124238095Y-42090533D01*
X124238095Y-42090533D02*
X124238095Y-41995295D01*
X124238095Y-41995295D02*
X124285714Y-41900057D01*
X124285714Y-41900057D02*
X124333333Y-41852438D01*
X124333333Y-41852438D02*
X124428571Y-41804819D01*
X124428571Y-41804819D02*
X124666666Y-41804819D01*
X124666666Y-41804819D02*
X124809523Y-41852438D01*
X125619047Y-42757200D02*
X125523809Y-42804819D01*
X125523809Y-42804819D02*
X125333333Y-42804819D01*
X125333333Y-42804819D02*
X125238095Y-42757200D01*
X125238095Y-42757200D02*
X125190476Y-42661961D01*
X125190476Y-42661961D02*
X125190476Y-42281009D01*
X125190476Y-42281009D02*
X125238095Y-42185771D01*
X125238095Y-42185771D02*
X125333333Y-42138152D01*
X125333333Y-42138152D02*
X125523809Y-42138152D01*
X125523809Y-42138152D02*
X125619047Y-42185771D01*
X125619047Y-42185771D02*
X125666666Y-42281009D01*
X125666666Y-42281009D02*
X125666666Y-42376247D01*
X125666666Y-42376247D02*
X125190476Y-42471485D01*
X126476190Y-42757200D02*
X126380952Y-42804819D01*
X126380952Y-42804819D02*
X126190476Y-42804819D01*
X126190476Y-42804819D02*
X126095238Y-42757200D01*
X126095238Y-42757200D02*
X126047619Y-42661961D01*
X126047619Y-42661961D02*
X126047619Y-42281009D01*
X126047619Y-42281009D02*
X126095238Y-42185771D01*
X126095238Y-42185771D02*
X126190476Y-42138152D01*
X126190476Y-42138152D02*
X126380952Y-42138152D01*
X126380952Y-42138152D02*
X126476190Y-42185771D01*
X126476190Y-42185771D02*
X126523809Y-42281009D01*
X126523809Y-42281009D02*
X126523809Y-42376247D01*
X126523809Y-42376247D02*
X126047619Y-42471485D01*
X127333333Y-42757200D02*
X127238095Y-42804819D01*
X127238095Y-42804819D02*
X127047619Y-42804819D01*
X127047619Y-42804819D02*
X126952381Y-42757200D01*
X126952381Y-42757200D02*
X126904762Y-42661961D01*
X126904762Y-42661961D02*
X126904762Y-42281009D01*
X126904762Y-42281009D02*
X126952381Y-42185771D01*
X126952381Y-42185771D02*
X127047619Y-42138152D01*
X127047619Y-42138152D02*
X127238095Y-42138152D01*
X127238095Y-42138152D02*
X127333333Y-42185771D01*
X127333333Y-42185771D02*
X127380952Y-42281009D01*
X127380952Y-42281009D02*
X127380952Y-42376247D01*
X127380952Y-42376247D02*
X126904762Y-42471485D01*
X128238095Y-42804819D02*
X128238095Y-41804819D01*
X128238095Y-42757200D02*
X128142857Y-42804819D01*
X128142857Y-42804819D02*
X127952381Y-42804819D01*
X127952381Y-42804819D02*
X127857143Y-42757200D01*
X127857143Y-42757200D02*
X127809524Y-42709580D01*
X127809524Y-42709580D02*
X127761905Y-42614342D01*
X127761905Y-42614342D02*
X127761905Y-42328628D01*
X127761905Y-42328628D02*
X127809524Y-42233390D01*
X127809524Y-42233390D02*
X127857143Y-42185771D01*
X127857143Y-42185771D02*
X127952381Y-42138152D01*
X127952381Y-42138152D02*
X128142857Y-42138152D01*
X128142857Y-42138152D02*
X128238095Y-42185771D01*
X129428572Y-42757200D02*
X129571429Y-42804819D01*
X129571429Y-42804819D02*
X129809524Y-42804819D01*
X129809524Y-42804819D02*
X129904762Y-42757200D01*
X129904762Y-42757200D02*
X129952381Y-42709580D01*
X129952381Y-42709580D02*
X130000000Y-42614342D01*
X130000000Y-42614342D02*
X130000000Y-42519104D01*
X130000000Y-42519104D02*
X129952381Y-42423866D01*
X129952381Y-42423866D02*
X129904762Y-42376247D01*
X129904762Y-42376247D02*
X129809524Y-42328628D01*
X129809524Y-42328628D02*
X129619048Y-42281009D01*
X129619048Y-42281009D02*
X129523810Y-42233390D01*
X129523810Y-42233390D02*
X129476191Y-42185771D01*
X129476191Y-42185771D02*
X129428572Y-42090533D01*
X129428572Y-42090533D02*
X129428572Y-41995295D01*
X129428572Y-41995295D02*
X129476191Y-41900057D01*
X129476191Y-41900057D02*
X129523810Y-41852438D01*
X129523810Y-41852438D02*
X129619048Y-41804819D01*
X129619048Y-41804819D02*
X129857143Y-41804819D01*
X129857143Y-41804819D02*
X130000000Y-41852438D01*
X130285715Y-42138152D02*
X130666667Y-42138152D01*
X130428572Y-41804819D02*
X130428572Y-42661961D01*
X130428572Y-42661961D02*
X130476191Y-42757200D01*
X130476191Y-42757200D02*
X130571429Y-42804819D01*
X130571429Y-42804819D02*
X130666667Y-42804819D01*
X131428572Y-42138152D02*
X131428572Y-42804819D01*
X131000001Y-42138152D02*
X131000001Y-42661961D01*
X131000001Y-42661961D02*
X131047620Y-42757200D01*
X131047620Y-42757200D02*
X131142858Y-42804819D01*
X131142858Y-42804819D02*
X131285715Y-42804819D01*
X131285715Y-42804819D02*
X131380953Y-42757200D01*
X131380953Y-42757200D02*
X131428572Y-42709580D01*
X132333334Y-42804819D02*
X132333334Y-41804819D01*
X132333334Y-42757200D02*
X132238096Y-42804819D01*
X132238096Y-42804819D02*
X132047620Y-42804819D01*
X132047620Y-42804819D02*
X131952382Y-42757200D01*
X131952382Y-42757200D02*
X131904763Y-42709580D01*
X131904763Y-42709580D02*
X131857144Y-42614342D01*
X131857144Y-42614342D02*
X131857144Y-42328628D01*
X131857144Y-42328628D02*
X131904763Y-42233390D01*
X131904763Y-42233390D02*
X131952382Y-42185771D01*
X131952382Y-42185771D02*
X132047620Y-42138152D01*
X132047620Y-42138152D02*
X132238096Y-42138152D01*
X132238096Y-42138152D02*
X132333334Y-42185771D01*
X132809525Y-42804819D02*
X132809525Y-42138152D01*
X132809525Y-41804819D02*
X132761906Y-41852438D01*
X132761906Y-41852438D02*
X132809525Y-41900057D01*
X132809525Y-41900057D02*
X132857144Y-41852438D01*
X132857144Y-41852438D02*
X132809525Y-41804819D01*
X132809525Y-41804819D02*
X132809525Y-41900057D01*
X133428572Y-42804819D02*
X133333334Y-42757200D01*
X133333334Y-42757200D02*
X133285715Y-42709580D01*
X133285715Y-42709580D02*
X133238096Y-42614342D01*
X133238096Y-42614342D02*
X133238096Y-42328628D01*
X133238096Y-42328628D02*
X133285715Y-42233390D01*
X133285715Y-42233390D02*
X133333334Y-42185771D01*
X133333334Y-42185771D02*
X133428572Y-42138152D01*
X133428572Y-42138152D02*
X133571429Y-42138152D01*
X133571429Y-42138152D02*
X133666667Y-42185771D01*
X133666667Y-42185771D02*
X133714286Y-42233390D01*
X133714286Y-42233390D02*
X133761905Y-42328628D01*
X133761905Y-42328628D02*
X133761905Y-42614342D01*
X133761905Y-42614342D02*
X133714286Y-42709580D01*
X133714286Y-42709580D02*
X133666667Y-42757200D01*
X133666667Y-42757200D02*
X133571429Y-42804819D01*
X133571429Y-42804819D02*
X133428572Y-42804819D01*
X127476191Y-43804819D02*
X128142857Y-44804819D01*
X128142857Y-43804819D02*
X127476191Y-44804819D01*
X128523810Y-44804819D02*
X128523810Y-43804819D01*
X128952381Y-44519104D02*
X129428571Y-44519104D01*
X128857143Y-44804819D02*
X129190476Y-43804819D01*
X129190476Y-43804819D02*
X129523809Y-44804819D01*
X130047619Y-43804819D02*
X130238095Y-43804819D01*
X130238095Y-43804819D02*
X130333333Y-43852438D01*
X130333333Y-43852438D02*
X130428571Y-43947676D01*
X130428571Y-43947676D02*
X130476190Y-44138152D01*
X130476190Y-44138152D02*
X130476190Y-44471485D01*
X130476190Y-44471485D02*
X130428571Y-44661961D01*
X130428571Y-44661961D02*
X130333333Y-44757200D01*
X130333333Y-44757200D02*
X130238095Y-44804819D01*
X130238095Y-44804819D02*
X130047619Y-44804819D01*
X130047619Y-44804819D02*
X129952381Y-44757200D01*
X129952381Y-44757200D02*
X129857143Y-44661961D01*
X129857143Y-44661961D02*
X129809524Y-44471485D01*
X129809524Y-44471485D02*
X129809524Y-44138152D01*
X129809524Y-44138152D02*
X129857143Y-43947676D01*
X129857143Y-43947676D02*
X129952381Y-43852438D01*
X129952381Y-43852438D02*
X130047619Y-43804819D01*
X107142857Y-56657200D02*
X107285714Y-56704819D01*
X107285714Y-56704819D02*
X107523809Y-56704819D01*
X107523809Y-56704819D02*
X107619047Y-56657200D01*
X107619047Y-56657200D02*
X107666666Y-56609580D01*
X107666666Y-56609580D02*
X107714285Y-56514342D01*
X107714285Y-56514342D02*
X107714285Y-56419104D01*
X107714285Y-56419104D02*
X107666666Y-56323866D01*
X107666666Y-56323866D02*
X107619047Y-56276247D01*
X107619047Y-56276247D02*
X107523809Y-56228628D01*
X107523809Y-56228628D02*
X107333333Y-56181009D01*
X107333333Y-56181009D02*
X107238095Y-56133390D01*
X107238095Y-56133390D02*
X107190476Y-56085771D01*
X107190476Y-56085771D02*
X107142857Y-55990533D01*
X107142857Y-55990533D02*
X107142857Y-55895295D01*
X107142857Y-55895295D02*
X107190476Y-55800057D01*
X107190476Y-55800057D02*
X107238095Y-55752438D01*
X107238095Y-55752438D02*
X107333333Y-55704819D01*
X107333333Y-55704819D02*
X107571428Y-55704819D01*
X107571428Y-55704819D02*
X107714285Y-55752438D01*
X108047619Y-55704819D02*
X108285714Y-56704819D01*
X108285714Y-56704819D02*
X108476190Y-55990533D01*
X108476190Y-55990533D02*
X108666666Y-56704819D01*
X108666666Y-56704819D02*
X108904762Y-55704819D01*
X109285714Y-56704819D02*
X109285714Y-55704819D01*
X109285714Y-56181009D02*
X109857142Y-56181009D01*
X109857142Y-56704819D02*
X109857142Y-55704819D01*
X110857142Y-56704819D02*
X110285714Y-56704819D01*
X110571428Y-56704819D02*
X110571428Y-55704819D01*
X110571428Y-55704819D02*
X110476190Y-55847676D01*
X110476190Y-55847676D02*
X110380952Y-55942914D01*
X110380952Y-55942914D02*
X110285714Y-55990533D01*
X67285714Y-56657200D02*
X67428571Y-56704819D01*
X67428571Y-56704819D02*
X67666666Y-56704819D01*
X67666666Y-56704819D02*
X67761904Y-56657200D01*
X67761904Y-56657200D02*
X67809523Y-56609580D01*
X67809523Y-56609580D02*
X67857142Y-56514342D01*
X67857142Y-56514342D02*
X67857142Y-56419104D01*
X67857142Y-56419104D02*
X67809523Y-56323866D01*
X67809523Y-56323866D02*
X67761904Y-56276247D01*
X67761904Y-56276247D02*
X67666666Y-56228628D01*
X67666666Y-56228628D02*
X67476190Y-56181009D01*
X67476190Y-56181009D02*
X67380952Y-56133390D01*
X67380952Y-56133390D02*
X67333333Y-56085771D01*
X67333333Y-56085771D02*
X67285714Y-55990533D01*
X67285714Y-55990533D02*
X67285714Y-55895295D01*
X67285714Y-55895295D02*
X67333333Y-55800057D01*
X67333333Y-55800057D02*
X67380952Y-55752438D01*
X67380952Y-55752438D02*
X67476190Y-55704819D01*
X67476190Y-55704819D02*
X67714285Y-55704819D01*
X67714285Y-55704819D02*
X67857142Y-55752438D01*
X68190476Y-55704819D02*
X68428571Y-56704819D01*
X68428571Y-56704819D02*
X68619047Y-55990533D01*
X68619047Y-55990533D02*
X68809523Y-56704819D01*
X68809523Y-56704819D02*
X69047619Y-55704819D01*
X69285714Y-55704819D02*
X69857142Y-55704819D01*
X69571428Y-56704819D02*
X69571428Y-55704819D01*
X70714285Y-56704819D02*
X70142857Y-56704819D01*
X70428571Y-56704819D02*
X70428571Y-55704819D01*
X70428571Y-55704819D02*
X70333333Y-55847676D01*
X70333333Y-55847676D02*
X70238095Y-55942914D01*
X70238095Y-55942914D02*
X70142857Y-55990533D01*
X96738095Y-109657200D02*
X96880952Y-109704819D01*
X96880952Y-109704819D02*
X97119047Y-109704819D01*
X97119047Y-109704819D02*
X97214285Y-109657200D01*
X97214285Y-109657200D02*
X97261904Y-109609580D01*
X97261904Y-109609580D02*
X97309523Y-109514342D01*
X97309523Y-109514342D02*
X97309523Y-109419104D01*
X97309523Y-109419104D02*
X97261904Y-109323866D01*
X97261904Y-109323866D02*
X97214285Y-109276247D01*
X97214285Y-109276247D02*
X97119047Y-109228628D01*
X97119047Y-109228628D02*
X96928571Y-109181009D01*
X96928571Y-109181009D02*
X96833333Y-109133390D01*
X96833333Y-109133390D02*
X96785714Y-109085771D01*
X96785714Y-109085771D02*
X96738095Y-108990533D01*
X96738095Y-108990533D02*
X96738095Y-108895295D01*
X96738095Y-108895295D02*
X96785714Y-108800057D01*
X96785714Y-108800057D02*
X96833333Y-108752438D01*
X96833333Y-108752438D02*
X96928571Y-108704819D01*
X96928571Y-108704819D02*
X97166666Y-108704819D01*
X97166666Y-108704819D02*
X97309523Y-108752438D01*
X97642857Y-108704819D02*
X97880952Y-109704819D01*
X97880952Y-109704819D02*
X98071428Y-108990533D01*
X98071428Y-108990533D02*
X98261904Y-109704819D01*
X98261904Y-109704819D02*
X98500000Y-108704819D01*
X98833333Y-109419104D02*
X99309523Y-109419104D01*
X98738095Y-109704819D02*
X99071428Y-108704819D01*
X99071428Y-108704819D02*
X99404761Y-109704819D01*
X100261904Y-109704819D02*
X99690476Y-109704819D01*
X99976190Y-109704819D02*
X99976190Y-108704819D01*
X99976190Y-108704819D02*
X99880952Y-108847676D01*
X99880952Y-108847676D02*
X99785714Y-108942914D01*
X99785714Y-108942914D02*
X99690476Y-108990533D01*
X187261905Y-56657200D02*
X187404762Y-56704819D01*
X187404762Y-56704819D02*
X187642857Y-56704819D01*
X187642857Y-56704819D02*
X187738095Y-56657200D01*
X187738095Y-56657200D02*
X187785714Y-56609580D01*
X187785714Y-56609580D02*
X187833333Y-56514342D01*
X187833333Y-56514342D02*
X187833333Y-56419104D01*
X187833333Y-56419104D02*
X187785714Y-56323866D01*
X187785714Y-56323866D02*
X187738095Y-56276247D01*
X187738095Y-56276247D02*
X187642857Y-56228628D01*
X187642857Y-56228628D02*
X187452381Y-56181009D01*
X187452381Y-56181009D02*
X187357143Y-56133390D01*
X187357143Y-56133390D02*
X187309524Y-56085771D01*
X187309524Y-56085771D02*
X187261905Y-55990533D01*
X187261905Y-55990533D02*
X187261905Y-55895295D01*
X187261905Y-55895295D02*
X187309524Y-55800057D01*
X187309524Y-55800057D02*
X187357143Y-55752438D01*
X187357143Y-55752438D02*
X187452381Y-55704819D01*
X187452381Y-55704819D02*
X187690476Y-55704819D01*
X187690476Y-55704819D02*
X187833333Y-55752438D01*
X188166667Y-55704819D02*
X188404762Y-56704819D01*
X188404762Y-56704819D02*
X188595238Y-55990533D01*
X188595238Y-55990533D02*
X188785714Y-56704819D01*
X188785714Y-56704819D02*
X189023810Y-55704819D01*
X189880952Y-56704819D02*
X189404762Y-56704819D01*
X189404762Y-56704819D02*
X189404762Y-55704819D01*
X190738095Y-56704819D02*
X190166667Y-56704819D01*
X190452381Y-56704819D02*
X190452381Y-55704819D01*
X190452381Y-55704819D02*
X190357143Y-55847676D01*
X190357143Y-55847676D02*
X190261905Y-55942914D01*
X190261905Y-55942914D02*
X190166667Y-55990533D01*
X147238095Y-56657200D02*
X147380952Y-56704819D01*
X147380952Y-56704819D02*
X147619047Y-56704819D01*
X147619047Y-56704819D02*
X147714285Y-56657200D01*
X147714285Y-56657200D02*
X147761904Y-56609580D01*
X147761904Y-56609580D02*
X147809523Y-56514342D01*
X147809523Y-56514342D02*
X147809523Y-56419104D01*
X147809523Y-56419104D02*
X147761904Y-56323866D01*
X147761904Y-56323866D02*
X147714285Y-56276247D01*
X147714285Y-56276247D02*
X147619047Y-56228628D01*
X147619047Y-56228628D02*
X147428571Y-56181009D01*
X147428571Y-56181009D02*
X147333333Y-56133390D01*
X147333333Y-56133390D02*
X147285714Y-56085771D01*
X147285714Y-56085771D02*
X147238095Y-55990533D01*
X147238095Y-55990533D02*
X147238095Y-55895295D01*
X147238095Y-55895295D02*
X147285714Y-55800057D01*
X147285714Y-55800057D02*
X147333333Y-55752438D01*
X147333333Y-55752438D02*
X147428571Y-55704819D01*
X147428571Y-55704819D02*
X147666666Y-55704819D01*
X147666666Y-55704819D02*
X147809523Y-55752438D01*
X148142857Y-55704819D02*
X148380952Y-56704819D01*
X148380952Y-56704819D02*
X148571428Y-55990533D01*
X148571428Y-55990533D02*
X148761904Y-56704819D01*
X148761904Y-56704819D02*
X149000000Y-55704819D01*
X149714285Y-56181009D02*
X149380952Y-56181009D01*
X149380952Y-56704819D02*
X149380952Y-55704819D01*
X149380952Y-55704819D02*
X149857142Y-55704819D01*
X150761904Y-56704819D02*
X150190476Y-56704819D01*
X150476190Y-56704819D02*
X150476190Y-55704819D01*
X150476190Y-55704819D02*
X150380952Y-55847676D01*
X150380952Y-55847676D02*
X150285714Y-55942914D01*
X150285714Y-55942914D02*
X150190476Y-55990533D01*
X187166667Y-76657200D02*
X187309524Y-76704819D01*
X187309524Y-76704819D02*
X187547619Y-76704819D01*
X187547619Y-76704819D02*
X187642857Y-76657200D01*
X187642857Y-76657200D02*
X187690476Y-76609580D01*
X187690476Y-76609580D02*
X187738095Y-76514342D01*
X187738095Y-76514342D02*
X187738095Y-76419104D01*
X187738095Y-76419104D02*
X187690476Y-76323866D01*
X187690476Y-76323866D02*
X187642857Y-76276247D01*
X187642857Y-76276247D02*
X187547619Y-76228628D01*
X187547619Y-76228628D02*
X187357143Y-76181009D01*
X187357143Y-76181009D02*
X187261905Y-76133390D01*
X187261905Y-76133390D02*
X187214286Y-76085771D01*
X187214286Y-76085771D02*
X187166667Y-75990533D01*
X187166667Y-75990533D02*
X187166667Y-75895295D01*
X187166667Y-75895295D02*
X187214286Y-75800057D01*
X187214286Y-75800057D02*
X187261905Y-75752438D01*
X187261905Y-75752438D02*
X187357143Y-75704819D01*
X187357143Y-75704819D02*
X187595238Y-75704819D01*
X187595238Y-75704819D02*
X187738095Y-75752438D01*
X188071429Y-75704819D02*
X188309524Y-76704819D01*
X188309524Y-76704819D02*
X188500000Y-75990533D01*
X188500000Y-75990533D02*
X188690476Y-76704819D01*
X188690476Y-76704819D02*
X188928572Y-75704819D01*
X189833333Y-75752438D02*
X189738095Y-75704819D01*
X189738095Y-75704819D02*
X189595238Y-75704819D01*
X189595238Y-75704819D02*
X189452381Y-75752438D01*
X189452381Y-75752438D02*
X189357143Y-75847676D01*
X189357143Y-75847676D02*
X189309524Y-75942914D01*
X189309524Y-75942914D02*
X189261905Y-76133390D01*
X189261905Y-76133390D02*
X189261905Y-76276247D01*
X189261905Y-76276247D02*
X189309524Y-76466723D01*
X189309524Y-76466723D02*
X189357143Y-76561961D01*
X189357143Y-76561961D02*
X189452381Y-76657200D01*
X189452381Y-76657200D02*
X189595238Y-76704819D01*
X189595238Y-76704819D02*
X189690476Y-76704819D01*
X189690476Y-76704819D02*
X189833333Y-76657200D01*
X189833333Y-76657200D02*
X189880952Y-76609580D01*
X189880952Y-76609580D02*
X189880952Y-76276247D01*
X189880952Y-76276247D02*
X189690476Y-76276247D01*
X190833333Y-76704819D02*
X190261905Y-76704819D01*
X190547619Y-76704819D02*
X190547619Y-75704819D01*
X190547619Y-75704819D02*
X190452381Y-75847676D01*
X190452381Y-75847676D02*
X190357143Y-75942914D01*
X190357143Y-75942914D02*
X190261905Y-75990533D01*
X67166667Y-76657200D02*
X67309524Y-76704819D01*
X67309524Y-76704819D02*
X67547619Y-76704819D01*
X67547619Y-76704819D02*
X67642857Y-76657200D01*
X67642857Y-76657200D02*
X67690476Y-76609580D01*
X67690476Y-76609580D02*
X67738095Y-76514342D01*
X67738095Y-76514342D02*
X67738095Y-76419104D01*
X67738095Y-76419104D02*
X67690476Y-76323866D01*
X67690476Y-76323866D02*
X67642857Y-76276247D01*
X67642857Y-76276247D02*
X67547619Y-76228628D01*
X67547619Y-76228628D02*
X67357143Y-76181009D01*
X67357143Y-76181009D02*
X67261905Y-76133390D01*
X67261905Y-76133390D02*
X67214286Y-76085771D01*
X67214286Y-76085771D02*
X67166667Y-75990533D01*
X67166667Y-75990533D02*
X67166667Y-75895295D01*
X67166667Y-75895295D02*
X67214286Y-75800057D01*
X67214286Y-75800057D02*
X67261905Y-75752438D01*
X67261905Y-75752438D02*
X67357143Y-75704819D01*
X67357143Y-75704819D02*
X67595238Y-75704819D01*
X67595238Y-75704819D02*
X67738095Y-75752438D01*
X68071429Y-75704819D02*
X68309524Y-76704819D01*
X68309524Y-76704819D02*
X68500000Y-75990533D01*
X68500000Y-75990533D02*
X68690476Y-76704819D01*
X68690476Y-76704819D02*
X68928572Y-75704819D01*
X69309524Y-76704819D02*
X69309524Y-75704819D01*
X69880952Y-76704819D02*
X69452381Y-76133390D01*
X69880952Y-75704819D02*
X69309524Y-76276247D01*
X70833333Y-76704819D02*
X70261905Y-76704819D01*
X70547619Y-76704819D02*
X70547619Y-75704819D01*
X70547619Y-75704819D02*
X70452381Y-75847676D01*
X70452381Y-75847676D02*
X70357143Y-75942914D01*
X70357143Y-75942914D02*
X70261905Y-75990533D01*
X227166667Y-56657200D02*
X227309524Y-56704819D01*
X227309524Y-56704819D02*
X227547619Y-56704819D01*
X227547619Y-56704819D02*
X227642857Y-56657200D01*
X227642857Y-56657200D02*
X227690476Y-56609580D01*
X227690476Y-56609580D02*
X227738095Y-56514342D01*
X227738095Y-56514342D02*
X227738095Y-56419104D01*
X227738095Y-56419104D02*
X227690476Y-56323866D01*
X227690476Y-56323866D02*
X227642857Y-56276247D01*
X227642857Y-56276247D02*
X227547619Y-56228628D01*
X227547619Y-56228628D02*
X227357143Y-56181009D01*
X227357143Y-56181009D02*
X227261905Y-56133390D01*
X227261905Y-56133390D02*
X227214286Y-56085771D01*
X227214286Y-56085771D02*
X227166667Y-55990533D01*
X227166667Y-55990533D02*
X227166667Y-55895295D01*
X227166667Y-55895295D02*
X227214286Y-55800057D01*
X227214286Y-55800057D02*
X227261905Y-55752438D01*
X227261905Y-55752438D02*
X227357143Y-55704819D01*
X227357143Y-55704819D02*
X227595238Y-55704819D01*
X227595238Y-55704819D02*
X227738095Y-55752438D01*
X228071429Y-55704819D02*
X228309524Y-56704819D01*
X228309524Y-56704819D02*
X228500000Y-55990533D01*
X228500000Y-55990533D02*
X228690476Y-56704819D01*
X228690476Y-56704819D02*
X228928572Y-55704819D01*
X229309524Y-56704819D02*
X229309524Y-55704819D01*
X229309524Y-55704819D02*
X229547619Y-55704819D01*
X229547619Y-55704819D02*
X229690476Y-55752438D01*
X229690476Y-55752438D02*
X229785714Y-55847676D01*
X229785714Y-55847676D02*
X229833333Y-55942914D01*
X229833333Y-55942914D02*
X229880952Y-56133390D01*
X229880952Y-56133390D02*
X229880952Y-56276247D01*
X229880952Y-56276247D02*
X229833333Y-56466723D01*
X229833333Y-56466723D02*
X229785714Y-56561961D01*
X229785714Y-56561961D02*
X229690476Y-56657200D01*
X229690476Y-56657200D02*
X229547619Y-56704819D01*
X229547619Y-56704819D02*
X229309524Y-56704819D01*
X230833333Y-56704819D02*
X230261905Y-56704819D01*
X230547619Y-56704819D02*
X230547619Y-55704819D01*
X230547619Y-55704819D02*
X230452381Y-55847676D01*
X230452381Y-55847676D02*
X230357143Y-55942914D01*
X230357143Y-55942914D02*
X230261905Y-55990533D01*
X87095238Y-76657200D02*
X87238095Y-76704819D01*
X87238095Y-76704819D02*
X87476190Y-76704819D01*
X87476190Y-76704819D02*
X87571428Y-76657200D01*
X87571428Y-76657200D02*
X87619047Y-76609580D01*
X87619047Y-76609580D02*
X87666666Y-76514342D01*
X87666666Y-76514342D02*
X87666666Y-76419104D01*
X87666666Y-76419104D02*
X87619047Y-76323866D01*
X87619047Y-76323866D02*
X87571428Y-76276247D01*
X87571428Y-76276247D02*
X87476190Y-76228628D01*
X87476190Y-76228628D02*
X87285714Y-76181009D01*
X87285714Y-76181009D02*
X87190476Y-76133390D01*
X87190476Y-76133390D02*
X87142857Y-76085771D01*
X87142857Y-76085771D02*
X87095238Y-75990533D01*
X87095238Y-75990533D02*
X87095238Y-75895295D01*
X87095238Y-75895295D02*
X87142857Y-75800057D01*
X87142857Y-75800057D02*
X87190476Y-75752438D01*
X87190476Y-75752438D02*
X87285714Y-75704819D01*
X87285714Y-75704819D02*
X87523809Y-75704819D01*
X87523809Y-75704819D02*
X87666666Y-75752438D01*
X88000000Y-75704819D02*
X88238095Y-76704819D01*
X88238095Y-76704819D02*
X88428571Y-75990533D01*
X88428571Y-75990533D02*
X88619047Y-76704819D01*
X88619047Y-76704819D02*
X88857143Y-75704819D01*
X89142857Y-75704819D02*
X89380952Y-76704819D01*
X89380952Y-76704819D02*
X89571428Y-75990533D01*
X89571428Y-75990533D02*
X89761904Y-76704819D01*
X89761904Y-76704819D02*
X90000000Y-75704819D01*
X90904761Y-76704819D02*
X90333333Y-76704819D01*
X90619047Y-76704819D02*
X90619047Y-75704819D01*
X90619047Y-75704819D02*
X90523809Y-75847676D01*
X90523809Y-75847676D02*
X90428571Y-75942914D01*
X90428571Y-75942914D02*
X90333333Y-75990533D01*
X107166667Y-76657200D02*
X107309524Y-76704819D01*
X107309524Y-76704819D02*
X107547619Y-76704819D01*
X107547619Y-76704819D02*
X107642857Y-76657200D01*
X107642857Y-76657200D02*
X107690476Y-76609580D01*
X107690476Y-76609580D02*
X107738095Y-76514342D01*
X107738095Y-76514342D02*
X107738095Y-76419104D01*
X107738095Y-76419104D02*
X107690476Y-76323866D01*
X107690476Y-76323866D02*
X107642857Y-76276247D01*
X107642857Y-76276247D02*
X107547619Y-76228628D01*
X107547619Y-76228628D02*
X107357143Y-76181009D01*
X107357143Y-76181009D02*
X107261905Y-76133390D01*
X107261905Y-76133390D02*
X107214286Y-76085771D01*
X107214286Y-76085771D02*
X107166667Y-75990533D01*
X107166667Y-75990533D02*
X107166667Y-75895295D01*
X107166667Y-75895295D02*
X107214286Y-75800057D01*
X107214286Y-75800057D02*
X107261905Y-75752438D01*
X107261905Y-75752438D02*
X107357143Y-75704819D01*
X107357143Y-75704819D02*
X107595238Y-75704819D01*
X107595238Y-75704819D02*
X107738095Y-75752438D01*
X108071429Y-75704819D02*
X108309524Y-76704819D01*
X108309524Y-76704819D02*
X108500000Y-75990533D01*
X108500000Y-75990533D02*
X108690476Y-76704819D01*
X108690476Y-76704819D02*
X108928572Y-75704819D01*
X109880952Y-76704819D02*
X109547619Y-76228628D01*
X109309524Y-76704819D02*
X109309524Y-75704819D01*
X109309524Y-75704819D02*
X109690476Y-75704819D01*
X109690476Y-75704819D02*
X109785714Y-75752438D01*
X109785714Y-75752438D02*
X109833333Y-75800057D01*
X109833333Y-75800057D02*
X109880952Y-75895295D01*
X109880952Y-75895295D02*
X109880952Y-76038152D01*
X109880952Y-76038152D02*
X109833333Y-76133390D01*
X109833333Y-76133390D02*
X109785714Y-76181009D01*
X109785714Y-76181009D02*
X109690476Y-76228628D01*
X109690476Y-76228628D02*
X109309524Y-76228628D01*
X110833333Y-76704819D02*
X110261905Y-76704819D01*
X110547619Y-76704819D02*
X110547619Y-75704819D01*
X110547619Y-75704819D02*
X110452381Y-75847676D01*
X110452381Y-75847676D02*
X110357143Y-75942914D01*
X110357143Y-75942914D02*
X110261905Y-75990533D01*
X87166667Y-56657200D02*
X87309524Y-56704819D01*
X87309524Y-56704819D02*
X87547619Y-56704819D01*
X87547619Y-56704819D02*
X87642857Y-56657200D01*
X87642857Y-56657200D02*
X87690476Y-56609580D01*
X87690476Y-56609580D02*
X87738095Y-56514342D01*
X87738095Y-56514342D02*
X87738095Y-56419104D01*
X87738095Y-56419104D02*
X87690476Y-56323866D01*
X87690476Y-56323866D02*
X87642857Y-56276247D01*
X87642857Y-56276247D02*
X87547619Y-56228628D01*
X87547619Y-56228628D02*
X87357143Y-56181009D01*
X87357143Y-56181009D02*
X87261905Y-56133390D01*
X87261905Y-56133390D02*
X87214286Y-56085771D01*
X87214286Y-56085771D02*
X87166667Y-55990533D01*
X87166667Y-55990533D02*
X87166667Y-55895295D01*
X87166667Y-55895295D02*
X87214286Y-55800057D01*
X87214286Y-55800057D02*
X87261905Y-55752438D01*
X87261905Y-55752438D02*
X87357143Y-55704819D01*
X87357143Y-55704819D02*
X87595238Y-55704819D01*
X87595238Y-55704819D02*
X87738095Y-55752438D01*
X88071429Y-55704819D02*
X88309524Y-56704819D01*
X88309524Y-56704819D02*
X88500000Y-55990533D01*
X88500000Y-55990533D02*
X88690476Y-56704819D01*
X88690476Y-56704819D02*
X88928572Y-55704819D01*
X89309524Y-56704819D02*
X89309524Y-55704819D01*
X89309524Y-55704819D02*
X89690476Y-55704819D01*
X89690476Y-55704819D02*
X89785714Y-55752438D01*
X89785714Y-55752438D02*
X89833333Y-55800057D01*
X89833333Y-55800057D02*
X89880952Y-55895295D01*
X89880952Y-55895295D02*
X89880952Y-56038152D01*
X89880952Y-56038152D02*
X89833333Y-56133390D01*
X89833333Y-56133390D02*
X89785714Y-56181009D01*
X89785714Y-56181009D02*
X89690476Y-56228628D01*
X89690476Y-56228628D02*
X89309524Y-56228628D01*
X90833333Y-56704819D02*
X90261905Y-56704819D01*
X90547619Y-56704819D02*
X90547619Y-55704819D01*
X90547619Y-55704819D02*
X90452381Y-55847676D01*
X90452381Y-55847676D02*
X90357143Y-55942914D01*
X90357143Y-55942914D02*
X90261905Y-55990533D01*
X47190476Y-67157200D02*
X47333333Y-67204819D01*
X47333333Y-67204819D02*
X47571428Y-67204819D01*
X47571428Y-67204819D02*
X47666666Y-67157200D01*
X47666666Y-67157200D02*
X47714285Y-67109580D01*
X47714285Y-67109580D02*
X47761904Y-67014342D01*
X47761904Y-67014342D02*
X47761904Y-66919104D01*
X47761904Y-66919104D02*
X47714285Y-66823866D01*
X47714285Y-66823866D02*
X47666666Y-66776247D01*
X47666666Y-66776247D02*
X47571428Y-66728628D01*
X47571428Y-66728628D02*
X47380952Y-66681009D01*
X47380952Y-66681009D02*
X47285714Y-66633390D01*
X47285714Y-66633390D02*
X47238095Y-66585771D01*
X47238095Y-66585771D02*
X47190476Y-66490533D01*
X47190476Y-66490533D02*
X47190476Y-66395295D01*
X47190476Y-66395295D02*
X47238095Y-66300057D01*
X47238095Y-66300057D02*
X47285714Y-66252438D01*
X47285714Y-66252438D02*
X47380952Y-66204819D01*
X47380952Y-66204819D02*
X47619047Y-66204819D01*
X47619047Y-66204819D02*
X47761904Y-66252438D01*
X48095238Y-66204819D02*
X48333333Y-67204819D01*
X48333333Y-67204819D02*
X48523809Y-66490533D01*
X48523809Y-66490533D02*
X48714285Y-67204819D01*
X48714285Y-67204819D02*
X48952381Y-66204819D01*
X49285714Y-67157200D02*
X49428571Y-67204819D01*
X49428571Y-67204819D02*
X49666666Y-67204819D01*
X49666666Y-67204819D02*
X49761904Y-67157200D01*
X49761904Y-67157200D02*
X49809523Y-67109580D01*
X49809523Y-67109580D02*
X49857142Y-67014342D01*
X49857142Y-67014342D02*
X49857142Y-66919104D01*
X49857142Y-66919104D02*
X49809523Y-66823866D01*
X49809523Y-66823866D02*
X49761904Y-66776247D01*
X49761904Y-66776247D02*
X49666666Y-66728628D01*
X49666666Y-66728628D02*
X49476190Y-66681009D01*
X49476190Y-66681009D02*
X49380952Y-66633390D01*
X49380952Y-66633390D02*
X49333333Y-66585771D01*
X49333333Y-66585771D02*
X49285714Y-66490533D01*
X49285714Y-66490533D02*
X49285714Y-66395295D01*
X49285714Y-66395295D02*
X49333333Y-66300057D01*
X49333333Y-66300057D02*
X49380952Y-66252438D01*
X49380952Y-66252438D02*
X49476190Y-66204819D01*
X49476190Y-66204819D02*
X49714285Y-66204819D01*
X49714285Y-66204819D02*
X49857142Y-66252438D01*
X50809523Y-67204819D02*
X50238095Y-67204819D01*
X50523809Y-67204819D02*
X50523809Y-66204819D01*
X50523809Y-66204819D02*
X50428571Y-66347676D01*
X50428571Y-66347676D02*
X50333333Y-66442914D01*
X50333333Y-66442914D02*
X50238095Y-66490533D01*
X138214286Y-109657200D02*
X138357143Y-109704819D01*
X138357143Y-109704819D02*
X138595238Y-109704819D01*
X138595238Y-109704819D02*
X138690476Y-109657200D01*
X138690476Y-109657200D02*
X138738095Y-109609580D01*
X138738095Y-109609580D02*
X138785714Y-109514342D01*
X138785714Y-109514342D02*
X138785714Y-109419104D01*
X138785714Y-109419104D02*
X138738095Y-109323866D01*
X138738095Y-109323866D02*
X138690476Y-109276247D01*
X138690476Y-109276247D02*
X138595238Y-109228628D01*
X138595238Y-109228628D02*
X138404762Y-109181009D01*
X138404762Y-109181009D02*
X138309524Y-109133390D01*
X138309524Y-109133390D02*
X138261905Y-109085771D01*
X138261905Y-109085771D02*
X138214286Y-108990533D01*
X138214286Y-108990533D02*
X138214286Y-108895295D01*
X138214286Y-108895295D02*
X138261905Y-108800057D01*
X138261905Y-108800057D02*
X138309524Y-108752438D01*
X138309524Y-108752438D02*
X138404762Y-108704819D01*
X138404762Y-108704819D02*
X138642857Y-108704819D01*
X138642857Y-108704819D02*
X138785714Y-108752438D01*
X139119048Y-108704819D02*
X139357143Y-109704819D01*
X139357143Y-109704819D02*
X139547619Y-108990533D01*
X139547619Y-108990533D02*
X139738095Y-109704819D01*
X139738095Y-109704819D02*
X139976191Y-108704819D01*
X140357143Y-109181009D02*
X140690476Y-109181009D01*
X140833333Y-109704819D02*
X140357143Y-109704819D01*
X140357143Y-109704819D02*
X140357143Y-108704819D01*
X140357143Y-108704819D02*
X140833333Y-108704819D01*
X141785714Y-109704819D02*
X141214286Y-109704819D01*
X141500000Y-109704819D02*
X141500000Y-108704819D01*
X141500000Y-108704819D02*
X141404762Y-108847676D01*
X141404762Y-108847676D02*
X141309524Y-108942914D01*
X141309524Y-108942914D02*
X141214286Y-108990533D01*
X207190476Y-76657200D02*
X207333333Y-76704819D01*
X207333333Y-76704819D02*
X207571428Y-76704819D01*
X207571428Y-76704819D02*
X207666666Y-76657200D01*
X207666666Y-76657200D02*
X207714285Y-76609580D01*
X207714285Y-76609580D02*
X207761904Y-76514342D01*
X207761904Y-76514342D02*
X207761904Y-76419104D01*
X207761904Y-76419104D02*
X207714285Y-76323866D01*
X207714285Y-76323866D02*
X207666666Y-76276247D01*
X207666666Y-76276247D02*
X207571428Y-76228628D01*
X207571428Y-76228628D02*
X207380952Y-76181009D01*
X207380952Y-76181009D02*
X207285714Y-76133390D01*
X207285714Y-76133390D02*
X207238095Y-76085771D01*
X207238095Y-76085771D02*
X207190476Y-75990533D01*
X207190476Y-75990533D02*
X207190476Y-75895295D01*
X207190476Y-75895295D02*
X207238095Y-75800057D01*
X207238095Y-75800057D02*
X207285714Y-75752438D01*
X207285714Y-75752438D02*
X207380952Y-75704819D01*
X207380952Y-75704819D02*
X207619047Y-75704819D01*
X207619047Y-75704819D02*
X207761904Y-75752438D01*
X208095238Y-75704819D02*
X208333333Y-76704819D01*
X208333333Y-76704819D02*
X208523809Y-75990533D01*
X208523809Y-75990533D02*
X208714285Y-76704819D01*
X208714285Y-76704819D02*
X208952381Y-75704819D01*
X209285714Y-76657200D02*
X209428571Y-76704819D01*
X209428571Y-76704819D02*
X209666666Y-76704819D01*
X209666666Y-76704819D02*
X209761904Y-76657200D01*
X209761904Y-76657200D02*
X209809523Y-76609580D01*
X209809523Y-76609580D02*
X209857142Y-76514342D01*
X209857142Y-76514342D02*
X209857142Y-76419104D01*
X209857142Y-76419104D02*
X209809523Y-76323866D01*
X209809523Y-76323866D02*
X209761904Y-76276247D01*
X209761904Y-76276247D02*
X209666666Y-76228628D01*
X209666666Y-76228628D02*
X209476190Y-76181009D01*
X209476190Y-76181009D02*
X209380952Y-76133390D01*
X209380952Y-76133390D02*
X209333333Y-76085771D01*
X209333333Y-76085771D02*
X209285714Y-75990533D01*
X209285714Y-75990533D02*
X209285714Y-75895295D01*
X209285714Y-75895295D02*
X209333333Y-75800057D01*
X209333333Y-75800057D02*
X209380952Y-75752438D01*
X209380952Y-75752438D02*
X209476190Y-75704819D01*
X209476190Y-75704819D02*
X209714285Y-75704819D01*
X209714285Y-75704819D02*
X209857142Y-75752438D01*
X210238095Y-75800057D02*
X210285714Y-75752438D01*
X210285714Y-75752438D02*
X210380952Y-75704819D01*
X210380952Y-75704819D02*
X210619047Y-75704819D01*
X210619047Y-75704819D02*
X210714285Y-75752438D01*
X210714285Y-75752438D02*
X210761904Y-75800057D01*
X210761904Y-75800057D02*
X210809523Y-75895295D01*
X210809523Y-75895295D02*
X210809523Y-75990533D01*
X210809523Y-75990533D02*
X210761904Y-76133390D01*
X210761904Y-76133390D02*
X210190476Y-76704819D01*
X210190476Y-76704819D02*
X210809523Y-76704819D01*
D13*
%TO.C,D24*%
X70780000Y-39030000D02*
X70780000Y-39160000D01*
X70780000Y-41970000D02*
X70780000Y-41840000D01*
X75200000Y-41970000D02*
X75200000Y-39030000D01*
X75320000Y-41970000D02*
X75320000Y-39030000D01*
X75440000Y-41970000D02*
X75440000Y-39030000D01*
X76220000Y-39030000D02*
X70780000Y-39030000D01*
X76220000Y-39160000D02*
X76220000Y-39030000D01*
X76220000Y-41840000D02*
X76220000Y-41970000D01*
X76220000Y-41970000D02*
X70780000Y-41970000D01*
%TO.C,D23*%
X150280000Y-50530000D02*
X155720000Y-50530000D01*
X150280000Y-50660000D02*
X150280000Y-50530000D01*
X150280000Y-53340000D02*
X150280000Y-53470000D01*
X150280000Y-53470000D02*
X155720000Y-53470000D01*
X151060000Y-50530000D02*
X151060000Y-53470000D01*
X151180000Y-50530000D02*
X151180000Y-53470000D01*
X151300000Y-50530000D02*
X151300000Y-53470000D01*
X155720000Y-50530000D02*
X155720000Y-50660000D01*
X155720000Y-53470000D02*
X155720000Y-53340000D01*
%TO.C,D22*%
X94720000Y-98470000D02*
X89280000Y-98470000D01*
X94720000Y-98340000D02*
X94720000Y-98470000D01*
X94720000Y-95660000D02*
X94720000Y-95530000D01*
X94720000Y-95530000D02*
X89280000Y-95530000D01*
X93940000Y-98470000D02*
X93940000Y-95530000D01*
X93820000Y-98470000D02*
X93820000Y-95530000D01*
X93700000Y-98470000D02*
X93700000Y-95530000D01*
X89280000Y-98470000D02*
X89280000Y-98340000D01*
X89280000Y-95530000D02*
X89280000Y-95660000D01*
%TO.C,D21*%
X200530000Y-44220000D02*
X200530000Y-38780000D01*
X200660000Y-44220000D02*
X200530000Y-44220000D01*
X203340000Y-44220000D02*
X203470000Y-44220000D01*
X203470000Y-44220000D02*
X203470000Y-38780000D01*
X200530000Y-43440000D02*
X203470000Y-43440000D01*
X200530000Y-43320000D02*
X203470000Y-43320000D01*
X200530000Y-43200000D02*
X203470000Y-43200000D01*
X200530000Y-38780000D02*
X200660000Y-38780000D01*
X203470000Y-38780000D02*
X203340000Y-38780000D01*
%TO.C,D20*%
X209220000Y-97970000D02*
X203780000Y-97970000D01*
X209220000Y-97840000D02*
X209220000Y-97970000D01*
X209220000Y-95160000D02*
X209220000Y-95030000D01*
X209220000Y-95030000D02*
X203780000Y-95030000D01*
X208440000Y-97970000D02*
X208440000Y-95030000D01*
X208320000Y-97970000D02*
X208320000Y-95030000D01*
X208200000Y-97970000D02*
X208200000Y-95030000D01*
X203780000Y-97970000D02*
X203780000Y-97840000D01*
X203780000Y-95030000D02*
X203780000Y-95160000D01*
%TO.C,D19*%
X106720000Y-53970000D02*
X101280000Y-53970000D01*
X106720000Y-53840000D02*
X106720000Y-53970000D01*
X106720000Y-51160000D02*
X106720000Y-51030000D01*
X106720000Y-51030000D02*
X101280000Y-51030000D01*
X105940000Y-53970000D02*
X105940000Y-51030000D01*
X105820000Y-53970000D02*
X105820000Y-51030000D01*
X105700000Y-53970000D02*
X105700000Y-51030000D01*
X101280000Y-53970000D02*
X101280000Y-53840000D01*
X101280000Y-51030000D02*
X101280000Y-51160000D01*
%TO.C,D18*%
X155220000Y-98470000D02*
X149780000Y-98470000D01*
X155220000Y-98340000D02*
X155220000Y-98470000D01*
X155220000Y-95660000D02*
X155220000Y-95530000D01*
X155220000Y-95530000D02*
X149780000Y-95530000D01*
X154440000Y-98470000D02*
X154440000Y-95530000D01*
X154320000Y-98470000D02*
X154320000Y-95530000D01*
X154200000Y-98470000D02*
X154200000Y-95530000D01*
X149780000Y-98470000D02*
X149780000Y-98340000D01*
X149780000Y-95530000D02*
X149780000Y-95660000D01*
%TO.C,D17*%
X205280000Y-49530000D02*
X210720000Y-49530000D01*
X205280000Y-49660000D02*
X205280000Y-49530000D01*
X205280000Y-52340000D02*
X205280000Y-52470000D01*
X205280000Y-52470000D02*
X210720000Y-52470000D01*
X206060000Y-49530000D02*
X206060000Y-52470000D01*
X206180000Y-49530000D02*
X206180000Y-52470000D01*
X206300000Y-49530000D02*
X206300000Y-52470000D01*
X210720000Y-49530000D02*
X210720000Y-49660000D01*
X210720000Y-52470000D02*
X210720000Y-52340000D01*
%TO.C,D16*%
X67280000Y-95530000D02*
X72720000Y-95530000D01*
X67280000Y-95660000D02*
X67280000Y-95530000D01*
X67280000Y-98340000D02*
X67280000Y-98470000D01*
X67280000Y-98470000D02*
X72720000Y-98470000D01*
X68060000Y-95530000D02*
X68060000Y-98470000D01*
X68180000Y-95530000D02*
X68180000Y-98470000D01*
X68300000Y-95530000D02*
X68300000Y-98470000D01*
X72720000Y-95530000D02*
X72720000Y-95660000D01*
X72720000Y-98470000D02*
X72720000Y-98340000D01*
%TO.C,D15*%
X98280000Y-100530000D02*
X98280000Y-100660000D01*
X98280000Y-103470000D02*
X98280000Y-103340000D01*
X102700000Y-103470000D02*
X102700000Y-100530000D01*
X102820000Y-103470000D02*
X102820000Y-100530000D01*
X102940000Y-103470000D02*
X102940000Y-100530000D01*
X103720000Y-100530000D02*
X98280000Y-100530000D01*
X103720000Y-100660000D02*
X103720000Y-100530000D01*
X103720000Y-103340000D02*
X103720000Y-103470000D01*
X103720000Y-103470000D02*
X98280000Y-103470000D01*
%TO.C,D14*%
X119220000Y-99970000D02*
X113780000Y-99970000D01*
X119220000Y-99840000D02*
X119220000Y-99970000D01*
X119220000Y-97160000D02*
X119220000Y-97030000D01*
X119220000Y-97030000D02*
X113780000Y-97030000D01*
X118440000Y-99970000D02*
X118440000Y-97030000D01*
X118320000Y-99970000D02*
X118320000Y-97030000D01*
X118200000Y-99970000D02*
X118200000Y-97030000D01*
X113780000Y-99970000D02*
X113780000Y-99840000D01*
X113780000Y-97030000D02*
X113780000Y-97160000D01*
%TO.C,D13*%
X134720000Y-61970000D02*
X134720000Y-61840000D01*
X134720000Y-59030000D02*
X134720000Y-59160000D01*
X130300000Y-59030000D02*
X130300000Y-61970000D01*
X130180000Y-59030000D02*
X130180000Y-61970000D01*
X130060000Y-59030000D02*
X130060000Y-61970000D01*
X129280000Y-61970000D02*
X134720000Y-61970000D01*
X129280000Y-61840000D02*
X129280000Y-61970000D01*
X129280000Y-59160000D02*
X129280000Y-59030000D01*
X129280000Y-59030000D02*
X134720000Y-59030000D01*
%TO.C,D12*%
X159280000Y-104030000D02*
X164720000Y-104030000D01*
X159280000Y-104160000D02*
X159280000Y-104030000D01*
X159280000Y-106840000D02*
X159280000Y-106970000D01*
X159280000Y-106970000D02*
X164720000Y-106970000D01*
X160060000Y-104030000D02*
X160060000Y-106970000D01*
X160180000Y-104030000D02*
X160180000Y-106970000D01*
X160300000Y-104030000D02*
X160300000Y-106970000D01*
X164720000Y-104030000D02*
X164720000Y-104160000D01*
X164720000Y-106970000D02*
X164720000Y-106840000D01*
%TO.C,D11*%
X127780000Y-85530000D02*
X133220000Y-85530000D01*
X127780000Y-85660000D02*
X127780000Y-85530000D01*
X127780000Y-88340000D02*
X127780000Y-88470000D01*
X127780000Y-88470000D02*
X133220000Y-88470000D01*
X128560000Y-85530000D02*
X128560000Y-88470000D01*
X128680000Y-85530000D02*
X128680000Y-88470000D01*
X128800000Y-85530000D02*
X128800000Y-88470000D01*
X133220000Y-85530000D02*
X133220000Y-85660000D01*
X133220000Y-88470000D02*
X133220000Y-88340000D01*
%TO.C,D10*%
X126910000Y-107470000D02*
X121470000Y-107470000D01*
X126910000Y-107340000D02*
X126910000Y-107470000D01*
X126910000Y-104660000D02*
X126910000Y-104530000D01*
X126910000Y-104530000D02*
X121470000Y-104530000D01*
X126130000Y-107470000D02*
X126130000Y-104530000D01*
X126010000Y-107470000D02*
X126010000Y-104530000D01*
X125890000Y-107470000D02*
X125890000Y-104530000D01*
X121470000Y-107470000D02*
X121470000Y-107340000D01*
X121470000Y-104530000D02*
X121470000Y-104660000D01*
%TO.C,D9*%
X75030000Y-51720000D02*
X75030000Y-46280000D01*
X75160000Y-51720000D02*
X75030000Y-51720000D01*
X77840000Y-51720000D02*
X77970000Y-51720000D01*
X77970000Y-51720000D02*
X77970000Y-46280000D01*
X75030000Y-50940000D02*
X77970000Y-50940000D01*
X75030000Y-50820000D02*
X77970000Y-50820000D01*
X75030000Y-50700000D02*
X77970000Y-50700000D01*
X75030000Y-46280000D02*
X75160000Y-46280000D01*
X77970000Y-46280000D02*
X77840000Y-46280000D01*
%TO.C,D8*%
X168280000Y-96030000D02*
X173720000Y-96030000D01*
X168280000Y-96160000D02*
X168280000Y-96030000D01*
X168280000Y-98840000D02*
X168280000Y-98970000D01*
X168280000Y-98970000D02*
X173720000Y-98970000D01*
X169060000Y-96030000D02*
X169060000Y-98970000D01*
X169180000Y-96030000D02*
X169180000Y-98970000D01*
X169300000Y-96030000D02*
X169300000Y-98970000D01*
X173720000Y-96030000D02*
X173720000Y-96160000D01*
X173720000Y-98970000D02*
X173720000Y-98840000D01*
%TO.C,D7*%
X170780000Y-50530000D02*
X176220000Y-50530000D01*
X170780000Y-50660000D02*
X170780000Y-50530000D01*
X170780000Y-53340000D02*
X170780000Y-53470000D01*
X170780000Y-53470000D02*
X176220000Y-53470000D01*
X171560000Y-50530000D02*
X171560000Y-53470000D01*
X171680000Y-50530000D02*
X171680000Y-53470000D01*
X171800000Y-50530000D02*
X171800000Y-53470000D01*
X176220000Y-50530000D02*
X176220000Y-50660000D01*
X176220000Y-53470000D02*
X176220000Y-53340000D01*
%TO.C,D6*%
X184090000Y-95530000D02*
X189530000Y-95530000D01*
X184090000Y-95660000D02*
X184090000Y-95530000D01*
X184090000Y-98340000D02*
X184090000Y-98470000D01*
X184090000Y-98470000D02*
X189530000Y-98470000D01*
X184870000Y-95530000D02*
X184870000Y-98470000D01*
X184990000Y-95530000D02*
X184990000Y-98470000D01*
X185110000Y-95530000D02*
X185110000Y-98470000D01*
X189530000Y-95530000D02*
X189530000Y-95660000D01*
X189530000Y-98470000D02*
X189530000Y-98340000D01*
%TO.C,D5*%
X65280000Y-52030000D02*
X70720000Y-52030000D01*
X65280000Y-52160000D02*
X65280000Y-52030000D01*
X65280000Y-54840000D02*
X65280000Y-54970000D01*
X65280000Y-54970000D02*
X70720000Y-54970000D01*
X66060000Y-52030000D02*
X66060000Y-54970000D01*
X66180000Y-52030000D02*
X66180000Y-54970000D01*
X66300000Y-52030000D02*
X66300000Y-54970000D01*
X70720000Y-52030000D02*
X70720000Y-52160000D01*
X70720000Y-54970000D02*
X70720000Y-54840000D01*
%TO.C,D4*%
X143220000Y-104470000D02*
X137780000Y-104470000D01*
X143220000Y-104340000D02*
X143220000Y-104470000D01*
X143220000Y-101660000D02*
X143220000Y-101530000D01*
X143220000Y-101530000D02*
X137780000Y-101530000D01*
X142440000Y-104470000D02*
X142440000Y-101530000D01*
X142320000Y-104470000D02*
X142320000Y-101530000D01*
X142200000Y-104470000D02*
X142200000Y-101530000D01*
X137780000Y-104470000D02*
X137780000Y-104340000D01*
X137780000Y-101530000D02*
X137780000Y-101660000D01*
%TO.C,D3*%
X223280000Y-93530000D02*
X228720000Y-93530000D01*
X223280000Y-93660000D02*
X223280000Y-93530000D01*
X223280000Y-96340000D02*
X223280000Y-96470000D01*
X223280000Y-96470000D02*
X228720000Y-96470000D01*
X224060000Y-93530000D02*
X224060000Y-96470000D01*
X224180000Y-93530000D02*
X224180000Y-96470000D01*
X224300000Y-93530000D02*
X224300000Y-96470000D01*
X228720000Y-93530000D02*
X228720000Y-93660000D01*
X228720000Y-96470000D02*
X228720000Y-96340000D01*
%TO.C,D2*%
X222527500Y-50530000D02*
X227967500Y-50530000D01*
X222527500Y-50660000D02*
X222527500Y-50530000D01*
X222527500Y-53340000D02*
X222527500Y-53470000D01*
X222527500Y-53470000D02*
X227967500Y-53470000D01*
X223307500Y-50530000D02*
X223307500Y-53470000D01*
X223427500Y-50530000D02*
X223427500Y-53470000D01*
X223547500Y-50530000D02*
X223547500Y-53470000D01*
X227967500Y-50530000D02*
X227967500Y-50660000D01*
X227967500Y-53470000D02*
X227967500Y-53340000D01*
%TO.C,D1*%
X56220000Y-64470000D02*
X50780000Y-64470000D01*
X56220000Y-64340000D02*
X56220000Y-64470000D01*
X56220000Y-61660000D02*
X56220000Y-61530000D01*
X56220000Y-61530000D02*
X50780000Y-61530000D01*
X55440000Y-64470000D02*
X55440000Y-61530000D01*
X55320000Y-64470000D02*
X55320000Y-61530000D01*
X55200000Y-64470000D02*
X55200000Y-61530000D01*
X50780000Y-64470000D02*
X50780000Y-64340000D01*
X50780000Y-61530000D02*
X50780000Y-61660000D01*
%TO.C,SWZ1*%
X220150000Y-77250000D02*
X237850000Y-77250000D01*
X220150000Y-91750000D02*
X220150000Y-77250000D01*
X237850000Y-77250000D02*
X237850000Y-91750000D01*
X237850000Y-91750000D02*
X220150000Y-91750000D01*
%TO.C,SW#2*%
X180150000Y-37250000D02*
X197850000Y-37250000D01*
X180150000Y-51750000D02*
X180150000Y-37250000D01*
X197850000Y-37250000D02*
X197850000Y-51750000D01*
X197850000Y-51750000D02*
X180150000Y-51750000D01*
%TO.C,SW\u002A1*%
X120150000Y-67250000D02*
X137850000Y-67250000D01*
X120150000Y-81750000D02*
X120150000Y-67250000D01*
X137850000Y-67250000D02*
X137850000Y-81750000D01*
X137850000Y-81750000D02*
X120150000Y-81750000D01*
%TO.C,SWT2*%
X200150000Y-57250000D02*
X217850000Y-57250000D01*
X200150000Y-71750000D02*
X200150000Y-57250000D01*
X217850000Y-57250000D02*
X217850000Y-71750000D01*
X217850000Y-71750000D02*
X200150000Y-71750000D01*
%TO.C,SWR2*%
X140150000Y-77250000D02*
X157850000Y-77250000D01*
X140150000Y-91750000D02*
X140150000Y-77250000D01*
X157850000Y-77250000D02*
X157850000Y-91750000D01*
X157850000Y-91750000D02*
X140150000Y-91750000D01*
%TO.C,SWP2*%
X160150000Y-57250000D02*
X177850000Y-57250000D01*
X160150000Y-71750000D02*
X160150000Y-57250000D01*
X177850000Y-57250000D02*
X177850000Y-71750000D01*
X177850000Y-71750000D02*
X160150000Y-71750000D01*
%TO.C,SWO1*%
X109150000Y-110250000D02*
X126850000Y-110250000D01*
X109150000Y-124750000D02*
X109150000Y-110250000D01*
X126850000Y-110250000D02*
X126850000Y-124750000D01*
X126850000Y-124750000D02*
X109150000Y-124750000D01*
%TO.C,SW#1*%
X80150000Y-37250000D02*
X97850000Y-37250000D01*
X80150000Y-51750000D02*
X80150000Y-37250000D01*
X97850000Y-37250000D02*
X97850000Y-51750000D01*
X97850000Y-51750000D02*
X80150000Y-51750000D01*
%TO.C,SWU1*%
X151150000Y-110250000D02*
X168850000Y-110250000D01*
X151150000Y-124750000D02*
X151150000Y-110250000D01*
X168850000Y-110250000D02*
X168850000Y-124750000D01*
X168850000Y-124750000D02*
X151150000Y-124750000D01*
%TO.C,SWB1*%
X160150000Y-77250000D02*
X177850000Y-77250000D01*
X160150000Y-91750000D02*
X160150000Y-77250000D01*
X177850000Y-77250000D02*
X177850000Y-91750000D01*
X177850000Y-91750000D02*
X160150000Y-91750000D01*
D14*
%TO.C,U1*%
X120100000Y-35350000D02*
X120100000Y-52350000D01*
X122100000Y-54350000D02*
X135900000Y-54350000D01*
X124500000Y-31925970D02*
X133500000Y-31925970D01*
X124500000Y-39279270D02*
X124500000Y-31925970D01*
X133500000Y-31925970D02*
X133500000Y-39279270D01*
X133500000Y-39279270D02*
X124500000Y-39279270D01*
X135900000Y-33350910D02*
X122100000Y-33350910D01*
X137900000Y-52350000D02*
X137900000Y-35350000D01*
D13*
X120100000Y-35350000D02*
G75*
G02*
X122100000Y-33350000I2044612J-44612D01*
G01*
X122100000Y-54350000D02*
G75*
G02*
X120100000Y-52350000I44857J2044857D01*
G01*
X135900000Y-33350000D02*
G75*
G02*
X137900000Y-35350000I-44600J-2044600D01*
G01*
X137900000Y-52350000D02*
G75*
G02*
X135900000Y-54350000I-2000000J0D01*
G01*
D15*
X118127000Y-35050000D02*
G75*
G02*
X117873000Y-35050000I-127000J0D01*
G01*
X117873000Y-35050000D02*
G75*
G02*
X118127000Y-35050000I127000J0D01*
G01*
D16*
X120112285Y-35288295D02*
X120115333Y-35239527D01*
X120119397Y-35190506D01*
X120112285Y-35288295D01*
X137887713Y-52420850D02*
X137884665Y-52469618D01*
X137880601Y-52518639D01*
X137875268Y-52567407D01*
X137868664Y-52616175D01*
X137861044Y-52664690D01*
X137852153Y-52712950D01*
X137842248Y-52760955D01*
X137889492Y-52371574D01*
X137887713Y-52420850D01*
D13*
%TO.C,SWH1*%
X100150000Y-57250000D02*
X117850000Y-57250000D01*
X100150000Y-71750000D02*
X100150000Y-57250000D01*
X117850000Y-57250000D02*
X117850000Y-71750000D01*
X117850000Y-71750000D02*
X100150000Y-71750000D01*
%TO.C,SWT1*%
X60150000Y-57250000D02*
X77850000Y-57250000D01*
X60150000Y-71750000D02*
X60150000Y-57250000D01*
X77850000Y-57250000D02*
X77850000Y-71750000D01*
X77850000Y-71750000D02*
X60150000Y-71750000D01*
%TO.C,SWA1*%
X89650000Y-110250000D02*
X107350000Y-110250000D01*
X89650000Y-124750000D02*
X89650000Y-110250000D01*
X107350000Y-110250000D02*
X107350000Y-124750000D01*
X107350000Y-124750000D02*
X89650000Y-124750000D01*
%TO.C,SWL1*%
X180150000Y-57250000D02*
X197850000Y-57250000D01*
X180150000Y-71750000D02*
X180150000Y-57250000D01*
X197850000Y-57250000D02*
X197850000Y-71750000D01*
X197850000Y-71750000D02*
X180150000Y-71750000D01*
%TO.C,SWF1*%
X140150000Y-57250000D02*
X157850000Y-57250000D01*
X140150000Y-71750000D02*
X140150000Y-57250000D01*
X157850000Y-57250000D02*
X157850000Y-71750000D01*
X157850000Y-71750000D02*
X140150000Y-71750000D01*
%TO.C,SWG1*%
X180150000Y-77250000D02*
X197850000Y-77250000D01*
X180150000Y-91750000D02*
X180150000Y-77250000D01*
X197850000Y-77250000D02*
X197850000Y-91750000D01*
X197850000Y-91750000D02*
X180150000Y-91750000D01*
%TO.C,SWK1*%
X60150000Y-77250000D02*
X77850000Y-77250000D01*
X60150000Y-91750000D02*
X60150000Y-77250000D01*
X77850000Y-77250000D02*
X77850000Y-91750000D01*
X77850000Y-91750000D02*
X60150000Y-91750000D01*
%TO.C,SWD1*%
X220150000Y-57250000D02*
X237850000Y-57250000D01*
X220150000Y-71750000D02*
X220150000Y-57250000D01*
X237850000Y-57250000D02*
X237850000Y-71750000D01*
X237850000Y-71750000D02*
X220150000Y-71750000D01*
%TO.C,SWW1*%
X80150000Y-77250000D02*
X97850000Y-77250000D01*
X80150000Y-91750000D02*
X80150000Y-77250000D01*
X97850000Y-77250000D02*
X97850000Y-91750000D01*
X97850000Y-91750000D02*
X80150000Y-91750000D01*
%TO.C,SWR1*%
X100150000Y-77250000D02*
X117850000Y-77250000D01*
X100150000Y-91750000D02*
X100150000Y-77250000D01*
X117850000Y-77250000D02*
X117850000Y-91750000D01*
X117850000Y-91750000D02*
X100150000Y-91750000D01*
%TO.C,SWP1*%
X80150000Y-57250000D02*
X97850000Y-57250000D01*
X80150000Y-71750000D02*
X80150000Y-57250000D01*
X97850000Y-57250000D02*
X97850000Y-71750000D01*
X97850000Y-71750000D02*
X80150000Y-71750000D01*
%TO.C,SWS1*%
X40150000Y-67750000D02*
X57850000Y-67750000D01*
X40150000Y-82250000D02*
X40150000Y-67750000D01*
X57850000Y-67750000D02*
X57850000Y-82250000D01*
X57850000Y-82250000D02*
X40150000Y-82250000D01*
%TO.C,SWE1*%
X131150000Y-110250000D02*
X148850000Y-110250000D01*
X131150000Y-124750000D02*
X131150000Y-110250000D01*
X148850000Y-110250000D02*
X148850000Y-124750000D01*
X148850000Y-124750000D02*
X131150000Y-124750000D01*
%TO.C,SWS2*%
X217850000Y-91750000D02*
X200150000Y-91750000D01*
X217850000Y-77250000D02*
X217850000Y-91750000D01*
X200150000Y-91750000D02*
X200150000Y-77250000D01*
X200150000Y-77250000D02*
X217850000Y-77250000D01*
%TD*%
%LPC*%
D17*
%TO.C,D24*%
X69690000Y-40500000D03*
D18*
X77310000Y-40500000D03*
%TD*%
%TO.C,D23*%
X149190000Y-52000000D03*
D17*
X156810000Y-52000000D03*
%TD*%
D18*
%TO.C,D22*%
X95810000Y-97000000D03*
D17*
X88190000Y-97000000D03*
%TD*%
D18*
%TO.C,D21*%
X202000000Y-45310000D03*
D17*
X202000000Y-37690000D03*
%TD*%
D18*
%TO.C,D20*%
X210310000Y-96500000D03*
D17*
X202690000Y-96500000D03*
%TD*%
D18*
%TO.C,D19*%
X107810000Y-52500000D03*
D17*
X100190000Y-52500000D03*
%TD*%
D18*
%TO.C,D18*%
X156310000Y-97000000D03*
D17*
X148690000Y-97000000D03*
%TD*%
D18*
%TO.C,D17*%
X204190000Y-51000000D03*
D17*
X211810000Y-51000000D03*
%TD*%
D18*
%TO.C,D16*%
X66190000Y-97000000D03*
D17*
X73810000Y-97000000D03*
%TD*%
%TO.C,D15*%
X97190000Y-102000000D03*
D18*
X104810000Y-102000000D03*
%TD*%
%TO.C,D14*%
X120310000Y-98500000D03*
D17*
X112690000Y-98500000D03*
%TD*%
%TO.C,D13*%
X135810000Y-60500000D03*
D18*
X128190000Y-60500000D03*
%TD*%
%TO.C,D12*%
X158190000Y-105500000D03*
D17*
X165810000Y-105500000D03*
%TD*%
D18*
%TO.C,D11*%
X126690000Y-87000000D03*
D17*
X134310000Y-87000000D03*
%TD*%
D18*
%TO.C,D10*%
X128000000Y-106000000D03*
D17*
X120380000Y-106000000D03*
%TD*%
D18*
%TO.C,D9*%
X76500000Y-52810000D03*
D17*
X76500000Y-45190000D03*
%TD*%
D18*
%TO.C,D8*%
X167190000Y-97500000D03*
D17*
X174810000Y-97500000D03*
%TD*%
D18*
%TO.C,D7*%
X169690000Y-52000000D03*
D17*
X177310000Y-52000000D03*
%TD*%
D18*
%TO.C,D6*%
X183000000Y-97000000D03*
D17*
X190620000Y-97000000D03*
%TD*%
D18*
%TO.C,D5*%
X64190000Y-53500000D03*
D17*
X71810000Y-53500000D03*
%TD*%
D18*
%TO.C,D4*%
X144310000Y-103000000D03*
D17*
X136690000Y-103000000D03*
%TD*%
D18*
%TO.C,D3*%
X222190000Y-95000000D03*
D17*
X229810000Y-95000000D03*
%TD*%
D18*
%TO.C,D2*%
X221437500Y-52000000D03*
D17*
X229057500Y-52000000D03*
%TD*%
D18*
%TO.C,D1*%
X57310000Y-63000000D03*
D17*
X49690000Y-63000000D03*
%TD*%
D19*
%TO.C,SWZ1*%
X231500000Y-80000000D03*
X226500000Y-80500000D03*
%TD*%
%TO.C,SW#2*%
X191500000Y-40000000D03*
X186500000Y-40500000D03*
%TD*%
%TO.C,SW\u002A1*%
X131500000Y-70000000D03*
X126500000Y-70500000D03*
%TD*%
%TO.C,SWT2*%
X211500000Y-60000000D03*
X206500000Y-60500000D03*
%TD*%
%TO.C,SWR2*%
X151500000Y-80000000D03*
X146500000Y-80500000D03*
%TD*%
%TO.C,SWP2*%
X171500000Y-60000000D03*
X166500000Y-60500000D03*
%TD*%
%TO.C,SWO1*%
X120500000Y-113000000D03*
X115500000Y-113500000D03*
%TD*%
%TO.C,SW#1*%
X91500000Y-40000000D03*
X86500000Y-40500000D03*
%TD*%
%TO.C,SWU1*%
X162500000Y-113000000D03*
X157500000Y-113500000D03*
%TD*%
%TO.C,SWB1*%
X171500000Y-80000000D03*
X166500000Y-80500000D03*
%TD*%
D20*
%TO.C,U1*%
X120500000Y-36230000D03*
X120500000Y-38770000D03*
X120500000Y-41310000D03*
X120500000Y-43850000D03*
X120500000Y-46390000D03*
X120500000Y-48930000D03*
X120500000Y-51470000D03*
X137500000Y-51470000D03*
X137500000Y-48930000D03*
X137500000Y-46390000D03*
X137500000Y-43850000D03*
X137500000Y-41310000D03*
X137500000Y-38770000D03*
X137500000Y-36230000D03*
D21*
X127730000Y-35460000D03*
X130270000Y-35460000D03*
X127730000Y-38000000D03*
X130270000Y-38000000D03*
D22*
X127730000Y-52450000D03*
X130270000Y-52450000D03*
%TD*%
D19*
%TO.C,SWH1*%
X111500000Y-60000000D03*
X106500000Y-60500000D03*
%TD*%
%TO.C,SWT1*%
X71500000Y-60000000D03*
X66500000Y-60500000D03*
%TD*%
%TO.C,SWA1*%
X101000000Y-113000000D03*
X96000000Y-113500000D03*
%TD*%
%TO.C,SWL1*%
X191500000Y-60000000D03*
X186500000Y-60500000D03*
%TD*%
%TO.C,SWF1*%
X151500000Y-60000000D03*
X146500000Y-60500000D03*
%TD*%
%TO.C,SWG1*%
X191500000Y-80000000D03*
X186500000Y-80500000D03*
%TD*%
%TO.C,SWK1*%
X71500000Y-80000000D03*
X66500000Y-80500000D03*
%TD*%
%TO.C,SWD1*%
X231500000Y-60000000D03*
X226500000Y-60500000D03*
%TD*%
%TO.C,SWW1*%
X91500000Y-80000000D03*
X86500000Y-80500000D03*
%TD*%
%TO.C,SWR1*%
X111500000Y-80000000D03*
X106500000Y-80500000D03*
%TD*%
%TO.C,SWP1*%
X91500000Y-60000000D03*
X86500000Y-60500000D03*
%TD*%
%TO.C,SWS1*%
X51500000Y-70500000D03*
X46500000Y-71000000D03*
%TD*%
%TO.C,SWE1*%
X142500000Y-113000000D03*
X137500000Y-113500000D03*
%TD*%
%TO.C,SWS2*%
X206500000Y-80500000D03*
X211500000Y-80000000D03*
%TD*%
%LPD*%
M02*
