%TF.GenerationSoftware,KiCad,Pcbnew,8.0.5*%
%TF.CreationDate,2024-10-09T17:04:31-04:00*%
%TF.ProjectId,board,626f6172-642e-46b6-9963-61645f706362,1*%
%TF.SameCoordinates,Original*%
%TF.FileFunction,Legend,Bot*%
%TF.FilePolarity,Positive*%
%FSLAX46Y46*%
G04 Gerber Fmt 4.6, Leading zero omitted, Abs format (unit mm)*
G04 Created by KiCad (PCBNEW 8.0.5) date 2024-10-09 17:04:31*
%MOMM*%
%LPD*%
G01*
G04 APERTURE LIST*
%ADD10C,2.200000*%
G04 APERTURE END LIST*
%LPC*%
D10*
%TO.C,SWZ1*%
X231500000Y-80000000D03*
X226500000Y-80500000D03*
%TD*%
%TO.C,SW#2*%
X191500000Y-40000000D03*
X186500000Y-40500000D03*
%TD*%
%TO.C,SWE1*%
X142500000Y-113000000D03*
X137500000Y-113500000D03*
%TD*%
%TO.C,SW\u002A1*%
X131500000Y-70000000D03*
X126500000Y-70500000D03*
%TD*%
%TO.C,SWT2*%
X211500000Y-60000000D03*
X206500000Y-60500000D03*
%TD*%
%TO.C,SWR2*%
X151500000Y-80000000D03*
X146500000Y-80500000D03*
%TD*%
%TO.C,SWS2*%
X211500000Y-80000000D03*
X206500000Y-80500000D03*
%TD*%
%TO.C,SWP2*%
X171500000Y-60000000D03*
X166500000Y-60500000D03*
%TD*%
%TO.C,SWO1*%
X120500000Y-113000000D03*
X115500000Y-113500000D03*
%TD*%
%TO.C,SW#1*%
X91500000Y-40000000D03*
X86500000Y-40500000D03*
%TD*%
%TO.C,SWS1*%
X51500000Y-70500000D03*
X46500000Y-71000000D03*
%TD*%
%TO.C,SWU1*%
X162500000Y-113000000D03*
X157500000Y-113500000D03*
%TD*%
%TO.C,SWB1*%
X171500000Y-80000000D03*
X166500000Y-80500000D03*
%TD*%
%TO.C,SWH1*%
X111500000Y-60000000D03*
X106500000Y-60500000D03*
%TD*%
%TO.C,SWT1*%
X71500000Y-60000000D03*
X66500000Y-60500000D03*
%TD*%
%TO.C,SWA1*%
X101000000Y-113000000D03*
X96000000Y-113500000D03*
%TD*%
%TO.C,SWL1*%
X191500000Y-60000000D03*
X186500000Y-60500000D03*
%TD*%
%TO.C,SWF1*%
X151500000Y-60000000D03*
X146500000Y-60500000D03*
%TD*%
%TO.C,SWG1*%
X191500000Y-80000000D03*
X186500000Y-80500000D03*
%TD*%
%TO.C,SWK1*%
X71500000Y-80000000D03*
X66500000Y-80500000D03*
%TD*%
%TO.C,SWD1*%
X231500000Y-60000000D03*
X226500000Y-60500000D03*
%TD*%
%TO.C,SWW1*%
X91500000Y-80000000D03*
X86500000Y-80500000D03*
%TD*%
%TO.C,SWR1*%
X111500000Y-80000000D03*
X106500000Y-80500000D03*
%TD*%
%TO.C,SWP1*%
X91500000Y-60000000D03*
X86500000Y-60500000D03*
%TD*%
%LPD*%
M02*
