M48
; DRILL file {KiCad 8.0.6} date 2024-12-29T23:44:33-0500
; FORMAT={-:-/ absolute / inch / decimal}
; #@! TF.CreationDate,2024-12-29T23:44:33-05:00
; #@! TF.GenerationSoftware,Kicad,Pcbnew,8.0.6
; #@! TF.FileFunction,Plated,1,2,PTH
FMAT,2
INCH
; #@! TA.AperFunction,Plated,PTH,ViaDrill
T1C0.0118
; #@! TA.AperFunction,Plated,PTH,ComponentDrill
T2C0.0433
; #@! TA.AperFunction,Plated,PTH,ComponentDrill
T3C0.0472
%
G90
G05
T1
X4.1929Y-2.2441
X4.2717Y-3.3858
X4.4685Y-1.437
X4.4685Y-1.5748
X4.5472Y-1.8307
X4.5669Y-1.7323
X4.6063Y-1.7913
X4.6457Y-2.0472
X4.8622Y-1.8307
X4.9213Y-2.063
X5.1339Y-2.7047
X5.1378Y-2.185
X5.1575Y-2.9134
X5.1608Y-2.3601
X5.2559Y-1.7126
X5.2559Y-2.0276
X5.2756Y-1.9488
X5.2756Y-2.126
X5.315Y-1.8307
X5.3189Y-1.9028
X5.3346Y-2.3819
X5.748Y-1.9685
X5.8661Y-2.4016
X6.1417Y-3.8386
X6.5551Y-2.9331
T2
X1.9563Y-2.4803
X2.2563Y-2.4803
X2.4287Y-3.7795
X2.5272Y-2.1063
X2.7287Y-3.7795
X2.7437Y-1.5945
X2.8272Y-2.1063
X3.0118Y-1.7791
X3.0118Y-2.0791
X3.0437Y-1.5945
X3.3858Y-3.7795
X3.6858Y-3.7795
X3.8264Y-4.0157
X3.9445Y-2.0669
X4.1264Y-4.0157
X4.1413Y-3.8386
X4.2445Y-2.0669
X4.4413Y-3.8386
X4.7Y-3.4252
X4.7516Y-3.8386
X4.7713Y-2.3819
X5.0Y-3.4252
X5.0516Y-3.8386
X5.0713Y-2.3819
X5.2634Y-4.1339
X5.5634Y-4.1339
X5.5783Y-3.9567
X5.748Y-1.7988
X5.748Y-2.0988
X5.8783Y-3.9567
X5.9917Y-2.1063
X6.0114Y-3.8189
X6.0311Y-4.1339
X6.2917Y-2.1063
X6.3114Y-3.8189
X6.3311Y-4.1339
X6.4642Y-3.9567
X6.7642Y-3.9567
X6.9957Y-3.7992
X7.2957Y-3.7992
X7.4803Y-2.0866
X7.5197Y-1.5626
X7.5197Y-1.8626
X7.5787Y-3.7795
X7.7803Y-2.0866
X7.8787Y-3.7795
X8.0193Y-2.1063
X8.3193Y-2.1063
T3
X1.7559Y-2.874
X1.8386Y-2.6772
X2.6969Y-2.3661
X2.6969Y-3.0551
X2.8937Y-2.4488
X2.8937Y-3.1378
X3.4252Y-1.6575
X3.4252Y-2.3661
X3.4252Y-3.0512
X3.622Y-1.7402
X3.622Y-2.4488
X3.622Y-3.1339
X3.8583Y-4.4331
X4.0551Y-4.5157
X4.1535Y-2.3661
X4.1535Y-3.0551
X4.3504Y-2.4488
X4.3504Y-3.1378
X4.5866Y-4.4331
X4.6299Y-2.9331
X4.7126Y-2.7362
X4.7835Y-4.5157
X5.5709Y-2.3661
X5.5709Y-3.0551
X5.5906Y-4.4331
X5.7677Y-2.4488
X5.7677Y-3.1378
X5.7874Y-4.5157
X6.2992Y-2.3661
X6.2992Y-3.0551
X6.3189Y-4.4331
X6.4961Y-2.4488
X6.4961Y-3.1378
X6.5157Y-4.5157
X7.0276Y-1.6772
X7.0276Y-2.3661
X7.0276Y-3.0551
X7.2244Y-1.7598
X7.2244Y-2.4488
X7.2244Y-3.1378
X7.7559Y-2.3661
X7.7559Y-3.0551
X7.9528Y-2.4488
X7.9528Y-3.1378
X8.4843Y-2.3661
X8.4843Y-3.0551
X8.6811Y-2.4488
X8.6811Y-3.1378
M30
