M48
; DRILL file {KiCad 8.0.5} date 2024-10-09T17:04:31-0400
; FORMAT={-:-/ absolute / inch / decimal}
; #@! TF.CreationDate,2024-10-09T17:04:31-04:00
; #@! TF.GenerationSoftware,Kicad,Pcbnew,8.0.5
; #@! TF.FileFunction,Plated,1,2,PTH
FMAT,2
INCH
; #@! TA.AperFunction,Plated,PTH,ViaDrill
T1C0.0118
; #@! TA.AperFunction,Plated,PTH,ComponentDrill
T2C0.0591
%
G90
G05
T1
X2.4213Y-2.4606
X2.5394Y-2.3031
X2.9724Y-3.7402
X3.1102Y-2.2047
X3.2677Y-1.6142
X3.622Y-1.752
X3.7992Y-1.6535
X3.8189Y-1.5354
X3.8976Y-3.6417
X3.9567Y-4.2323
X4.1339Y-2.2047
X4.2717Y-4.2323
X4.5276Y-1.9882
X4.5472Y-2.9331
X4.626Y-3.7598
X4.685Y-2.9331
X4.8622Y-1.437
X4.8622Y-1.8701
X4.9606Y-2.0079
X4.9803Y-2.3425
X5.1378Y-1.9724
X5.1969Y-1.9252
X5.2559Y-1.8898
X5.2559Y-1.9882
X5.2854Y-1.7224
X5.4528Y-2.2638
X5.4724Y-2.7756
X5.5315Y-1.8701
X5.5315Y-2.0276
X5.5512Y-1.7913
X5.6693Y-2.3425
X5.689Y-2.5984
X6.2598Y-2.9331
X6.2598Y-3.2874
X6.3386Y-3.4252
X6.3976Y-2.126
X7.6969Y-3.8189
X7.8346Y-2.3228
X7.8543Y-2.1457
X8.0709Y-3.0118
X8.4252Y-3.0118
X9.0157Y-3.1693
T2
X1.8307Y-2.7953
X2.0276Y-2.7756
X2.6181Y-2.3819
X2.6181Y-3.1693
X2.815Y-2.3622
X2.815Y-3.1496
X3.4055Y-1.5945
X3.4055Y-2.3819
X3.4055Y-3.1693
X3.6024Y-1.5748
X3.6024Y-2.3622
X3.6024Y-3.1496
X3.7795Y-4.4685
X3.9764Y-4.4488
X4.1929Y-2.3819
X4.1929Y-3.1693
X4.3898Y-2.3622
X4.3898Y-3.1496
X4.5472Y-4.4685
X4.7441Y-4.4488
X4.9803Y-2.7756
X5.1772Y-2.7559
X5.4134Y-4.4685
X5.6102Y-4.4488
X5.7677Y-2.3819
X5.7677Y-3.1693
X5.9646Y-2.3622
X5.9646Y-3.1496
X6.2008Y-4.4685
X6.3976Y-4.4488
X6.5551Y-2.3819
X6.5551Y-3.1693
X6.752Y-2.3622
X6.752Y-3.1496
X7.3425Y-1.5945
X7.3425Y-2.3819
X7.3425Y-3.1693
X7.5394Y-1.5748
X7.5394Y-2.3622
X7.5394Y-3.1496
X8.1299Y-2.3819
X8.1299Y-3.1693
X8.3268Y-2.3622
X8.3268Y-3.1496
X8.9173Y-2.3819
X8.9173Y-3.1693
X9.1142Y-2.3622
X9.1142Y-3.1496
M30
